<svg width="814" height="1142" viewBox="0 0 814 1142" fill="none" xmlns="http://www.w3.org/2000/svg">
<path d="M201.245 93.5728H208.322C207.245 105.189 198.399 111.573 185.244 111.573C167.782 111.573 159.628 99.2653 159.628 82.8033C159.628 66.3412 167.782 54.0332 185.244 54.0332C198.476 54.0332 206.937 59.6487 208.014 71.2645H200.937C199.783 63.0334 193.014 60.0333 185.244 60.0333C173.244 60.0333 166.705 68.9567 166.705 82.8033C166.705 96.5729 173.244 105.573 185.244 105.573C193.014 105.573 200.091 102.035 201.245 93.5728ZM214.468 82.8033C214.468 65.6489 223.622 54.0332 240.545 54.0332C257.469 54.0332 266.7 65.6489 266.7 82.8033C266.7 99.9576 257.469 111.573 240.545 111.573C223.622 111.573 214.468 99.9576 214.468 82.8033ZM221.545 82.8033C221.545 95.9575 227.93 105.573 240.545 105.573C253.161 105.573 259.623 95.9575 259.623 82.8033C259.623 69.649 253.161 60.0333 240.545 60.0333C227.93 60.0333 221.545 69.649 221.545 82.8033ZM284.051 110.266H277.128V55.3409H286.359L298.821 90.1112C300.667 95.1883 301.667 98.3422 303.128 103.419H303.436C304.975 98.3422 305.898 95.1883 307.744 90.1112L320.206 55.3409H329.437V110.266H322.514V80.1109C322.514 74.7261 322.59 71.4183 322.821 66.0335H322.514C321.206 70.5721 320.437 72.8799 318.36 78.6493L306.975 110.266H299.59L288.205 78.6493C286.128 72.8799 285.359 70.5721 284.051 66.0335H283.743C283.974 71.4183 284.051 74.7261 284.051 80.1109V110.266ZM350.384 110.266H343.461V55.3409H352.692L365.154 90.1112C367 95.1883 368 98.3422 369.461 103.419H369.769C371.308 98.3422 372.231 95.1883 374.077 90.1112L386.539 55.3409H395.77V110.266H388.847V80.1109C388.847 74.7261 388.924 71.4183 389.154 66.0335H388.847C387.539 70.5721 386.77 72.8799 384.693 78.6493L373.308 110.266H365.923L354.538 78.6493C352.461 72.8799 351.692 70.5721 350.384 66.0335H350.076C350.307 71.4183 350.384 74.7261 350.384 80.1109V110.266ZM409.794 55.3409H416.871V110.266H409.794V55.3409ZM468.214 70.0337H461.137C460.367 63.495 455.598 59.7257 447.829 59.7257C439.598 59.7257 434.444 63.4181 434.444 69.2644C434.444 74.4953 439.059 76.8031 446.059 78.2647L452.059 79.4955C462.06 81.5725 469.368 84.2648 469.368 95.7267C469.368 105.496 459.752 111.573 447.982 111.573C434.597 111.573 426.905 105.265 426.597 93.9574H433.674C434.059 101.496 439.213 105.881 447.982 105.881C456.521 105.881 462.137 101.958 462.214 96.1114C462.291 89.4958 457.752 87.6496 449.444 85.9572L443.444 84.7264C433.674 82.7263 427.366 78.8801 427.366 69.8029C427.366 60.3411 436.521 54.0332 447.829 54.0332C458.675 54.0332 467.368 58.8025 468.214 70.0337ZM516.668 70.0337H509.591C508.821 63.495 504.052 59.7257 496.283 59.7257C488.052 59.7257 482.898 63.4181 482.898 69.2644C482.898 74.4953 487.513 76.8031 494.513 78.2647L500.513 79.4955C510.514 81.5725 517.822 84.2648 517.822 95.7267C517.822 105.496 508.206 111.573 496.436 111.573C483.051 111.573 475.359 105.265 475.051 93.9574H482.128C482.513 101.496 487.667 105.881 496.436 105.881C504.975 105.881 510.591 101.958 510.668 96.1114C510.745 89.4958 506.206 87.6496 497.898 85.9572L491.898 84.7264C482.128 82.7263 475.82 78.8801 475.82 69.8029C475.82 60.3411 484.975 54.0332 496.283 54.0332C507.129 54.0332 515.822 58.8025 516.668 70.0337ZM527.736 55.3409H534.813V110.266H527.736V55.3409ZM545.232 82.8033C545.232 65.6489 554.386 54.0332 571.309 54.0332C588.233 54.0332 597.464 65.6489 597.464 82.8033C597.464 99.9576 588.233 111.573 571.309 111.573C554.386 111.573 545.232 99.9576 545.232 82.8033ZM552.309 82.8033C552.309 95.9575 558.694 105.573 571.309 105.573C583.925 105.573 590.387 95.9575 590.387 82.8033C590.387 69.649 583.925 60.0333 571.309 60.0333C558.694 60.0333 552.309 69.649 552.309 82.8033ZM607.892 110.266V55.3409H616.738L633.277 82.7263C638.354 91.1112 641.431 96.6498 643.816 101.188H644.124C643.893 95.1113 643.739 89.1881 643.739 81.4955V55.3409H650.816V110.266H642.047L625.508 82.8802C620.431 74.4953 617.354 68.9567 614.892 64.4181H614.584C614.892 70.4952 614.969 76.4185 614.969 84.111V110.266H607.892Z" fill="white"/>
<path d="M808.587 84.2168L734.585 4.00544L112.431 4.00547" stroke="white" stroke-width="7.36716"/>
<path d="M5.39931 85.7988L80.8835 4.00043L703.038 4.00041" stroke="white" stroke-width="7.36716"/>
<path d="M808.58 79.2578L732.425 161.794L110.271 161.794" stroke="white" stroke-width="7.36716"/>
<path d="M6.88214 81.582L80.8835 161.793L703.038 161.793" stroke="white" stroke-width="7.36716"/>
<path d="M240.531 433.532H233.117C232.311 426.682 227.315 422.733 219.175 422.733C210.552 422.733 205.153 426.601 205.153 432.726C205.153 438.206 209.988 440.624 217.322 442.155L223.608 443.444C234.084 445.62 241.74 448.441 241.74 460.448C241.74 470.683 231.667 477.05 219.337 477.05C205.314 477.05 197.255 470.441 196.933 458.595H204.347C204.75 466.493 210.149 471.086 219.337 471.086C228.282 471.086 234.165 466.976 234.245 460.851C234.326 453.921 229.571 451.987 220.868 450.214L214.582 448.924C204.347 446.829 197.739 442.8 197.739 433.29C197.739 423.378 207.329 416.769 219.175 416.769C230.538 416.769 239.645 421.766 240.531 433.532ZM253.738 432.565V423.378H260.83V432.565H269.211V438.125H260.83V466.009C260.83 468.83 261.636 470.119 264.215 470.119H268.808V475.68H262.2C256.156 475.68 253.738 472.779 253.738 466.009V438.125H246.808V432.565H253.738ZM315.237 456.5H281.713C282.438 465.526 287.032 471.247 295.493 471.247C301.376 471.247 306.212 468.266 307.582 462.624H314.432C313.142 471.811 305.245 476.647 295.493 476.647C282.116 476.647 274.782 467.943 274.782 454.082C274.782 440.221 282.438 431.598 295.01 431.598C308.387 431.598 315.237 440.382 315.237 455.774V456.5ZM281.793 451.1H308.226C307.42 442.638 302.907 436.997 295.01 436.997C287.112 436.997 282.599 442.638 281.793 451.1ZM362.772 456.5H329.247C329.973 465.526 334.566 471.247 343.028 471.247C348.911 471.247 353.746 468.266 355.116 462.624H361.966C360.677 471.811 352.779 476.647 343.028 476.647C329.65 476.647 322.317 467.943 322.317 454.082C322.317 440.221 329.973 431.598 342.544 431.598C355.922 431.598 362.772 440.382 362.772 455.774V456.5ZM329.328 451.1H355.761C354.955 442.638 350.442 436.997 342.544 436.997C334.647 436.997 330.134 442.638 329.328 451.1ZM372.027 475.68V418.139H379.119V475.68H372.027ZM411.336 418.139H433.74C445.586 418.139 452.759 422.814 452.759 433.129C452.759 440.382 447.923 444.331 444.297 445.62V445.943C449.132 446.748 454.773 451.02 454.773 459.643C454.773 470.28 446.714 475.68 435.271 475.68H411.336V418.139ZM418.75 443.041H434.868C440.912 443.041 445.344 439.657 445.344 433.693C445.344 427.81 440.912 424.425 434.868 424.425H418.75V443.041ZM447.359 459.32C447.359 453.034 443.007 449.327 436.077 449.327H418.75V469.394H436.077C443.007 469.394 447.359 465.606 447.359 459.32ZM464.661 439.173L464.499 432.565H471.591L471.752 439.334H471.994C472.961 435.869 476.91 431.759 483.679 431.759H485.614V438.045H482.229C475.459 438.045 471.752 443.203 471.752 451.342V475.68H464.661V439.173ZM529.065 456.5H495.54C496.265 465.526 500.859 471.247 509.32 471.247C515.203 471.247 520.039 468.266 521.409 462.624H528.259C526.969 471.811 519.072 476.647 509.32 476.647C495.943 476.647 488.609 467.943 488.609 454.082C488.609 440.221 496.265 431.598 508.837 431.598C522.215 431.598 529.065 440.382 529.065 455.774V456.5ZM495.62 451.1H522.053C521.247 442.638 516.735 436.997 508.837 436.997C500.939 436.997 496.426 442.638 495.62 451.1ZM555.324 437.158C549.28 437.158 545.17 439.495 544.606 444.411H537.514C537.917 435.627 544.767 431.598 555.324 431.598C567.573 431.598 573.053 436.917 573.053 445.943V465.526C573.053 470.119 573.053 471.167 573.456 475.68H566.364C566.042 472.295 565.962 471.086 565.962 468.507H565.72C563.544 472.456 558.547 476.647 550.166 476.647C541.704 476.647 535.902 471.811 535.902 463.35C535.902 454.404 542.51 450.617 551.536 449.488L565.962 447.635V445.943C565.962 439.737 562.093 437.158 555.324 437.158ZM542.994 463.35C542.994 468.185 546.379 471.086 551.939 471.086C557.741 471.086 566.203 466.654 566.203 455.694V453.034L552.745 454.807C546.379 455.613 542.994 458.434 542.994 463.35ZM584.516 418.139H591.608V451.745L611.03 432.565H619.572L598.781 452.793L619.975 475.68H611.03L591.608 454.243V475.68H584.516V418.139ZM214.724 515.58C214.724 522.591 210.131 527.91 205.134 529.441V529.763C210.292 530.65 213.515 535.082 214.402 541.932L216.255 556.68H208.519L206.746 541.932C205.779 534.357 201.588 532.906 193.449 532.906H179.346V556.68H172.012V499.139H195.625C208.358 499.139 214.724 506.231 214.724 515.58ZM207.391 515.982C207.391 509.374 203.039 505.425 194.98 505.425H179.346V526.62H194.819C202.878 526.62 207.391 522.591 207.391 515.982ZM243.55 557.647C230.494 557.647 222.919 548.863 222.919 535.082C222.919 521.301 230.494 512.598 243.55 512.598C256.605 512.598 264.18 521.301 264.18 535.082C264.18 548.863 256.605 557.647 243.55 557.647ZM243.55 552.086C252.576 552.086 257.088 544.994 257.088 535.082C257.088 525.17 252.576 518.158 243.55 518.158C234.604 518.158 230.011 525.17 230.011 535.082C230.011 544.994 234.604 552.086 243.55 552.086ZM291.871 557.647C278.816 557.647 271.241 548.863 271.241 535.082C271.241 521.301 278.816 512.598 291.871 512.598C304.927 512.598 312.502 521.301 312.502 535.082C312.502 548.863 304.927 557.647 291.871 557.647ZM291.871 552.086C300.897 552.086 305.41 544.994 305.41 535.082C305.41 525.17 300.897 518.158 291.871 518.158C282.926 518.158 278.332 525.17 278.332 535.082C278.332 544.994 282.926 552.086 291.871 552.086ZM375.41 556.68V528.393C375.41 520.576 370.575 518.158 366.142 518.158C361.629 518.158 355.746 521.221 355.746 530.65V556.68H348.655V528.393C348.655 520.576 343.819 518.158 339.387 518.158C334.874 518.158 328.991 521.221 328.991 530.65V556.68H321.899V520.173L321.738 513.565H328.83L328.991 519.448H329.233C330.845 515.418 336.486 512.598 341.643 512.598C348.493 512.598 352.765 515.982 354.457 520.254H354.618C356.472 515.499 362.032 512.598 368.399 512.598C376.297 512.598 382.502 517.111 382.502 526.943V556.68H375.41ZM426.497 556.68V505.425H408.043V499.139H452.366V505.425H433.912V556.68H426.497ZM468.912 518.158C462.867 518.158 458.757 520.495 458.193 525.411H451.102C451.504 516.627 458.354 512.598 468.912 512.598C481.161 512.598 486.641 517.917 486.641 526.943V546.526C486.641 551.119 486.641 552.167 487.044 556.68H479.952C479.63 553.295 479.549 552.086 479.549 549.507H479.307C477.132 553.456 472.135 557.647 463.754 557.647C455.292 557.647 449.49 552.811 449.49 544.35C449.49 535.404 456.098 531.617 465.124 530.488L479.549 528.635V526.943C479.549 520.737 475.681 518.158 468.912 518.158ZM456.582 544.35C456.582 549.185 459.966 552.086 465.527 552.086C471.329 552.086 479.791 547.654 479.791 536.694V534.034L466.333 535.807C459.966 536.613 456.582 539.434 456.582 544.35ZM538.721 535.082C538.721 549.346 530.098 557.647 518.654 557.647C511.885 557.647 507.13 554.02 505.518 550.233H505.438L505.196 556.68H498.104L498.346 546.203V499.139H505.438V519.287H505.518C507.614 516.063 512.852 512.598 519.218 512.598C529.775 512.598 538.721 520.012 538.721 535.082ZM504.712 535.082C504.712 544.994 509.628 552.086 518.09 552.086C526.552 552.086 531.629 544.994 531.629 535.082C531.629 525.17 526.552 518.158 518.09 518.158C509.628 518.158 504.712 525.17 504.712 535.082ZM547.921 556.68V499.139H555.013V556.68H547.921ZM604.774 537.5H571.249C571.974 546.526 576.568 552.247 585.03 552.247C590.912 552.247 595.748 549.266 597.118 543.624H603.968C602.678 552.811 594.781 557.647 585.03 557.647C571.652 557.647 564.318 548.943 564.318 535.082C564.318 521.221 571.974 512.598 584.546 512.598C597.924 512.598 604.774 521.382 604.774 536.774V537.5ZM571.329 532.1H597.762C596.957 523.638 592.444 517.997 584.546 517.997C576.648 517.997 572.135 523.638 571.329 532.1ZM628.535 517.836C623.216 517.836 618.783 519.931 618.783 524.364C618.783 528.393 621.523 529.924 627.568 531.214L631.516 532.02C640.623 533.873 646.345 535.968 646.345 544.672C646.345 551.844 639.736 557.647 628.938 557.647C617.413 557.647 611.531 552.892 611.128 543.705H618.219C618.622 549.346 622.088 552.408 628.938 552.408C635.385 552.408 639.495 549.668 639.495 545.236C639.495 541.046 636.594 539.514 630.227 538.144L626.278 537.419C617.091 535.566 611.933 532.987 611.933 525.008C611.933 517.917 619.025 512.598 628.535 512.598C638.044 512.598 645.217 516.788 645.539 525.411H638.447C638.125 520.576 634.176 517.836 628.535 517.836ZM301.041 713.764C309.261 713.764 314.177 710.863 316.756 707.961V694.906H298.623V688.62H323.928V710.46C319.415 715.537 311.356 720.05 300.96 720.05C282.506 720.05 273.722 707.156 273.722 689.91C273.722 672.664 281.539 659.769 299.913 659.769C314.096 659.769 322.478 665.652 323.606 677.821H316.192C314.983 669.198 308.052 666.055 299.913 666.055C287.422 666.055 281.136 675.404 281.136 689.91C281.136 704.416 288.147 713.764 301.041 713.764ZM334.216 682.173L334.055 675.565H341.146L341.308 682.334H341.549C342.516 678.869 346.465 674.759 353.235 674.759H355.169V681.045H351.784C345.015 681.045 341.308 686.203 341.308 694.342V718.68H334.216V682.173ZM362.465 669.118V661.139H370.202V669.118H362.465ZM362.788 718.68V675.565H369.879V718.68H362.788ZM384.891 675.565V666.378H391.983V675.565H400.364V681.125H391.983V709.009C391.983 711.83 392.789 713.119 395.368 713.119H399.962V718.68H393.353C387.309 718.68 384.891 715.779 384.891 709.009V681.125H377.961V675.565H384.891ZM429.87 661.22H437.284V685.8H467.182V661.22H474.597V718.68H467.182V692.085H437.284V718.68H429.87V661.22ZM485.502 689.91C485.502 671.938 494.609 659.769 512.338 659.769C529.987 659.769 539.013 671.938 539.013 689.91C539.013 702.32 533.694 711.427 528.94 714.086L529.181 714.489C531.599 713.441 533.936 712.636 536.515 712.636H543.204V718.68H534.097C524.427 718.68 521.525 720.05 512.338 720.05C494.609 720.05 485.502 707.881 485.502 689.91ZM492.917 689.91C492.917 703.61 499.122 713.764 512.338 713.764C525.555 713.764 531.599 703.61 531.599 689.91C531.599 676.129 525.555 666.055 512.338 666.055C499.122 666.055 492.917 676.129 492.917 689.91Z" fill="white"/>
<path d="M809.986 648.725L809.986 268.152L735.851 187.795L112.569 187.795" stroke="white" stroke-width="7.32623"/>
<path d="M4.09281 645.368L4.0928 268.151L78.2281 187.794L701.51 187.794" stroke="white" stroke-width="7.32623"/>
<path d="M4 503.437L4.00004 873.207L78.1354 953.564L701.417 953.564" stroke="white" stroke-width="7.32623"/>
<path d="M809.889 482.018L809.889 873.209L735.753 953.565L112.472 953.565" stroke="white" stroke-width="7.32623"/>
<path d="M128.125 1081.14C135.971 1081.14 140.663 1078.37 143.125 1075.6V1063.14H125.817V1057.14H149.971V1077.98C145.664 1082.83 137.971 1087.14 128.048 1087.14C110.432 1087.14 102.047 1074.83 102.047 1058.37C102.047 1041.91 109.509 1029.6 127.048 1029.6C140.587 1029.6 148.587 1035.21 149.664 1046.83H142.587C141.433 1038.6 134.817 1035.6 127.048 1035.6C115.124 1035.6 109.124 1044.52 109.124 1058.37C109.124 1072.21 115.817 1081.14 128.125 1081.14ZM161.176 1085.83V1030.91H196.177V1036.91H168.253V1054.6H194.639V1060.6H168.253V1079.83H196.177V1085.83H161.176ZM202.11 1058.37C202.11 1041.21 211.264 1029.6 228.188 1029.6C245.111 1029.6 254.342 1041.21 254.342 1058.37C254.342 1075.52 245.111 1087.14 228.188 1087.14C211.264 1087.14 202.11 1075.52 202.11 1058.37ZM209.187 1058.37C209.187 1071.52 215.572 1081.14 228.188 1081.14C240.803 1081.14 247.265 1071.52 247.265 1058.37C247.265 1045.21 240.803 1035.6 228.188 1035.6C215.572 1035.6 209.187 1045.21 209.187 1058.37ZM305.617 1046.6C305.617 1053.29 301.233 1058.37 296.463 1059.83V1060.14C301.386 1060.98 304.463 1065.21 305.31 1071.75L307.079 1085.83H299.694L298.002 1071.75C297.079 1064.52 293.078 1063.14 285.309 1063.14H271.847V1085.83H264.847V1030.91H287.386C299.54 1030.91 305.617 1037.67 305.617 1046.6ZM298.617 1046.98C298.617 1040.67 294.463 1036.91 286.771 1036.91H271.847V1057.14H286.617C294.309 1057.14 298.617 1053.29 298.617 1046.98ZM340.345 1081.14C348.192 1081.14 352.884 1078.37 355.346 1075.6V1063.14H338.038V1057.14H362.192V1077.98C357.884 1082.83 350.192 1087.14 340.269 1087.14C322.653 1087.14 314.268 1074.83 314.268 1058.37C314.268 1041.91 321.73 1029.6 339.269 1029.6C352.807 1029.6 360.808 1035.21 361.885 1046.83H354.807C353.654 1038.6 347.038 1035.6 339.269 1035.6C327.345 1035.6 321.345 1044.52 321.345 1058.37C321.345 1072.21 328.037 1081.14 340.345 1081.14ZM373.397 1085.83V1030.91H408.398V1036.91H380.474V1054.6H406.86V1060.6H380.474V1079.83H408.398V1085.83H373.397ZM455.881 1085.83V1030.91H473.805C489.113 1030.91 500.267 1039.83 500.267 1058.37C500.267 1076.91 489.113 1085.83 473.805 1085.83H455.881ZM473.036 1036.91H462.959V1079.83H473.036C485.344 1079.83 493.19 1072.52 493.19 1058.37C493.19 1044.21 485.344 1036.91 473.036 1036.91ZM502.828 1085.83L523.598 1030.98H531.983L552.753 1085.83H545.291L540.291 1072.45H515.29L510.29 1085.83H502.828ZM517.521 1066.44H538.06L532.214 1050.83C530.675 1046.75 529.214 1042.37 527.983 1038.29H527.675C526.444 1042.37 524.906 1046.75 523.367 1050.83L517.521 1066.44ZM570.542 1085.83L550.542 1030.91H558.003L569.311 1062.6C571.081 1067.68 573.235 1073.75 574.619 1078.45H574.927C576.312 1073.75 578.389 1067.68 580.158 1062.6L591.543 1030.91H598.928L578.927 1085.83H570.542ZM606.877 1030.91H613.955V1085.83H606.877V1030.91ZM627.912 1085.83V1030.91H662.913V1036.91H634.989V1054.6H661.374V1060.6H634.989V1079.83H662.913V1085.83H627.912ZM711.272 1045.6H704.195C703.426 1039.06 698.657 1035.29 690.887 1035.29C682.656 1035.29 677.502 1038.98 677.502 1044.83C677.502 1050.06 682.118 1052.37 689.118 1053.83L695.118 1055.06C705.118 1057.14 712.426 1059.83 712.426 1071.29C712.426 1081.06 702.811 1087.14 691.041 1087.14C677.656 1087.14 669.964 1080.83 669.656 1069.52H676.733C677.118 1077.06 682.272 1081.45 691.041 1081.45C699.58 1081.45 705.195 1077.52 705.272 1071.68C705.349 1065.06 700.811 1063.21 692.503 1061.52L686.503 1060.29C676.733 1058.29 670.425 1054.44 670.425 1045.37C670.425 1035.91 679.579 1029.6 690.887 1029.6C701.734 1029.6 710.426 1034.37 711.272 1045.6Z" fill="white"/>
<path d="M808.587 1059.78L734.585 979.57L112.431 979.57" stroke="white" stroke-width="7.36716"/>
<path d="M5.39931 1061.36L80.8835 979.565L703.038 979.565" stroke="white" stroke-width="7.36716"/>
<path d="M808.58 1054.82L732.425 1137.36L110.271 1137.36" stroke="white" stroke-width="7.36716"/>
<path d="M6.88214 1057.15L80.8835 1137.36L703.038 1137.36" stroke="white" stroke-width="7.36716"/>
</svg>
