<svg width="814" height="1326" viewBox="0 0 814 1326" fill="none" xmlns="http://www.w3.org/2000/svg">
<path d="M303.633 105.97C311.479 105.97 316.172 103.2 318.633 100.431V87.9691H301.325V81.9689H325.48V102.816C321.172 107.662 313.479 111.97 303.556 111.97C285.94 111.97 277.555 99.6618 277.555 83.1997C277.555 66.7377 285.017 54.4297 302.556 54.4297C316.095 54.4297 324.095 60.0452 325.172 71.6609H318.095C316.941 63.4299 310.325 60.4298 302.556 60.4298C290.632 60.4298 284.632 69.3532 284.632 83.1997C284.632 97.0463 291.325 105.97 303.633 105.97ZM336.684 110.662V55.7374H354.608C369.916 55.7374 381.07 64.6607 381.07 83.1997C381.07 101.739 369.916 110.662 354.608 110.662H336.684ZM353.839 61.7376H343.761V104.662H353.839C366.147 104.662 373.993 97.354 373.993 83.1997C373.993 69.0455 366.147 61.7376 353.839 61.7376ZM389.064 92.8154V87.2768H411.065V92.8154H389.064ZM422.775 55.7374H429.852V104.662H456.083V110.662H422.775V55.7374ZM499.616 93.9693H506.693C505.616 105.585 496.77 111.97 483.615 111.97C466.153 111.97 457.999 99.6618 457.999 83.1997C457.999 66.7377 466.153 54.4297 483.615 54.4297C496.847 54.4297 505.308 60.0452 506.385 71.6609H499.308C498.154 63.4299 491.385 60.4298 483.615 60.4298C471.615 60.4298 465.076 69.3532 465.076 83.1997C465.076 96.9694 471.615 105.97 483.615 105.97C491.385 105.97 498.462 102.431 499.616 93.9693ZM527.224 55.7374H532.224V110.662H525.454V70.8148H512.223V65.8146C521.993 65.0454 524.993 63.6607 527.224 55.7374Z" fill="white"/>
<path d="M808.271 84.613L734.27 4.40168L112.115 4.40171" stroke="white" stroke-width="7.36716"/>
<path d="M5.0837 86.1951L80.5678 4.39667L702.722 4.39665" stroke="white" stroke-width="7.36716"/>
<path d="M808.264 79.6551L732.109 162.191L109.955 162.191" stroke="white" stroke-width="7.36716"/>
<path d="M6.56653 81.9787L80.5679 162.19L702.722 162.19" stroke="white" stroke-width="7.36716"/>
<path d="M151.862 298.626H174.266C186.112 298.626 193.285 303.3 193.285 313.615C193.285 320.868 188.449 324.817 184.823 326.106V326.429C189.658 327.235 195.299 331.506 195.299 340.129C195.299 350.766 187.241 356.166 175.797 356.166H151.862V298.626ZM159.276 323.527H175.394C181.438 323.527 185.871 320.143 185.871 314.179C185.871 308.296 181.438 304.911 175.394 304.911H159.276V323.527ZM187.885 339.806C187.885 333.52 183.534 329.813 176.603 329.813H159.276V349.88H176.603C183.534 349.88 187.885 346.092 187.885 339.806ZM205.187 319.659L205.025 313.051H212.117L212.278 319.82H212.52C213.487 316.355 217.436 312.245 224.206 312.245H226.14V318.531H222.755C215.986 318.531 212.278 323.689 212.278 331.828V356.166H205.187V319.659ZM248.551 317.644C242.507 317.644 238.397 319.982 237.833 324.897H230.741C231.144 316.113 237.994 312.084 248.551 312.084C260.801 312.084 266.281 317.403 266.281 326.429V346.012C266.281 350.605 266.281 351.653 266.684 356.166H259.592C259.27 352.781 259.189 351.572 259.189 348.993H258.947C256.771 352.942 251.775 357.133 243.394 357.133C234.932 357.133 229.13 352.298 229.13 343.836C229.13 334.89 235.738 331.103 244.764 329.975L259.189 328.121V326.429C259.189 320.223 255.321 317.644 248.551 317.644ZM236.221 343.836C236.221 348.671 239.606 351.572 245.167 351.572C250.969 351.572 259.431 347.14 259.431 336.18V333.52L245.973 335.293C239.606 336.099 236.221 338.92 236.221 343.836ZM277.744 298.626H284.836V332.231L304.258 313.051H312.8L292.008 333.279L313.203 356.166H304.258L284.836 334.729V356.166H277.744V298.626ZM354.822 336.986H321.298C322.023 346.012 326.617 351.733 335.078 351.733C340.961 351.733 345.797 348.752 347.167 343.11H354.017C352.727 352.298 344.83 357.133 335.078 357.133C321.701 357.133 314.367 348.429 314.367 334.568C314.367 320.707 322.023 312.084 334.595 312.084C347.972 312.084 354.822 320.868 354.822 336.26V336.986ZM321.378 331.586H347.811C347.005 323.124 342.492 317.483 334.595 317.483C326.697 317.483 322.184 323.124 321.378 331.586ZM384.813 298.626H421.159V304.911H392.228V324.253H419.547V330.539H392.228V356.166H384.813V298.626ZM447.145 357.133C434.089 357.133 426.514 348.349 426.514 334.568C426.514 320.787 434.089 312.084 447.145 312.084C460.2 312.084 467.775 320.787 467.775 334.568C467.775 348.349 460.2 357.133 447.145 357.133ZM447.145 351.572C456.171 351.572 460.684 344.48 460.684 334.568C460.684 324.656 456.171 317.644 447.145 317.644C438.199 317.644 433.606 324.656 433.606 334.568C433.606 344.48 438.199 351.572 447.145 351.572ZM477.173 319.659L477.012 313.051H484.103L484.265 319.82H484.506C485.473 316.355 489.422 312.245 496.192 312.245H498.126V318.531H494.741C487.972 318.531 484.265 323.689 484.265 331.828V356.166H477.173V319.659ZM559.094 356.166V327.879C559.094 320.062 554.259 317.644 549.827 317.644C545.314 317.644 539.431 320.707 539.431 330.136V356.166H532.339V327.879C532.339 320.062 527.504 317.644 523.071 317.644C518.558 317.644 512.675 320.707 512.675 330.136V356.166H505.583V319.659L505.422 313.051H512.514L512.675 318.934H512.917C514.529 314.904 520.17 312.084 525.328 312.084C532.178 312.084 536.449 315.469 538.141 319.74H538.302C540.156 314.985 545.717 312.084 552.083 312.084C559.981 312.084 566.186 316.597 566.186 326.429V356.166H559.094ZM615.476 336.986H581.951C582.676 346.012 587.27 351.733 595.732 351.733C601.615 351.733 606.45 348.752 607.82 343.11H614.67C613.381 352.298 605.483 357.133 595.732 357.133C582.354 357.133 575.02 348.429 575.02 334.568C575.02 320.707 582.676 312.084 595.248 312.084C608.626 312.084 615.476 320.868 615.476 336.26V336.986ZM582.032 331.586H608.465C607.659 323.124 603.146 317.483 595.248 317.483C587.351 317.483 582.838 323.124 582.032 331.586ZM622.555 334.568C622.555 319.498 631.5 312.084 641.977 312.084C648.424 312.084 653.582 315.549 655.758 318.773H655.838V298.626H662.93V345.689L663.172 356.166H656.08L655.838 349.719H655.758C654.065 353.587 648.746 357.133 641.816 357.133C630.211 357.133 622.555 348.832 622.555 334.568ZM656.563 334.568C656.563 324.656 651.567 317.644 643.186 317.644C634.724 317.644 629.647 324.656 629.647 334.568C629.647 344.48 634.724 351.572 643.186 351.572C651.567 351.572 656.563 344.48 656.563 334.568ZM163.274 379.626H170.688V430.88H198.169V437.166H163.274V379.626ZM222.457 438.133C209.402 438.133 201.827 429.349 201.827 415.568C201.827 401.787 209.402 393.084 222.457 393.084C235.513 393.084 243.088 401.787 243.088 415.568C243.088 429.349 235.513 438.133 222.457 438.133ZM222.457 432.572C231.483 432.572 235.996 425.48 235.996 415.568C235.996 405.656 231.483 398.644 222.457 398.644C213.512 398.644 208.918 405.656 208.918 415.568C208.918 425.48 213.512 432.572 222.457 432.572ZM288.105 430.558L288.266 437.166H281.175L281.014 430.396H280.772C279.16 434.023 274.325 438.133 266.991 438.133C257.562 438.133 251.921 432.25 251.921 422.579V394.051H259.013V421.693C259.013 428.382 262.156 432.572 268.764 432.572C276.178 432.572 281.014 426.931 281.014 418.953V394.051H288.105V430.558ZM299.784 400.659L299.623 394.051H306.714L306.876 400.82H307.117C308.729 397.113 313.645 393.084 320.978 393.084C330.488 393.084 336.451 399.047 336.451 408.718V437.166H329.36V409.524C329.36 402.835 325.814 398.644 319.206 398.644C311.711 398.644 306.876 404.286 306.876 412.264V437.166H299.784V400.659ZM345.457 414.923C345.457 400.74 354.886 393.084 364.879 393.084C371.971 393.084 376.726 396.549 378.66 400.176H378.74L378.982 394.051H386.154L385.913 404.527V433.781C385.913 446.272 376.242 452.558 364.96 452.558C354.644 452.558 349.003 449.012 347.633 440.47H354.725C355.773 445.225 359.318 447.32 365.363 447.32C372.938 447.32 378.74 442.404 378.74 433.781V429.188H378.66C376.645 433.217 371.165 436.763 364.718 436.763C352.871 436.763 345.457 429.107 345.457 414.923ZM379.546 414.923C379.546 405.011 374.227 398.644 366.088 398.644C357.868 398.644 352.549 405.011 352.549 414.923C352.549 424.836 357.868 431.202 366.088 431.202C374.227 431.202 379.546 424.836 379.546 414.923ZM435.805 417.986H402.28C403.005 427.012 407.599 432.733 416.06 432.733C421.943 432.733 426.779 429.752 428.149 424.11H434.999C433.709 433.298 425.812 438.133 416.06 438.133C402.683 438.133 395.349 429.429 395.349 415.568C395.349 401.707 403.005 393.084 415.577 393.084C428.954 393.084 435.805 401.868 435.805 417.26V417.986ZM402.36 412.586H428.793C427.987 404.124 423.474 398.483 415.577 398.483C407.679 398.483 403.166 404.124 402.36 412.586ZM505.687 419.678H513.101C511.973 431.847 502.705 438.536 488.924 438.536C470.631 438.536 462.088 425.642 462.088 408.396C462.088 391.15 470.631 378.256 488.924 378.256C502.785 378.256 511.65 384.139 512.778 396.307H505.364C504.156 387.684 497.064 384.541 488.924 384.541C476.352 384.541 469.502 393.89 469.502 408.396C469.502 422.821 476.352 432.25 488.924 432.25C497.064 432.25 504.478 428.543 505.687 419.678ZM521.634 379.626H528.726V400.82H528.968C530.58 397.113 535.415 393.084 542.829 393.084C552.258 393.084 558.302 399.047 558.302 408.718V437.166H551.21V409.524C551.21 402.835 547.664 398.644 541.056 398.644C533.562 398.644 528.726 404.286 528.726 412.264V437.166H521.634V379.626ZM586.331 398.644C580.286 398.644 576.176 400.982 575.612 405.897H568.521C568.923 397.113 575.774 393.084 586.331 393.084C598.58 393.084 604.06 398.403 604.06 407.429V427.012C604.06 431.605 604.06 432.653 604.463 437.166H597.371C597.049 433.781 596.968 432.572 596.968 429.993H596.727C594.551 433.942 589.554 438.133 581.173 438.133C572.711 438.133 566.909 433.298 566.909 424.836C566.909 415.89 573.517 412.103 582.543 410.975L596.968 409.121V407.429C596.968 401.223 593.1 398.644 586.331 398.644ZM574.001 424.836C574.001 429.671 577.385 432.572 582.946 432.572C588.748 432.572 597.21 428.14 597.21 417.18V414.52L583.752 416.293C577.385 417.099 574.001 419.92 574.001 424.836ZM615.523 387.604V379.626H623.26V387.604H615.523ZM615.845 437.166V394.051H622.937V437.166H615.845ZM634.887 400.659L634.726 394.051H641.818L641.979 400.82H642.221C643.188 397.355 647.137 393.245 653.906 393.245H655.84V399.531H652.455C645.686 399.531 641.979 404.689 641.979 412.828V437.166H634.887V400.659Z" fill="white"/>
<path d="M224.275 600.576L245.065 545.675H253.458L274.248 600.576H266.779L261.774 587.178H236.749L231.744 600.576H224.275ZM238.982 581.172H259.541L253.689 565.541C252.149 561.46 250.686 557.071 249.454 552.99H249.146C247.914 557.071 246.374 561.46 244.834 565.541L238.982 581.172ZM280.959 600.576V545.598H287.735V600.576H280.959ZM333.663 594.262L333.817 600.576H327.041L326.887 594.108H326.656C325.116 597.573 320.496 601.5 313.489 601.5C304.48 601.5 299.09 595.879 299.09 586.639V559.381H305.866V585.792C305.866 592.183 308.869 596.187 315.183 596.187C322.267 596.187 326.887 590.797 326.887 583.174V559.381H333.663V594.262ZM396.719 600.576V573.549C396.719 566.08 392.099 563.77 387.864 563.77C383.552 563.77 377.931 566.696 377.931 575.705V600.576H371.155V573.549C371.155 566.08 366.535 563.77 362.3 563.77C357.988 563.77 352.367 566.696 352.367 575.705V600.576H345.591V565.695L345.437 559.381H352.213L352.367 565.002H352.598C354.138 561.152 359.528 558.457 364.456 558.457C371.001 558.457 375.082 561.691 376.699 565.772H376.853C378.624 561.229 383.937 558.457 390.02 558.457C397.566 558.457 403.495 562.769 403.495 572.163V600.576H396.719ZM414.785 553.221V545.598H422.177V553.221H414.785ZM415.093 600.576V559.381H421.869V600.576H415.093ZM434.057 565.695L433.903 559.381H440.679L440.833 565.849H441.064C442.604 562.307 447.301 558.457 454.308 558.457C463.394 558.457 469.092 564.155 469.092 573.395V600.576H462.316V574.165C462.316 567.774 458.928 563.77 452.614 563.77C445.453 563.77 440.833 569.16 440.833 576.783V600.576H434.057V565.695ZM514.58 594.262L514.734 600.576H507.958L507.804 594.108H507.573C506.033 597.573 501.413 601.5 494.406 601.5C485.397 601.5 480.007 595.879 480.007 586.639V559.381H486.783V585.792C486.783 592.183 489.786 596.187 496.1 596.187C503.184 596.187 507.804 590.797 507.804 583.174V559.381H514.58V594.262ZM577.636 600.576V573.549C577.636 566.08 573.016 563.77 568.781 563.77C564.469 563.77 558.848 566.696 558.848 575.705V600.576H552.072V573.549C552.072 566.08 547.452 563.77 543.217 563.77C538.905 563.77 533.284 566.696 533.284 575.705V600.576H526.508V565.695L526.354 559.381H533.13L533.284 565.002H533.515C535.055 561.152 540.445 558.457 545.373 558.457C551.918 558.457 555.999 561.691 557.616 565.772H557.77C559.541 561.229 564.854 558.457 570.937 558.457C578.483 558.457 584.412 562.769 584.412 572.163V600.576H577.636Z" fill="white"/>
<path d="M131.333 706.699C141.497 706.699 148.889 712.243 148.889 721.714C148.889 729.645 145.193 734.881 138.494 740.887L120.938 756.826V757.134H150.044V762.986H112.468V756.21L133.951 736.267C139.11 731.416 142.036 727.566 142.036 722.099C142.036 715.939 137.493 712.551 131.333 712.551C125.25 712.551 119.86 716.016 119.321 723.562H112.468C113.238 711.858 121.4 706.699 131.333 706.699ZM197.797 744.429C197.797 755.748 189.866 764.295 178.008 764.295C164.918 764.295 158.142 754.978 158.142 738.192C158.142 716.709 167.382 706.699 179.471 706.699C188.095 706.699 195.179 711.088 196.18 720.559H189.327C188.326 714.707 184.553 712.551 179.471 712.551C172.002 712.551 165.765 719.25 165.611 732.109H165.919C167.998 729.106 172.464 726.103 179.24 726.103C189.327 726.103 197.797 733.11 197.797 744.429ZM165.38 745.045C165.38 752.437 170.231 758.443 178.008 758.443C185.862 758.443 190.944 752.437 190.944 745.045C190.944 737.653 185.862 731.955 178.008 731.955C170.231 731.955 165.38 737.653 165.38 745.045ZM206.988 752.899H215.766V762.986H206.988V752.899ZM221.655 713.86V708.008H257.075V713.167L233.282 762.986H225.813L249.375 713.86H221.655ZM282.185 764.295C272.406 764.295 264.398 760.445 263.089 749.665H269.942C271.174 756.287 276.256 758.443 282.185 758.443C289.885 758.443 295.737 752.668 295.737 744.891C295.737 737.114 291.271 731.262 282.878 731.262C277.488 731.262 273.561 733.649 271.482 737.73H264.398L269.249 708.008H300.434V713.86H274.947L272.175 729.953H272.483C274.485 727.566 279.105 725.41 284.033 725.41C295.275 725.41 302.667 733.418 302.667 744.891C302.667 756.364 293.966 764.295 282.185 764.295ZM313.488 708.085H320.572V731.57H349.139V708.085H356.223V762.986H349.139V737.576H320.572V762.986H313.488V708.085ZM393.617 728.259L384.377 716.093H389.382L396.235 725.487L403.088 716.093H408.093L398.776 728.259L408.555 740.887H403.55L396.235 731.031L388.843 740.887H383.915L393.617 728.259ZM451.602 706.699C461.766 706.699 469.158 712.243 469.158 721.714C469.158 729.645 465.462 734.881 458.763 740.887L441.207 756.826V757.134H470.313V762.986H432.737V756.21L454.22 736.267C459.379 731.416 462.305 727.566 462.305 722.099C462.305 715.939 457.762 712.551 451.602 712.551C445.519 712.551 440.129 716.016 439.59 723.562H432.737C433.507 711.858 441.669 706.699 451.602 706.699ZM498.2 764.295C486.265 764.295 478.103 758.52 478.103 748.356C478.103 739.424 483.801 734.958 489.037 733.649V733.495C483.493 731.493 480.182 727.258 480.182 721.021C480.182 711.242 489.114 706.699 498.123 706.699C507.055 706.699 516.064 711.242 516.064 721.021C516.064 727.258 512.676 731.493 507.132 733.495V733.649C512.368 734.958 518.066 739.424 518.066 748.356C518.066 758.52 510.058 764.295 498.2 764.295ZM487.112 721.637C487.112 727.335 492.117 730.723 498.123 730.723C504.052 730.723 509.211 727.335 509.211 721.637C509.211 715.862 504.052 712.551 498.123 712.551C492.117 712.551 487.112 715.862 487.112 721.637ZM485.033 747.509C485.033 754.747 491.193 758.443 498.123 758.443C505.053 758.443 511.136 754.747 511.136 747.509C511.136 740.348 505.053 736.575 498.123 736.575C491.193 736.575 485.033 740.348 485.033 747.509ZM526.73 752.899H535.508V762.986H526.73V752.899ZM563.622 706.699C573.786 706.699 581.178 712.243 581.178 721.714C581.178 729.645 577.482 734.881 570.783 740.887L553.227 756.826V757.134H582.333V762.986H544.757V756.21L566.24 736.267C571.399 731.416 574.325 727.566 574.325 722.099C574.325 715.939 569.782 712.551 563.622 712.551C557.539 712.551 552.149 716.016 551.61 723.562H544.757C545.527 711.858 553.689 706.699 563.622 706.699ZM609.296 764.295C599.517 764.295 591.509 760.445 590.2 749.665H597.053C598.285 756.287 603.367 758.443 609.296 758.443C616.996 758.443 622.848 752.668 622.848 744.891C622.848 737.114 618.382 731.262 609.989 731.262C604.599 731.262 600.672 733.649 598.593 737.73H591.509L596.36 708.008H627.545V713.86H602.058L599.286 729.953H599.594C601.596 727.566 606.216 725.41 611.144 725.41C622.386 725.41 629.778 733.418 629.778 744.891C629.778 756.364 621.077 764.295 609.296 764.295ZM657.309 762.986H648.839L634.825 708.008H641.909L649.455 738.423C650.841 743.659 652.227 749.665 653.228 754.978H653.536C654.614 749.665 656.077 743.659 657.386 738.423L664.778 708.008H673.248L680.64 738.423C681.949 743.659 683.412 749.665 684.49 754.978H684.798C685.799 749.665 687.185 743.659 688.571 738.423L696.117 708.008H703.201L689.187 762.986H680.717L673.171 733.033C671.862 727.72 670.399 722.176 669.167 716.401H668.859C667.627 722.176 666.164 727.72 664.855 733.033L657.309 762.986ZM245.1 805.259L235.86 793.093H240.865L247.718 802.487L254.571 793.093H259.576L250.259 805.259L260.038 817.887H255.033L247.718 808.031L240.326 817.887H235.398L245.1 805.259ZM313.634 798.406C313.634 792.246 308.629 789.551 303.008 789.551C297.541 789.551 292.459 791.63 291.612 798.483H284.759C285.683 787.934 292.921 783.699 303.008 783.699C313.48 783.699 320.564 789.012 320.564 797.482C320.564 805.028 315.713 809.109 311.863 810.418V810.572C317.176 812.035 322.72 816.193 322.72 825.125C322.72 835.443 314.019 841.295 303.008 841.295C290.842 841.295 283.604 836.444 283.296 825.279H290.149C290.842 832.363 295.539 835.443 303.008 835.443C310.554 835.443 315.79 831.593 315.79 824.355C315.79 817.579 310.939 813.883 303.547 813.883H299.004V807.723H303.085C309.014 807.723 313.634 804.412 313.634 798.406ZM360.123 798.406C360.123 792.246 355.118 789.551 349.497 789.551C344.03 789.551 338.948 791.63 338.101 798.483H331.248C332.172 787.934 339.41 783.699 349.497 783.699C359.969 783.699 367.053 789.012 367.053 797.482C367.053 805.028 362.202 809.109 358.352 810.418V810.572C363.665 812.035 369.209 816.193 369.209 825.125C369.209 835.443 360.508 841.295 349.497 841.295C337.331 841.295 330.093 836.444 329.785 825.279H336.638C337.331 832.363 342.028 835.443 349.497 835.443C357.043 835.443 362.279 831.593 362.279 824.355C362.279 817.579 357.428 813.883 350.036 813.883H345.493V807.723H349.574C355.503 807.723 360.123 804.412 360.123 798.406ZM377.687 829.899H386.465V839.986H377.687V829.899ZM415.118 841.295C405.339 841.295 397.331 837.445 396.022 826.665H402.875C404.107 833.287 409.189 835.443 415.118 835.443C422.818 835.443 428.67 829.668 428.67 821.891C428.67 814.114 424.204 808.262 415.811 808.262C410.421 808.262 406.494 810.649 404.415 814.73H397.331L402.182 785.008H433.367V790.86H407.88L405.108 806.953H405.416C407.418 804.566 412.038 802.41 416.966 802.41C428.208 802.41 435.6 810.418 435.6 821.891C435.6 833.364 426.899 841.295 415.118 841.295ZM446.421 839.986V785.008H464.362C479.685 785.008 490.85 793.94 490.85 812.497C490.85 831.054 479.685 839.986 464.362 839.986H446.421ZM463.592 791.014H453.505V833.98H463.592C475.912 833.98 483.766 826.665 483.766 812.497C483.766 798.329 475.912 791.014 463.592 791.014ZM519.511 792.631V785.008H526.903V792.631H519.511ZM519.819 839.986V798.791H526.595V839.986H519.819ZM538.783 805.105L538.629 798.791H545.405L545.559 805.259H545.79C547.33 801.717 552.027 797.867 559.034 797.867C568.12 797.867 573.818 803.565 573.818 812.805V839.986H567.042V813.575C567.042 807.184 563.654 803.18 557.34 803.18C550.179 803.18 545.559 808.57 545.559 816.193V839.986H538.783V805.105Z" fill="white"/>
<path d="M809.671 649.121L809.671 268.548L735.535 188.191L112.254 188.191" stroke="white" stroke-width="7.32623"/>
<path d="M3.77744 645.765L3.77743 268.547L77.9128 188.191L701.194 188.191" stroke="white" stroke-width="7.32623"/>
<path d="M3.68433 503.833L3.68437 873.603L77.8197 953.959L701.101 953.959" stroke="white" stroke-width="7.32623"/>
<path d="M809.573 482.413L809.573 873.604L735.438 953.961L112.156 953.961" stroke="white" stroke-width="7.32623"/>
<path d="M246.408 1029.99C256.562 1029.99 263.947 1035.53 263.947 1044.99C263.947 1052.92 260.255 1058.15 253.562 1064.15L236.023 1080.07V1080.38H265.101V1086.23H227.561V1079.46L249.023 1059.53C254.177 1054.69 257.101 1050.84 257.101 1045.38C257.101 1039.23 252.562 1035.84 246.408 1035.84C240.331 1035.84 234.946 1039.3 234.408 1046.84H227.561C228.331 1035.15 236.485 1029.99 246.408 1029.99ZM290.73 1029.99C300.884 1029.99 308.269 1035.53 308.269 1044.99C308.269 1052.92 304.577 1058.15 297.884 1064.15L280.345 1080.07V1080.38H309.423V1086.23H271.884V1079.46L293.346 1059.53C298.5 1054.69 301.423 1050.84 301.423 1045.38C301.423 1039.23 296.884 1035.84 290.73 1035.84C284.653 1035.84 279.268 1039.3 278.73 1046.84H271.884C272.653 1035.15 280.807 1029.99 290.73 1029.99ZM358.592 1058.76C358.592 1074.53 352.668 1087.53 337.668 1087.53C322.668 1087.53 316.667 1074.53 316.667 1058.76C316.667 1042.99 322.668 1029.99 337.668 1029.99C352.668 1029.99 358.592 1042.99 358.592 1058.76ZM351.668 1058.76C351.668 1045.84 347.899 1035.84 337.668 1035.84C327.514 1035.84 323.591 1045.84 323.591 1058.76C323.591 1071.61 327.514 1081.69 337.668 1081.69C347.899 1081.69 351.668 1071.61 351.668 1058.76ZM408.323 1058.76C408.323 1074.53 402.399 1087.53 387.399 1087.53C372.399 1087.53 366.398 1074.53 366.398 1058.76C366.398 1042.99 372.399 1029.99 387.399 1029.99C402.399 1029.99 408.323 1042.99 408.323 1058.76ZM401.399 1058.76C401.399 1045.84 397.63 1035.84 387.399 1035.84C377.245 1035.84 373.322 1045.84 373.322 1058.76C373.322 1071.61 377.245 1081.69 387.399 1081.69C397.63 1081.69 401.399 1071.61 401.399 1058.76ZM436.846 1066.23V1031.3H443.923V1066.76C443.923 1075.46 449.462 1081.53 458.308 1081.53C467.231 1081.53 472.616 1075.38 472.616 1066.69V1031.3H479.693V1066.15C479.693 1079.84 471.078 1087.53 458.308 1087.53C445.615 1087.53 436.846 1079.92 436.846 1066.23ZM530.362 1045.99H523.285C522.516 1039.46 517.747 1035.69 509.977 1035.69C501.746 1035.69 496.592 1039.38 496.592 1045.23C496.592 1050.46 501.208 1052.76 508.208 1054.23L514.208 1055.46C524.208 1057.53 531.516 1060.23 531.516 1071.69C531.516 1081.46 521.901 1087.53 510.131 1087.53C496.746 1087.53 489.053 1081.23 488.746 1069.92H495.823C496.208 1077.46 501.362 1081.84 510.131 1081.84C518.67 1081.84 524.285 1077.92 524.362 1072.07C524.439 1065.46 519.901 1063.61 511.593 1061.92L505.592 1060.69C495.823 1058.69 489.515 1054.84 489.515 1045.76C489.515 1036.3 498.669 1029.99 509.977 1029.99C520.824 1029.99 529.516 1034.76 530.362 1045.99ZM541.431 1086.23V1031.3H559.354C574.662 1031.3 585.817 1040.23 585.817 1058.76C585.817 1077.3 574.662 1086.23 559.354 1086.23H541.431ZM558.585 1037.3H548.508V1080.23H558.585C570.893 1080.23 578.739 1072.92 578.739 1058.76C578.739 1044.61 570.893 1037.3 558.585 1037.3Z" fill="white"/>
<path d="M808.271 1060.18L734.27 979.966L112.115 979.966" stroke="white" stroke-width="7.36716"/>
<path d="M5.08385 1061.76L80.568 979.961L702.723 979.961" stroke="white" stroke-width="7.36716"/>
<path d="M808.264 1055.22L732.109 1137.76L109.955 1137.76" stroke="white" stroke-width="7.36716"/>
<path d="M6.56668 1057.54L80.5681 1137.75L702.723 1137.75" stroke="white" stroke-width="7.36716"/>
<path d="M127.809 1265.33C135.655 1265.33 140.348 1262.56 142.809 1259.79V1247.33H125.501V1241.33H149.656V1262.17C145.348 1267.02 137.655 1271.33 127.732 1271.33C110.116 1271.33 101.731 1259.02 101.731 1242.56C101.731 1226.1 109.193 1213.79 126.732 1213.79C140.271 1213.79 148.271 1219.4 149.348 1231.02H142.271C141.117 1222.79 134.501 1219.79 126.732 1219.79C114.809 1219.79 108.808 1228.71 108.808 1242.56C108.808 1256.4 115.501 1265.33 127.809 1265.33ZM160.86 1270.02V1215.1H195.861V1221.1H167.938V1238.79H194.323V1244.79H167.938V1264.02H195.861V1270.02H160.86ZM201.794 1242.56C201.794 1225.4 210.948 1213.79 227.872 1213.79C244.796 1213.79 254.027 1225.4 254.027 1242.56C254.027 1259.71 244.796 1271.33 227.872 1271.33C210.948 1271.33 201.794 1259.71 201.794 1242.56ZM208.871 1242.56C208.871 1255.71 215.256 1265.33 227.872 1265.33C240.488 1265.33 246.949 1255.71 246.949 1242.56C246.949 1229.4 240.488 1219.79 227.872 1219.79C215.256 1219.79 208.871 1229.4 208.871 1242.56ZM305.302 1230.79C305.302 1237.48 300.917 1242.56 296.147 1244.02V1244.33C301.071 1245.17 304.148 1249.4 304.994 1255.94L306.763 1270.02H299.378L297.686 1255.94C296.763 1248.71 292.763 1247.33 284.993 1247.33H271.531V1270.02H264.531V1215.1H287.07C299.224 1215.1 305.302 1221.87 305.302 1230.79ZM298.301 1231.17C298.301 1224.87 294.147 1221.1 286.455 1221.1H271.531V1241.33H286.301C293.994 1241.33 298.301 1237.48 298.301 1231.17ZM340.03 1265.33C347.876 1265.33 352.569 1262.56 355.03 1259.79V1247.33H337.722V1241.33H361.877V1262.17C357.569 1267.02 349.876 1271.33 339.953 1271.33C322.337 1271.33 313.952 1259.02 313.952 1242.56C313.952 1226.1 321.414 1213.79 338.953 1213.79C352.492 1213.79 360.492 1219.4 361.569 1231.02H354.492C353.338 1222.79 346.722 1219.79 338.953 1219.79C327.029 1219.79 321.029 1228.71 321.029 1242.56C321.029 1256.4 327.722 1265.33 340.03 1265.33ZM373.081 1270.02V1215.1H408.082V1221.1H380.158V1238.79H406.544V1244.79H380.158V1264.02H408.082V1270.02H373.081ZM455.566 1270.02V1215.1H473.489C488.797 1215.1 499.952 1224.02 499.952 1242.56C499.952 1261.1 488.797 1270.02 473.489 1270.02H455.566ZM472.72 1221.1H462.643V1264.02H472.72C485.028 1264.02 492.875 1256.71 492.875 1242.56C492.875 1228.4 485.028 1221.1 472.72 1221.1ZM502.512 1270.02L523.282 1215.17H531.667L552.437 1270.02H544.975L539.975 1256.64H514.974L509.974 1270.02H502.512ZM517.205 1250.64H537.744L531.898 1235.02C530.359 1230.94 528.898 1226.56 527.667 1222.48H527.359C526.128 1226.56 524.59 1230.94 523.051 1235.02L517.205 1250.64ZM570.227 1270.02L550.226 1215.1H557.688L568.996 1246.79C570.765 1251.87 572.919 1257.94 574.304 1262.64H574.611C575.996 1257.94 578.073 1251.87 579.842 1246.79L591.227 1215.1H598.612L578.611 1270.02H570.227ZM606.562 1215.1H613.639V1270.02H606.562V1215.1ZM627.596 1270.02V1215.1H662.597V1221.1H634.673V1238.79H661.059V1244.79H634.673V1264.02H662.597V1270.02H627.596ZM710.957 1229.79H703.88C703.11 1223.25 698.341 1219.48 690.572 1219.48C682.341 1219.48 677.187 1223.17 677.187 1229.02C677.187 1234.25 681.802 1236.56 688.802 1238.02L694.802 1239.25C704.803 1241.33 712.111 1244.02 712.111 1255.48C712.111 1265.25 702.495 1271.33 690.725 1271.33C677.34 1271.33 669.648 1265.02 669.34 1253.71H676.417C676.802 1261.25 681.956 1265.64 690.725 1265.64C699.264 1265.64 704.88 1261.71 704.957 1255.87C705.034 1249.25 700.495 1247.4 692.187 1245.71L686.187 1244.48C676.417 1242.48 670.109 1238.63 670.109 1229.56C670.109 1220.1 679.264 1213.79 690.572 1213.79C701.418 1213.79 710.111 1218.56 710.957 1229.79Z" fill="white"/>
<path d="M808.271 1243.97L734.27 1163.76L112.115 1163.76" stroke="white" stroke-width="7.36716"/>
<path d="M5.08385 1245.55L80.568 1163.75L702.723 1163.75" stroke="white" stroke-width="7.36716"/>
<path d="M808.264 1239.01L732.109 1321.55L109.955 1321.55" stroke="white" stroke-width="7.36716"/>
<path d="M6.56668 1241.34L80.5681 1321.55L702.723 1321.55" stroke="white" stroke-width="7.36716"/>
</svg>
