<svg width="814" height="1142" viewBox="0 0 814 1142" fill="none" xmlns="http://www.w3.org/2000/svg">
<path d="M201.245 93.5728H208.322C207.245 105.189 198.399 111.573 185.244 111.573C167.782 111.573 159.628 99.2653 159.628 82.8033C159.628 66.3412 167.782 54.0332 185.244 54.0332C198.476 54.0332 206.937 59.6487 208.014 71.2645H200.937C199.783 63.0334 193.014 60.0333 185.244 60.0333C173.244 60.0333 166.705 68.9567 166.705 82.8033C166.705 96.5729 173.244 105.573 185.244 105.573C193.014 105.573 200.091 102.035 201.245 93.5728ZM214.468 82.8033C214.468 65.6489 223.622 54.0332 240.545 54.0332C257.469 54.0332 266.7 65.6489 266.7 82.8033C266.7 99.9576 257.469 111.573 240.545 111.573C223.622 111.573 214.468 99.9576 214.468 82.8033ZM221.545 82.8033C221.545 95.9575 227.93 105.573 240.545 105.573C253.161 105.573 259.623 95.9575 259.623 82.8033C259.623 69.649 253.161 60.0333 240.545 60.0333C227.93 60.0333 221.545 69.649 221.545 82.8033ZM284.051 110.266H277.128V55.3409H286.359L298.821 90.1112C300.667 95.1883 301.667 98.3422 303.128 103.419H303.436C304.975 98.3422 305.898 95.1883 307.744 90.1112L320.206 55.3409H329.437V110.266H322.514V80.1109C322.514 74.7261 322.59 71.4183 322.821 66.0335H322.514C321.206 70.5721 320.437 72.8799 318.36 78.6493L306.975 110.266H299.59L288.205 78.6493C286.128 72.8799 285.359 70.5721 284.051 66.0335H283.743C283.974 71.4183 284.051 74.7261 284.051 80.1109V110.266ZM350.384 110.266H343.461V55.3409H352.692L365.154 90.1112C367 95.1883 368 98.3422 369.461 103.419H369.769C371.308 98.3422 372.231 95.1883 374.077 90.1112L386.539 55.3409H395.77V110.266H388.847V80.1109C388.847 74.7261 388.924 71.4183 389.154 66.0335H388.847C387.539 70.5721 386.77 72.8799 384.693 78.6493L373.308 110.266H365.923L354.538 78.6493C352.461 72.8799 351.692 70.5721 350.384 66.0335H350.076C350.307 71.4183 350.384 74.7261 350.384 80.1109V110.266ZM409.794 55.3409H416.871V110.266H409.794V55.3409ZM468.214 70.0337H461.137C460.367 63.495 455.598 59.7257 447.829 59.7257C439.598 59.7257 434.444 63.4181 434.444 69.2644C434.444 74.4953 439.059 76.8031 446.059 78.2647L452.059 79.4955C462.06 81.5725 469.368 84.2648 469.368 95.7267C469.368 105.496 459.752 111.573 447.982 111.573C434.597 111.573 426.905 105.265 426.597 93.9574H433.674C434.059 101.496 439.213 105.881 447.982 105.881C456.521 105.881 462.137 101.958 462.214 96.1114C462.291 89.4958 457.752 87.6496 449.444 85.9572L443.444 84.7264C433.674 82.7263 427.366 78.8801 427.366 69.8029C427.366 60.3411 436.521 54.0332 447.829 54.0332C458.675 54.0332 467.368 58.8025 468.214 70.0337ZM516.668 70.0337H509.591C508.821 63.495 504.052 59.7257 496.283 59.7257C488.052 59.7257 482.898 63.4181 482.898 69.2644C482.898 74.4953 487.513 76.8031 494.513 78.2647L500.513 79.4955C510.514 81.5725 517.822 84.2648 517.822 95.7267C517.822 105.496 508.206 111.573 496.436 111.573C483.051 111.573 475.359 105.265 475.051 93.9574H482.128C482.513 101.496 487.667 105.881 496.436 105.881C504.975 105.881 510.591 101.958 510.668 96.1114C510.745 89.4958 506.206 87.6496 497.898 85.9572L491.898 84.7264C482.128 82.7263 475.82 78.8801 475.82 69.8029C475.82 60.3411 484.975 54.0332 496.283 54.0332C507.129 54.0332 515.822 58.8025 516.668 70.0337ZM527.736 55.3409H534.813V110.266H527.736V55.3409ZM545.232 82.8033C545.232 65.6489 554.386 54.0332 571.309 54.0332C588.233 54.0332 597.464 65.6489 597.464 82.8033C597.464 99.9576 588.233 111.573 571.309 111.573C554.386 111.573 545.232 99.9576 545.232 82.8033ZM552.309 82.8033C552.309 95.9575 558.694 105.573 571.309 105.573C583.925 105.573 590.387 95.9575 590.387 82.8033C590.387 69.649 583.925 60.0333 571.309 60.0333C558.694 60.0333 552.309 69.649 552.309 82.8033ZM607.892 110.266V55.3409H616.738L633.277 82.7263C638.354 91.1112 641.431 96.6498 643.816 101.188H644.124C643.893 95.1113 643.739 89.1881 643.739 81.4955V55.3409H650.816V110.266H642.047L625.508 82.8802C620.431 74.4953 617.354 68.9567 614.892 64.4181H614.584C614.892 70.4952 614.969 76.4185 614.969 84.111V110.266H607.892Z" fill="white"/>
<path d="M808.587 84.2168L734.585 4.00544L112.431 4.00547" stroke="white" stroke-width="7.36716"/>
<path d="M5.39931 85.7988L80.8835 4.00043L703.038 4.00041" stroke="white" stroke-width="7.36716"/>
<path d="M808.58 79.2578L732.425 161.794L110.271 161.794" stroke="white" stroke-width="7.36716"/>
<path d="M6.88214 81.582L80.8835 161.793L703.038 161.793" stroke="white" stroke-width="7.36716"/>
<path d="M152.178 418.139H174.582C186.428 418.139 193.6 422.814 193.6 433.129C193.6 440.382 188.765 444.331 185.139 445.62V445.943C189.974 446.748 195.615 451.02 195.615 459.643C195.615 470.28 187.556 475.68 176.113 475.68H152.178V418.139ZM159.592 443.041H175.71C181.754 443.041 186.186 439.657 186.186 433.693C186.186 427.81 181.754 424.425 175.71 424.425H159.592V443.041ZM188.201 459.32C188.201 453.034 183.849 449.327 176.919 449.327H159.592V469.394H176.919C183.849 469.394 188.201 465.606 188.201 459.32ZM205.502 439.173L205.341 432.565H212.433L212.594 439.334H212.836C213.803 435.869 217.752 431.759 224.521 431.759H226.455V438.045H223.071C216.301 438.045 212.594 443.203 212.594 451.342V475.68H205.502V439.173ZM248.867 437.158C242.823 437.158 238.713 439.495 238.149 444.411H231.057C231.46 435.627 238.31 431.598 248.867 431.598C261.117 431.598 266.597 436.917 266.597 445.943V465.526C266.597 470.119 266.597 471.167 267 475.68H259.908C259.585 472.295 259.505 471.086 259.505 468.507H259.263C257.087 472.456 252.091 476.647 243.71 476.647C235.248 476.647 229.445 471.811 229.445 463.35C229.445 454.404 236.054 450.617 245.08 449.488L259.505 447.635V445.943C259.505 439.737 255.637 437.158 248.867 437.158ZM236.537 463.35C236.537 468.185 239.922 471.086 245.482 471.086C251.285 471.086 259.747 466.654 259.747 455.694V453.034L246.288 454.807C239.922 455.613 236.537 458.434 236.537 463.35ZM278.06 418.139H285.152V451.745L304.573 432.565H313.116L292.324 452.793L313.519 475.68H304.573L285.152 454.243V475.68H278.06V418.139ZM355.138 456.5H321.613C322.339 465.526 326.932 471.247 335.394 471.247C341.277 471.247 346.112 468.266 347.482 462.624H354.332C353.043 471.811 345.145 476.647 335.394 476.647C322.016 476.647 314.683 467.943 314.683 454.082C314.683 440.221 322.339 431.598 334.911 431.598C348.288 431.598 355.138 440.382 355.138 455.774V456.5ZM321.694 451.1H348.127C347.321 442.638 342.808 436.997 334.911 436.997C327.013 436.997 322.5 442.638 321.694 451.1ZM385.129 418.139H421.475V424.425H392.543V443.767H419.863V450.053H392.543V475.68H385.129V418.139ZM447.461 476.647C434.405 476.647 426.83 467.863 426.83 454.082C426.83 440.301 434.405 431.598 447.461 431.598C460.516 431.598 468.091 440.301 468.091 454.082C468.091 467.863 460.516 476.647 447.461 476.647ZM447.461 471.086C456.486 471.086 460.999 463.994 460.999 454.082C460.999 444.17 456.486 437.158 447.461 437.158C438.515 437.158 433.922 444.17 433.922 454.082C433.922 463.994 438.515 471.086 447.461 471.086ZM477.489 439.173L477.327 432.565H484.419L484.58 439.334H484.822C485.789 435.869 489.738 431.759 496.507 431.759H498.442V438.045H495.057C488.287 438.045 484.58 443.203 484.58 451.342V475.68H477.489V439.173ZM559.41 475.68V447.393C559.41 439.576 554.575 437.158 550.142 437.158C545.629 437.158 539.746 440.221 539.746 449.65V475.68H532.655V447.393C532.655 439.576 527.819 437.158 523.387 437.158C518.874 437.158 512.991 440.221 512.991 449.65V475.68H505.899V439.173L505.738 432.565H512.83L512.991 438.448H513.233C514.844 434.418 520.486 431.598 525.643 431.598C532.493 431.598 536.765 434.982 538.457 439.254H538.618C540.472 434.499 546.032 431.598 552.399 431.598C560.296 431.598 566.502 436.111 566.502 445.943V475.68H559.41ZM615.792 456.5H582.267C582.992 465.526 587.586 471.247 596.047 471.247C601.93 471.247 606.766 468.266 608.136 462.624H614.986C613.696 471.811 605.799 476.647 596.047 476.647C582.67 476.647 575.336 467.943 575.336 454.082C575.336 440.221 582.992 431.598 595.564 431.598C608.942 431.598 615.792 440.382 615.792 455.774V456.5ZM582.347 451.1H608.78C607.975 442.638 603.462 436.997 595.564 436.997C587.666 436.997 583.153 442.638 582.347 451.1ZM622.871 454.082C622.871 439.012 631.816 431.598 642.293 431.598C648.74 431.598 653.897 435.063 656.073 438.287H656.154V418.139H663.246V465.203L663.487 475.68H656.396L656.154 469.233H656.073C654.381 473.101 649.062 476.647 642.131 476.647C630.527 476.647 622.871 468.346 622.871 454.082ZM656.879 454.082C656.879 444.17 651.883 437.158 643.502 437.158C635.04 437.158 629.963 444.17 629.963 454.082C629.963 463.994 635.04 471.086 643.502 471.086C651.883 471.086 656.879 463.994 656.879 454.082ZM109.872 556.68L131.631 499.22H140.415L162.174 556.68H154.357L149.119 542.657H122.927L117.689 556.68H109.872ZM125.264 536.371H146.781L140.657 520.012C139.045 515.741 137.514 511.147 136.224 506.876H135.902C134.613 511.147 133.001 515.741 131.389 520.012L125.264 536.371ZM168.392 556.68V499.139H175.484V556.68H168.392ZM222.746 550.071L222.907 556.68H215.816L215.654 549.91H215.413C213.801 553.537 208.966 557.647 201.632 557.647C192.203 557.647 186.562 551.764 186.562 542.093V513.565H193.654V541.207C193.654 547.896 196.797 552.086 203.405 552.086C210.819 552.086 215.654 546.445 215.654 538.467V513.565H222.746V550.071ZM287.935 556.68V528.393C287.935 520.576 283.1 518.158 278.668 518.158C274.155 518.158 268.272 521.221 268.272 530.65V556.68H261.18V528.393C261.18 520.576 256.345 518.158 251.912 518.158C247.399 518.158 241.516 521.221 241.516 530.65V556.68H234.425V520.173L234.263 513.565H241.355L241.516 519.448H241.758C243.37 515.418 249.011 512.598 254.169 512.598C261.019 512.598 265.29 515.982 266.982 520.254H267.144C268.997 515.499 274.558 512.598 280.924 512.598C288.822 512.598 295.027 517.111 295.027 526.943V556.68H287.935ZM306.038 507.118V499.139H313.774V507.118H306.038ZM306.36 556.68V513.565H313.452V556.68H306.36ZM325.401 520.173L325.24 513.565H332.332L332.493 520.334H332.735C334.347 516.627 339.263 512.598 346.596 512.598C356.106 512.598 362.069 518.561 362.069 528.232V556.68H354.977V529.038C354.977 522.349 351.432 518.158 344.823 518.158C337.329 518.158 332.493 523.8 332.493 531.778V556.68H325.401V520.173ZM408.871 550.071L409.032 556.68H401.94L401.779 549.91H401.537C399.926 553.537 395.09 557.647 387.757 557.647C378.328 557.647 372.687 551.764 372.687 542.093V513.565H379.779V541.207C379.779 547.896 382.921 552.086 389.53 552.086C396.944 552.086 401.779 546.445 401.779 538.467V513.565H408.871V550.071ZM474.06 556.68V528.393C474.06 520.576 469.225 518.158 464.792 518.158C460.28 518.158 454.397 521.221 454.397 530.65V556.68H447.305V528.393C447.305 520.576 442.469 518.158 438.037 518.158C433.524 518.158 427.641 521.221 427.641 530.65V556.68H420.549V520.173L420.388 513.565H427.48L427.641 519.448H427.883C429.495 515.418 435.136 512.598 440.294 512.598C447.144 512.598 451.415 515.982 453.107 520.254H453.268C455.122 515.499 460.682 512.598 467.049 512.598C474.947 512.598 481.152 517.111 481.152 526.943V556.68H474.06ZM552.789 539.192H560.204C559.075 551.361 549.808 558.05 536.027 558.05C517.733 558.05 509.191 545.156 509.191 527.91C509.191 510.664 517.733 497.769 536.027 497.769C549.888 497.769 558.753 503.652 559.881 515.821H552.467C551.258 507.198 544.166 504.055 536.027 504.055C523.455 504.055 516.605 513.404 516.605 527.91C516.605 542.335 523.455 551.764 536.027 551.764C544.166 551.764 551.581 548.057 552.789 539.192ZM568.737 499.139H575.829V520.334H576.071C577.682 516.627 582.518 512.598 589.932 512.598C599.361 512.598 605.405 518.561 605.405 528.232V556.68H598.313V529.038C598.313 522.349 594.767 518.158 588.159 518.158C580.664 518.158 575.829 523.8 575.829 531.778V556.68H568.737V499.139ZM633.433 518.158C627.389 518.158 623.279 520.495 622.715 525.411H615.623C616.026 516.627 622.876 512.598 633.433 512.598C645.683 512.598 651.163 517.917 651.163 526.943V546.526C651.163 551.119 651.163 552.167 651.566 556.68H644.474C644.152 553.295 644.071 552.086 644.071 549.507H643.829C641.653 553.456 636.657 557.647 628.276 557.647C619.814 557.647 614.012 552.811 614.012 544.35C614.012 535.404 620.62 531.617 629.646 530.488L644.071 528.635V526.943C644.071 520.737 640.203 518.158 633.433 518.158ZM621.103 544.35C621.103 549.185 624.488 552.086 630.049 552.086C635.851 552.086 644.313 547.654 644.313 536.694V534.034L630.855 535.807C624.488 536.613 621.103 539.434 621.103 544.35ZM662.626 507.118V499.139H670.362V507.118H662.626ZM662.948 556.68V513.565H670.04V556.68H662.948ZM681.99 520.173L681.829 513.565H688.92L689.082 520.334H689.323C690.29 516.869 694.239 512.759 701.009 512.759H702.943V519.045H699.558C692.789 519.045 689.082 524.203 689.082 532.342V556.68H681.99V520.173ZM206.985 678.627C206.985 687.814 200.619 696.115 187.644 696.115H172.735V718.68H165.321V661.139H187.644C200.619 661.139 206.985 669.36 206.985 678.627ZM199.571 678.627C199.571 672.261 195.219 667.425 188.45 667.425H172.735V689.829H188.45C195.219 689.829 199.571 684.994 199.571 678.627ZM215.655 682.173L215.493 675.565H222.585L222.746 682.334H222.988C223.955 678.869 227.904 674.759 234.674 674.759H236.608V681.045H233.223C226.454 681.045 222.746 686.203 222.746 694.342V718.68H215.655V682.173ZM243.904 669.118V661.139H251.641V669.118H243.904ZM244.226 718.68V675.565H251.318V718.68H244.226ZM278.66 712.555H278.983C280.433 707.639 282.367 701.676 284.705 695.228L291.877 675.565H299.291L282.851 718.68H274.792L258.352 675.565H265.766L272.939 695.228C275.276 701.676 277.21 707.639 278.66 712.555ZM322.058 680.158C316.014 680.158 311.904 682.495 311.34 687.411H304.248C304.651 678.627 311.501 674.598 322.058 674.598C334.307 674.598 339.787 679.917 339.787 688.943V708.526C339.787 713.119 339.787 714.167 340.19 718.68H333.099C332.776 715.295 332.696 714.086 332.696 711.507H332.454C330.278 715.456 325.281 719.647 316.9 719.647C308.438 719.647 302.636 714.811 302.636 706.35C302.636 697.404 309.244 693.617 318.27 692.488L332.696 690.635V688.943C332.696 682.737 328.827 680.158 322.058 680.158ZM309.728 706.35C309.728 711.185 313.113 714.086 318.673 714.086C324.476 714.086 332.937 709.654 332.937 698.694V696.034L319.479 697.807C313.113 698.613 309.728 701.434 309.728 706.35ZM354.159 675.565V666.378H361.251V675.565H369.632V681.125H361.251V709.009C361.251 711.83 362.057 713.119 364.636 713.119H369.229V718.68H362.621C356.577 718.68 354.159 715.779 354.159 709.009V681.125H347.229V675.565H354.159ZM415.658 699.5H382.133C382.859 708.526 387.452 714.247 395.914 714.247C401.797 714.247 406.632 711.266 408.002 705.624H414.852C413.563 714.811 405.665 719.647 395.914 719.647C382.536 719.647 375.203 710.943 375.203 697.082C375.203 683.221 382.859 674.598 395.431 674.598C408.808 674.598 415.658 683.382 415.658 698.774V699.5ZM382.214 694.1H408.647C407.841 685.638 403.328 679.997 395.431 679.997C387.533 679.997 383.02 685.638 382.214 694.1ZM485.541 701.192H492.955C491.826 713.361 482.559 720.05 468.778 720.05C450.485 720.05 441.942 707.156 441.942 689.91C441.942 672.664 450.485 659.769 468.778 659.769C482.639 659.769 491.504 665.652 492.632 677.821H485.218C484.009 669.198 476.918 666.055 468.778 666.055C456.206 666.055 449.356 675.404 449.356 689.91C449.356 704.335 456.206 713.764 468.778 713.764C476.918 713.764 484.332 710.057 485.541 701.192ZM501.488 718.68V661.139H508.58V718.68H501.488ZM520.061 669.118V661.139H527.798V669.118H520.061ZM520.384 718.68V675.565H527.475V718.68H520.384ZM577.544 699.5H544.019C544.744 708.526 549.338 714.247 557.799 714.247C563.682 714.247 568.518 711.266 569.888 705.624H576.738C575.448 714.811 567.551 719.647 557.799 719.647C544.422 719.647 537.088 710.943 537.088 697.082C537.088 683.221 544.744 674.598 557.316 674.598C570.694 674.598 577.544 683.382 577.544 698.774V699.5ZM544.099 694.1H570.532C569.727 685.638 565.214 679.997 557.316 679.997C549.418 679.997 544.905 685.638 544.099 694.1ZM586.96 682.173L586.799 675.565H593.89L594.052 682.334H594.293C595.905 678.627 600.821 674.598 608.155 674.598C617.664 674.598 623.628 680.561 623.628 690.232V718.68H616.536V691.038C616.536 684.349 612.99 680.158 606.382 680.158C598.887 680.158 594.052 685.8 594.052 693.778V718.68H586.96V682.173ZM637.478 675.565V666.378H644.57V675.565H652.951V681.125H644.57V709.009C644.57 711.83 645.376 713.119 647.955 713.119H652.548V718.68H645.94C639.896 718.68 637.478 715.779 637.478 709.009V681.125H630.548V675.565H637.478Z" fill="white"/>
<path d="M809.986 648.725L809.986 268.152L735.851 187.795L112.569 187.795" stroke="white" stroke-width="7.32623"/>
<path d="M4.09281 645.368L4.0928 268.151L78.2281 187.794L701.51 187.794" stroke="white" stroke-width="7.32623"/>
<path d="M4 503.437L4.00004 873.207L78.1354 953.564L701.417 953.564" stroke="white" stroke-width="7.32623"/>
<path d="M809.889 482.018L809.889 873.209L735.753 953.565L112.472 953.565" stroke="white" stroke-width="7.32623"/>
<path d="M128.125 1081.14C135.971 1081.14 140.663 1078.37 143.125 1075.6V1063.14H125.817V1057.14H149.971V1077.98C145.664 1082.83 137.971 1087.14 128.048 1087.14C110.432 1087.14 102.047 1074.83 102.047 1058.37C102.047 1041.91 109.509 1029.6 127.048 1029.6C140.587 1029.6 148.587 1035.21 149.664 1046.83H142.587C141.433 1038.6 134.817 1035.6 127.048 1035.6C115.124 1035.6 109.124 1044.52 109.124 1058.37C109.124 1072.21 115.817 1081.14 128.125 1081.14ZM161.176 1085.83V1030.91H196.177V1036.91H168.253V1054.6H194.639V1060.6H168.253V1079.83H196.177V1085.83H161.176ZM202.11 1058.37C202.11 1041.21 211.264 1029.6 228.188 1029.6C245.111 1029.6 254.342 1041.21 254.342 1058.37C254.342 1075.52 245.111 1087.14 228.188 1087.14C211.264 1087.14 202.11 1075.52 202.11 1058.37ZM209.187 1058.37C209.187 1071.52 215.572 1081.14 228.188 1081.14C240.803 1081.14 247.265 1071.52 247.265 1058.37C247.265 1045.21 240.803 1035.6 228.188 1035.6C215.572 1035.6 209.187 1045.21 209.187 1058.37ZM305.617 1046.6C305.617 1053.29 301.233 1058.37 296.463 1059.83V1060.14C301.386 1060.98 304.463 1065.21 305.31 1071.75L307.079 1085.83H299.694L298.002 1071.75C297.079 1064.52 293.078 1063.14 285.309 1063.14H271.847V1085.83H264.847V1030.91H287.386C299.54 1030.91 305.617 1037.67 305.617 1046.6ZM298.617 1046.98C298.617 1040.67 294.463 1036.91 286.771 1036.91H271.847V1057.14H286.617C294.309 1057.14 298.617 1053.29 298.617 1046.98ZM340.345 1081.14C348.192 1081.14 352.884 1078.37 355.346 1075.6V1063.14H338.038V1057.14H362.192V1077.98C357.884 1082.83 350.192 1087.14 340.269 1087.14C322.653 1087.14 314.268 1074.83 314.268 1058.37C314.268 1041.91 321.73 1029.6 339.269 1029.6C352.807 1029.6 360.808 1035.21 361.885 1046.83H354.807C353.654 1038.6 347.038 1035.6 339.269 1035.6C327.345 1035.6 321.345 1044.52 321.345 1058.37C321.345 1072.21 328.037 1081.14 340.345 1081.14ZM373.397 1085.83V1030.91H408.398V1036.91H380.474V1054.6H406.86V1060.6H380.474V1079.83H408.398V1085.83H373.397ZM455.881 1085.83V1030.91H473.805C489.113 1030.91 500.267 1039.83 500.267 1058.37C500.267 1076.91 489.113 1085.83 473.805 1085.83H455.881ZM473.036 1036.91H462.959V1079.83H473.036C485.344 1079.83 493.19 1072.52 493.19 1058.37C493.19 1044.21 485.344 1036.91 473.036 1036.91ZM502.828 1085.83L523.598 1030.98H531.983L552.753 1085.83H545.291L540.291 1072.45H515.29L510.29 1085.83H502.828ZM517.521 1066.44H538.06L532.214 1050.83C530.675 1046.75 529.214 1042.37 527.983 1038.29H527.675C526.444 1042.37 524.906 1046.75 523.367 1050.83L517.521 1066.44ZM570.542 1085.83L550.542 1030.91H558.003L569.311 1062.6C571.081 1067.68 573.235 1073.75 574.619 1078.45H574.927C576.312 1073.75 578.389 1067.68 580.158 1062.6L591.543 1030.91H598.928L578.927 1085.83H570.542ZM606.877 1030.91H613.955V1085.83H606.877V1030.91ZM627.912 1085.83V1030.91H662.913V1036.91H634.989V1054.6H661.374V1060.6H634.989V1079.83H662.913V1085.83H627.912ZM711.272 1045.6H704.195C703.426 1039.06 698.657 1035.29 690.887 1035.29C682.656 1035.29 677.502 1038.98 677.502 1044.83C677.502 1050.06 682.118 1052.37 689.118 1053.83L695.118 1055.06C705.118 1057.14 712.426 1059.83 712.426 1071.29C712.426 1081.06 702.811 1087.14 691.041 1087.14C677.656 1087.14 669.964 1080.83 669.656 1069.52H676.733C677.118 1077.06 682.272 1081.45 691.041 1081.45C699.58 1081.45 705.195 1077.52 705.272 1071.68C705.349 1065.06 700.811 1063.21 692.503 1061.52L686.503 1060.29C676.733 1058.29 670.425 1054.44 670.425 1045.37C670.425 1035.91 679.579 1029.6 690.887 1029.6C701.734 1029.6 710.426 1034.37 711.272 1045.6Z" fill="white"/>
<path d="M808.587 1059.78L734.585 979.57L112.431 979.57" stroke="white" stroke-width="7.36716"/>
<path d="M5.39931 1061.36L80.8835 979.565L703.038 979.565" stroke="white" stroke-width="7.36716"/>
<path d="M808.58 1054.82L732.425 1137.36L110.271 1137.36" stroke="white" stroke-width="7.36716"/>
<path d="M6.88214 1057.15L80.8835 1137.36L703.038 1137.36" stroke="white" stroke-width="7.36716"/>
</svg>
