<svg width="814" height="1326" viewBox="0 0 814 1326" fill="none" xmlns="http://www.w3.org/2000/svg">
<path d="M288.395 106.218C296.242 106.218 300.934 103.448 303.396 100.679V88.2172H286.088V82.217H310.242V103.064C305.934 107.91 298.242 112.218 288.318 112.218C270.703 112.218 262.318 99.9098 262.318 83.4478C262.318 66.9858 269.779 54.6777 287.318 54.6777C300.857 54.6777 308.858 60.2933 309.934 71.909H302.857C301.703 63.678 295.088 60.6779 287.318 60.6779C275.395 60.6779 269.395 69.6012 269.395 83.4478C269.395 97.2944 276.087 106.218 288.395 106.218ZM321.447 110.91V55.9854H339.37C354.679 55.9854 365.833 64.9088 365.833 83.4478C365.833 101.987 354.679 110.91 339.37 110.91H321.447ZM338.601 61.9856H328.524V104.91H338.601C350.909 104.91 358.756 97.6021 358.756 83.4478C358.756 69.2935 350.909 61.9856 338.601 61.9856ZM373.826 93.0635V87.5248H395.827V93.0635H373.826ZM407.537 110.91V55.9854H425.461C440.769 55.9854 451.923 64.9088 451.923 83.4478C451.923 101.987 440.769 110.91 425.461 110.91H407.537ZM424.691 61.9856H414.614V104.91H424.691C437 104.91 444.846 97.6021 444.846 83.4478C444.846 69.2935 437 61.9856 424.691 61.9856ZM500.379 94.2173H507.457C506.38 105.833 497.533 112.218 484.379 112.218C466.917 112.218 458.763 99.9098 458.763 83.4478C458.763 66.9858 466.917 54.6777 484.379 54.6777C497.61 54.6777 506.072 60.2933 507.149 71.909H500.072C498.918 63.678 492.148 60.6779 484.379 60.6779C472.379 60.6779 465.84 69.6012 465.84 83.4478C465.84 97.2174 472.379 106.218 484.379 106.218C492.148 106.218 499.226 102.679 500.379 94.2173ZM511.602 92.525L537.372 55.9854H544.68V92.8327H552.911V98.679H544.68V110.91H537.834V98.679H511.602V92.525ZM538.372 64.5242H538.064C534.987 69.9089 531.372 74.8322 527.295 80.6016L518.449 92.8327H537.834V79.9092C537.834 76.4476 537.988 69.2935 538.372 64.5242Z" fill="white"/>
<path d="M808.772 84.8613L734.77 4.64997L112.616 4.65" stroke="white" stroke-width="7.36716"/>
<path d="M5.58437 86.4433L81.0685 4.64497L703.223 4.64494" stroke="white" stroke-width="7.36716"/>
<path d="M808.765 79.9034L732.61 162.439L110.455 162.439" stroke="white" stroke-width="7.36716"/>
<path d="M7.0672 82.2265L81.0686 162.438L703.223 162.438" stroke="white" stroke-width="7.36716"/>
<path d="M152.363 298.874H174.767C186.613 298.874 193.786 303.548 193.786 313.863C193.786 321.116 188.95 325.065 185.324 326.355V326.677C190.159 327.483 195.8 331.754 195.8 340.377C195.8 351.015 187.741 356.414 176.298 356.414H152.363V298.874ZM159.777 323.776H175.895C181.939 323.776 186.371 320.391 186.371 314.427C186.371 308.544 181.939 305.16 175.895 305.16H159.777V323.776ZM188.386 340.055C188.386 333.769 184.034 330.062 177.104 330.062H159.777V350.128H177.104C184.034 350.128 188.386 346.341 188.386 340.055ZM205.687 319.907L205.526 313.299H212.618L212.779 320.069H213.021C213.988 316.603 217.937 312.493 224.706 312.493H226.64V318.779H223.256C216.486 318.779 212.779 323.937 212.779 332.076V356.414H205.687V319.907ZM249.052 317.893C243.008 317.893 238.898 320.23 238.334 325.146H231.242C231.645 316.362 238.495 312.332 249.052 312.332C261.302 312.332 266.782 317.651 266.782 326.677V346.26C266.782 350.853 266.782 351.901 267.185 356.414H260.093C259.771 353.029 259.69 351.821 259.69 349.242H259.448C257.272 353.191 252.276 357.381 243.895 357.381C235.433 357.381 229.63 352.546 229.63 344.084C229.63 335.139 236.239 331.351 245.265 330.223L259.69 328.369V326.677C259.69 320.472 255.822 317.893 249.052 317.893ZM236.722 344.084C236.722 348.919 240.107 351.821 245.668 351.821C251.47 351.821 259.932 347.388 259.932 336.428V333.769L246.473 335.542C240.107 336.348 236.722 339.168 236.722 344.084ZM278.245 298.874H285.337V332.479L304.758 313.299H313.301L292.509 333.527L313.704 356.414H304.758L285.337 334.978V356.414H278.245V298.874ZM355.323 337.234H321.798C322.524 346.26 327.117 351.982 335.579 351.982C341.462 351.982 346.297 349 347.667 343.359H354.517C353.228 352.546 345.33 357.381 335.579 357.381C322.201 357.381 314.868 348.678 314.868 334.816C314.868 320.955 322.524 312.332 335.096 312.332C348.473 312.332 355.323 321.116 355.323 336.509V337.234ZM321.879 331.835H348.312C347.506 323.373 342.993 317.732 335.096 317.732C327.198 317.732 322.685 323.373 321.879 331.835ZM385.314 298.874H421.66V305.16H392.728V324.501H420.048V330.787H392.728V356.414H385.314V298.874ZM447.646 357.381C434.59 357.381 427.015 348.597 427.015 334.816C427.015 321.036 434.59 312.332 447.646 312.332C460.701 312.332 468.276 321.036 468.276 334.816C468.276 348.597 460.701 357.381 447.646 357.381ZM447.646 351.821C456.672 351.821 461.184 344.729 461.184 334.816C461.184 324.904 456.672 317.893 447.646 317.893C438.7 317.893 434.107 324.904 434.107 334.816C434.107 344.729 438.7 351.821 447.646 351.821ZM477.674 319.907L477.512 313.299H484.604L484.765 320.069H485.007C485.974 316.603 489.923 312.493 496.693 312.493H498.627V318.779H495.242C488.472 318.779 484.765 323.937 484.765 332.076V356.414H477.674V319.907ZM559.595 356.414V328.128C559.595 320.31 554.76 317.893 550.327 317.893C545.814 317.893 539.931 320.955 539.931 330.384V356.414H532.84V328.128C532.84 320.31 528.004 317.893 523.572 317.893C519.059 317.893 513.176 320.955 513.176 330.384V356.414H506.084V319.907L505.923 313.299H513.015L513.176 319.182H513.418C515.03 315.153 520.671 312.332 525.828 312.332C532.678 312.332 536.95 315.717 538.642 319.988H538.803C540.657 315.233 546.217 312.332 552.584 312.332C560.481 312.332 566.687 316.845 566.687 326.677V356.414H559.595ZM615.977 337.234H582.452C583.177 346.26 587.771 351.982 596.233 351.982C602.115 351.982 606.951 349 608.321 343.359H615.171C613.881 352.546 605.984 357.381 596.233 357.381C582.855 357.381 575.521 348.678 575.521 334.816C575.521 320.955 583.177 312.332 595.749 312.332C609.127 312.332 615.977 321.116 615.977 336.509V337.234ZM582.532 331.835H608.965C608.16 323.373 603.647 317.732 595.749 317.732C587.851 317.732 583.338 323.373 582.532 331.835ZM623.056 334.816C623.056 319.746 632.001 312.332 642.478 312.332C648.925 312.332 654.082 315.797 656.258 319.021H656.339V298.874H663.431V345.938L663.673 356.414H656.581L656.339 349.967H656.258C654.566 353.835 649.247 357.381 642.317 357.381C630.712 357.381 623.056 349.081 623.056 334.816ZM657.064 334.816C657.064 324.904 652.068 317.893 643.687 317.893C635.225 317.893 630.148 324.904 630.148 334.816C630.148 344.729 635.225 351.821 643.687 351.821C652.068 351.821 657.064 344.729 657.064 334.816ZM184.709 437.414V379.874H203.486C219.523 379.874 231.208 389.222 231.208 408.644C231.208 428.066 219.523 437.414 203.486 437.414H184.709ZM202.68 386.16H192.123V431.128H202.68C215.574 431.128 223.794 423.472 223.794 408.644C223.794 393.816 215.574 386.16 202.68 386.16ZM240.469 387.852V379.874H248.205V387.852H240.469ZM240.791 437.414V394.299H247.883V437.414H240.791ZM259.833 400.907L259.672 394.299H266.763L266.925 401.069H267.166C268.778 397.362 273.694 393.332 281.028 393.332C290.537 393.332 296.501 399.296 296.501 408.966V437.414H289.409V409.772C289.409 403.083 285.863 398.893 279.255 398.893C271.76 398.893 266.925 404.534 266.925 412.512V437.414H259.833V400.907ZM307.521 387.852V379.874H315.258V387.852H307.521ZM307.843 437.414V394.299H314.935V437.414H307.843ZM326.885 400.907L326.724 394.299H333.816L333.977 401.069H334.219C335.83 397.362 340.746 393.332 348.08 393.332C357.589 393.332 363.553 399.296 363.553 408.966V437.414H356.461V409.772C356.461 403.083 352.915 398.893 346.307 398.893C338.812 398.893 333.977 404.534 333.977 412.512V437.414H326.885V400.907ZM372.559 415.172C372.559 400.988 381.987 393.332 391.98 393.332C399.072 393.332 403.827 396.797 405.761 400.424H405.842L406.083 394.299H413.256L413.014 404.776V434.029C413.014 446.521 403.343 452.806 392.061 452.806C381.746 452.806 376.104 449.261 374.734 440.718H381.826C382.874 445.473 386.42 447.568 392.464 447.568C400.039 447.568 405.842 442.652 405.842 434.029V429.436H405.761C403.746 433.465 398.266 437.011 391.819 437.011C379.973 437.011 372.559 429.355 372.559 415.172ZM406.647 415.172C406.647 405.259 401.329 398.893 393.189 398.893C384.969 398.893 379.65 405.259 379.65 415.172C379.65 425.084 384.969 431.451 393.189 431.451C401.329 431.451 406.647 425.084 406.647 415.172ZM485.253 419.926H492.668C491.539 432.095 482.272 438.784 468.491 438.784C450.197 438.784 441.655 425.89 441.655 408.644C441.655 391.398 450.197 378.504 468.491 378.504C482.352 378.504 491.217 384.387 492.345 396.556H484.931C483.722 387.933 476.63 384.79 468.491 384.79C455.919 384.79 449.069 394.138 449.069 408.644C449.069 423.069 455.919 432.498 468.491 432.498C476.63 432.498 484.045 428.791 485.253 419.926ZM501.201 379.874H508.293V401.069H508.535C510.146 397.362 514.982 393.332 522.396 393.332C531.825 393.332 537.869 399.296 537.869 408.966V437.414H530.777V409.772C530.777 403.083 527.231 398.893 520.623 398.893C513.128 398.893 508.293 404.534 508.293 412.512V437.414H501.201V379.874ZM565.897 398.893C559.853 398.893 555.743 401.23 555.179 406.146H548.087C548.49 397.362 555.34 393.332 565.897 393.332C578.147 393.332 583.627 398.651 583.627 407.677V427.26C583.627 431.853 583.627 432.901 584.03 437.414H576.938C576.616 434.029 576.535 432.821 576.535 430.242H576.293C574.117 434.191 569.121 438.381 560.74 438.381C552.278 438.381 546.475 433.546 546.475 425.084C546.475 416.139 553.084 412.351 562.11 411.223L576.535 409.369V407.677C576.535 401.472 572.667 398.893 565.897 398.893ZM553.567 425.084C553.567 429.919 556.952 432.821 562.513 432.821C568.315 432.821 576.777 428.388 576.777 417.428V414.769L563.318 416.542C556.952 417.348 553.567 420.168 553.567 425.084ZM595.09 387.852V379.874H602.826V387.852H595.09ZM595.412 437.414V394.299H602.504V437.414H595.412ZM614.454 400.907L614.293 394.299H621.384L621.545 401.069H621.787C622.754 397.603 626.703 393.493 633.473 393.493H635.407V399.779H632.022C625.253 399.779 621.545 404.937 621.545 413.076V437.414H614.454V400.907Z" fill="white"/>
<path d="M224.775 600.824L245.565 545.923H253.958L274.748 600.824H267.279L262.274 587.426H237.249L232.244 600.824H224.775ZM239.482 581.42H260.041L254.189 565.789C252.649 561.708 251.186 557.319 249.954 553.238H249.646C248.414 557.319 246.874 561.708 245.334 565.789L239.482 581.42ZM281.459 600.824V545.846H288.235V600.824H281.459ZM334.164 594.51L334.318 600.824H327.542L327.388 594.356H327.157C325.617 597.821 320.997 601.748 313.99 601.748C304.981 601.748 299.591 596.127 299.591 586.887V559.629H306.367V586.04C306.367 592.431 309.37 596.435 315.684 596.435C322.768 596.435 327.388 591.045 327.388 583.422V559.629H334.164V594.51ZM397.22 600.824V573.797C397.22 566.328 392.6 564.018 388.365 564.018C384.053 564.018 378.432 566.944 378.432 575.953V600.824H371.656V573.797C371.656 566.328 367.036 564.018 362.801 564.018C358.489 564.018 352.868 566.944 352.868 575.953V600.824H346.092V565.943L345.938 559.629H352.714L352.868 565.25H353.099C354.639 561.4 360.029 558.705 364.957 558.705C371.502 558.705 375.583 561.939 377.2 566.02H377.354C379.125 561.477 384.438 558.705 390.521 558.705C398.067 558.705 403.996 563.017 403.996 572.411V600.824H397.22ZM415.286 553.469V545.846H422.678V553.469H415.286ZM415.594 600.824V559.629H422.37V600.824H415.594ZM434.558 565.943L434.404 559.629H441.18L441.334 566.097H441.565C443.105 562.555 447.802 558.705 454.809 558.705C463.895 558.705 469.593 564.403 469.593 573.643V600.824H462.817V574.413C462.817 568.022 459.429 564.018 453.115 564.018C445.954 564.018 441.334 569.408 441.334 577.031V600.824H434.558V565.943ZM515.08 594.51L515.234 600.824H508.458L508.304 594.356H508.073C506.533 597.821 501.913 601.748 494.906 601.748C485.897 601.748 480.507 596.127 480.507 586.887V559.629H487.283V586.04C487.283 592.431 490.286 596.435 496.6 596.435C503.684 596.435 508.304 591.045 508.304 583.422V559.629H515.08V594.51ZM578.137 600.824V573.797C578.137 566.328 573.517 564.018 569.282 564.018C564.97 564.018 559.349 566.944 559.349 575.953V600.824H552.573V573.797C552.573 566.328 547.953 564.018 543.718 564.018C539.406 564.018 533.785 566.944 533.785 575.953V600.824H527.009V565.943L526.855 559.629H533.631L533.785 565.25H534.016C535.556 561.4 540.946 558.705 545.874 558.705C552.419 558.705 556.5 561.939 558.117 566.02H558.271C560.042 561.477 565.355 558.705 571.438 558.705C578.984 558.705 584.913 563.017 584.913 572.411V600.824H578.137Z" fill="white"/>
<path d="M260.193 721.654C260.193 715.494 255.188 712.799 249.567 712.799C244.1 712.799 239.018 714.878 238.171 721.731H231.318C232.242 711.182 239.48 706.947 249.567 706.947C260.039 706.947 267.123 712.26 267.123 720.73C267.123 728.276 262.272 732.357 258.422 733.666V733.82C263.735 735.283 269.279 739.441 269.279 748.373C269.279 758.691 260.578 764.543 249.567 764.543C237.401 764.543 230.163 759.692 229.855 748.527H236.708C237.401 755.611 242.098 758.691 249.567 758.691C257.113 758.691 262.349 754.841 262.349 747.603C262.349 740.827 257.498 737.131 250.106 737.131H245.563V730.971H249.644C255.573 730.971 260.193 727.66 260.193 721.654ZM319.244 735.745C319.244 751.53 313.315 764.543 298.3 764.543C283.285 764.543 277.279 751.53 277.279 735.745C277.279 719.96 283.285 706.947 298.3 706.947C313.315 706.947 319.244 719.96 319.244 735.745ZM312.314 735.745C312.314 722.809 308.541 712.799 298.3 712.799C288.136 712.799 284.209 722.809 284.209 735.745C284.209 748.604 288.136 758.691 298.3 758.691C308.541 758.691 312.314 748.604 312.314 735.745ZM330.908 708.333H337.992V731.818H366.559V708.333H373.643V763.234H366.559V737.824H337.992V763.234H330.908V708.333ZM411.037 728.507L401.797 716.341H406.802L413.655 725.735L420.508 716.341H425.513L416.196 728.507L425.975 741.135H420.97L413.655 731.279L406.263 741.135H401.335L411.037 728.507ZM464.556 708.256H469.561V763.234H462.785V723.348H449.541V718.343C459.32 717.573 462.323 716.187 464.556 708.256ZM478.623 714.108V708.256H514.043V713.415L490.25 763.234H482.781L506.343 714.108H478.623ZM540 763.234H531.53L517.516 708.256H524.6L532.146 738.671C533.532 743.907 534.918 749.913 535.919 755.226H536.227C537.305 749.913 538.768 743.907 540.077 738.671L547.469 708.256H555.939L563.331 738.671C564.64 743.907 566.103 749.913 567.181 755.226H567.489C568.49 749.913 569.876 743.907 571.262 738.671L578.808 708.256H585.892L571.878 763.234H563.408L555.862 733.281C554.553 727.968 553.09 722.424 551.858 716.649H551.55C550.318 722.424 548.855 727.968 547.546 733.281L540 763.234ZM252.585 805.507L243.345 793.341H248.35L255.203 802.735L262.056 793.341H267.061L257.744 805.507L267.523 818.135H262.518L255.203 808.279L247.811 818.135H242.883L252.585 805.507ZM306.104 785.256H311.109V840.234H304.333V800.348H291.089V795.343C300.868 794.573 303.871 793.187 306.104 785.256ZM322.097 803.813C322.097 792.494 329.951 783.947 341.809 783.947C354.976 783.947 361.829 793.264 361.829 810.05C361.829 831.533 352.82 841.543 340.5 841.543C331.876 841.543 324.792 837.077 323.714 827.683H330.644C331.645 833.535 335.418 836.076 340.5 836.076C348.123 836.076 354.206 828.761 354.36 815.825H354.052C352.127 818.982 347.353 822.139 340.577 822.139C330.567 822.139 322.097 815.517 322.097 803.813ZM354.591 803.043C354.591 795.574 349.663 789.799 341.809 789.799C334.032 789.799 329.027 795.574 329.027 803.043C329.027 810.512 334.032 816.287 341.809 816.287C349.663 816.287 354.591 809.896 354.591 803.043ZM370.434 830.147H379.212V840.234H370.434V830.147ZM407.865 841.543C398.086 841.543 390.078 837.693 388.769 826.913H395.622C396.854 833.535 401.936 835.691 407.865 835.691C415.565 835.691 421.417 829.916 421.417 822.139C421.417 814.362 416.951 808.51 408.558 808.51C403.168 808.51 399.241 810.897 397.162 814.978H390.078L394.929 785.256H426.114V791.108H400.627L397.855 807.201H398.163C400.165 804.814 404.785 802.658 409.713 802.658C420.955 802.658 428.347 810.666 428.347 822.139C428.347 833.612 419.646 841.543 407.865 841.543ZM439.168 840.234V785.256H457.109C472.432 785.256 483.597 794.188 483.597 812.745C483.597 831.302 472.432 840.234 457.109 840.234H439.168ZM456.339 791.262H446.252V834.228H456.339C468.659 834.228 476.513 826.913 476.513 812.745C476.513 798.577 468.659 791.262 456.339 791.262ZM512.258 792.879V785.256H519.65V792.879H512.258ZM512.566 840.234V799.039H519.342V840.234H512.566ZM531.53 805.353L531.376 799.039H538.152L538.306 805.507H538.537C540.077 801.965 544.774 798.115 551.781 798.115C560.867 798.115 566.565 803.813 566.565 813.053V840.234H559.789V813.823C559.789 807.432 556.401 803.428 550.087 803.428C542.926 803.428 538.306 808.818 538.306 816.441V840.234H531.53V805.353Z" fill="white"/>
<path d="M810.171 649.37L810.171 268.797L736.036 188.44L112.754 188.44" stroke="white" stroke-width="7.32623"/>
<path d="M4.27812 646.014L4.2781 268.796L78.4134 188.44L701.695 188.44" stroke="white" stroke-width="7.32623"/>
<path d="M4.18506 504.082L4.1851 873.851L78.3204 954.208L701.602 954.208" stroke="white" stroke-width="7.32623"/>
<path d="M810.074 482.661L810.074 873.852L735.939 954.209L112.657 954.209" stroke="white" stroke-width="7.32623"/>
<path d="M269.292 1087.78C257.369 1087.78 249.214 1082.01 249.214 1071.86C249.214 1062.94 254.907 1058.47 260.138 1057.17V1057.01C254.599 1055.01 251.291 1050.78 251.291 1044.55C251.291 1034.78 260.215 1030.24 269.215 1030.24C278.138 1030.24 287.139 1034.78 287.139 1044.55C287.139 1050.78 283.754 1055.01 278.215 1057.01V1057.17C283.446 1058.47 289.139 1062.94 289.139 1071.86C289.139 1082.01 281.138 1087.78 269.292 1087.78ZM258.215 1045.17C258.215 1050.86 263.215 1054.24 269.215 1054.24C275.138 1054.24 280.292 1050.86 280.292 1045.17C280.292 1039.4 275.138 1036.09 269.215 1036.09C263.215 1036.09 258.215 1039.4 258.215 1045.17ZM256.138 1071.01C256.138 1078.24 262.292 1081.94 269.215 1081.94C276.138 1081.94 282.215 1078.24 282.215 1071.01C282.215 1063.86 276.138 1060.09 269.215 1060.09C262.292 1060.09 256.138 1063.86 256.138 1071.01ZM338.171 1059.01C338.171 1074.78 332.248 1087.78 317.247 1087.78C302.247 1087.78 296.246 1074.78 296.246 1059.01C296.246 1043.24 302.247 1030.24 317.247 1030.24C332.248 1030.24 338.171 1043.24 338.171 1059.01ZM331.248 1059.01C331.248 1046.09 327.478 1036.09 317.247 1036.09C307.093 1036.09 303.17 1046.09 303.17 1059.01C303.17 1071.86 307.093 1081.94 317.247 1081.94C327.478 1081.94 331.248 1071.86 331.248 1059.01ZM387.902 1059.01C387.902 1074.78 381.979 1087.78 366.978 1087.78C351.978 1087.78 345.978 1074.78 345.978 1059.01C345.978 1043.24 351.978 1030.24 366.978 1030.24C381.979 1030.24 387.902 1043.24 387.902 1059.01ZM380.979 1059.01C380.979 1046.09 377.209 1036.09 366.978 1036.09C356.824 1036.09 352.901 1046.09 352.901 1059.01C352.901 1071.86 356.824 1081.94 366.978 1081.94C377.209 1081.94 380.979 1071.86 380.979 1059.01ZM416.425 1066.47V1031.55H423.502V1067.01C423.502 1075.71 429.041 1081.78 437.887 1081.78C446.81 1081.78 452.195 1075.63 452.195 1066.94V1031.55H459.272V1066.4C459.272 1080.09 450.657 1087.78 437.887 1087.78C425.194 1087.78 416.425 1080.17 416.425 1066.47ZM509.942 1046.24H502.864C502.095 1039.7 497.326 1035.93 489.556 1035.93C481.325 1035.93 476.171 1039.63 476.171 1045.47C476.171 1050.7 480.787 1053.01 487.787 1054.47L493.787 1055.7C503.788 1057.78 511.095 1060.47 511.095 1071.94C511.095 1081.71 501.48 1087.78 489.71 1087.78C476.325 1087.78 468.633 1081.47 468.325 1070.17H475.402C475.787 1077.71 480.941 1082.09 489.71 1082.09C498.249 1082.09 503.865 1078.17 503.941 1072.32C504.018 1065.7 499.48 1063.86 491.172 1062.17L485.172 1060.94C475.402 1058.94 469.094 1055.09 469.094 1046.01C469.094 1036.55 478.248 1030.24 489.556 1030.24C500.403 1030.24 509.095 1035.01 509.942 1046.24ZM521.01 1086.47V1031.55H538.933C554.242 1031.55 565.396 1040.47 565.396 1059.01C565.396 1077.55 554.242 1086.47 538.933 1086.47H521.01ZM538.164 1037.55H528.087V1080.47H538.164C550.472 1080.47 558.319 1073.17 558.319 1059.01C558.319 1044.86 550.472 1037.55 538.164 1037.55Z" fill="white"/>
<path d="M808.772 1060.43L734.771 980.214L112.616 980.214" stroke="white" stroke-width="7.36716"/>
<path d="M5.58461 1062.01L81.0688 980.209L703.223 980.209" stroke="white" stroke-width="7.36716"/>
<path d="M808.765 1055.47L732.61 1138L110.455 1138" stroke="white" stroke-width="7.36716"/>
<path d="M7.06745 1057.79L81.0688 1138L703.223 1138" stroke="white" stroke-width="7.36716"/>
<path d="M128.31 1265.58C136.156 1265.58 140.849 1262.81 143.31 1260.04V1247.58H126.002V1241.58H150.156V1262.42C145.849 1267.27 138.156 1271.58 128.233 1271.58C110.617 1271.58 102.232 1259.27 102.232 1242.81C102.232 1226.34 109.694 1214.04 127.233 1214.04C140.772 1214.04 148.772 1219.65 149.849 1231.27H142.772C141.618 1223.04 135.002 1220.04 127.233 1220.04C115.309 1220.04 109.309 1228.96 109.309 1242.81C109.309 1256.65 116.002 1265.58 128.31 1265.58ZM161.361 1270.27V1215.34H196.362V1221.34H168.438V1239.04H194.824V1245.04H168.438V1264.27H196.362V1270.27H161.361ZM202.295 1242.81C202.295 1225.65 211.449 1214.04 228.373 1214.04C245.296 1214.04 254.527 1225.65 254.527 1242.81C254.527 1259.96 245.296 1271.58 228.373 1271.58C211.449 1271.58 202.295 1259.96 202.295 1242.81ZM209.372 1242.81C209.372 1255.96 215.757 1265.58 228.373 1265.58C240.989 1265.58 247.45 1255.96 247.45 1242.81C247.45 1229.65 240.989 1220.04 228.373 1220.04C215.757 1220.04 209.372 1229.65 209.372 1242.81ZM305.802 1231.04C305.802 1237.73 301.418 1242.81 296.648 1244.27V1244.58C301.571 1245.42 304.648 1249.65 305.495 1256.19L307.264 1270.27H299.879L298.187 1256.19C297.264 1248.96 293.264 1247.58 285.494 1247.58H272.032V1270.27H265.032V1215.34H287.571C299.725 1215.34 305.802 1222.11 305.802 1231.04ZM298.802 1231.42C298.802 1225.11 294.648 1221.34 286.956 1221.34H272.032V1241.58H286.802C294.494 1241.58 298.802 1237.73 298.802 1231.42ZM340.531 1265.58C348.377 1265.58 353.069 1262.81 355.531 1260.04V1247.58H338.223V1241.58H362.377V1262.42C358.07 1267.27 350.377 1271.58 340.454 1271.58C322.838 1271.58 314.453 1259.27 314.453 1242.81C314.453 1226.34 321.915 1214.04 339.454 1214.04C352.992 1214.04 360.993 1219.65 362.07 1231.27H354.993C353.839 1223.04 347.223 1220.04 339.454 1220.04C327.53 1220.04 321.53 1228.96 321.53 1242.81C321.53 1256.65 328.222 1265.58 340.531 1265.58ZM373.582 1270.27V1215.34H408.583V1221.34H380.659V1239.04H407.045V1245.04H380.659V1264.27H408.583V1270.27H373.582ZM456.066 1270.27V1215.34H473.99C489.298 1215.34 500.452 1224.27 500.452 1242.81C500.452 1261.35 489.298 1270.27 473.99 1270.27H456.066ZM473.221 1221.34H463.144V1264.27H473.221C485.529 1264.27 493.375 1256.96 493.375 1242.81C493.375 1228.65 485.529 1221.34 473.221 1221.34ZM503.013 1270.27L523.783 1215.42H532.168L552.938 1270.27H545.476L540.476 1256.88H515.475L510.475 1270.27H503.013ZM517.706 1250.88H538.245L532.399 1235.27C530.86 1231.19 529.399 1226.81 528.168 1222.73H527.86C526.629 1226.81 525.091 1231.19 523.552 1235.27L517.706 1250.88ZM570.727 1270.27L550.727 1215.34H558.188L569.497 1247.04C571.266 1252.11 573.42 1258.19 574.804 1262.88H575.112C576.497 1258.19 578.574 1252.11 580.343 1247.04L591.728 1215.34H599.113L579.112 1270.27H570.727ZM607.063 1215.34H614.14V1270.27H607.063V1215.34ZM628.097 1270.27V1215.34H663.098V1221.34H635.174V1239.04H661.559V1245.04H635.174V1264.27H663.098V1270.27H628.097ZM711.458 1230.04H704.38C703.611 1223.5 698.842 1219.73 691.072 1219.73C682.841 1219.73 677.687 1223.42 677.687 1229.27C677.687 1234.5 682.303 1236.81 689.303 1238.27L695.303 1239.5C705.304 1241.58 712.611 1244.27 712.611 1255.73C712.611 1265.5 702.996 1271.58 691.226 1271.58C677.841 1271.58 670.149 1265.27 669.841 1253.96H676.918C677.303 1261.5 682.457 1265.88 691.226 1265.88C699.765 1265.88 705.38 1261.96 705.457 1256.11C705.534 1249.5 700.996 1247.65 692.688 1245.96L686.688 1244.73C676.918 1242.73 670.61 1238.88 670.61 1229.81C670.61 1220.34 679.764 1214.04 691.072 1214.04C701.919 1214.04 710.611 1218.81 711.458 1230.04Z" fill="white"/>
<path d="M808.772 1244.22L734.771 1164.01L112.616 1164.01" stroke="white" stroke-width="7.36716"/>
<path d="M5.58461 1245.8L81.0688 1164L703.223 1164" stroke="white" stroke-width="7.36716"/>
<path d="M808.765 1239.26L732.61 1321.8L110.455 1321.8" stroke="white" stroke-width="7.36716"/>
<path d="M7.06745 1241.58L81.0688 1321.8L703.223 1321.8" stroke="white" stroke-width="7.36716"/>
</svg>
