<svg width="814" height="1142" viewBox="0 0 814 1142" fill="none" xmlns="http://www.w3.org/2000/svg">
<path d="M201.245 93.5728H208.322C207.245 105.189 198.399 111.573 185.244 111.573C167.782 111.573 159.628 99.2653 159.628 82.8033C159.628 66.3412 167.782 54.0332 185.244 54.0332C198.476 54.0332 206.937 59.6487 208.014 71.2645H200.937C199.783 63.0334 193.014 60.0333 185.244 60.0333C173.244 60.0333 166.705 68.9567 166.705 82.8033C166.705 96.5729 173.244 105.573 185.244 105.573C193.014 105.573 200.091 102.035 201.245 93.5728ZM214.468 82.8033C214.468 65.6489 223.622 54.0332 240.545 54.0332C257.469 54.0332 266.7 65.6489 266.7 82.8033C266.7 99.9576 257.469 111.573 240.545 111.573C223.622 111.573 214.468 99.9576 214.468 82.8033ZM221.545 82.8033C221.545 95.9575 227.93 105.573 240.545 105.573C253.161 105.573 259.623 95.9575 259.623 82.8033C259.623 69.649 253.161 60.0333 240.545 60.0333C227.93 60.0333 221.545 69.649 221.545 82.8033ZM284.051 110.266H277.128V55.3409H286.359L298.821 90.1112C300.667 95.1883 301.667 98.3422 303.128 103.419H303.436C304.975 98.3422 305.898 95.1883 307.744 90.1112L320.206 55.3409H329.437V110.266H322.514V80.1109C322.514 74.7261 322.59 71.4183 322.821 66.0335H322.514C321.206 70.5721 320.437 72.8799 318.36 78.6493L306.975 110.266H299.59L288.205 78.6493C286.128 72.8799 285.359 70.5721 284.051 66.0335H283.743C283.974 71.4183 284.051 74.7261 284.051 80.1109V110.266ZM350.384 110.266H343.461V55.3409H352.692L365.154 90.1112C367 95.1883 368 98.3422 369.461 103.419H369.769C371.308 98.3422 372.231 95.1883 374.077 90.1112L386.539 55.3409H395.77V110.266H388.847V80.1109C388.847 74.7261 388.924 71.4183 389.154 66.0335H388.847C387.539 70.5721 386.77 72.8799 384.693 78.6493L373.308 110.266H365.923L354.538 78.6493C352.461 72.8799 351.692 70.5721 350.384 66.0335H350.076C350.307 71.4183 350.384 74.7261 350.384 80.1109V110.266ZM409.794 55.3409H416.871V110.266H409.794V55.3409ZM468.214 70.0337H461.137C460.367 63.495 455.598 59.7257 447.829 59.7257C439.598 59.7257 434.444 63.4181 434.444 69.2644C434.444 74.4953 439.059 76.8031 446.059 78.2647L452.059 79.4955C462.06 81.5725 469.368 84.2648 469.368 95.7267C469.368 105.496 459.752 111.573 447.982 111.573C434.597 111.573 426.905 105.265 426.597 93.9574H433.674C434.059 101.496 439.213 105.881 447.982 105.881C456.521 105.881 462.137 101.958 462.214 96.1114C462.291 89.4958 457.752 87.6496 449.444 85.9572L443.444 84.7264C433.674 82.7263 427.366 78.8801 427.366 69.8029C427.366 60.3411 436.521 54.0332 447.829 54.0332C458.675 54.0332 467.368 58.8025 468.214 70.0337ZM516.668 70.0337H509.591C508.821 63.495 504.052 59.7257 496.283 59.7257C488.052 59.7257 482.898 63.4181 482.898 69.2644C482.898 74.4953 487.513 76.8031 494.513 78.2647L500.513 79.4955C510.514 81.5725 517.822 84.2648 517.822 95.7267C517.822 105.496 508.206 111.573 496.436 111.573C483.051 111.573 475.359 105.265 475.051 93.9574H482.128C482.513 101.496 487.667 105.881 496.436 105.881C504.975 105.881 510.591 101.958 510.668 96.1114C510.745 89.4958 506.206 87.6496 497.898 85.9572L491.898 84.7264C482.128 82.7263 475.82 78.8801 475.82 69.8029C475.82 60.3411 484.975 54.0332 496.283 54.0332C507.129 54.0332 515.822 58.8025 516.668 70.0337ZM527.736 55.3409H534.813V110.266H527.736V55.3409ZM545.232 82.8033C545.232 65.6489 554.386 54.0332 571.309 54.0332C588.233 54.0332 597.464 65.6489 597.464 82.8033C597.464 99.9576 588.233 111.573 571.309 111.573C554.386 111.573 545.232 99.9576 545.232 82.8033ZM552.309 82.8033C552.309 95.9575 558.694 105.573 571.309 105.573C583.925 105.573 590.387 95.9575 590.387 82.8033C590.387 69.649 583.925 60.0333 571.309 60.0333C558.694 60.0333 552.309 69.649 552.309 82.8033ZM607.892 110.266V55.3409H616.738L633.277 82.7263C638.354 91.1112 641.431 96.6498 643.816 101.188H644.124C643.893 95.1113 643.739 89.1881 643.739 81.4955V55.3409H650.816V110.266H642.047L625.508 82.8802C620.431 74.4953 617.354 68.9567 614.892 64.4181H614.584C614.892 70.4952 614.969 76.4185 614.969 84.111V110.266H607.892Z" fill="white"/>
<path d="M808.587 84.2168L734.585 4.00544L112.431 4.00547" stroke="white" stroke-width="7.36716"/>
<path d="M5.39931 85.7988L80.8835 4.00043L703.038 4.00041" stroke="white" stroke-width="7.36716"/>
<path d="M808.58 79.2578L732.425 161.794L110.271 161.794" stroke="white" stroke-width="7.36716"/>
<path d="M6.88214 81.582L80.8835 161.793L703.038 161.793" stroke="white" stroke-width="7.36716"/>
<path d="M184.383 475.68H175.518L160.851 418.139H168.265L176.163 449.972C177.613 455.452 179.064 461.738 180.111 467.298H180.434C181.562 461.738 183.093 455.452 184.463 449.972L192.2 418.139H201.064L208.801 449.972C210.171 455.452 211.702 461.738 212.83 467.298H213.153C214.2 461.738 215.651 455.452 217.101 449.972L224.999 418.139H232.413L217.746 475.68H208.881L200.984 444.331C199.614 438.77 198.083 432.968 196.793 426.924H196.471C195.181 432.968 193.65 438.77 192.28 444.331L184.383 475.68ZM275.179 456.5H241.655C242.38 465.526 246.973 471.247 255.435 471.247C261.318 471.247 266.153 468.266 267.523 462.624H274.373C273.084 471.811 265.186 476.647 255.435 476.647C242.057 476.647 234.724 467.943 234.724 454.082C234.724 440.221 242.38 431.598 254.952 431.598C268.329 431.598 275.179 440.382 275.179 455.774V456.5ZM241.735 451.1H268.168C267.362 442.638 262.849 436.997 254.952 436.997C247.054 436.997 242.541 442.638 241.735 451.1ZM284.434 475.68V418.139H291.526V475.68H284.434ZM300.832 454.082C300.832 439.012 309.777 431.598 320.254 431.598C326.701 431.598 331.858 435.063 334.034 438.287H334.115V418.139H341.207V465.203L341.448 475.68H334.356L334.115 469.233H334.034C332.342 473.101 327.023 476.647 320.092 476.647C308.488 476.647 300.832 468.346 300.832 454.082ZM334.84 454.082C334.84 444.17 329.844 437.158 321.462 437.158C313.001 437.158 307.923 444.17 307.923 454.082C307.923 463.994 313.001 471.086 321.462 471.086C329.844 471.086 334.84 463.994 334.84 454.082ZM391.104 456.5H357.579C358.304 465.526 362.898 471.247 371.36 471.247C377.243 471.247 382.078 468.266 383.448 462.624H390.298C389.009 471.811 381.111 476.647 371.36 476.647C357.982 476.647 350.649 467.943 350.649 454.082C350.649 440.221 358.304 431.598 370.876 431.598C384.254 431.598 391.104 440.382 391.104 455.774V456.5ZM357.66 451.1H384.093C383.287 442.638 378.774 436.997 370.876 436.997C362.979 436.997 358.466 442.638 357.66 451.1ZM398.183 454.082C398.183 439.012 407.129 431.598 417.605 431.598C424.052 431.598 429.21 435.063 431.386 438.287H431.466V418.139H438.558V465.203L438.8 475.68H431.708L431.466 469.233H431.386C429.693 473.101 424.374 476.647 417.444 476.647C405.839 476.647 398.183 468.346 398.183 454.082ZM432.192 454.082C432.192 444.17 427.195 437.158 418.814 437.158C410.352 437.158 405.275 444.17 405.275 454.082C405.275 463.994 410.352 471.086 418.814 471.086C427.195 471.086 432.192 463.994 432.192 454.082ZM510.078 433.532H502.664C501.858 426.682 496.861 422.733 488.722 422.733C480.099 422.733 474.699 426.601 474.699 432.726C474.699 438.206 479.535 440.624 486.868 442.155L493.154 443.444C503.631 445.62 511.287 448.441 511.287 460.448C511.287 470.683 501.213 477.05 488.883 477.05C474.861 477.05 466.802 470.441 466.479 458.595H473.894C474.297 466.493 479.696 471.086 488.883 471.086C497.828 471.086 503.711 466.976 503.792 460.851C503.872 453.921 499.118 451.987 490.414 450.214L484.128 448.924C473.894 446.829 467.285 442.8 467.285 433.29C467.285 423.378 476.875 416.769 488.722 416.769C500.085 416.769 509.191 421.766 510.078 433.532ZM523.285 432.565V423.378H530.377V432.565H538.758V438.125H530.377V466.009C530.377 468.83 531.183 470.119 533.761 470.119H538.355V475.68H531.747C525.703 475.68 523.285 472.779 523.285 466.009V438.125H516.354V432.565H523.285ZM584.784 456.5H551.259C551.984 465.526 556.578 471.247 565.04 471.247C570.923 471.247 575.758 468.266 577.128 462.624H583.978C582.689 471.811 574.791 476.647 565.04 476.647C551.662 476.647 544.329 467.943 544.329 454.082C544.329 440.221 551.984 431.598 564.556 431.598C577.934 431.598 584.784 440.382 584.784 455.774V456.5ZM551.34 451.1H577.773C576.967 442.638 572.454 436.997 564.556 436.997C556.659 436.997 552.146 442.638 551.34 451.1ZM632.319 456.5H598.794C599.519 465.526 604.113 471.247 612.574 471.247C618.457 471.247 623.293 468.266 624.663 462.624H631.513C630.223 471.811 622.326 476.647 612.574 476.647C599.197 476.647 591.863 467.943 591.863 454.082C591.863 440.221 599.519 431.598 612.091 431.598C625.469 431.598 632.319 440.382 632.319 455.774V456.5ZM598.874 451.1H625.307C624.502 442.638 619.989 436.997 612.091 436.997C604.193 436.997 599.68 442.638 598.874 451.1ZM641.574 475.68V418.139H648.665V475.68H641.574ZM205.038 514.532H197.624C196.818 507.682 191.821 503.733 183.682 503.733C175.059 503.733 169.659 507.601 169.659 513.726C169.659 519.206 174.495 521.624 181.828 523.155L188.114 524.444C198.591 526.62 206.247 529.441 206.247 541.448C206.247 551.683 196.173 558.05 183.843 558.05C169.821 558.05 161.762 551.441 161.439 539.595H168.854C169.256 547.493 174.656 552.086 183.843 552.086C192.788 552.086 198.671 547.976 198.752 541.851C198.832 534.921 194.078 532.987 185.374 531.214L179.088 529.924C168.854 527.829 162.245 523.8 162.245 514.29C162.245 504.378 171.835 497.769 183.682 497.769C195.045 497.769 204.151 502.766 205.038 514.532ZM215.021 499.139H222.113V532.745L241.535 513.565H250.077L229.285 533.793L250.48 556.68H241.535L222.113 535.243V556.68H215.021V499.139ZM273.185 518.158C267.141 518.158 263.031 520.495 262.467 525.411H255.375C255.778 516.627 262.628 512.598 273.185 512.598C285.435 512.598 290.915 517.917 290.915 526.943V546.526C290.915 551.119 290.915 552.167 291.318 556.68H284.226C283.904 553.295 283.823 552.086 283.823 549.507H283.581C281.405 553.456 276.409 557.647 268.028 557.647C259.566 557.647 253.764 552.811 253.764 544.35C253.764 535.404 260.372 531.617 269.398 530.488L283.823 528.635V526.943C283.823 520.737 279.955 518.158 273.185 518.158ZM260.855 544.35C260.855 549.185 264.24 552.086 269.801 552.086C275.603 552.086 284.065 547.654 284.065 536.694V534.034L270.607 535.807C264.24 536.613 260.855 539.434 260.855 544.35ZM305.287 513.565V504.378H312.378V513.565H320.76V519.125H312.378V547.009C312.378 549.83 313.184 551.119 315.763 551.119H320.357V556.68H313.748C307.704 556.68 305.287 553.779 305.287 547.009V519.125H298.356V513.565H305.287ZM366.786 537.5H333.261C333.986 546.526 338.58 552.247 347.042 552.247C352.925 552.247 357.76 549.266 359.13 543.624H365.98C364.691 552.811 356.793 557.647 347.042 557.647C333.664 557.647 326.33 548.943 326.33 535.082C326.33 521.221 333.986 512.598 346.558 512.598C359.936 512.598 366.786 521.382 366.786 536.774V537.5ZM333.342 532.1H359.775C358.969 523.638 354.456 517.997 346.558 517.997C338.66 517.997 334.147 523.638 333.342 532.1ZM436.668 539.192H444.082C442.954 551.361 433.686 558.05 419.906 558.05C401.612 558.05 393.07 545.156 393.07 527.91C393.07 510.664 401.612 497.769 419.906 497.769C433.767 497.769 442.632 503.652 443.76 515.821H436.346C435.137 507.198 428.045 504.055 419.906 504.055C407.334 504.055 400.484 513.404 400.484 527.91C400.484 542.335 407.334 551.764 419.906 551.764C428.045 551.764 435.459 548.057 436.668 539.192ZM471.07 557.647C458.015 557.647 450.44 548.863 450.44 535.082C450.44 521.301 458.015 512.598 471.07 512.598C484.126 512.598 491.701 521.301 491.701 535.082C491.701 548.863 484.126 557.647 471.07 557.647ZM471.07 552.086C480.096 552.086 484.609 544.994 484.609 535.082C484.609 525.17 480.096 518.158 471.07 518.158C462.125 518.158 457.532 525.17 457.532 535.082C457.532 544.994 462.125 552.086 471.07 552.086ZM536.719 550.071L536.88 556.68H529.788L529.627 549.91H529.385C527.773 553.537 522.938 557.647 515.604 557.647C506.176 557.647 500.534 551.764 500.534 542.093V513.565H507.626V541.207C507.626 547.896 510.769 552.086 517.377 552.086C524.791 552.086 529.627 546.445 529.627 538.467V513.565H536.719V550.071ZM566.932 518.158C557.906 518.158 553.152 525.25 553.152 535.082C553.152 544.914 557.826 552.086 566.932 552.086C572.815 552.086 577.651 549.427 578.698 543.463H585.79C584.339 553.053 576.603 557.647 566.932 557.647C553.474 557.647 546.06 548.863 546.06 535.082C546.06 521.221 553.555 512.598 566.932 512.598C577.973 512.598 584.098 517.917 585.468 526.378H578.376C577.248 521.06 572.976 518.158 566.932 518.158ZM594.354 499.139H601.446V520.334H601.687C603.299 516.627 608.134 512.598 615.549 512.598C624.977 512.598 631.022 518.561 631.022 528.232V556.68H623.93V529.038C623.93 522.349 620.384 518.158 613.776 518.158C606.281 518.158 601.446 523.8 601.446 531.778V556.68H594.354V499.139ZM301.041 713.764C309.261 713.764 314.177 710.863 316.756 707.961V694.906H298.623V688.62H323.928V710.46C319.415 715.537 311.356 720.05 300.96 720.05C282.506 720.05 273.722 707.156 273.722 689.91C273.722 672.664 281.539 659.769 299.913 659.769C314.096 659.769 322.478 665.652 323.606 677.821H316.192C314.983 669.198 308.052 666.055 299.913 666.055C287.422 666.055 281.136 675.404 281.136 689.91C281.136 704.416 288.147 713.764 301.041 713.764ZM334.216 682.173L334.055 675.565H341.146L341.308 682.334H341.549C342.516 678.869 346.465 674.759 353.235 674.759H355.169V681.045H351.784C345.015 681.045 341.308 686.203 341.308 694.342V718.68H334.216V682.173ZM362.465 669.118V661.139H370.202V669.118H362.465ZM362.788 718.68V675.565H369.879V718.68H362.788ZM384.891 675.565V666.378H391.983V675.565H400.364V681.125H391.983V709.009C391.983 711.83 392.789 713.119 395.368 713.119H399.962V718.68H393.353C387.309 718.68 384.891 715.779 384.891 709.009V681.125H377.961V675.565H384.891ZM429.87 661.22H437.284V685.8H467.182V661.22H474.597V718.68H467.182V692.085H437.284V718.68H429.87V661.22ZM485.502 689.91C485.502 671.938 494.609 659.769 512.338 659.769C529.987 659.769 539.013 671.938 539.013 689.91C539.013 702.32 533.694 711.427 528.94 714.086L529.181 714.489C531.599 713.441 533.936 712.636 536.515 712.636H543.204V718.68H534.097C524.427 718.68 521.525 720.05 512.338 720.05C494.609 720.05 485.502 707.881 485.502 689.91ZM492.917 689.91C492.917 703.61 499.122 713.764 512.338 713.764C525.555 713.764 531.599 703.61 531.599 689.91C531.599 676.129 525.555 666.055 512.338 666.055C499.122 666.055 492.917 676.129 492.917 689.91Z" fill="white"/>
<path d="M809.986 648.725L809.986 268.152L735.851 187.795L112.569 187.795" stroke="white" stroke-width="7.32623"/>
<path d="M4.09281 645.368L4.0928 268.151L78.2281 187.794L701.51 187.794" stroke="white" stroke-width="7.32623"/>
<path d="M4 503.437L4.00004 873.207L78.1354 953.564L701.417 953.564" stroke="white" stroke-width="7.32623"/>
<path d="M809.889 482.018L809.889 873.209L735.753 953.565L112.472 953.565" stroke="white" stroke-width="7.32623"/>
<path d="M128.125 1081.14C135.971 1081.14 140.663 1078.37 143.125 1075.6V1063.14H125.817V1057.14H149.971V1077.98C145.664 1082.83 137.971 1087.14 128.048 1087.14C110.432 1087.14 102.047 1074.83 102.047 1058.37C102.047 1041.91 109.509 1029.6 127.048 1029.6C140.587 1029.6 148.587 1035.21 149.664 1046.83H142.587C141.433 1038.6 134.817 1035.6 127.048 1035.6C115.124 1035.6 109.124 1044.52 109.124 1058.37C109.124 1072.21 115.817 1081.14 128.125 1081.14ZM161.176 1085.83V1030.91H196.177V1036.91H168.253V1054.6H194.639V1060.6H168.253V1079.83H196.177V1085.83H161.176ZM202.11 1058.37C202.11 1041.21 211.264 1029.6 228.188 1029.6C245.111 1029.6 254.342 1041.21 254.342 1058.37C254.342 1075.52 245.111 1087.14 228.188 1087.14C211.264 1087.14 202.11 1075.52 202.11 1058.37ZM209.187 1058.37C209.187 1071.52 215.572 1081.14 228.188 1081.14C240.803 1081.14 247.265 1071.52 247.265 1058.37C247.265 1045.21 240.803 1035.6 228.188 1035.6C215.572 1035.6 209.187 1045.21 209.187 1058.37ZM305.617 1046.6C305.617 1053.29 301.233 1058.37 296.463 1059.83V1060.14C301.386 1060.98 304.463 1065.21 305.31 1071.75L307.079 1085.83H299.694L298.002 1071.75C297.079 1064.52 293.078 1063.14 285.309 1063.14H271.847V1085.83H264.847V1030.91H287.386C299.54 1030.91 305.617 1037.67 305.617 1046.6ZM298.617 1046.98C298.617 1040.67 294.463 1036.91 286.771 1036.91H271.847V1057.14H286.617C294.309 1057.14 298.617 1053.29 298.617 1046.98ZM340.345 1081.14C348.192 1081.14 352.884 1078.37 355.346 1075.6V1063.14H338.038V1057.14H362.192V1077.98C357.884 1082.83 350.192 1087.14 340.269 1087.14C322.653 1087.14 314.268 1074.83 314.268 1058.37C314.268 1041.91 321.73 1029.6 339.269 1029.6C352.807 1029.6 360.808 1035.21 361.885 1046.83H354.807C353.654 1038.6 347.038 1035.6 339.269 1035.6C327.345 1035.6 321.345 1044.52 321.345 1058.37C321.345 1072.21 328.037 1081.14 340.345 1081.14ZM373.397 1085.83V1030.91H408.398V1036.91H380.474V1054.6H406.86V1060.6H380.474V1079.83H408.398V1085.83H373.397ZM455.881 1085.83V1030.91H473.805C489.113 1030.91 500.267 1039.83 500.267 1058.37C500.267 1076.91 489.113 1085.83 473.805 1085.83H455.881ZM473.036 1036.91H462.959V1079.83H473.036C485.344 1079.83 493.19 1072.52 493.19 1058.37C493.19 1044.21 485.344 1036.91 473.036 1036.91ZM502.828 1085.83L523.598 1030.98H531.983L552.753 1085.83H545.291L540.291 1072.45H515.29L510.29 1085.83H502.828ZM517.521 1066.44H538.06L532.214 1050.83C530.675 1046.75 529.214 1042.37 527.983 1038.29H527.675C526.444 1042.37 524.906 1046.75 523.367 1050.83L517.521 1066.44ZM570.542 1085.83L550.542 1030.91H558.003L569.311 1062.6C571.081 1067.68 573.235 1073.75 574.619 1078.45H574.927C576.312 1073.75 578.389 1067.68 580.158 1062.6L591.543 1030.91H598.928L578.927 1085.83H570.542ZM606.877 1030.91H613.955V1085.83H606.877V1030.91ZM627.912 1085.83V1030.91H662.913V1036.91H634.989V1054.6H661.374V1060.6H634.989V1079.83H662.913V1085.83H627.912ZM711.272 1045.6H704.195C703.426 1039.06 698.657 1035.29 690.887 1035.29C682.656 1035.29 677.502 1038.98 677.502 1044.83C677.502 1050.06 682.118 1052.37 689.118 1053.83L695.118 1055.06C705.118 1057.14 712.426 1059.83 712.426 1071.29C712.426 1081.06 702.811 1087.14 691.041 1087.14C677.656 1087.14 669.964 1080.83 669.656 1069.52H676.733C677.118 1077.06 682.272 1081.45 691.041 1081.45C699.58 1081.45 705.195 1077.52 705.272 1071.68C705.349 1065.06 700.811 1063.21 692.503 1061.52L686.503 1060.29C676.733 1058.29 670.425 1054.44 670.425 1045.37C670.425 1035.91 679.579 1029.6 690.887 1029.6C701.734 1029.6 710.426 1034.37 711.272 1045.6Z" fill="white"/>
<path d="M808.587 1059.78L734.585 979.57L112.431 979.57" stroke="white" stroke-width="7.36716"/>
<path d="M5.39931 1061.36L80.8835 979.565L703.038 979.565" stroke="white" stroke-width="7.36716"/>
<path d="M808.58 1054.82L732.425 1137.36L110.271 1137.36" stroke="white" stroke-width="7.36716"/>
<path d="M6.88214 1057.15L80.8835 1137.36L703.038 1137.36" stroke="white" stroke-width="7.36716"/>
</svg>
