<svg width="814" height="1326" viewBox="0 0 814 1326" fill="none" xmlns="http://www.w3.org/2000/svg">
<path d="M301.974 106.218C309.821 106.218 314.513 103.448 316.975 100.679V88.2172H299.666V82.217H323.821V103.064C319.513 107.91 311.821 112.218 301.897 112.218C284.281 112.218 275.897 99.9098 275.897 83.4478C275.897 66.9858 283.358 54.6777 300.897 54.6777C314.436 54.6777 322.436 60.2933 323.513 71.909H316.436C315.282 63.678 308.667 60.6779 300.897 60.6779C288.974 60.6779 282.974 69.6012 282.974 83.4478C282.974 97.2944 289.666 106.218 301.974 106.218ZM335.026 110.91V55.9854H352.949C368.257 55.9854 379.412 64.9088 379.412 83.4478C379.412 101.987 368.257 110.91 352.949 110.91H335.026ZM352.18 61.9856H342.103V104.91H352.18C364.488 104.91 372.335 97.6021 372.335 83.4478C372.335 69.2935 364.488 61.9856 352.18 61.9856ZM387.405 93.0635V87.5248H409.406V93.0635H387.405ZM458.502 70.6782H451.425C450.655 64.1395 445.886 60.3702 438.117 60.3702C429.885 60.3702 424.731 64.0626 424.731 69.9089C424.731 75.1399 429.347 77.4476 436.347 78.9092L442.347 80.14C452.348 82.217 459.656 84.9094 459.656 96.3713C459.656 106.141 450.04 112.218 438.27 112.218C424.885 112.218 417.193 105.91 416.885 94.602H423.962C424.347 102.141 429.501 106.525 438.27 106.525C446.809 106.525 452.425 102.602 452.502 96.7559C452.578 90.1403 448.04 88.2941 439.732 86.6017L433.732 85.3709C423.962 83.3709 417.654 79.5246 417.654 70.4474C417.654 60.9856 426.808 54.6777 438.117 54.6777C448.963 54.6777 457.656 59.4471 458.502 70.6782ZM506.956 70.6782H499.879C499.109 64.1395 494.34 60.3702 486.57 60.3702C478.339 60.3702 473.185 64.0626 473.185 69.9089C473.185 75.1399 477.801 77.4476 484.801 78.9092L490.801 80.14C500.802 82.217 508.11 84.9094 508.11 96.3713C508.11 106.141 498.494 112.218 486.724 112.218C473.339 112.218 465.647 105.91 465.339 94.602H472.416C472.801 102.141 477.955 106.525 486.724 106.525C495.263 106.525 500.879 102.602 500.956 96.7559C501.032 90.1403 496.494 88.2941 488.186 86.6017L482.186 85.3709C472.416 83.3709 466.108 79.5246 466.108 70.4474C466.108 60.9856 475.262 54.6777 486.57 54.6777C497.417 54.6777 506.11 59.4471 506.956 70.6782ZM528.87 55.9854H533.871V110.91H527.101V71.0628H513.87V66.0627C523.64 65.2934 526.64 63.9088 528.87 55.9854Z" fill="white"/>
<path d="M808.265 84.8613L734.264 4.64997L112.109 4.65" stroke="white" stroke-width="7.36716"/>
<path d="M5.07802 86.4433L80.5622 4.64497L702.717 4.64494" stroke="white" stroke-width="7.36716"/>
<path d="M808.258 79.9034L732.103 162.439L109.949 162.439" stroke="white" stroke-width="7.36716"/>
<path d="M6.56085 82.2265L80.5622 162.438L702.717 162.438" stroke="white" stroke-width="7.36716"/>
<path d="M151.856 298.874H174.26C186.106 298.874 193.279 303.548 193.279 313.863C193.279 321.116 188.443 325.065 184.817 326.355V326.677C189.652 327.483 195.293 331.754 195.293 340.377C195.293 351.015 187.235 356.414 175.791 356.414H151.856V298.874ZM159.27 323.776H175.388C181.432 323.776 185.865 320.391 185.865 314.427C185.865 308.544 181.432 305.16 175.388 305.16H159.27V323.776ZM187.879 340.055C187.879 333.769 183.528 330.062 176.597 330.062H159.27V350.128H176.597C183.528 350.128 187.879 346.341 187.879 340.055ZM205.181 319.907L205.019 313.299H212.111L212.272 320.069H212.514C213.481 316.603 217.43 312.493 224.2 312.493H226.134V318.779H222.749C215.979 318.779 212.272 323.937 212.272 332.076V356.414H205.181V319.907ZM248.545 317.893C242.501 317.893 238.391 320.23 237.827 325.146H230.735C231.138 316.362 237.988 312.332 248.545 312.332C260.795 312.332 266.275 317.651 266.275 326.677V346.26C266.275 350.853 266.275 351.901 266.678 356.414H259.586C259.264 353.029 259.183 351.821 259.183 349.242H258.941C256.765 353.191 251.769 357.381 243.388 357.381C234.926 357.381 229.124 352.546 229.124 344.084C229.124 335.139 235.732 331.351 244.758 330.223L259.183 328.369V326.677C259.183 320.472 255.315 317.893 248.545 317.893ZM236.215 344.084C236.215 348.919 239.6 351.821 245.161 351.821C250.963 351.821 259.425 347.388 259.425 336.428V333.769L245.967 335.542C239.6 336.348 236.215 339.168 236.215 344.084ZM277.738 298.874H284.83V332.479L304.252 313.299H312.794L292.002 333.527L313.197 356.414H304.252L284.83 334.978V356.414H277.738V298.874ZM354.816 337.234H321.292C322.017 346.26 326.61 351.982 335.072 351.982C340.955 351.982 345.791 349 347.161 343.359H354.011C352.721 352.546 344.823 357.381 335.072 357.381C321.695 357.381 314.361 348.678 314.361 334.816C314.361 320.955 322.017 312.332 334.589 312.332C347.966 312.332 354.816 321.116 354.816 336.509V337.234ZM321.372 331.835H347.805C346.999 323.373 342.486 317.732 334.589 317.732C326.691 317.732 322.178 323.373 321.372 331.835ZM384.807 298.874H421.153V305.16H392.221V324.501H419.541V330.787H392.221V356.414H384.807V298.874ZM447.139 357.381C434.083 357.381 426.508 348.597 426.508 334.816C426.508 321.036 434.083 312.332 447.139 312.332C460.194 312.332 467.769 321.036 467.769 334.816C467.769 348.597 460.194 357.381 447.139 357.381ZM447.139 351.821C456.165 351.821 460.678 344.729 460.678 334.816C460.678 324.904 456.165 317.893 447.139 317.893C438.193 317.893 433.6 324.904 433.6 334.816C433.6 344.729 438.193 351.821 447.139 351.821ZM477.167 319.907L477.006 313.299H484.097L484.259 320.069H484.5C485.467 316.603 489.416 312.493 496.186 312.493H498.12V318.779H494.735C487.966 318.779 484.259 323.937 484.259 332.076V356.414H477.167V319.907ZM559.088 356.414V328.128C559.088 320.31 554.253 317.893 549.82 317.893C545.308 317.893 539.425 320.955 539.425 330.384V356.414H532.333V328.128C532.333 320.31 527.497 317.893 523.065 317.893C518.552 317.893 512.669 320.955 512.669 330.384V356.414H505.577V319.907L505.416 313.299H512.508L512.669 319.182H512.911C514.523 315.153 520.164 312.332 525.322 312.332C532.172 312.332 536.443 315.717 538.135 319.988H538.296C540.15 315.233 545.71 312.332 552.077 312.332C559.975 312.332 566.18 316.845 566.18 326.677V356.414H559.088ZM615.47 337.234H581.945C582.67 346.26 587.264 351.982 595.726 351.982C601.609 351.982 606.444 349 607.814 343.359H614.664C613.375 352.546 605.477 357.381 595.726 357.381C582.348 357.381 575.014 348.678 575.014 334.816C575.014 320.955 582.67 312.332 595.242 312.332C608.62 312.332 615.47 321.116 615.47 336.509V337.234ZM582.026 331.835H608.459C607.653 323.373 603.14 317.732 595.242 317.732C587.344 317.732 582.832 323.373 582.026 331.835ZM622.549 334.816C622.549 319.746 631.494 312.332 641.971 312.332C648.418 312.332 653.576 315.797 655.752 319.021H655.832V298.874H662.924V345.938L663.166 356.414H656.074L655.832 349.967H655.752C654.059 353.835 648.74 357.381 641.81 357.381C630.205 357.381 622.549 349.081 622.549 334.816ZM656.557 334.816C656.557 324.904 651.561 317.893 643.18 317.893C634.718 317.893 629.641 324.904 629.641 334.816C629.641 344.729 634.718 351.821 643.18 351.821C651.561 351.821 656.557 344.729 656.557 334.816ZM261.577 395.266H254.162C253.357 388.416 248.36 384.467 240.221 384.467C231.598 384.467 226.198 388.336 226.198 394.46C226.198 399.94 231.033 402.358 238.367 403.889L244.653 405.179C255.129 407.355 262.785 410.175 262.785 422.183C262.785 432.418 252.712 438.784 240.382 438.784C226.359 438.784 218.301 432.176 217.978 420.329H225.392C225.795 428.227 231.195 432.821 240.382 432.821C249.327 432.821 255.21 428.711 255.291 422.586C255.371 415.655 250.616 413.721 241.913 411.948L235.627 410.659C225.392 408.563 218.784 404.534 218.784 395.025C218.784 385.112 228.374 378.504 240.221 378.504C251.584 378.504 260.69 383.5 261.577 395.266ZM274.784 394.299V385.112H281.875V394.299H290.257V399.86H281.875V427.743C281.875 430.564 282.681 431.853 285.26 431.853H289.854V437.414H283.245C277.201 437.414 274.784 434.513 274.784 427.743V399.86H267.853V394.299H274.784ZM316.458 438.381C303.403 438.381 295.827 429.597 295.827 415.816C295.827 402.036 303.403 393.332 316.458 393.332C329.513 393.332 337.089 402.036 337.089 415.816C337.089 429.597 329.513 438.381 316.458 438.381ZM316.458 432.821C325.484 432.821 329.997 425.729 329.997 415.816C329.997 405.904 325.484 398.893 316.458 398.893C307.513 398.893 302.919 405.904 302.919 415.816C302.919 425.729 307.513 432.821 316.458 432.821ZM364.78 438.381C351.724 438.381 344.149 429.597 344.149 415.816C344.149 402.036 351.724 393.332 364.78 393.332C377.835 393.332 385.41 402.036 385.41 415.816C385.41 429.597 377.835 438.381 364.78 438.381ZM364.78 432.821C373.805 432.821 378.318 425.729 378.318 415.816C378.318 405.904 373.805 398.893 364.78 398.893C355.834 398.893 351.241 405.904 351.241 415.816C351.241 425.729 355.834 432.821 364.78 432.821ZM394.646 437.414V379.874H401.738V437.414H394.646ZM473.121 395.266H465.707C464.901 388.416 459.905 384.467 451.765 384.467C443.142 384.467 437.743 388.336 437.743 394.46C437.743 399.94 442.578 402.358 449.912 403.889L456.198 405.179C466.674 407.355 474.33 410.175 474.33 422.183C474.33 432.418 464.257 438.784 451.927 438.784C437.904 438.784 429.845 432.176 429.523 420.329H436.937C437.34 428.227 442.739 432.821 451.927 432.821C460.872 432.821 466.755 428.711 466.835 422.586C466.916 415.655 462.161 413.721 453.458 411.948L447.172 410.659C436.937 408.563 430.329 404.534 430.329 395.025C430.329 385.112 439.919 378.504 451.765 378.504C463.128 378.504 472.235 383.5 473.121 395.266ZM521.384 418.234H487.86C488.585 427.26 493.178 432.982 501.64 432.982C507.523 432.982 512.358 430 513.728 424.359H520.578C519.289 433.546 511.391 438.381 501.64 438.381C488.263 438.381 480.929 429.678 480.929 415.816C480.929 401.955 488.585 393.332 501.157 393.332C514.534 393.332 521.384 402.116 521.384 417.509V418.234ZM487.94 412.835H514.373C513.567 404.373 509.054 398.732 501.157 398.732C493.259 398.732 488.746 404.373 487.94 412.835ZM547.644 398.893C541.6 398.893 537.489 401.23 536.925 406.146H529.834C530.237 397.362 537.087 393.332 547.644 393.332C559.893 393.332 565.373 398.651 565.373 407.677V427.26C565.373 431.853 565.373 432.901 565.776 437.414H558.684C558.362 434.029 558.281 432.821 558.281 430.242H558.04C555.864 434.191 550.867 438.381 542.486 438.381C534.024 438.381 528.222 433.546 528.222 425.084C528.222 416.139 534.83 412.351 543.856 411.223L558.281 409.369V407.677C558.281 401.472 554.413 398.893 547.644 398.893ZM535.314 425.084C535.314 429.919 538.698 432.821 544.259 432.821C550.061 432.821 558.523 428.388 558.523 417.428V414.769L545.065 416.542C538.698 417.348 535.314 420.168 535.314 425.084ZM579.745 394.299V385.112H586.837V394.299H595.218V399.86H586.837V427.743C586.837 430.564 587.643 431.853 590.221 431.853H594.815V437.414H588.207C582.163 437.414 579.745 434.513 579.745 427.743V399.86H572.814V394.299H579.745Z" fill="white"/>
<path d="M224.269 600.824L245.059 545.923H253.452L274.242 600.824H266.773L261.768 587.426H236.743L231.738 600.824H224.269ZM238.976 581.42H259.535L253.683 565.789C252.143 561.708 250.68 557.319 249.448 553.238H249.14C247.908 557.319 246.368 561.708 244.828 565.789L238.976 581.42ZM280.953 600.824V545.846H287.729V600.824H280.953ZM333.657 594.51L333.811 600.824H327.035L326.881 594.356H326.65C325.11 597.821 320.49 601.748 313.483 601.748C304.474 601.748 299.084 596.127 299.084 586.887V559.629H305.86V586.04C305.86 592.431 308.863 596.435 315.177 596.435C322.261 596.435 326.881 591.045 326.881 583.422V559.629H333.657V594.51ZM396.713 600.824V573.797C396.713 566.328 392.093 564.018 387.858 564.018C383.546 564.018 377.925 566.944 377.925 575.953V600.824H371.149V573.797C371.149 566.328 366.529 564.018 362.294 564.018C357.982 564.018 352.361 566.944 352.361 575.953V600.824H345.585V565.943L345.431 559.629H352.207L352.361 565.25H352.592C354.132 561.4 359.522 558.705 364.45 558.705C370.995 558.705 375.076 561.939 376.693 566.02H376.847C378.618 561.477 383.931 558.705 390.014 558.705C397.56 558.705 403.489 563.017 403.489 572.411V600.824H396.713ZM414.779 553.469V545.846H422.171V553.469H414.779ZM415.087 600.824V559.629H421.863V600.824H415.087ZM434.051 565.943L433.897 559.629H440.673L440.827 566.097H441.058C442.598 562.555 447.295 558.705 454.302 558.705C463.388 558.705 469.086 564.403 469.086 573.643V600.824H462.31V574.413C462.31 568.022 458.922 564.018 452.608 564.018C445.447 564.018 440.827 569.408 440.827 577.031V600.824H434.051V565.943ZM514.574 594.51L514.728 600.824H507.952L507.798 594.356H507.567C506.027 597.821 501.407 601.748 494.4 601.748C485.391 601.748 480.001 596.127 480.001 586.887V559.629H486.777V586.04C486.777 592.431 489.78 596.435 496.094 596.435C503.178 596.435 507.798 591.045 507.798 583.422V559.629H514.574V594.51ZM577.63 600.824V573.797C577.63 566.328 573.01 564.018 568.775 564.018C564.463 564.018 558.842 566.944 558.842 575.953V600.824H552.066V573.797C552.066 566.328 547.446 564.018 543.211 564.018C538.899 564.018 533.278 566.944 533.278 575.953V600.824H526.502V565.943L526.348 559.629H533.124L533.278 565.25H533.509C535.049 561.4 540.439 558.705 545.367 558.705C551.912 558.705 555.993 561.939 557.61 566.02H557.764C559.535 561.477 564.848 558.705 570.931 558.705C578.477 558.705 584.406 563.017 584.406 572.411V600.824H577.63Z" fill="white"/>
<path d="M250.01 708.256H255.015V763.234H248.239V723.348H234.995V718.343C244.774 717.573 247.777 716.187 250.01 708.256ZM286.562 764.543C274.627 764.543 266.465 758.768 266.465 748.604C266.465 739.672 272.163 735.206 277.399 733.897V733.743C271.855 731.741 268.544 727.506 268.544 721.269C268.544 711.49 277.476 706.947 286.485 706.947C295.417 706.947 304.426 711.49 304.426 721.269C304.426 727.506 301.038 731.741 295.494 733.743V733.897C300.73 735.206 306.428 739.672 306.428 748.604C306.428 758.768 298.42 764.543 286.562 764.543ZM275.474 721.885C275.474 727.583 280.479 730.971 286.485 730.971C292.414 730.971 297.573 727.583 297.573 721.885C297.573 716.11 292.414 712.799 286.485 712.799C280.479 712.799 275.474 716.11 275.474 721.885ZM273.395 747.757C273.395 754.995 279.555 758.691 286.485 758.691C293.415 758.691 299.498 754.995 299.498 747.757C299.498 740.596 293.415 736.823 286.485 736.823C279.555 736.823 273.395 740.596 273.395 747.757ZM317.919 708.333H325.003V731.818H353.57V708.333H360.654V763.234H353.57V737.824H325.003V763.234H317.919V708.333ZM398.047 728.507L388.807 716.341H393.812L400.665 725.735L407.518 716.341H412.523L403.206 728.507L412.985 741.135H407.98L400.665 731.279L393.273 741.135H388.345L398.047 728.507ZM451.567 708.256H456.572V763.234H449.796V723.348H436.552V718.343C446.331 717.573 449.334 716.187 451.567 708.256ZM465.788 744.831L491.583 708.256H498.898V745.139H507.137V750.991H498.898V763.234H492.045V750.991H465.788V744.831ZM492.584 716.803H492.276C489.196 722.193 485.577 727.121 481.496 732.896L472.641 745.139H492.045V732.203C492.045 728.738 492.199 721.577 492.584 716.803ZM534.154 763.234H525.684L511.67 708.256H518.754L526.3 738.671C527.686 743.907 529.072 749.913 530.073 755.226H530.381C531.459 749.913 532.922 743.907 534.231 738.671L541.623 708.256H550.093L557.485 738.671C558.794 743.907 560.257 749.913 561.335 755.226H561.643C562.644 749.913 564.03 743.907 565.416 738.671L572.962 708.256H580.046L566.032 763.234H557.562L550.016 733.281C548.707 727.968 547.244 722.424 546.012 716.649H545.704C544.472 722.424 543.009 727.968 541.7 733.281L534.154 763.234ZM285.671 805.507L276.431 793.341H281.436L288.289 802.735L295.142 793.341H300.147L290.83 805.507L300.609 818.135H295.604L288.289 808.279L280.897 818.135H275.969L285.671 805.507ZM339.19 785.256H344.195V840.234H337.419V800.348H324.175V795.343C333.954 794.573 336.957 793.187 339.19 785.256ZM353.412 821.831L379.207 785.256H386.522V822.139H394.761V827.991H386.522V840.234H379.669V827.991H353.412V821.831ZM380.208 793.803H379.9C376.82 799.193 373.201 804.121 369.12 809.896L360.265 822.139H379.669V809.203C379.669 805.738 379.823 798.577 380.208 793.803ZM405.069 840.234V785.256H423.01C438.333 785.256 449.498 794.188 449.498 812.745C449.498 831.302 438.333 840.234 423.01 840.234H405.069ZM422.24 791.262H412.153V834.228H422.24C434.56 834.228 442.414 826.913 442.414 812.745C442.414 798.577 434.56 791.262 422.24 791.262ZM478.158 792.879V785.256H485.55V792.879H478.158ZM478.466 840.234V799.039H485.242V840.234H478.466ZM497.43 805.353L497.276 799.039H504.052L504.206 805.507H504.437C505.977 801.965 510.674 798.115 517.681 798.115C526.767 798.115 532.465 803.813 532.465 813.053V840.234H525.689V813.823C525.689 807.432 522.301 803.428 515.987 803.428C508.826 803.428 504.206 808.818 504.206 816.441V840.234H497.43V805.353Z" fill="white"/>
<path d="M809.665 649.37L809.664 268.797L735.529 188.44L112.248 188.44" stroke="white" stroke-width="7.32623"/>
<path d="M3.77152 646.014L3.77151 268.796L77.9069 188.44L701.188 188.44" stroke="white" stroke-width="7.32623"/>
<path d="M3.67822 504.082L3.67827 873.851L77.8136 954.208L701.095 954.208" stroke="white" stroke-width="7.32623"/>
<path d="M809.567 482.661L809.567 873.852L735.431 954.209L112.15 954.209" stroke="white" stroke-width="7.32623"/>
<path d="M249.256 1068.09L275.026 1031.55H282.334V1068.4H290.565V1074.24H282.334V1086.47H275.488V1074.24H249.256V1068.09ZM276.026 1040.09H275.719C272.642 1045.47 269.026 1050.4 264.949 1056.17L256.103 1068.4H275.488V1055.47C275.488 1052.01 275.642 1044.86 276.026 1040.09ZM315.49 1087.78C305.72 1087.78 297.72 1083.94 296.412 1073.17H303.259C304.489 1079.78 309.566 1081.94 315.49 1081.94C323.182 1081.94 329.029 1076.17 329.029 1068.4C329.029 1060.63 324.567 1054.78 316.182 1054.78C310.797 1054.78 306.874 1057.17 304.797 1061.24H297.72L302.566 1031.55H333.721V1037.4H308.259L305.489 1053.47H305.797C307.797 1051.09 312.413 1048.94 317.336 1048.94C328.567 1048.94 335.952 1056.94 335.952 1068.4C335.952 1079.86 327.259 1087.78 315.49 1087.78ZM384.616 1059.01C384.616 1074.78 378.692 1087.78 363.692 1087.78C348.691 1087.78 342.691 1074.78 342.691 1059.01C342.691 1043.24 348.691 1030.24 363.692 1030.24C378.692 1030.24 384.616 1043.24 384.616 1059.01ZM377.692 1059.01C377.692 1046.09 373.923 1036.09 363.692 1036.09C353.538 1036.09 349.614 1046.09 349.614 1059.01C349.614 1071.86 353.538 1081.94 363.692 1081.94C373.923 1081.94 377.692 1071.86 377.692 1059.01ZM413.139 1066.47V1031.55H420.216V1067.01C420.216 1075.71 425.754 1081.78 434.601 1081.78C443.524 1081.78 448.909 1075.63 448.909 1066.94V1031.55H455.986V1066.4C455.986 1080.09 447.37 1087.78 434.601 1087.78C421.908 1087.78 413.139 1080.17 413.139 1066.47ZM506.655 1046.24H499.578C498.809 1039.7 494.039 1035.93 486.27 1035.93C478.039 1035.93 472.885 1039.63 472.885 1045.47C472.885 1050.7 477.501 1053.01 484.501 1054.47L490.501 1055.7C500.501 1057.78 507.809 1060.47 507.809 1071.94C507.809 1081.71 498.193 1087.78 486.424 1087.78C473.039 1087.78 465.346 1081.47 465.039 1070.17H472.116C472.5 1077.71 477.654 1082.09 486.424 1082.09C494.963 1082.09 500.578 1078.17 500.655 1072.32C500.732 1065.7 496.193 1063.86 487.885 1062.17L481.885 1060.94C472.116 1058.94 465.808 1055.09 465.808 1046.01C465.808 1036.55 474.962 1030.24 486.27 1030.24C497.116 1030.24 505.809 1035.01 506.655 1046.24ZM517.723 1086.47V1031.55H535.647C550.955 1031.55 562.109 1040.47 562.109 1059.01C562.109 1077.55 550.955 1086.47 535.647 1086.47H517.723ZM534.878 1037.55H524.801V1080.47H534.878C547.186 1080.47 555.032 1073.17 555.032 1059.01C555.032 1044.86 547.186 1037.55 534.878 1037.55Z" fill="white"/>
<path d="M808.265 1060.43L734.264 980.214L112.109 980.214" stroke="white" stroke-width="7.36716"/>
<path d="M5.07802 1062.01L80.5622 980.209L702.717 980.209" stroke="white" stroke-width="7.36716"/>
<path d="M808.258 1055.47L732.103 1138L109.949 1138" stroke="white" stroke-width="7.36716"/>
<path d="M6.56085 1057.79L80.5622 1138L702.717 1138" stroke="white" stroke-width="7.36716"/>
<path d="M127.803 1265.58C135.649 1265.58 140.342 1262.81 142.803 1260.04V1247.58H125.495V1241.58H149.65V1262.42C145.342 1267.27 137.649 1271.58 127.726 1271.58C110.11 1271.58 101.725 1259.27 101.725 1242.81C101.725 1226.34 109.187 1214.04 126.726 1214.04C140.265 1214.04 148.265 1219.65 149.342 1231.27H142.265C141.111 1223.04 134.495 1220.04 126.726 1220.04C114.802 1220.04 108.802 1228.96 108.802 1242.81C108.802 1256.65 115.495 1265.58 127.803 1265.58ZM160.854 1270.27V1215.34H195.855V1221.34H167.931V1239.04H194.317V1245.04H167.931V1264.27H195.855V1270.27H160.854ZM201.788 1242.81C201.788 1225.65 210.942 1214.04 227.866 1214.04C244.79 1214.04 254.021 1225.65 254.021 1242.81C254.021 1259.96 244.79 1271.58 227.866 1271.58C210.942 1271.58 201.788 1259.96 201.788 1242.81ZM208.865 1242.81C208.865 1255.96 215.25 1265.58 227.866 1265.58C240.482 1265.58 246.943 1255.96 246.943 1242.81C246.943 1229.65 240.482 1220.04 227.866 1220.04C215.25 1220.04 208.865 1229.65 208.865 1242.81ZM305.296 1231.04C305.296 1237.73 300.911 1242.81 296.141 1244.27V1244.58C301.065 1245.42 304.142 1249.65 304.988 1256.19L306.757 1270.27H299.372L297.68 1256.19C296.757 1248.96 292.757 1247.58 284.987 1247.58H271.525V1270.27H264.525V1215.34H287.064C299.218 1215.34 305.296 1222.11 305.296 1231.04ZM298.295 1231.42C298.295 1225.11 294.141 1221.34 286.449 1221.34H271.525V1241.58H286.295C293.987 1241.58 298.295 1237.73 298.295 1231.42ZM340.024 1265.58C347.87 1265.58 352.563 1262.81 355.024 1260.04V1247.58H337.716V1241.58H361.871V1262.42C357.563 1267.27 349.87 1271.58 339.947 1271.58C322.331 1271.58 313.946 1259.27 313.946 1242.81C313.946 1226.34 321.408 1214.04 338.947 1214.04C352.486 1214.04 360.486 1219.65 361.563 1231.27H354.486C353.332 1223.04 346.716 1220.04 338.947 1220.04C327.023 1220.04 321.023 1228.96 321.023 1242.81C321.023 1256.65 327.716 1265.58 340.024 1265.58ZM373.075 1270.27V1215.34H408.076V1221.34H380.152V1239.04H406.538V1245.04H380.152V1264.27H408.076V1270.27H373.075ZM455.56 1270.27V1215.34H473.483C488.791 1215.34 499.946 1224.27 499.946 1242.81C499.946 1261.35 488.791 1270.27 473.483 1270.27H455.56ZM472.714 1221.34H462.637V1264.27H472.714C485.022 1264.27 492.868 1256.96 492.868 1242.81C492.868 1228.65 485.022 1221.34 472.714 1221.34ZM502.506 1270.27L523.276 1215.42H531.661L552.431 1270.27H544.969L539.969 1256.88H514.968L509.968 1270.27H502.506ZM517.199 1250.88H537.738L531.892 1235.27C530.353 1231.19 528.892 1226.81 527.661 1222.73H527.353C526.122 1226.81 524.584 1231.19 523.045 1235.27L517.199 1250.88ZM570.22 1270.27L550.22 1215.34H557.682L568.99 1247.04C570.759 1252.11 572.913 1258.19 574.298 1262.88H574.605C575.99 1258.19 578.067 1252.11 579.836 1247.04L591.221 1215.34H598.606L578.605 1270.27H570.22ZM606.556 1215.34H613.633V1270.27H606.556V1215.34ZM627.59 1270.27V1215.34H662.591V1221.34H634.667V1239.04H661.053V1245.04H634.667V1264.27H662.591V1270.27H627.59ZM710.951 1230.04H703.874C703.104 1223.5 698.335 1219.73 690.565 1219.73C682.334 1219.73 677.18 1223.42 677.18 1229.27C677.18 1234.5 681.796 1236.81 688.796 1238.27L694.796 1239.5C704.797 1241.58 712.105 1244.27 712.105 1255.73C712.105 1265.5 702.489 1271.58 690.719 1271.58C677.334 1271.58 669.642 1265.27 669.334 1253.96H676.411C676.796 1261.5 681.95 1265.88 690.719 1265.88C699.258 1265.88 704.874 1261.96 704.951 1256.11C705.027 1249.5 700.489 1247.65 692.181 1245.96L686.181 1244.73C676.411 1242.73 670.103 1238.88 670.103 1229.81C670.103 1220.34 679.257 1214.04 690.565 1214.04C701.412 1214.04 710.105 1218.81 710.951 1230.04Z" fill="white"/>
<path d="M808.265 1244.22L734.264 1164.01L112.109 1164.01" stroke="white" stroke-width="7.36716"/>
<path d="M5.07802 1245.8L80.5622 1164L702.717 1164" stroke="white" stroke-width="7.36716"/>
<path d="M808.258 1239.26L732.103 1321.8L109.949 1321.8" stroke="white" stroke-width="7.36716"/>
<path d="M6.56085 1241.58L80.5622 1321.8L702.717 1321.8" stroke="white" stroke-width="7.36716"/>
</svg>
