<svg width="815" height="1326" viewBox="0 0 815 1326" fill="none" xmlns="http://www.w3.org/2000/svg">
<path d="M291.678 105.748C299.524 105.748 304.217 102.979 306.678 100.209V87.7474H289.37V81.7473H313.525V102.594C309.217 107.44 301.524 111.748 291.601 111.748C273.985 111.748 265.6 99.4401 265.6 82.9781C265.6 66.516 273.062 54.208 290.601 54.208C304.14 54.208 312.14 59.8235 313.217 71.4393H306.14C304.986 63.2082 298.37 60.2082 290.601 60.2082C278.677 60.2082 272.677 69.1315 272.677 82.9781C272.677 96.8246 279.37 105.748 291.678 105.748ZM324.729 110.44V55.5157H342.653C357.961 55.5157 369.115 64.4391 369.115 82.9781C369.115 101.517 357.961 110.44 342.653 110.44H324.729ZM341.884 61.5159H331.806V104.44H341.884C354.192 104.44 362.038 97.1323 362.038 82.9781C362.038 68.8238 354.192 61.5159 341.884 61.5159ZM377.109 92.5937V87.0551H399.11V92.5937H377.109ZM448.205 70.2085H441.128C440.359 63.6698 435.59 59.9005 427.82 59.9005C419.589 59.9005 414.435 63.5929 414.435 69.4392C414.435 74.6701 419.051 76.9779 426.051 78.4395L432.051 79.6703C442.051 81.7473 449.359 84.4397 449.359 95.9015C449.359 105.671 439.744 111.748 427.974 111.748C414.589 111.748 406.896 105.44 406.589 94.1322H413.666C414.051 101.671 419.205 106.056 427.974 106.056C436.513 106.056 442.128 102.132 442.205 96.2862C442.282 89.6706 437.744 87.8244 429.436 86.132L423.435 84.9012C413.666 82.9011 407.358 79.0549 407.358 69.9777C407.358 60.5159 416.512 54.208 427.82 54.208C438.667 54.208 447.359 58.9774 448.205 70.2085ZM497.352 93.7476H504.429C503.352 105.363 494.505 111.748 481.351 111.748C463.889 111.748 455.735 99.4401 455.735 82.9781C455.735 66.516 463.889 54.208 481.351 54.208C494.582 54.208 503.044 59.8235 504.121 71.4393H497.044C495.89 63.2082 489.121 60.2082 481.351 60.2082C469.351 60.2082 462.812 69.1315 462.812 82.9781C462.812 96.7477 469.351 105.748 481.351 105.748C489.121 105.748 496.198 102.209 497.352 93.7476ZM539.96 68.9007C539.96 62.7467 534.96 60.0543 529.344 60.0543C523.883 60.0543 518.805 62.1313 517.959 68.9776H511.113C512.036 58.4389 519.267 54.208 529.344 54.208C539.806 54.208 546.883 59.5158 546.883 67.9776C546.883 75.5163 542.037 79.5934 538.191 80.9011V81.0549C543.498 82.5165 549.037 86.6705 549.037 95.5938C549.037 105.902 540.345 111.748 529.344 111.748C517.19 111.748 509.959 106.902 509.651 95.7477H516.498C517.19 102.825 521.882 105.902 529.344 105.902C536.883 105.902 542.114 102.056 542.114 94.8246C542.114 88.0551 537.268 84.3627 529.883 84.3627H525.344V78.2087H529.421C535.344 78.2087 539.96 74.9009 539.96 68.9007Z" fill="white"/>
<path d="M809.087 84.3916L735.086 4.18025L112.931 4.18027" stroke="white" stroke-width="7.36716"/>
<path d="M5.89955 85.9736L81.3837 4.17524L703.538 4.17521" stroke="white" stroke-width="7.36716"/>
<path d="M809.08 79.4336L732.925 161.97L110.77 161.97" stroke="white" stroke-width="7.36716"/>
<path d="M7.38239 81.7568L81.3838 161.968L703.538 161.968" stroke="white" stroke-width="7.36716"/>
<path d="M152.678 298.404H175.082C186.928 298.404 194.101 303.078 194.101 313.394C194.101 320.647 189.265 324.595 185.639 325.885V326.207C190.474 327.013 196.115 331.284 196.115 339.907C196.115 350.545 188.057 355.944 176.613 355.944H152.678V298.404ZM160.092 323.306H176.21C182.254 323.306 186.687 319.921 186.687 313.958C186.687 308.075 182.254 304.69 176.21 304.69H160.092V323.306ZM188.701 339.585C188.701 333.299 184.35 329.592 177.419 329.592H160.092V349.658H177.419C184.35 349.658 188.701 345.871 188.701 339.585ZM206.003 319.438L205.841 312.829H212.933L213.094 319.599H213.336C214.303 316.134 218.252 312.024 225.022 312.024H226.956V318.31H223.571C216.802 318.31 213.094 323.467 213.094 331.607V355.944H206.003V319.438ZM249.367 317.423C243.323 317.423 239.213 319.76 238.649 324.676H231.557C231.96 315.892 238.81 311.862 249.367 311.862C261.617 311.862 267.097 317.181 267.097 326.207V345.79C267.097 350.384 267.097 351.431 267.5 355.944H260.408C260.086 352.56 260.005 351.351 260.005 348.772H259.763C257.587 352.721 252.591 356.911 244.21 356.911C235.748 356.911 229.946 352.076 229.946 343.614C229.946 334.669 236.554 330.881 245.58 329.753L260.005 327.9V326.207C260.005 320.002 256.137 317.423 249.367 317.423ZM237.037 343.614C237.037 348.45 240.422 351.351 245.983 351.351C251.785 351.351 260.247 346.918 260.247 335.958V333.299L246.789 335.072C240.422 335.878 237.037 338.698 237.037 343.614ZM278.56 298.404H285.652V332.01L305.074 312.829H313.616L292.824 333.057L314.019 355.944H305.074L285.652 334.508V355.944H278.56V298.404ZM355.638 336.764H322.114C322.839 345.79 327.433 351.512 335.894 351.512C341.777 351.512 346.613 348.53 347.983 342.889H354.833C353.543 352.076 345.646 356.911 335.894 356.911C322.517 356.911 315.183 348.208 315.183 334.347C315.183 320.485 322.839 311.862 335.411 311.862C348.788 311.862 355.638 320.647 355.638 336.039V336.764ZM322.194 331.365H348.627C347.821 322.903 343.308 317.262 335.411 317.262C327.513 317.262 323 322.903 322.194 331.365ZM385.629 298.404H421.975V304.69H393.044V324.031H420.363V330.317H393.044V355.944H385.629V298.404ZM447.961 356.911C434.905 356.911 427.33 348.127 427.33 334.347C427.33 320.566 434.905 311.862 447.961 311.862C461.016 311.862 468.591 320.566 468.591 334.347C468.591 348.127 461.016 356.911 447.961 356.911ZM447.961 351.351C456.987 351.351 461.5 344.259 461.5 334.347C461.5 324.434 456.987 317.423 447.961 317.423C439.015 317.423 434.422 324.434 434.422 334.347C434.422 344.259 439.015 351.351 447.961 351.351ZM477.989 319.438L477.828 312.829H484.919L485.081 319.599H485.322C486.289 316.134 490.238 312.024 497.008 312.024H498.942V318.31H495.557C488.788 318.31 485.081 323.467 485.081 331.607V355.944H477.989V319.438ZM559.91 355.944V327.658C559.91 319.841 555.075 317.423 550.642 317.423C546.13 317.423 540.247 320.485 540.247 329.914V355.944H533.155V327.658C533.155 319.841 528.319 317.423 523.887 317.423C519.374 317.423 513.491 320.485 513.491 329.914V355.944H506.399V319.438L506.238 312.829H513.33L513.491 318.712H513.733C515.345 314.683 520.986 311.862 526.144 311.862C532.994 311.862 537.265 315.247 538.957 319.518H539.118C540.972 314.764 546.532 311.862 552.899 311.862C560.797 311.862 567.002 316.375 567.002 326.207V355.944H559.91ZM616.292 336.764H582.767C583.492 345.79 588.086 351.512 596.548 351.512C602.431 351.512 607.266 348.53 608.636 342.889H615.486C614.197 352.076 606.299 356.911 596.548 356.911C583.17 356.911 575.836 348.208 575.836 334.347C575.836 320.485 583.492 311.862 596.064 311.862C609.442 311.862 616.292 320.647 616.292 336.039V336.764ZM582.848 331.365H609.281C608.475 322.903 603.962 317.262 596.064 317.262C588.166 317.262 583.654 322.903 582.848 331.365ZM623.371 334.347C623.371 319.277 632.316 311.862 642.793 311.862C649.24 311.862 654.398 315.328 656.574 318.551H656.654V298.404H663.746V345.468L663.988 355.944H656.896L656.654 349.497H656.574C654.881 353.366 649.562 356.911 642.632 356.911C631.027 356.911 623.371 348.611 623.371 334.347ZM657.379 334.347C657.379 324.434 652.383 317.423 644.002 317.423C635.54 317.423 630.463 324.434 630.463 334.347C630.463 344.259 635.54 351.351 644.002 351.351C652.383 351.351 657.379 344.259 657.379 334.347ZM212.896 394.797H205.482C204.676 387.947 199.68 383.998 191.54 383.998C182.918 383.998 177.518 387.866 177.518 393.991C177.518 399.471 182.353 401.888 189.687 403.42L195.973 404.709C206.449 406.885 214.105 409.705 214.105 421.713C214.105 431.948 204.032 438.314 191.702 438.314C177.679 438.314 169.62 431.706 169.298 419.86H176.712C177.115 427.757 182.515 432.351 191.702 432.351C200.647 432.351 206.53 428.241 206.611 422.116C206.691 415.185 201.936 413.251 193.233 411.478L186.947 410.189C176.712 408.094 170.104 404.064 170.104 394.555C170.104 384.642 179.694 378.034 191.54 378.034C202.903 378.034 212.01 383.031 212.896 394.797ZM222.88 436.944V379.404H229.972V436.944H222.88ZM241.453 387.382V379.404H249.19V387.382H241.453ZM241.775 436.944V393.829H248.867V436.944H241.775ZM301.272 415.427C301.272 430.497 291.924 437.911 281.609 437.911C275.242 437.911 270.085 434.527 268.07 431.223H267.989V451.37H260.898V404.306L260.656 393.829H267.748L267.989 400.277H268.07C270.165 396.489 275.726 392.862 282.012 392.862C293.617 392.862 301.272 401.163 301.272 415.427ZM267.264 415.427C267.264 425.34 272.18 432.351 280.642 432.351C289.104 432.351 294.181 425.34 294.181 415.427C294.181 405.515 289.104 398.423 280.642 398.423C272.18 398.423 267.264 405.515 267.264 415.427ZM351.089 415.427C351.089 430.497 341.741 437.911 331.426 437.911C325.059 437.911 319.902 434.527 317.887 431.223H317.806V451.37H310.714V404.306L310.473 393.829H317.565L317.806 400.277H317.887C319.982 396.489 325.543 392.862 331.829 392.862C343.433 392.862 351.089 401.163 351.089 415.427ZM317.081 415.427C317.081 425.34 321.997 432.351 330.459 432.351C338.92 432.351 343.998 425.34 343.998 415.427C343.998 405.515 338.92 398.423 330.459 398.423C321.997 398.423 317.081 405.515 317.081 415.427ZM398.569 417.764H365.044C365.77 426.79 370.363 432.512 378.825 432.512C384.708 432.512 389.543 429.53 390.913 423.889H397.763C396.474 433.076 388.576 437.911 378.825 437.911C365.447 437.911 358.114 429.208 358.114 415.347C358.114 401.485 365.77 392.862 378.341 392.862C391.719 392.862 398.569 401.647 398.569 417.039V417.764ZM365.125 412.365H391.558C390.752 403.903 386.239 398.262 378.341 398.262C370.444 398.262 365.931 403.903 365.125 412.365ZM407.985 400.438L407.824 393.829H414.916L415.077 400.599H415.319C416.286 397.134 420.235 393.024 427.004 393.024H428.938V399.31H425.554C418.784 399.31 415.077 404.467 415.077 412.607V436.944H407.985V400.438ZM496.862 419.457H504.276C503.148 431.625 493.88 438.314 480.1 438.314C461.806 438.314 453.264 425.42 453.264 408.174C453.264 390.928 461.806 378.034 480.1 378.034C493.961 378.034 502.826 383.917 503.954 396.086H496.54C495.331 387.463 488.239 384.32 480.1 384.32C467.528 384.32 460.678 393.668 460.678 408.174C460.678 422.6 467.528 432.028 480.1 432.028C488.239 432.028 495.653 428.321 496.862 419.457ZM512.81 379.404H519.901V400.599H520.143C521.755 396.892 526.59 392.862 534.004 392.862C543.433 392.862 549.477 398.826 549.477 408.497V436.944H542.386V409.302C542.386 402.614 538.84 398.423 532.232 398.423C524.737 398.423 519.901 404.064 519.901 412.042V436.944H512.81V379.404ZM577.506 398.423C571.462 398.423 567.352 400.76 566.788 405.676H559.696C560.099 396.892 566.949 392.862 577.506 392.862C589.755 392.862 595.235 398.181 595.235 407.207V426.79C595.235 431.384 595.235 432.431 595.638 436.944H588.546C588.224 433.56 588.144 432.351 588.144 429.772H587.902C585.726 433.721 580.729 437.911 572.348 437.911C563.886 437.911 558.084 433.076 558.084 424.614C558.084 415.669 564.692 411.881 573.718 410.753L588.144 408.9V407.207C588.144 401.002 584.275 398.423 577.506 398.423ZM565.176 424.614C565.176 429.45 568.561 432.351 574.121 432.351C579.924 432.351 588.385 427.918 588.385 416.958V414.299L574.927 416.072C568.561 416.878 565.176 419.698 565.176 424.614ZM606.698 387.382V379.404H614.435V387.382H606.698ZM607.021 436.944V393.829H614.113V436.944H607.021ZM626.062 400.438L625.901 393.829H632.993L633.154 400.599H633.396C634.363 397.134 638.312 393.024 645.081 393.024H647.015V399.31H643.631C636.861 399.31 633.154 404.467 633.154 412.607V436.944H626.062V400.438Z" fill="white"/>
<path d="M225.091 600.354L245.881 545.453H254.274L275.064 600.354H267.595L262.59 586.956H237.565L232.56 600.354H225.091ZM239.798 580.95H260.357L254.505 565.319C252.965 561.238 251.502 556.849 250.27 552.768H249.962C248.73 556.849 247.19 561.238 245.65 565.319L239.798 580.95ZM281.775 600.354V545.376H288.551V600.354H281.775ZM334.479 594.04L334.633 600.354H327.857L327.703 593.886H327.472C325.932 597.351 321.312 601.278 314.305 601.278C305.296 601.278 299.906 595.657 299.906 586.417V559.159H306.682V585.57C306.682 591.961 309.685 595.965 315.999 595.965C323.083 595.965 327.703 590.575 327.703 582.952V559.159H334.479V594.04ZM397.535 600.354V573.327C397.535 565.858 392.915 563.548 388.68 563.548C384.368 563.548 378.747 566.474 378.747 575.483V600.354H371.971V573.327C371.971 565.858 367.351 563.548 363.116 563.548C358.804 563.548 353.183 566.474 353.183 575.483V600.354H346.407V565.473L346.253 559.159H353.029L353.183 564.78H353.414C354.954 560.93 360.344 558.235 365.272 558.235C371.817 558.235 375.898 561.469 377.515 565.55H377.669C379.44 561.007 384.753 558.235 390.836 558.235C398.382 558.235 404.311 562.547 404.311 571.941V600.354H397.535ZM415.601 552.999V545.376H422.993V552.999H415.601ZM415.909 600.354V559.159H422.685V600.354H415.909ZM434.873 565.473L434.719 559.159H441.495L441.649 565.627H441.88C443.42 562.085 448.117 558.235 455.124 558.235C464.21 558.235 469.908 563.933 469.908 573.173V600.354H463.132V573.943C463.132 567.552 459.744 563.548 453.43 563.548C446.269 563.548 441.649 568.938 441.649 576.561V600.354H434.873V565.473ZM515.396 594.04L515.55 600.354H508.774L508.62 593.886H508.389C506.849 597.351 502.229 601.278 495.222 601.278C486.213 601.278 480.823 595.657 480.823 586.417V559.159H487.599V585.57C487.599 591.961 490.602 595.965 496.916 595.965C504 595.965 508.62 590.575 508.62 582.952V559.159H515.396V594.04ZM578.452 600.354V573.327C578.452 565.858 573.832 563.548 569.597 563.548C565.285 563.548 559.664 566.474 559.664 575.483V600.354H552.888V573.327C552.888 565.858 548.268 563.548 544.033 563.548C539.721 563.548 534.1 566.474 534.1 575.483V600.354H527.324V565.473L527.17 559.159H533.946L534.1 564.78H534.331C535.871 560.93 541.261 558.235 546.189 558.235C552.734 558.235 556.815 561.469 558.432 565.55H558.586C560.357 561.007 565.67 558.235 571.753 558.235C579.299 558.235 585.228 562.547 585.228 571.941V600.354H578.452Z" fill="white"/>
<path d="M144.143 706.478C154.307 706.478 161.699 712.022 161.699 721.493C161.699 729.424 158.003 734.66 151.304 740.666L133.748 756.605V756.913H162.854V762.765H125.278V755.989L146.761 736.046C151.92 731.195 154.846 727.345 154.846 721.878C154.846 715.718 150.303 712.33 144.143 712.33C138.06 712.33 132.67 715.795 132.131 723.341H125.278C126.048 711.637 134.21 706.478 144.143 706.478ZM168.257 713.639V707.787H203.677V712.946L179.884 762.765H172.415L195.977 713.639H168.257ZM205.059 752.678H213.837V762.765H205.059V752.678ZM241.951 706.478C252.115 706.478 259.507 712.022 259.507 721.493C259.507 729.424 255.811 734.66 249.112 740.666L231.556 756.605V756.913H260.662V762.765H223.086V755.989L244.569 736.046C249.728 731.195 252.654 727.345 252.654 721.878C252.654 715.718 248.111 712.33 241.951 712.33C235.868 712.33 230.478 715.795 229.939 723.341H223.086C223.856 711.637 232.018 706.478 241.951 706.478ZM287.625 764.074C277.846 764.074 269.838 760.224 268.529 749.444H275.382C276.614 756.066 281.696 758.222 287.625 758.222C295.325 758.222 301.177 752.447 301.177 744.67C301.177 736.893 296.711 731.041 288.318 731.041C282.928 731.041 279.001 733.428 276.922 737.509H269.838L274.689 707.787H305.874V713.639H280.387L277.615 729.732H277.923C279.925 727.345 284.545 725.189 289.473 725.189C300.715 725.189 308.107 733.197 308.107 744.67C308.107 756.143 299.406 764.074 287.625 764.074ZM318.929 707.864H326.013V731.349H354.58V707.864H361.664V762.765H354.58V737.355H326.013V762.765H318.929V707.864ZM399.057 728.038L389.817 715.872H394.822L401.675 725.266L408.528 715.872H413.533L404.216 728.038L413.995 740.666H408.99L401.675 730.81L394.283 740.666H389.355L399.057 728.038ZM457.043 706.478C467.207 706.478 474.599 712.022 474.599 721.493C474.599 729.424 470.903 734.66 464.204 740.666L446.648 756.605V756.913H475.754V762.765H438.178V755.989L459.661 736.046C464.82 731.195 467.746 727.345 467.746 721.878C467.746 715.718 463.203 712.33 457.043 712.33C450.96 712.33 445.57 715.795 445.031 723.341H438.178C438.948 711.637 447.11 706.478 457.043 706.478ZM497.712 707.787H502.717V762.765H495.941V722.879H482.697V717.874C492.476 717.104 495.479 715.718 497.712 707.787ZM515.552 752.678H524.33V762.765H515.552V752.678ZM552.444 706.478C562.608 706.478 570 712.022 570 721.493C570 729.424 566.304 734.66 559.605 740.666L542.049 756.605V756.913H571.155V762.765H533.579V755.989L555.062 736.046C560.221 731.195 563.147 727.345 563.147 721.878C563.147 715.718 558.604 712.33 552.444 712.33C546.361 712.33 540.971 715.795 540.432 723.341H533.579C534.349 711.637 542.511 706.478 552.444 706.478ZM598.119 764.074C588.34 764.074 580.332 760.224 579.023 749.444H585.876C587.108 756.066 592.19 758.222 598.119 758.222C605.819 758.222 611.671 752.447 611.671 744.67C611.671 736.893 607.205 731.041 598.812 731.041C593.422 731.041 589.495 733.428 587.416 737.509H580.332L585.183 707.787H616.368V713.639H590.881L588.109 729.732H588.417C590.419 727.345 595.039 725.189 599.967 725.189C611.209 725.189 618.601 733.197 618.601 744.67C618.601 756.143 609.9 764.074 598.119 764.074ZM646.131 762.765H637.661L623.647 707.787H630.731L638.277 738.202C639.663 743.438 641.049 749.444 642.05 754.757H642.358C643.436 749.444 644.899 743.438 646.208 738.202L653.6 707.787H662.07L669.462 738.202C670.771 743.438 672.234 749.444 673.312 754.757H673.62C674.621 749.444 676.007 743.438 677.393 738.202L684.939 707.787H692.023L678.009 762.765H669.539L661.993 732.812C660.684 727.499 659.221 721.955 657.989 716.18H657.681C656.449 721.955 654.986 727.499 653.677 732.812L646.131 762.765ZM278.41 805.038L269.17 792.872H274.175L281.028 802.266L287.881 792.872H292.886L283.569 805.038L293.348 817.666H288.343L281.028 807.81L273.636 817.666H268.708L278.41 805.038ZM336.395 783.478C346.559 783.478 353.951 789.022 353.951 798.493C353.951 806.424 350.255 811.66 343.556 817.666L326 833.605V833.913H355.106V839.765H317.53V832.989L339.013 813.046C344.172 808.195 347.098 804.345 347.098 798.878C347.098 792.718 342.555 789.33 336.395 789.33C330.312 789.33 324.922 792.795 324.383 800.341H317.53C318.3 788.637 326.462 783.478 336.395 783.478ZM362.434 803.344C362.434 792.025 370.288 783.478 382.146 783.478C395.313 783.478 402.166 792.795 402.166 809.581C402.166 831.064 393.157 841.074 380.837 841.074C372.213 841.074 365.129 836.608 364.051 827.214H370.981C371.982 833.066 375.755 835.607 380.837 835.607C388.46 835.607 394.543 828.292 394.697 815.356H394.389C392.464 818.513 387.69 821.67 380.914 821.67C370.904 821.67 362.434 815.048 362.434 803.344ZM394.928 802.574C394.928 795.105 390 789.33 382.146 789.33C374.369 789.33 369.364 795.105 369.364 802.574C369.364 810.043 374.369 815.818 382.146 815.818C390 815.818 394.928 809.427 394.928 802.574ZM413.974 839.765V784.787H431.915C447.238 784.787 458.403 793.719 458.403 812.276C458.403 830.833 447.238 839.765 431.915 839.765H413.974ZM431.145 790.793H421.058V833.759H431.145C443.465 833.759 451.319 826.444 451.319 812.276C451.319 798.108 443.465 790.793 431.145 790.793ZM487.064 792.41V784.787H494.456V792.41H487.064ZM487.372 839.765V798.57H494.148V839.765H487.372ZM506.336 804.884L506.182 798.57H512.958L513.112 805.038H513.343C514.883 801.496 519.58 797.646 526.587 797.646C535.673 797.646 541.371 803.344 541.371 812.584V839.765H534.595V813.354C534.595 806.963 531.207 802.959 524.893 802.959C517.732 802.959 513.112 808.349 513.112 815.972V839.765H506.336V804.884Z" fill="white"/>
<path d="M810.487 648.9L810.487 268.328L736.351 187.971L113.07 187.971" stroke="white" stroke-width="7.32623"/>
<path d="M4.5933 645.544L4.59328 268.327L78.7286 187.97L702.01 187.97" stroke="white" stroke-width="7.32623"/>
<path d="M4.50024 503.612L4.50029 873.382L78.6356 953.738L701.917 953.738" stroke="white" stroke-width="7.32623"/>
<path d="M810.389 482.191L810.389 873.383L736.254 953.739L112.972 953.739" stroke="white" stroke-width="7.32623"/>
<path d="M249.974 1031.08H254.974V1086H248.205V1046.16H234.974V1041.16C244.743 1040.39 247.743 1039 249.974 1031.08ZM263.413 1067.62L289.183 1031.08H296.49V1067.93H304.721V1073.77H296.49V1086H289.644V1073.77H263.413V1067.62ZM290.183 1039.62H289.875C286.798 1045 283.182 1049.93 279.105 1055.7L270.259 1067.93H289.644V1055C289.644 1051.54 289.798 1044.39 290.183 1039.62ZM352.196 1058.54C352.196 1074.31 346.273 1087.31 331.272 1087.31C316.272 1087.31 310.272 1074.31 310.272 1058.54C310.272 1042.77 316.272 1029.77 331.272 1029.77C346.273 1029.77 352.196 1042.77 352.196 1058.54ZM345.273 1058.54C345.273 1045.62 341.503 1035.62 331.272 1035.62C321.118 1035.62 317.195 1045.62 317.195 1058.54C317.195 1071.39 321.118 1081.47 331.272 1081.47C341.503 1081.47 345.273 1071.39 345.273 1058.54ZM401.927 1058.54C401.927 1074.31 396.004 1087.31 381.003 1087.31C366.003 1087.31 360.003 1074.31 360.003 1058.54C360.003 1042.77 366.003 1029.77 381.003 1029.77C396.004 1029.77 401.927 1042.77 401.927 1058.54ZM395.004 1058.54C395.004 1045.62 391.234 1035.62 381.003 1035.62C370.849 1035.62 366.926 1045.62 366.926 1058.54C366.926 1071.39 370.849 1081.47 381.003 1081.47C391.234 1081.47 395.004 1071.39 395.004 1058.54ZM430.45 1066V1031.08H437.527V1066.54C437.527 1075.24 443.066 1081.31 451.912 1081.31C460.836 1081.31 466.22 1075.16 466.22 1066.47V1031.08H473.297V1065.93C473.297 1079.62 464.682 1087.31 451.912 1087.31C439.219 1087.31 430.45 1079.7 430.45 1066ZM523.967 1045.77H516.889C516.12 1039.23 511.351 1035.46 503.581 1035.46C495.35 1035.46 490.196 1039.16 490.196 1045C490.196 1050.23 494.812 1052.54 501.812 1054L507.812 1055.23C517.813 1057.31 525.121 1060 525.121 1071.47C525.121 1081.24 515.505 1087.31 503.735 1087.31C490.35 1087.31 482.658 1081 482.35 1069.7H489.427C489.812 1077.24 494.966 1081.62 503.735 1081.62C512.274 1081.62 517.89 1077.7 517.966 1071.85C518.043 1065.24 513.505 1063.39 505.197 1061.7L499.197 1060.47C489.427 1058.47 483.119 1054.62 483.119 1045.54C483.119 1036.08 492.273 1029.77 503.581 1029.77C514.428 1029.77 523.12 1034.54 523.967 1045.77ZM535.035 1086V1031.08H552.958C568.267 1031.08 579.421 1040 579.421 1058.54C579.421 1077.08 568.267 1086 552.958 1086H535.035ZM552.189 1037.08H542.112V1080H552.189C564.497 1080 572.344 1072.7 572.344 1058.54C572.344 1044.39 564.497 1037.08 552.189 1037.08Z" fill="white"/>
<path d="M809.087 1059.96L735.086 979.745L112.931 979.745" stroke="white" stroke-width="7.36716"/>
<path d="M5.8998 1061.54L81.3839 979.74L703.539 979.74" stroke="white" stroke-width="7.36716"/>
<path d="M809.08 1055L732.925 1137.53L110.771 1137.53" stroke="white" stroke-width="7.36716"/>
<path d="M7.38263 1057.32L81.384 1137.53L703.539 1137.53" stroke="white" stroke-width="7.36716"/>
<path d="M128.625 1265.11C136.471 1265.11 141.164 1262.34 143.625 1259.57V1247.11H126.317V1241.11H150.472V1261.95C146.164 1266.8 138.471 1271.11 128.548 1271.11C110.932 1271.11 102.547 1258.8 102.547 1242.34C102.547 1225.87 110.009 1213.57 127.548 1213.57C141.087 1213.57 149.087 1219.18 150.164 1230.8H143.087C141.933 1222.57 135.317 1219.57 127.548 1219.57C115.624 1219.57 109.624 1228.49 109.624 1242.34C109.624 1256.18 116.317 1265.11 128.625 1265.11ZM161.676 1269.8V1214.87H196.677V1220.87H168.753V1238.57H195.139V1244.57H168.753V1263.8H196.677V1269.8H161.676ZM202.61 1242.34C202.61 1225.18 211.764 1213.57 228.688 1213.57C245.612 1213.57 254.843 1225.18 254.843 1242.34C254.843 1259.49 245.612 1271.11 228.688 1271.11C211.764 1271.11 202.61 1259.49 202.61 1242.34ZM209.687 1242.34C209.687 1255.49 216.072 1265.11 228.688 1265.11C241.304 1265.11 247.765 1255.49 247.765 1242.34C247.765 1229.18 241.304 1219.57 228.688 1219.57C216.072 1219.57 209.687 1229.18 209.687 1242.34ZM306.118 1230.57C306.118 1237.26 301.733 1242.34 296.963 1243.8V1244.11C301.887 1244.95 304.964 1249.18 305.81 1255.72L307.579 1269.8H300.194L298.502 1255.72C297.579 1248.49 293.579 1247.11 285.809 1247.11H272.347V1269.8H265.347V1214.87H287.886C300.04 1214.87 306.118 1221.64 306.118 1230.57ZM299.117 1230.95C299.117 1224.64 294.963 1220.87 287.271 1220.87H272.347V1241.11H287.117C294.81 1241.11 299.117 1237.26 299.117 1230.95ZM340.846 1265.11C348.692 1265.11 353.385 1262.34 355.846 1259.57V1247.11H338.538V1241.11H362.693V1261.95C358.385 1266.8 350.692 1271.11 340.769 1271.11C323.153 1271.11 314.768 1258.8 314.768 1242.34C314.768 1225.87 322.23 1213.57 339.769 1213.57C353.308 1213.57 361.308 1219.18 362.385 1230.8H355.308C354.154 1222.57 347.538 1219.57 339.769 1219.57C327.845 1219.57 321.845 1228.49 321.845 1242.34C321.845 1256.18 328.538 1265.11 340.846 1265.11ZM373.897 1269.8V1214.87H408.898V1220.87H380.974V1238.57H407.36V1244.57H380.974V1263.8H408.898V1269.8H373.897ZM456.382 1269.8V1214.87H474.305C489.613 1214.87 500.768 1223.8 500.768 1242.34C500.768 1260.88 489.613 1269.8 474.305 1269.8H456.382ZM473.536 1220.87H463.459V1263.8H473.536C485.844 1263.8 493.69 1256.49 493.69 1242.34C493.69 1228.18 485.844 1220.87 473.536 1220.87ZM503.328 1269.8L524.098 1214.95H532.483L553.253 1269.8H545.791L540.791 1256.41H515.79L510.79 1269.8H503.328ZM518.021 1250.41H538.56L532.714 1234.8C531.175 1230.72 529.714 1226.34 528.483 1222.26H528.175C526.944 1226.34 525.406 1230.72 523.867 1234.8L518.021 1250.41ZM571.043 1269.8L551.042 1214.87H558.504L569.812 1246.57C571.581 1251.64 573.735 1257.72 575.12 1262.41H575.427C576.812 1257.72 578.889 1251.64 580.658 1246.57L592.043 1214.87H599.428L579.427 1269.8H571.043ZM607.378 1214.87H614.455V1269.8H607.378V1214.87ZM628.412 1269.8V1214.87H663.413V1220.87H635.489V1238.57H661.875V1244.57H635.489V1263.8H663.413V1269.8H628.412ZM711.773 1229.57H704.696C703.926 1223.03 699.157 1219.26 691.387 1219.26C683.156 1219.26 678.002 1222.95 678.002 1228.8C678.002 1234.03 682.618 1236.34 689.618 1237.8L695.618 1239.03C705.619 1241.11 712.927 1243.8 712.927 1255.26C712.927 1265.03 703.311 1271.11 691.541 1271.11C678.156 1271.11 670.464 1264.8 670.156 1253.49H677.233C677.618 1261.03 682.772 1265.41 691.541 1265.41C700.08 1265.41 705.696 1261.49 705.773 1255.64C705.849 1249.03 701.311 1247.18 693.003 1245.49L687.003 1244.26C677.233 1242.26 670.925 1238.41 670.925 1229.34C670.925 1219.87 680.079 1213.57 691.387 1213.57C702.234 1213.57 710.927 1218.34 711.773 1229.57Z" fill="white"/>
<path d="M809.087 1243.75L735.086 1163.54L112.931 1163.54" stroke="white" stroke-width="7.36716"/>
<path d="M5.8998 1245.33L81.3839 1163.53L703.539 1163.53" stroke="white" stroke-width="7.36716"/>
<path d="M809.08 1238.79L732.925 1321.33L110.771 1321.33" stroke="white" stroke-width="7.36716"/>
<path d="M7.38263 1241.12L81.384 1321.33L703.539 1321.33" stroke="white" stroke-width="7.36716"/>
</svg>
