<svg width="815" height="1326" viewBox="0 0 815 1326" fill="none" xmlns="http://www.w3.org/2000/svg">
<path d="M292.655 106.218C300.501 106.218 305.194 103.448 307.655 100.679V88.2172H290.347V82.217H314.502V103.064C310.194 107.91 302.501 112.218 292.578 112.218C274.962 112.218 266.577 99.9098 266.577 83.4478C266.577 66.9858 274.039 54.6777 291.578 54.6777C305.117 54.6777 313.117 60.2933 314.194 71.909H307.117C305.963 63.678 299.347 60.6779 291.578 60.6779C279.654 60.6779 273.654 69.6012 273.654 83.4478C273.654 97.2944 280.347 106.218 292.655 106.218ZM325.706 110.91V55.9854H343.63C358.938 55.9854 370.092 64.9088 370.092 83.4478C370.092 101.987 358.938 110.91 343.63 110.91H325.706ZM342.861 61.9856H332.783V104.91H342.861C355.169 104.91 363.015 97.6021 363.015 83.4478C363.015 69.2935 355.169 61.9856 342.861 61.9856ZM378.086 93.0635V87.5248H400.086V93.0635H378.086ZM403.453 110.91L424.223 56.0624H432.608L453.378 110.91H445.916L440.916 97.5251H415.915L410.915 110.91H403.453ZM418.146 91.525H438.685L432.839 75.9091C431.3 71.8321 429.839 67.4473 428.608 63.3703H428.3C427.069 67.4473 425.531 71.8321 423.992 75.9091L418.146 91.525ZM497.728 94.2173H504.805C503.728 105.833 494.881 112.218 481.727 112.218C464.265 112.218 456.111 99.9098 456.111 83.4478C456.111 66.9858 464.265 54.6777 481.727 54.6777C494.958 54.6777 503.42 60.2933 504.497 71.909H497.42C496.266 63.678 489.497 60.6779 481.727 60.6779C469.727 60.6779 463.188 69.6012 463.188 83.4478C463.188 97.2174 469.727 106.218 481.727 106.218C489.497 106.218 496.574 102.679 497.728 94.2173ZM529.797 54.6777C539.951 54.6777 547.336 60.2163 547.336 69.6782C547.336 77.6015 543.644 82.8324 536.951 88.8326L519.412 104.756V105.064H548.49V110.91H510.95V104.141L532.412 84.2171C537.566 79.3707 540.49 75.5245 540.49 70.0628C540.49 63.9088 535.951 60.524 529.797 60.524C523.72 60.524 518.335 63.9857 517.797 71.5244H510.95C511.72 59.8317 519.874 54.6777 529.797 54.6777Z" fill="white"/>
<path d="M809.087 84.8613L735.086 4.64997L112.931 4.65" stroke="white" stroke-width="7.36716"/>
<path d="M5.8998 86.4433L81.3839 4.64497L703.539 4.64494" stroke="white" stroke-width="7.36716"/>
<path d="M809.08 79.9034L732.925 162.439L110.771 162.439" stroke="white" stroke-width="7.36716"/>
<path d="M7.38263 82.2265L81.384 162.438L703.539 162.438" stroke="white" stroke-width="7.36716"/>
<path d="M152.678 298.874H175.082C186.929 298.874 194.101 303.548 194.101 313.863C194.101 321.116 189.266 325.065 185.639 326.355V326.677C190.474 327.483 196.116 331.754 196.116 340.377C196.116 351.015 188.057 356.414 176.613 356.414H152.678V298.874ZM160.093 323.776H176.21C182.254 323.776 186.687 320.391 186.687 314.427C186.687 308.544 182.254 305.16 176.21 305.16H160.093V323.776ZM188.702 340.055C188.702 333.769 184.35 330.062 177.419 330.062H160.093V350.128H177.419C184.35 350.128 188.702 346.341 188.702 340.055ZM206.003 319.907L205.842 313.299H212.934L213.095 320.069H213.336C214.304 316.603 218.252 312.493 225.022 312.493H226.956V318.779H223.571C216.802 318.779 213.095 323.937 213.095 332.076V356.414H206.003V319.907ZM249.368 317.893C243.324 317.893 239.214 320.23 238.649 325.146H231.558C231.961 316.362 238.811 312.332 249.368 312.332C261.617 312.332 267.097 317.651 267.097 326.677V346.26C267.097 350.853 267.097 351.901 267.5 356.414H260.408C260.086 353.029 260.005 351.821 260.005 349.242H259.764C257.588 353.191 252.591 357.381 244.21 357.381C235.748 357.381 229.946 352.546 229.946 344.084C229.946 335.139 236.554 331.351 245.58 330.223L260.005 328.369V326.677C260.005 320.472 256.137 317.893 249.368 317.893ZM237.038 344.084C237.038 348.919 240.422 351.821 245.983 351.821C251.785 351.821 260.247 347.388 260.247 336.428V333.769L246.789 335.542C240.422 336.348 237.038 339.168 237.038 344.084ZM278.56 298.874H285.652V332.479L305.074 313.299H313.616L292.824 333.527L314.019 356.414H305.074L285.652 334.978V356.414H278.56V298.874ZM355.639 337.234H322.114C322.839 346.26 327.433 351.982 335.895 351.982C341.778 351.982 346.613 349 347.983 343.359H354.833C353.543 352.546 345.646 357.381 335.895 357.381C322.517 357.381 315.183 348.678 315.183 334.816C315.183 320.955 322.839 312.332 335.411 312.332C348.789 312.332 355.639 321.116 355.639 336.509V337.234ZM322.194 331.835H348.628C347.822 323.373 343.309 317.732 335.411 317.732C327.513 317.732 323 323.373 322.194 331.835ZM385.63 298.874H421.975V305.16H393.044V324.501H420.363V330.787H393.044V356.414H385.63V298.874ZM447.961 357.381C434.906 357.381 427.33 348.597 427.33 334.816C427.33 321.036 434.906 312.332 447.961 312.332C461.016 312.332 468.592 321.036 468.592 334.816C468.592 348.597 461.016 357.381 447.961 357.381ZM447.961 351.821C456.987 351.821 461.5 344.729 461.5 334.816C461.5 324.904 456.987 317.893 447.961 317.893C439.016 317.893 434.422 324.904 434.422 334.816C434.422 344.729 439.016 351.821 447.961 351.821ZM477.989 319.907L477.828 313.299H484.92L485.081 320.069H485.323C486.29 316.603 490.239 312.493 497.008 312.493H498.942V318.779H495.557C488.788 318.779 485.081 323.937 485.081 332.076V356.414H477.989V319.907ZM559.91 356.414V328.128C559.91 320.31 555.075 317.893 550.643 317.893C546.13 317.893 540.247 320.955 540.247 330.384V356.414H533.155V328.128C533.155 320.31 528.32 317.893 523.887 317.893C519.374 317.893 513.491 320.955 513.491 330.384V356.414H506.4V319.907L506.238 313.299H513.33L513.491 319.182H513.733C515.345 315.153 520.986 312.332 526.144 312.332C532.994 312.332 537.265 315.717 538.957 319.988H539.119C540.972 315.233 546.533 312.332 552.899 312.332C560.797 312.332 567.002 316.845 567.002 326.677V356.414H559.91ZM616.292 337.234H582.767C583.493 346.26 588.086 351.982 596.548 351.982C602.431 351.982 607.266 349 608.636 343.359H615.486C614.197 352.546 606.299 357.381 596.548 357.381C583.17 357.381 575.837 348.678 575.837 334.816C575.837 320.955 583.493 312.332 596.064 312.332C609.442 312.332 616.292 321.116 616.292 336.509V337.234ZM582.848 331.835H609.281C608.475 323.373 603.962 317.732 596.064 317.732C588.167 317.732 583.654 323.373 582.848 331.835ZM623.371 334.816C623.371 319.746 632.317 312.332 642.793 312.332C649.24 312.332 654.398 315.797 656.574 319.021H656.654V298.874H663.746V345.938L663.988 356.414H656.896L656.654 349.967H656.574C654.881 353.835 649.563 357.381 642.632 357.381C631.027 357.381 623.371 349.081 623.371 334.816ZM657.38 334.816C657.38 324.904 652.383 317.893 644.002 317.893C635.54 317.893 630.463 324.904 630.463 334.816C630.463 344.729 635.54 351.821 644.002 351.821C652.383 351.821 657.38 344.729 657.38 334.816ZM165.187 437.414L186.946 379.954H195.73L217.489 437.414H209.672L204.433 423.392H178.242L173.004 437.414H165.187ZM180.579 417.106H202.096L195.972 400.746C194.36 396.475 192.829 391.882 191.539 387.61H191.217C189.927 391.882 188.316 396.475 186.704 400.746L180.579 417.106ZM241.852 398.893C232.826 398.893 228.072 405.985 228.072 415.816C228.072 425.648 232.746 432.821 241.852 432.821C247.735 432.821 252.57 430.161 253.618 424.198H260.71C259.259 433.788 251.523 438.381 241.852 438.381C228.394 438.381 220.98 429.597 220.98 415.816C220.98 401.955 228.475 393.332 241.852 393.332C252.893 393.332 259.018 398.651 260.388 407.113H253.296C252.168 401.794 247.896 398.893 241.852 398.893ZM287.97 398.893C278.944 398.893 274.19 405.985 274.19 415.816C274.19 425.648 278.864 432.821 287.97 432.821C293.853 432.821 298.688 430.161 299.736 424.198H306.828C305.377 433.788 297.641 438.381 287.97 438.381C274.512 438.381 267.098 429.597 267.098 415.816C267.098 401.955 274.593 393.332 287.97 393.332C299.011 393.332 305.136 398.651 306.506 407.113H299.414C298.286 401.794 294.014 398.893 287.97 398.893ZM353.671 418.234H320.146C320.872 427.26 325.465 432.982 333.927 432.982C339.81 432.982 344.645 430 346.015 424.359H352.865C351.576 433.546 343.678 438.381 333.927 438.381C320.549 438.381 313.216 429.678 313.216 415.816C313.216 401.955 320.872 393.332 333.444 393.332C346.821 393.332 353.671 402.116 353.671 417.509V418.234ZM320.227 412.835H346.66C345.854 404.373 341.341 398.732 333.444 398.732C325.546 398.732 321.033 404.373 320.227 412.835ZM363.087 400.907L362.926 394.299H370.018L370.179 401.069H370.421C372.033 397.362 376.949 393.332 384.282 393.332C393.792 393.332 399.755 399.296 399.755 408.966V437.414H392.663V409.772C392.663 403.083 389.118 398.893 382.509 398.893C375.015 398.893 370.179 404.534 370.179 412.512V437.414H363.087V400.907ZM413.606 394.299V385.112H420.698V394.299H429.079V399.86H420.698V427.743C420.698 430.564 421.503 431.853 424.082 431.853H428.676V437.414H422.068C416.023 437.414 413.606 434.513 413.606 427.743V399.86H406.675V394.299H413.606ZM498.476 419.926H505.89C504.761 432.095 495.494 438.784 481.713 438.784C463.42 438.784 454.877 425.89 454.877 408.644C454.877 391.398 463.42 378.504 481.713 378.504C495.574 378.504 504.439 384.387 505.567 396.556H498.153C496.944 387.933 489.853 384.79 481.713 384.79C469.141 384.79 462.291 394.138 462.291 408.644C462.291 423.069 469.141 432.498 481.713 432.498C489.853 432.498 497.267 428.791 498.476 419.926ZM514.423 379.874H521.515V401.069H521.757C523.369 397.362 528.204 393.332 535.618 393.332C545.047 393.332 551.091 399.296 551.091 408.966V437.414H543.999V409.772C543.999 403.083 540.453 398.893 533.845 398.893C526.35 398.893 521.515 404.534 521.515 412.512V437.414H514.423V379.874ZM579.119 398.893C573.075 398.893 568.965 401.23 568.401 406.146H561.309C561.712 397.362 568.562 393.332 579.119 393.332C591.369 393.332 596.849 398.651 596.849 407.677V427.26C596.849 431.853 596.849 432.901 597.252 437.414H590.16C589.838 434.029 589.757 432.821 589.757 430.242H589.515C587.339 434.191 582.343 438.381 573.962 438.381C565.5 438.381 559.698 433.546 559.698 425.084C559.698 416.139 566.306 412.351 575.332 411.223L589.757 409.369V407.677C589.757 401.472 585.889 398.893 579.119 398.893ZM566.789 425.084C566.789 429.919 570.174 432.821 575.735 432.821C581.537 432.821 589.999 428.388 589.999 417.428V414.769L576.541 416.542C570.174 417.348 566.789 420.168 566.789 425.084ZM608.312 387.852V379.874H616.048V387.852H608.312ZM608.634 437.414V394.299H615.726V437.414H608.634ZM627.676 400.907L627.515 394.299H634.607L634.768 401.069H635.009C635.977 397.603 639.925 393.493 646.695 393.493H648.629V399.779H645.244C638.475 399.779 634.768 404.937 634.768 413.076V437.414H627.676V400.907Z" fill="white"/>
<path d="M225.091 600.824L245.881 545.923H254.274L275.064 600.824H267.595L262.59 587.426H237.565L232.56 600.824H225.091ZM239.798 581.42H260.357L254.505 565.789C252.965 561.708 251.502 557.319 250.27 553.238H249.962C248.73 557.319 247.19 561.708 245.65 565.789L239.798 581.42ZM281.775 600.824V545.846H288.551V600.824H281.775ZM334.479 594.51L334.633 600.824H327.857L327.703 594.356H327.472C325.932 597.821 321.312 601.748 314.305 601.748C305.296 601.748 299.906 596.127 299.906 586.887V559.629H306.682V586.04C306.682 592.431 309.685 596.435 315.999 596.435C323.083 596.435 327.703 591.045 327.703 583.422V559.629H334.479V594.51ZM397.535 600.824V573.797C397.535 566.328 392.915 564.018 388.68 564.018C384.368 564.018 378.747 566.944 378.747 575.953V600.824H371.971V573.797C371.971 566.328 367.351 564.018 363.116 564.018C358.804 564.018 353.183 566.944 353.183 575.953V600.824H346.407V565.943L346.253 559.629H353.029L353.183 565.25H353.414C354.954 561.4 360.344 558.705 365.272 558.705C371.817 558.705 375.898 561.939 377.515 566.02H377.669C379.44 561.477 384.753 558.705 390.836 558.705C398.382 558.705 404.311 563.017 404.311 572.411V600.824H397.535ZM415.602 553.469V545.846H422.994V553.469H415.602ZM415.91 600.824V559.629H422.686V600.824H415.91ZM434.873 565.943L434.719 559.629H441.495L441.649 566.097H441.88C443.42 562.555 448.117 558.705 455.124 558.705C464.21 558.705 469.908 564.403 469.908 573.643V600.824H463.132V574.413C463.132 568.022 459.744 564.018 453.43 564.018C446.269 564.018 441.649 569.408 441.649 577.031V600.824H434.873V565.943ZM515.396 594.51L515.55 600.824H508.774L508.62 594.356H508.389C506.849 597.821 502.229 601.748 495.222 601.748C486.213 601.748 480.823 596.127 480.823 586.887V559.629H487.599V586.04C487.599 592.431 490.602 596.435 496.916 596.435C504 596.435 508.62 591.045 508.62 583.422V559.629H515.396V594.51ZM578.452 600.824V573.797C578.452 566.328 573.832 564.018 569.597 564.018C565.285 564.018 559.664 566.944 559.664 575.953V600.824H552.888V573.797C552.888 566.328 548.268 564.018 544.033 564.018C539.721 564.018 534.1 566.944 534.1 575.953V600.824H527.324V565.943L527.17 559.629H533.946L534.1 565.25H534.331C535.871 561.4 541.261 558.705 546.189 558.705C552.734 558.705 556.815 561.939 558.432 566.02H558.586C560.357 561.477 565.67 558.705 571.753 558.705C579.299 558.705 585.228 563.017 585.228 572.411V600.824H578.452Z" fill="white"/>
<path d="M155.218 721.654C155.218 715.494 150.213 712.799 144.592 712.799C139.125 712.799 134.043 714.878 133.196 721.731H126.343C127.267 711.182 134.505 706.947 144.592 706.947C155.064 706.947 162.148 712.26 162.148 720.73C162.148 728.276 157.297 732.357 153.447 733.666V733.82C158.76 735.283 164.304 739.441 164.304 748.373C164.304 758.691 155.603 764.543 144.592 764.543C132.426 764.543 125.188 759.692 124.88 748.527H131.733C132.426 755.611 137.123 758.691 144.592 758.691C152.138 758.691 157.374 754.841 157.374 747.603C157.374 740.827 152.523 737.131 145.131 737.131H140.588V730.971H144.669C150.598 730.971 155.218 727.66 155.218 721.654ZM186.692 708.256H191.697V763.234H184.921V723.348H171.677V718.343C181.456 717.573 184.459 716.187 186.692 708.256ZM204.533 753.147H213.311V763.234H204.533V753.147ZM219.201 714.108V708.256H254.621V713.415L230.828 763.234H223.359L246.921 714.108H219.201ZM279.73 764.543C269.951 764.543 261.943 760.693 260.634 749.913H267.487C268.719 756.535 273.801 758.691 279.73 758.691C287.43 758.691 293.282 752.916 293.282 745.139C293.282 737.362 288.816 731.51 280.423 731.51C275.033 731.51 271.106 733.897 269.027 737.978H261.943L266.794 708.256H297.979V714.108H272.492L269.72 730.201H270.028C272.03 727.814 276.65 725.658 281.578 725.658C292.82 725.658 300.212 733.666 300.212 745.139C300.212 756.612 291.511 764.543 279.73 764.543ZM311.033 708.333H318.117V731.818H346.684V708.333H353.768V763.234H346.684V737.824H318.117V763.234H311.033V708.333ZM391.162 728.507L381.922 716.341H386.927L393.78 725.735L400.633 716.341H405.638L396.321 728.507L406.1 741.135H401.095L393.78 731.279L386.388 741.135H381.46L391.162 728.507ZM449.147 706.947C459.311 706.947 466.703 712.491 466.703 721.962C466.703 729.893 463.007 735.129 456.308 741.135L438.752 757.074V757.382H467.858V763.234H430.282V756.458L451.765 736.515C456.924 731.664 459.85 727.814 459.85 722.347C459.85 716.187 455.307 712.799 449.147 712.799C443.064 712.799 437.674 716.264 437.135 723.81H430.282C431.052 712.106 439.214 706.947 449.147 706.947ZM504.832 721.654C504.832 715.494 499.827 712.799 494.206 712.799C488.739 712.799 483.657 714.878 482.81 721.731H475.957C476.881 711.182 484.119 706.947 494.206 706.947C504.678 706.947 511.762 712.26 511.762 720.73C511.762 728.276 506.911 732.357 503.061 733.666V733.82C508.374 735.283 513.918 739.441 513.918 748.373C513.918 758.691 505.217 764.543 494.206 764.543C482.04 764.543 474.802 759.692 474.494 748.527H481.347C482.04 755.611 486.737 758.691 494.206 758.691C501.752 758.691 506.988 754.841 506.988 747.603C506.988 740.827 502.137 737.131 494.745 737.131H490.202V730.971H494.283C500.212 730.971 504.832 727.66 504.832 721.654ZM522.395 753.147H531.173V763.234H522.395V753.147ZM537.063 714.108V708.256H572.483V713.415L548.69 763.234H541.221L564.783 714.108H537.063ZM597.593 764.543C587.814 764.543 579.806 760.693 578.497 749.913H585.35C586.582 756.535 591.664 758.691 597.593 758.691C605.293 758.691 611.145 752.916 611.145 745.139C611.145 737.362 606.679 731.51 598.286 731.51C592.896 731.51 588.969 733.897 586.89 737.978H579.806L584.657 708.256H615.842V714.108H590.355L587.583 730.201H587.891C589.893 727.814 594.513 725.658 599.441 725.658C610.683 725.658 618.075 733.666 618.075 745.139C618.075 756.612 609.374 764.543 597.593 764.543ZM645.605 763.234H637.135L623.121 708.256H630.205L637.751 738.671C639.137 743.907 640.523 749.913 641.524 755.226H641.832C642.91 749.913 644.373 743.907 645.682 738.671L653.074 708.256H661.544L668.936 738.671C670.245 743.907 671.708 749.913 672.786 755.226H673.094C674.095 749.913 675.481 743.907 676.867 738.671L684.413 708.256H691.497L677.483 763.234H669.013L661.467 733.281C660.158 727.968 658.695 722.424 657.463 716.649H657.155C655.923 722.424 654.46 727.968 653.151 733.281L645.605 763.234ZM286.982 805.507L277.742 793.341H282.747L289.6 802.735L296.453 793.341H301.458L292.141 805.507L301.92 818.135H296.915L289.6 808.279L282.208 818.135H277.28L286.982 805.507ZM344.967 783.947C355.131 783.947 362.523 789.491 362.523 798.962C362.523 806.893 358.827 812.129 352.128 818.135L334.572 834.074V834.382H363.678V840.234H326.102V833.458L347.585 813.515C352.744 808.664 355.67 804.814 355.67 799.347C355.67 793.187 351.127 789.799 344.967 789.799C338.884 789.799 333.494 793.264 332.955 800.81H326.102C326.872 789.106 335.034 783.947 344.967 783.947ZM385.636 785.256H390.641V840.234H383.865V800.348H370.621V795.343C380.4 794.573 383.403 793.187 385.636 785.256ZM405.402 840.234V785.256H423.343C438.666 785.256 449.831 794.188 449.831 812.745C449.831 831.302 438.666 840.234 423.343 840.234H405.402ZM422.573 791.262H412.486V834.228H422.573C434.893 834.228 442.747 826.913 442.747 812.745C442.747 798.577 434.893 791.262 422.573 791.262ZM478.492 792.879V785.256H485.884V792.879H478.492ZM478.8 840.234V799.039H485.576V840.234H478.8ZM497.764 805.353L497.61 799.039H504.386L504.54 805.507H504.771C506.311 801.965 511.008 798.115 518.015 798.115C527.101 798.115 532.799 803.813 532.799 813.053V840.234H526.023V813.823C526.023 807.432 522.635 803.428 516.321 803.428C509.16 803.428 504.54 808.818 504.54 816.441V840.234H497.764V805.353Z" fill="white"/>
<path d="M810.487 649.37L810.487 268.797L736.351 188.44L113.07 188.44" stroke="white" stroke-width="7.32623"/>
<path d="M4.59379 646.014L4.59377 268.796L78.7291 188.44L702.011 188.44" stroke="white" stroke-width="7.32623"/>
<path d="M4.50049 504.082L4.50053 873.851L78.6358 954.208L701.917 954.208" stroke="white" stroke-width="7.32623"/>
<path d="M810.389 482.661L810.389 873.852L736.254 954.209L112.972 954.209" stroke="white" stroke-width="7.32623"/>
<path d="M257.261 1031.55H262.261V1086.47H255.492V1046.63H242.261V1041.63C252.03 1040.86 255.03 1039.47 257.261 1031.55ZM287.085 1031.55H292.085V1086.47H285.316V1046.63H272.084V1041.63C281.854 1040.86 284.854 1039.47 287.085 1031.55ZM344.909 1059.01C344.909 1074.78 338.986 1087.78 323.986 1087.78C308.985 1087.78 302.985 1074.78 302.985 1059.01C302.985 1043.24 308.985 1030.24 323.986 1030.24C338.986 1030.24 344.909 1043.24 344.909 1059.01ZM337.986 1059.01C337.986 1046.09 334.217 1036.09 323.986 1036.09C313.831 1036.09 309.908 1046.09 309.908 1059.01C309.908 1071.86 313.831 1081.94 323.986 1081.94C334.217 1081.94 337.986 1071.86 337.986 1059.01ZM394.64 1059.01C394.64 1074.78 388.717 1087.78 373.717 1087.78C358.716 1087.78 352.716 1074.78 352.716 1059.01C352.716 1043.24 358.716 1030.24 373.717 1030.24C388.717 1030.24 394.64 1043.24 394.64 1059.01ZM387.717 1059.01C387.717 1046.09 383.948 1036.09 373.717 1036.09C363.562 1036.09 359.639 1046.09 359.639 1059.01C359.639 1071.86 363.562 1081.94 373.717 1081.94C383.948 1081.94 387.717 1071.86 387.717 1059.01ZM423.163 1066.47V1031.55H430.241V1067.01C430.241 1075.71 435.779 1081.78 444.626 1081.78C453.549 1081.78 458.934 1075.63 458.934 1066.94V1031.55H466.011V1066.4C466.011 1080.09 457.395 1087.78 444.626 1087.78C431.933 1087.78 423.163 1080.17 423.163 1066.47ZM516.68 1046.24H509.603C508.834 1039.7 504.064 1035.93 496.295 1035.93C488.064 1035.93 482.91 1039.63 482.91 1045.47C482.91 1050.7 487.525 1053.01 494.526 1054.47L500.526 1055.7C510.526 1057.78 517.834 1060.47 517.834 1071.94C517.834 1081.71 508.218 1087.78 496.449 1087.78C483.064 1087.78 475.371 1081.47 475.063 1070.17H482.141C482.525 1077.71 487.679 1082.09 496.449 1082.09C504.987 1082.09 510.603 1078.17 510.68 1072.32C510.757 1065.7 506.218 1063.86 497.91 1062.17L491.91 1060.94C482.141 1058.94 475.833 1055.09 475.833 1046.01C475.833 1036.55 484.987 1030.24 496.295 1030.24C507.141 1030.24 515.834 1035.01 516.68 1046.24ZM527.748 1086.47V1031.55H545.672C560.98 1031.55 572.134 1040.47 572.134 1059.01C572.134 1077.55 560.98 1086.47 545.672 1086.47H527.748ZM544.903 1037.55H534.825V1080.47H544.903C557.211 1080.47 565.057 1073.17 565.057 1059.01C565.057 1044.86 557.211 1037.55 544.903 1037.55Z" fill="white"/>
<path d="M809.088 1060.43L735.086 980.214L112.932 980.214" stroke="white" stroke-width="7.36716"/>
<path d="M5.90029 1062.01L81.3844 980.209L703.539 980.209" stroke="white" stroke-width="7.36716"/>
<path d="M809.08 1055.47L732.925 1138L110.771 1138" stroke="white" stroke-width="7.36716"/>
<path d="M7.38312 1057.79L81.3845 1138L703.539 1138" stroke="white" stroke-width="7.36716"/>
<path d="M128.625 1265.58C136.471 1265.58 141.164 1262.81 143.626 1260.04V1247.58H126.317V1241.58H150.472V1262.42C146.164 1267.27 138.472 1271.58 128.548 1271.58C110.932 1271.58 102.547 1259.27 102.547 1242.81C102.547 1226.34 110.009 1214.04 127.548 1214.04C141.087 1214.04 149.087 1219.65 150.164 1231.27H143.087C141.933 1223.04 135.318 1220.04 127.548 1220.04C115.625 1220.04 109.625 1228.96 109.625 1242.81C109.625 1256.65 116.317 1265.58 128.625 1265.58ZM161.677 1270.27V1215.34H196.678V1221.34H168.754V1239.04H195.139V1245.04H168.754V1264.27H196.678V1270.27H161.677ZM202.61 1242.81C202.61 1225.65 211.765 1214.04 228.688 1214.04C245.612 1214.04 254.843 1225.65 254.843 1242.81C254.843 1259.96 245.612 1271.58 228.688 1271.58C211.765 1271.58 202.61 1259.96 202.61 1242.81ZM209.688 1242.81C209.688 1255.96 216.072 1265.58 228.688 1265.58C241.304 1265.58 247.766 1255.96 247.766 1242.81C247.766 1229.65 241.304 1220.04 228.688 1220.04C216.072 1220.04 209.688 1229.65 209.688 1242.81ZM306.118 1231.04C306.118 1237.73 301.733 1242.81 296.964 1244.27V1244.58C301.887 1245.42 304.964 1249.65 305.81 1256.19L307.579 1270.27H300.195L298.502 1256.19C297.579 1248.96 293.579 1247.58 285.809 1247.58H272.348V1270.27H265.347V1215.34H287.886C300.041 1215.34 306.118 1222.11 306.118 1231.04ZM299.118 1231.42C299.118 1225.11 294.964 1221.34 287.271 1221.34H272.348V1241.58H287.117C294.81 1241.58 299.118 1237.73 299.118 1231.42ZM340.846 1265.58C348.692 1265.58 353.385 1262.81 355.846 1260.04V1247.58H338.538V1241.58H362.693V1262.42C358.385 1267.27 350.692 1271.58 340.769 1271.58C323.153 1271.58 314.768 1259.27 314.768 1242.81C314.768 1226.34 322.23 1214.04 339.769 1214.04C353.308 1214.04 361.308 1219.65 362.385 1231.27H355.308C354.154 1223.04 347.538 1220.04 339.769 1220.04C327.846 1220.04 321.845 1228.96 321.845 1242.81C321.845 1256.65 328.538 1265.58 340.846 1265.58ZM373.897 1270.27V1215.34H408.899V1221.34H380.975V1239.04H407.36V1245.04H380.975V1264.27H408.899V1270.27H373.897ZM456.382 1270.27V1215.34H474.306C489.614 1215.34 500.768 1224.27 500.768 1242.81C500.768 1261.35 489.614 1270.27 474.306 1270.27H456.382ZM473.536 1221.34H463.459V1264.27H473.536C485.844 1264.27 493.691 1256.96 493.691 1242.81C493.691 1228.65 485.844 1221.34 473.536 1221.34ZM503.329 1270.27L524.098 1215.42H532.483L553.253 1270.27H545.791L540.791 1256.88H515.791L510.79 1270.27H503.329ZM518.021 1250.88H538.56L532.714 1235.27C531.176 1231.19 529.714 1226.81 528.483 1222.73H528.175C526.945 1226.81 525.406 1231.19 523.868 1235.27L518.021 1250.88ZM571.043 1270.27L551.042 1215.34H558.504L569.812 1247.04C571.581 1252.11 573.735 1258.19 575.12 1262.88H575.428C576.812 1258.19 578.889 1252.11 580.658 1247.04L592.043 1215.34H599.428L579.428 1270.27H571.043ZM607.378 1215.34H614.455V1270.27H607.378V1215.34ZM628.412 1270.27V1215.34H663.413V1221.34H635.489V1239.04H661.875V1245.04H635.489V1264.27H663.413V1270.27H628.412ZM711.773 1230.04H704.696C703.927 1223.5 699.157 1219.73 691.388 1219.73C683.157 1219.73 678.003 1223.42 678.003 1229.27C678.003 1234.5 682.618 1236.81 689.618 1238.27L695.619 1239.5C705.619 1241.58 712.927 1244.27 712.927 1255.73C712.927 1265.5 703.311 1271.58 691.542 1271.58C678.157 1271.58 670.464 1265.27 670.156 1253.96H677.233C677.618 1261.5 682.772 1265.88 691.542 1265.88C700.08 1265.88 705.696 1261.96 705.773 1256.11C705.85 1249.5 701.311 1247.65 693.003 1245.96L687.003 1244.73C677.233 1242.73 670.926 1238.88 670.926 1229.81C670.926 1220.34 680.08 1214.04 691.388 1214.04C702.234 1214.04 710.927 1218.81 711.773 1230.04Z" fill="white"/>
<path d="M809.088 1244.22L735.086 1164.01L112.932 1164.01" stroke="white" stroke-width="7.36716"/>
<path d="M5.90029 1245.8L81.3844 1164L703.539 1164" stroke="white" stroke-width="7.36716"/>
<path d="M809.08 1239.26L732.925 1321.8L110.771 1321.8" stroke="white" stroke-width="7.36716"/>
<path d="M7.38312 1241.58L81.3845 1321.8L703.539 1321.8" stroke="white" stroke-width="7.36716"/>
</svg>
