<svg width="814" height="1326" viewBox="0 0 814 1326" fill="none" xmlns="http://www.w3.org/2000/svg">
<path d="M295.708 105.97C303.554 105.97 308.246 103.2 310.708 100.431V87.9691H293.4V81.9689H317.554V102.816C313.247 107.662 305.554 111.97 295.631 111.97C278.015 111.97 269.63 99.6618 269.63 83.1997C269.63 66.7377 277.092 54.4297 294.631 54.4297C308.17 54.4297 316.17 60.0452 317.247 71.6609H310.17C309.016 63.4299 302.4 60.4298 294.631 60.4298C282.707 60.4298 276.707 69.3532 276.707 83.1997C276.707 97.0463 283.4 105.97 295.708 105.97ZM328.759 110.662V55.7374H346.683C361.991 55.7374 373.145 64.6607 373.145 83.1997C373.145 101.739 361.991 110.662 346.683 110.662H328.759ZM345.913 61.7376H335.836V104.662H345.913C358.221 104.662 366.068 97.354 366.068 83.1997C366.068 69.0455 358.221 61.7376 345.913 61.7376ZM381.139 92.8154V87.2768H403.139V92.8154H381.139ZM414.849 55.7374H421.927V104.662H448.158V110.662H414.849V55.7374ZM491.691 93.9693H498.768C497.691 105.585 488.844 111.97 475.69 111.97C458.228 111.97 450.074 99.6618 450.074 83.1997C450.074 66.7377 458.228 54.4297 475.69 54.4297C488.921 54.4297 497.383 60.0452 498.46 71.6609H491.383C490.229 63.4299 483.46 60.4298 475.69 60.4298C463.69 60.4298 457.151 69.3532 457.151 83.1997C457.151 96.9694 463.69 105.97 475.69 105.97C483.46 105.97 490.537 102.431 491.691 93.9693ZM534.299 69.1224C534.299 62.9684 529.299 60.276 523.683 60.276C518.221 60.276 513.144 62.353 512.298 69.1993H505.452C506.375 58.6606 513.606 54.4297 523.683 54.4297C534.145 54.4297 541.222 59.7375 541.222 68.1993C541.222 75.738 536.376 79.815 532.53 81.1228V81.2766C537.837 82.7382 543.376 86.8922 543.376 95.8155C543.376 106.124 534.683 111.97 523.683 111.97C511.529 111.97 504.298 107.124 503.99 95.9694H510.837C511.529 103.046 516.221 106.124 523.683 106.124C531.222 106.124 536.453 102.277 536.453 95.0463C536.453 88.2768 531.606 84.5844 524.222 84.5844H519.683V78.4304H523.76C529.683 78.4304 534.299 75.1226 534.299 69.1224Z" fill="white"/>
<path d="M808.271 84.613L734.27 4.40168L112.115 4.40171" stroke="white" stroke-width="7.36716"/>
<path d="M5.08388 86.1951L80.568 4.39667L702.723 4.39665" stroke="white" stroke-width="7.36716"/>
<path d="M808.264 79.6551L732.109 162.191L109.955 162.191" stroke="white" stroke-width="7.36716"/>
<path d="M6.56671 81.9787L80.5681 162.19L702.723 162.19" stroke="white" stroke-width="7.36716"/>
<path d="M151.863 298.626H174.266C186.113 298.626 193.285 303.3 193.285 313.615C193.285 320.868 188.45 324.817 184.823 326.106V326.429C189.659 327.235 195.3 331.506 195.3 340.129C195.3 350.766 187.241 356.166 175.797 356.166H151.863V298.626ZM159.277 323.527H175.394C181.439 323.527 185.871 320.143 185.871 314.179C185.871 308.296 181.439 304.911 175.394 304.911H159.277V323.527ZM187.886 339.806C187.886 333.52 183.534 329.813 176.603 329.813H159.277V349.88H176.603C183.534 349.88 187.886 346.092 187.886 339.806ZM205.187 319.659L205.026 313.051H212.118L212.279 319.82H212.521C213.488 316.355 217.436 312.245 224.206 312.245H226.14V318.531H222.755C215.986 318.531 212.279 323.689 212.279 331.828V356.166H205.187V319.659ZM248.552 317.644C242.508 317.644 238.398 319.982 237.833 324.897H230.742C231.145 316.113 237.995 312.084 248.552 312.084C260.801 312.084 266.281 317.403 266.281 326.429V346.012C266.281 350.605 266.281 351.653 266.684 356.166H259.592C259.27 352.781 259.189 351.572 259.189 348.993H258.948C256.772 352.942 251.775 357.133 243.394 357.133C234.932 357.133 229.13 352.298 229.13 343.836C229.13 334.89 235.738 331.103 244.764 329.975L259.189 328.121V326.429C259.189 320.223 255.321 317.644 248.552 317.644ZM236.222 343.836C236.222 348.671 239.606 351.572 245.167 351.572C250.969 351.572 259.431 347.14 259.431 336.18V333.52L245.973 335.293C239.606 336.099 236.222 338.92 236.222 343.836ZM277.744 298.626H284.836V332.231L304.258 313.051H312.8L292.008 333.279L313.203 356.166H304.258L284.836 334.729V356.166H277.744V298.626ZM354.823 336.986H321.298C322.023 346.012 326.617 351.733 335.079 351.733C340.962 351.733 345.797 348.752 347.167 343.11H354.017C352.728 352.298 344.83 357.133 335.079 357.133C321.701 357.133 314.367 348.429 314.367 334.568C314.367 320.707 322.023 312.084 334.595 312.084C347.973 312.084 354.823 320.868 354.823 336.26V336.986ZM321.379 331.586H347.812C347.006 323.124 342.493 317.483 334.595 317.483C326.697 317.483 322.184 323.124 321.379 331.586ZM384.814 298.626H421.159V304.911H392.228V324.253H419.547V330.539H392.228V356.166H384.814V298.626ZM447.145 357.133C434.09 357.133 426.514 348.349 426.514 334.568C426.514 320.787 434.09 312.084 447.145 312.084C460.2 312.084 467.776 320.787 467.776 334.568C467.776 348.349 460.2 357.133 447.145 357.133ZM447.145 351.572C456.171 351.572 460.684 344.48 460.684 334.568C460.684 324.656 456.171 317.644 447.145 317.644C438.2 317.644 433.606 324.656 433.606 334.568C433.606 344.48 438.2 351.572 447.145 351.572ZM477.173 319.659L477.012 313.051H484.104L484.265 319.82H484.507C485.474 316.355 489.423 312.245 496.192 312.245H498.126V318.531H494.741C487.972 318.531 484.265 323.689 484.265 331.828V356.166H477.173V319.659ZM559.094 356.166V327.879C559.094 320.062 554.259 317.644 549.827 317.644C545.314 317.644 539.431 320.707 539.431 330.136V356.166H532.339V327.879C532.339 320.062 527.504 317.644 523.071 317.644C518.558 317.644 512.676 320.707 512.676 330.136V356.166H505.584V319.659L505.423 313.051H512.514L512.676 318.934H512.917C514.529 314.904 520.17 312.084 525.328 312.084C532.178 312.084 536.449 315.469 538.141 319.74H538.303C540.156 314.985 545.717 312.084 552.083 312.084C559.981 312.084 566.186 316.597 566.186 326.429V356.166H559.094ZM615.476 336.986H581.951C582.677 346.012 587.27 351.733 595.732 351.733C601.615 351.733 606.45 348.752 607.82 343.11H614.67C613.381 352.298 605.483 357.133 595.732 357.133C582.354 357.133 575.021 348.429 575.021 334.568C575.021 320.707 582.677 312.084 595.248 312.084C608.626 312.084 615.476 320.868 615.476 336.26V336.986ZM582.032 331.586H608.465C607.659 323.124 603.146 317.483 595.248 317.483C587.351 317.483 582.838 323.124 582.032 331.586ZM622.555 334.568C622.555 319.498 631.501 312.084 641.977 312.084C648.424 312.084 653.582 315.549 655.758 318.773H655.838V298.626H662.93V345.689L663.172 356.166H656.08L655.838 349.719H655.758C654.066 353.587 648.747 357.133 641.816 357.133C630.211 357.133 622.555 348.832 622.555 334.568ZM656.564 334.568C656.564 324.656 651.567 317.644 643.186 317.644C634.724 317.644 629.647 324.656 629.647 334.568C629.647 344.48 634.724 351.572 643.186 351.572C651.567 351.572 656.564 344.48 656.564 334.568ZM163.274 379.626H170.688V430.88H198.169V437.166H163.274V379.626ZM222.457 438.133C209.402 438.133 201.827 429.349 201.827 415.568C201.827 401.787 209.402 393.084 222.457 393.084C235.513 393.084 243.088 401.787 243.088 415.568C243.088 429.349 235.513 438.133 222.457 438.133ZM222.457 432.572C231.483 432.572 235.996 425.48 235.996 415.568C235.996 405.656 231.483 398.644 222.457 398.644C213.512 398.644 208.919 405.656 208.919 415.568C208.919 425.48 213.512 432.572 222.457 432.572ZM288.106 430.558L288.267 437.166H281.175L281.014 430.396H280.772C279.16 434.023 274.325 438.133 266.991 438.133C257.563 438.133 251.921 432.25 251.921 422.579V394.051H259.013V421.693C259.013 428.382 262.156 432.572 268.764 432.572C276.179 432.572 281.014 426.931 281.014 418.953V394.051H288.106V430.558ZM299.784 400.659L299.623 394.051H306.715L306.876 400.82H307.118C308.729 397.113 313.645 393.084 320.979 393.084C330.488 393.084 336.452 399.047 336.452 408.718V437.166H329.36V409.524C329.36 402.835 325.814 398.644 319.206 398.644C311.711 398.644 306.876 404.286 306.876 412.264V437.166H299.784V400.659ZM345.458 414.923C345.458 400.74 354.886 393.084 364.879 393.084C371.971 393.084 376.726 396.549 378.66 400.176H378.741L378.982 394.051H386.155L385.913 404.527V433.781C385.913 446.272 376.242 452.558 364.96 452.558C354.645 452.558 349.003 449.012 347.633 440.47H354.725C355.773 445.225 359.319 447.32 365.363 447.32C372.938 447.32 378.741 442.404 378.741 433.781V429.188H378.66C376.645 433.217 371.165 436.763 364.718 436.763C352.872 436.763 345.458 429.107 345.458 414.923ZM379.546 414.923C379.546 405.011 374.228 398.644 366.088 398.644C357.868 398.644 352.549 405.011 352.549 414.923C352.549 424.836 357.868 431.202 366.088 431.202C374.228 431.202 379.546 424.836 379.546 414.923ZM435.805 417.986H402.28C403.005 427.012 407.599 432.733 416.061 432.733C421.944 432.733 426.779 429.752 428.149 424.11H434.999C433.71 433.298 425.812 438.133 416.061 438.133C402.683 438.133 395.349 429.429 395.349 415.568C395.349 401.707 403.005 393.084 415.577 393.084C428.955 393.084 435.805 401.868 435.805 417.26V417.986ZM402.361 412.586H428.794C427.988 404.124 423.475 398.483 415.577 398.483C407.679 398.483 403.166 404.124 402.361 412.586ZM505.687 419.678H513.101C511.973 431.847 502.705 438.536 488.925 438.536C470.631 438.536 462.089 425.642 462.089 408.396C462.089 391.15 470.631 378.256 488.925 378.256C502.786 378.256 511.651 384.139 512.779 396.307H505.365C504.156 387.684 497.064 384.541 488.925 384.541C476.353 384.541 469.503 393.89 469.503 408.396C469.503 422.821 476.353 432.25 488.925 432.25C497.064 432.25 504.478 428.543 505.687 419.678ZM521.635 379.626H528.727V400.82H528.968C530.58 397.113 535.415 393.084 542.829 393.084C552.258 393.084 558.302 399.047 558.302 408.718V437.166H551.211V409.524C551.211 402.835 547.665 398.644 541.057 398.644C533.562 398.644 528.727 404.286 528.727 412.264V437.166H521.635V379.626ZM586.331 398.644C580.287 398.644 576.177 400.982 575.613 405.897H568.521C568.924 397.113 575.774 393.084 586.331 393.084C598.58 393.084 604.06 398.403 604.06 407.429V427.012C604.06 431.605 604.06 432.653 604.463 437.166H597.372C597.049 433.781 596.969 432.572 596.969 429.993H596.727C594.551 433.942 589.554 438.133 581.173 438.133C572.711 438.133 566.909 433.298 566.909 424.836C566.909 415.89 573.517 412.103 582.543 410.975L596.969 409.121V407.429C596.969 401.223 593.1 398.644 586.331 398.644ZM574.001 424.836C574.001 429.671 577.386 432.572 582.946 432.572C588.749 432.572 597.21 428.14 597.21 417.18V414.52L583.752 416.293C577.386 417.099 574.001 419.92 574.001 424.836ZM615.523 387.604V379.626H623.26V387.604H615.523ZM615.846 437.166V394.051H622.938V437.166H615.846ZM634.887 400.659L634.726 394.051H641.818L641.979 400.82H642.221C643.188 397.355 647.137 393.245 653.906 393.245H655.84V399.531H652.456C645.686 399.531 641.979 404.689 641.979 412.828V437.166H634.887V400.659Z" fill="white"/>
<path d="M224.275 600.576L245.065 545.675H253.458L274.248 600.576H266.779L261.774 587.178H236.749L231.744 600.576H224.275ZM238.982 581.172H259.541L253.689 565.541C252.149 561.46 250.686 557.071 249.454 552.99H249.146C247.914 557.071 246.374 561.46 244.834 565.541L238.982 581.172ZM280.959 600.576V545.598H287.735V600.576H280.959ZM333.663 594.262L333.817 600.576H327.041L326.887 594.108H326.656C325.116 597.573 320.496 601.5 313.489 601.5C304.48 601.5 299.09 595.879 299.09 586.639V559.381H305.866V585.792C305.866 592.183 308.869 596.187 315.183 596.187C322.267 596.187 326.887 590.797 326.887 583.174V559.381H333.663V594.262ZM396.719 600.576V573.549C396.719 566.08 392.099 563.77 387.864 563.77C383.552 563.77 377.931 566.696 377.931 575.705V600.576H371.155V573.549C371.155 566.08 366.535 563.77 362.3 563.77C357.988 563.77 352.367 566.696 352.367 575.705V600.576H345.591V565.695L345.437 559.381H352.213L352.367 565.002H352.598C354.138 561.152 359.528 558.457 364.456 558.457C371.001 558.457 375.082 561.691 376.699 565.772H376.853C378.624 561.229 383.937 558.457 390.02 558.457C397.566 558.457 403.495 562.769 403.495 572.163V600.576H396.719ZM414.786 553.221V545.598H422.178V553.221H414.786ZM415.094 600.576V559.381H421.87V600.576H415.094ZM434.057 565.695L433.903 559.381H440.679L440.833 565.849H441.064C442.604 562.307 447.301 558.457 454.308 558.457C463.394 558.457 469.092 564.155 469.092 573.395V600.576H462.316V574.165C462.316 567.774 458.928 563.77 452.614 563.77C445.453 563.77 440.833 569.16 440.833 576.783V600.576H434.057V565.695ZM514.58 594.262L514.734 600.576H507.958L507.804 594.108H507.573C506.033 597.573 501.413 601.5 494.406 601.5C485.397 601.5 480.007 595.879 480.007 586.639V559.381H486.783V585.792C486.783 592.183 489.786 596.187 496.1 596.187C503.184 596.187 507.804 590.797 507.804 583.174V559.381H514.58V594.262ZM577.636 600.576V573.549C577.636 566.08 573.016 563.77 568.781 563.77C564.469 563.77 558.848 566.696 558.848 575.705V600.576H552.072V573.549C552.072 566.08 547.452 563.77 543.217 563.77C538.905 563.77 533.284 566.696 533.284 575.705V600.576H526.508V565.695L526.354 559.381H533.13L533.284 565.002H533.515C535.055 561.152 540.445 558.457 545.373 558.457C551.918 558.457 555.999 561.691 557.616 565.772H557.77C559.541 561.229 564.854 558.457 570.937 558.457C578.483 558.457 584.412 562.769 584.412 572.163V600.576H577.636Z" fill="white"/>
<path d="M190.727 706.699C200.891 706.699 208.283 712.243 208.283 721.714C208.283 729.645 204.587 734.881 197.888 740.887L180.332 756.826V757.134H209.438V762.986H171.862V756.21L193.345 736.267C198.504 731.416 201.43 727.566 201.43 722.099C201.43 715.939 196.887 712.551 190.727 712.551C184.644 712.551 179.254 716.016 178.715 723.562H171.862C172.632 711.858 180.794 706.699 190.727 706.699ZM214.842 713.86V708.008H250.262V713.167L226.469 762.986H219L242.562 713.86H214.842ZM251.643 752.899H260.421V762.986H251.643V752.899ZM288.535 706.699C298.699 706.699 306.091 712.243 306.091 721.714C306.091 729.645 302.395 734.881 295.696 740.887L278.14 756.826V757.134H307.246V762.986H269.67V756.21L291.153 736.267C296.312 731.416 299.238 727.566 299.238 722.099C299.238 715.939 294.695 712.551 288.535 712.551C282.452 712.551 277.062 716.016 276.523 723.562H269.67C270.44 711.858 278.602 706.699 288.535 706.699ZM334.21 764.295C324.431 764.295 316.423 760.445 315.114 749.665H321.967C323.199 756.287 328.281 758.443 334.21 758.443C341.91 758.443 347.762 752.668 347.762 744.891C347.762 737.114 343.296 731.262 334.903 731.262C329.513 731.262 325.586 733.649 323.507 737.73H316.423L321.274 708.008H352.459V713.86H326.972L324.2 729.953H324.508C326.51 727.566 331.13 725.41 336.058 725.41C347.3 725.41 354.692 733.418 354.692 744.891C354.692 756.364 345.991 764.295 334.21 764.295ZM365.513 708.085H372.597V731.57H401.164V708.085H408.248V762.986H401.164V737.576H372.597V762.986H365.513V708.085ZM445.642 728.259L436.402 716.093H441.407L448.26 725.487L455.113 716.093H460.118L450.801 728.259L460.58 740.887H455.575L448.26 731.031L440.868 740.887H435.94L445.642 728.259ZM503.627 706.699C513.791 706.699 521.183 712.243 521.183 721.714C521.183 729.645 517.487 734.881 510.788 740.887L493.232 756.826V757.134H522.338V762.986H484.762V756.21L506.245 736.267C511.404 731.416 514.33 727.566 514.33 722.099C514.33 715.939 509.787 712.551 503.627 712.551C497.544 712.551 492.154 716.016 491.615 723.562H484.762C485.532 711.858 493.694 706.699 503.627 706.699ZM570.091 744.429C570.091 755.748 562.16 764.295 550.302 764.295C537.212 764.295 530.436 754.978 530.436 738.192C530.436 716.709 539.676 706.699 551.765 706.699C560.389 706.699 567.473 711.088 568.474 720.559H561.621C560.62 714.707 556.847 712.551 551.765 712.551C544.296 712.551 538.059 719.25 537.905 732.109H538.213C540.292 729.106 544.758 726.103 551.534 726.103C561.621 726.103 570.091 733.11 570.091 744.429ZM537.674 745.045C537.674 752.437 542.525 758.443 550.302 758.443C558.156 758.443 563.238 752.437 563.238 745.045C563.238 737.653 558.156 731.955 550.302 731.955C542.525 731.955 537.674 737.653 537.674 745.045ZM597.915 762.986H589.445L575.431 708.008H582.515L590.061 738.423C591.447 743.659 592.833 749.665 593.834 754.978H594.142C595.22 749.665 596.683 743.659 597.992 738.423L605.384 708.008H613.854L621.246 738.423C622.555 743.659 624.018 749.665 625.096 754.978H625.404C626.405 749.665 627.791 743.659 629.177 738.423L636.723 708.008H643.807L629.793 762.986H621.323L613.777 733.033C612.468 727.72 611.005 722.176 609.773 716.401H609.465C608.233 722.176 606.77 727.72 605.461 733.033L597.915 762.986ZM222.307 805.259L213.067 793.093H218.072L224.925 802.487L231.778 793.093H236.783L227.466 805.259L237.245 817.887H232.24L224.925 808.031L217.533 817.887H212.605L222.307 805.259ZM280.292 783.699C290.456 783.699 297.848 789.243 297.848 798.714C297.848 806.645 294.152 811.881 287.453 817.887L269.897 833.826V834.134H299.003V839.986H261.427V833.21L282.91 813.267C288.069 808.416 290.995 804.566 290.995 799.099C290.995 792.939 286.452 789.551 280.292 789.551C274.209 789.551 268.819 793.016 268.28 800.562H261.427C262.197 788.858 270.359 783.699 280.292 783.699ZM325.967 841.295C316.188 841.295 308.18 837.445 306.871 826.665H313.724C314.956 833.287 320.038 835.443 325.967 835.443C333.667 835.443 339.519 829.668 339.519 821.891C339.519 814.114 335.053 808.262 326.66 808.262C321.27 808.262 317.343 810.649 315.264 814.73H308.18L313.031 785.008H344.216V790.86H318.729L315.957 806.953H316.265C318.267 804.566 322.887 802.41 327.815 802.41C339.057 802.41 346.449 810.418 346.449 821.891C346.449 833.364 337.748 841.295 325.967 841.295ZM355.345 829.899H364.123V839.986H355.345V829.899ZM392.237 783.699C402.401 783.699 409.793 789.243 409.793 798.714C409.793 806.645 406.097 811.881 399.398 817.887L381.842 833.826V834.134H410.948V839.986H373.372V833.21L394.855 813.267C400.014 808.416 402.94 804.566 402.94 799.099C402.94 792.939 398.397 789.551 392.237 789.551C386.154 789.551 380.764 793.016 380.225 800.562H373.372C374.142 788.858 382.304 783.699 392.237 783.699ZM437.911 841.295C428.132 841.295 420.124 837.445 418.815 826.665H425.668C426.9 833.287 431.982 835.443 437.911 835.443C445.611 835.443 451.463 829.668 451.463 821.891C451.463 814.114 446.997 808.262 438.604 808.262C433.214 808.262 429.287 810.649 427.208 814.73H420.124L424.975 785.008H456.16V790.86H430.673L427.901 806.953H428.209C430.211 804.566 434.831 802.41 439.759 802.41C451.001 802.41 458.393 810.418 458.393 821.891C458.393 833.364 449.692 841.295 437.911 841.295ZM469.215 839.986V785.008H487.156C502.479 785.008 513.644 793.94 513.644 812.497C513.644 831.054 502.479 839.986 487.156 839.986H469.215ZM486.386 791.014H476.299V833.98H486.386C498.706 833.98 506.56 826.665 506.56 812.497C506.56 798.329 498.706 791.014 486.386 791.014ZM542.305 792.631V785.008H549.697V792.631H542.305ZM542.613 839.986V798.791H549.389V839.986H542.613ZM561.576 805.105L561.422 798.791H568.198L568.352 805.259H568.583C570.123 801.717 574.82 797.867 581.827 797.867C590.913 797.867 596.611 803.565 596.611 812.805V839.986H589.835V813.575C589.835 807.184 586.447 803.18 580.133 803.18C572.972 803.18 568.352 808.57 568.352 816.193V839.986H561.576V805.105Z" fill="white"/>
<path d="M809.671 649.121L809.671 268.548L735.535 188.191L112.254 188.191" stroke="white" stroke-width="7.32623"/>
<path d="M3.77787 645.765L3.77785 268.547L77.9132 188.191L701.195 188.191" stroke="white" stroke-width="7.32623"/>
<path d="M3.68457 503.833L3.68462 873.603L77.8199 953.959L701.102 953.959" stroke="white" stroke-width="7.32623"/>
<path d="M809.573 482.413L809.573 873.604L735.438 953.961L112.156 953.961" stroke="white" stroke-width="7.32623"/>
<path d="M243.704 1029.99C253.858 1029.99 261.243 1035.53 261.243 1044.99C261.243 1052.92 257.55 1058.15 250.858 1064.15L233.319 1080.07V1080.38H262.397V1086.23H224.857V1079.46L246.319 1059.53C251.473 1054.69 254.397 1050.84 254.397 1045.38C254.397 1039.23 249.858 1035.84 243.704 1035.84C237.627 1035.84 232.242 1039.3 231.704 1046.84H224.857C225.626 1035.15 233.781 1029.99 243.704 1029.99ZM311.565 1058.76C311.565 1074.53 305.642 1087.53 290.642 1087.53C275.641 1087.53 269.641 1074.53 269.641 1058.76C269.641 1042.99 275.641 1029.99 290.642 1029.99C305.642 1029.99 311.565 1042.99 311.565 1058.76ZM304.642 1058.76C304.642 1045.84 300.873 1035.84 290.642 1035.84C280.487 1035.84 276.564 1045.84 276.564 1058.76C276.564 1071.61 280.487 1081.69 290.642 1081.69C300.873 1081.69 304.642 1071.61 304.642 1058.76ZM361.296 1058.76C361.296 1074.53 355.373 1087.53 340.373 1087.53C325.372 1087.53 319.372 1074.53 319.372 1058.76C319.372 1042.99 325.372 1029.99 340.373 1029.99C355.373 1029.99 361.296 1042.99 361.296 1058.76ZM354.373 1058.76C354.373 1045.84 350.604 1035.84 340.373 1035.84C330.218 1035.84 326.295 1045.84 326.295 1058.76C326.295 1071.61 330.218 1081.69 340.373 1081.69C350.604 1081.69 354.373 1071.61 354.373 1058.76ZM411.027 1058.76C411.027 1074.53 405.104 1087.53 390.104 1087.53C375.103 1087.53 369.103 1074.53 369.103 1058.76C369.103 1042.99 375.103 1029.99 390.104 1029.99C405.104 1029.99 411.027 1042.99 411.027 1058.76ZM404.104 1058.76C404.104 1045.84 400.335 1035.84 390.104 1035.84C379.95 1035.84 376.026 1045.84 376.026 1058.76C376.026 1071.61 379.95 1081.69 390.104 1081.69C400.335 1081.69 404.104 1071.61 404.104 1058.76ZM439.55 1066.23V1031.3H446.628V1066.76C446.628 1075.46 452.166 1081.53 461.013 1081.53C469.936 1081.53 475.321 1075.38 475.321 1066.69V1031.3H482.398V1066.15C482.398 1079.84 473.782 1087.53 461.013 1087.53C448.32 1087.53 439.55 1079.92 439.55 1066.23ZM533.067 1045.99H525.99C525.221 1039.46 520.451 1035.69 512.682 1035.69C504.451 1035.69 499.297 1039.38 499.297 1045.23C499.297 1050.46 503.912 1052.76 510.913 1054.23L516.913 1055.46C526.913 1057.53 534.221 1060.23 534.221 1071.69C534.221 1081.46 524.605 1087.53 512.836 1087.53C499.451 1087.53 491.758 1081.23 491.45 1069.92H498.528C498.912 1077.46 504.066 1081.84 512.836 1081.84C521.374 1081.84 526.99 1077.92 527.067 1072.07C527.144 1065.46 522.605 1063.61 514.297 1061.92L508.297 1060.69C498.528 1058.69 492.22 1054.84 492.22 1045.76C492.22 1036.3 501.374 1029.99 512.682 1029.99C523.528 1029.99 532.221 1034.76 533.067 1045.99ZM544.135 1086.23V1031.3H562.059C577.367 1031.3 588.521 1040.23 588.521 1058.76C588.521 1077.3 577.367 1086.23 562.059 1086.23H544.135ZM561.29 1037.3H551.212V1080.23H561.29C573.598 1080.23 581.444 1072.92 581.444 1058.76C581.444 1044.61 573.598 1037.3 561.29 1037.3Z" fill="white"/>
<path d="M808.272 1060.18L734.27 979.966L112.116 979.966" stroke="white" stroke-width="7.36716"/>
<path d="M5.08388 1061.76L80.568 979.961L702.723 979.961" stroke="white" stroke-width="7.36716"/>
<path d="M808.264 1055.22L732.11 1137.76L109.955 1137.76" stroke="white" stroke-width="7.36716"/>
<path d="M6.56671 1057.54L80.5681 1137.75L702.723 1137.75" stroke="white" stroke-width="7.36716"/>
<path d="M127.809 1265.33C135.656 1265.33 140.348 1262.56 142.81 1259.79V1247.33H125.501V1241.33H149.656V1262.17C145.348 1267.02 137.656 1271.33 127.732 1271.33C110.116 1271.33 101.731 1259.02 101.731 1242.56C101.731 1226.1 109.193 1213.79 126.732 1213.79C140.271 1213.79 148.271 1219.4 149.348 1231.02H142.271C141.117 1222.79 134.502 1219.79 126.732 1219.79C114.809 1219.79 108.809 1228.71 108.809 1242.56C108.809 1256.4 115.501 1265.33 127.809 1265.33ZM160.861 1270.02V1215.1H195.862V1221.1H167.938V1238.79H194.323V1244.79H167.938V1264.02H195.862V1270.02H160.861ZM201.795 1242.56C201.795 1225.4 210.949 1213.79 227.872 1213.79C244.796 1213.79 254.027 1225.4 254.027 1242.56C254.027 1259.71 244.796 1271.33 227.872 1271.33C210.949 1271.33 201.795 1259.71 201.795 1242.56ZM208.872 1242.56C208.872 1255.71 215.257 1265.33 227.872 1265.33C240.488 1265.33 246.95 1255.71 246.95 1242.56C246.95 1229.4 240.488 1219.79 227.872 1219.79C215.257 1219.79 208.872 1229.4 208.872 1242.56ZM305.302 1230.79C305.302 1237.48 300.917 1242.56 296.148 1244.02V1244.33C301.071 1245.17 304.148 1249.4 304.994 1255.94L306.763 1270.02H299.379L297.686 1255.94C296.763 1248.71 292.763 1247.33 284.994 1247.33H271.532V1270.02H264.531V1215.1H287.071C299.225 1215.1 305.302 1221.87 305.302 1230.79ZM298.302 1231.17C298.302 1224.87 294.148 1221.1 286.455 1221.1H271.532V1241.33H286.301C293.994 1241.33 298.302 1237.48 298.302 1231.17ZM340.03 1265.33C347.876 1265.33 352.569 1262.56 355.031 1259.79V1247.33H337.722V1241.33H361.877V1262.17C357.569 1267.02 349.877 1271.33 339.953 1271.33C322.337 1271.33 313.952 1259.02 313.952 1242.56C313.952 1226.1 321.414 1213.79 338.953 1213.79C352.492 1213.79 360.492 1219.4 361.569 1231.02H354.492C353.338 1222.79 346.723 1219.79 338.953 1219.79C327.03 1219.79 321.03 1228.71 321.03 1242.56C321.03 1256.4 327.722 1265.33 340.03 1265.33ZM373.082 1270.02V1215.1H408.083V1221.1H380.159V1238.79H406.544V1244.79H380.159V1264.02H408.083V1270.02H373.082ZM455.566 1270.02V1215.1H473.49C488.798 1215.1 499.952 1224.02 499.952 1242.56C499.952 1261.1 488.798 1270.02 473.49 1270.02H455.566ZM472.72 1221.1H462.643V1264.02H472.72C485.028 1264.02 492.875 1256.71 492.875 1242.56C492.875 1228.4 485.028 1221.1 472.72 1221.1ZM502.513 1270.02L523.283 1215.17H531.667L552.437 1270.02H544.975L539.975 1256.64H514.975L509.974 1270.02H502.513ZM517.205 1250.64H537.745L531.898 1235.02C530.36 1230.94 528.898 1226.56 527.667 1222.48H527.36C526.129 1226.56 524.59 1230.94 523.052 1235.02L517.205 1250.64ZM570.227 1270.02L550.226 1215.1H557.688L568.996 1246.79C570.765 1251.87 572.919 1257.94 574.304 1262.64H574.612C575.996 1257.94 578.073 1251.87 579.843 1246.79L591.227 1215.1H598.612L578.612 1270.02H570.227ZM606.562 1215.1H613.639V1270.02H606.562V1215.1ZM627.596 1270.02V1215.1H662.597V1221.1H634.673V1238.79H661.059V1244.79H634.673V1264.02H662.597V1270.02H627.596ZM710.957 1229.79H703.88C703.111 1223.25 698.341 1219.48 690.572 1219.48C682.341 1219.48 677.187 1223.17 677.187 1229.02C677.187 1234.25 681.802 1236.56 688.803 1238.02L694.803 1239.25C704.803 1241.33 712.111 1244.02 712.111 1255.48C712.111 1265.25 702.495 1271.33 690.726 1271.33C677.341 1271.33 669.648 1265.02 669.34 1253.71H676.418C676.802 1261.25 681.956 1265.64 690.726 1265.64C699.264 1265.64 704.88 1261.71 704.957 1255.87C705.034 1249.25 700.495 1247.4 692.187 1245.71L686.187 1244.48C676.418 1242.48 670.11 1238.63 670.11 1229.56C670.11 1220.1 679.264 1213.79 690.572 1213.79C701.418 1213.79 710.111 1218.56 710.957 1229.79Z" fill="white"/>
<path d="M808.272 1243.97L734.27 1163.76L112.116 1163.76" stroke="white" stroke-width="7.36716"/>
<path d="M5.08388 1245.55L80.568 1163.75L702.723 1163.75" stroke="white" stroke-width="7.36716"/>
<path d="M808.264 1239.01L732.11 1321.55L109.955 1321.55" stroke="white" stroke-width="7.36716"/>
<path d="M6.56671 1241.34L80.5681 1321.55L702.723 1321.55" stroke="white" stroke-width="7.36716"/>
</svg>
