<svg width="814" height="2117" viewBox="0 0 814 2117" fill="none" xmlns="http://www.w3.org/2000/svg">
<path d="M296.383 105.97C304.23 105.97 308.922 103.2 311.384 100.431V87.9691H294.076V81.9689H318.23V102.816C313.922 107.662 306.23 111.97 296.307 111.97C278.691 111.97 270.306 99.6618 270.306 83.1997C270.306 66.7377 277.768 54.4297 295.307 54.4297C308.845 54.4297 316.846 60.0452 317.923 71.6609H310.845C309.692 63.4299 303.076 60.4298 295.307 60.4298C283.383 60.4298 277.383 69.3532 277.383 83.1997C277.383 97.0463 284.075 105.97 296.383 105.97ZM329.435 110.662V55.7374H347.359C362.667 55.7374 373.821 64.6607 373.821 83.1997C373.821 101.739 362.667 110.662 347.359 110.662H329.435ZM346.589 61.7376H336.512V104.662H346.589C358.897 104.662 366.744 97.354 366.744 83.1997C366.744 69.0455 358.897 61.7376 346.589 61.7376ZM381.814 92.8154V87.2768H403.815V92.8154H381.814ZM415.525 55.7374H422.602V104.662H448.834V110.662H415.525V55.7374ZM492.366 93.9693H499.444C498.367 105.585 489.52 111.97 476.366 111.97C458.904 111.97 450.75 99.6618 450.75 83.1997C450.75 66.7377 458.904 54.4297 476.366 54.4297C489.597 54.4297 498.059 60.0452 499.136 71.6609H492.059C490.905 63.4299 484.135 60.4298 476.366 60.4298C464.366 60.4298 457.827 69.3532 457.827 83.1997C457.827 96.9694 464.366 105.97 476.366 105.97C484.135 105.97 491.213 102.431 492.366 93.9693ZM524.436 54.4297C534.59 54.4297 541.975 59.9683 541.975 69.4301C541.975 77.3534 538.283 82.5843 531.59 88.5845L514.051 104.508V104.816H543.129V110.662H505.589V103.893L527.051 83.969C532.205 79.1227 535.129 75.2764 535.129 69.8147C535.129 63.6607 530.59 60.276 524.436 60.276C518.359 60.276 512.974 63.7376 512.436 71.2763H505.589C506.358 59.5837 514.513 54.4297 524.436 54.4297Z" fill="white"/>
<path d="M808.271 84.613L734.27 4.40168L112.115 4.40171" stroke="white" stroke-width="7.36716"/>
<path d="M5.08364 86.1951L80.5678 4.39667L702.722 4.39665" stroke="white" stroke-width="7.36716"/>
<path d="M808.264 79.6551L732.109 162.191L109.954 162.191" stroke="white" stroke-width="7.36716"/>
<path d="M6.56647 81.9787L80.5678 162.19L702.722 162.19" stroke="white" stroke-width="7.36716"/>
<path d="M151.862 298.626H174.266C186.112 298.626 193.285 303.3 193.285 313.615C193.285 320.868 188.45 324.817 184.823 326.106V326.429C189.658 327.235 195.3 331.506 195.3 340.129C195.3 350.766 187.241 356.166 175.797 356.166H151.862V298.626ZM159.276 323.527H175.394C181.438 323.527 185.871 320.143 185.871 314.179C185.871 308.296 181.438 304.911 175.394 304.911H159.276V323.527ZM187.885 339.806C187.885 333.52 183.534 329.813 176.603 329.813H159.276V349.88H176.603C183.534 349.88 187.885 346.092 187.885 339.806ZM205.187 319.659L205.026 313.051H212.117L212.279 319.82H212.52C213.487 316.355 217.436 312.245 224.206 312.245H226.14V318.531H222.755C215.986 318.531 212.279 323.689 212.279 331.828V356.166H205.187V319.659ZM248.552 317.644C242.507 317.644 238.397 319.982 237.833 324.897H230.741C231.144 316.113 237.994 312.084 248.552 312.084C260.801 312.084 266.281 317.403 266.281 326.429V346.012C266.281 350.605 266.281 351.653 266.684 356.166H259.592C259.27 352.781 259.189 351.572 259.189 348.993H258.947C256.772 352.942 251.775 357.133 243.394 357.133C234.932 357.133 229.13 352.298 229.13 343.836C229.13 334.89 235.738 331.103 244.764 329.975L259.189 328.121V326.429C259.189 320.223 255.321 317.644 248.552 317.644ZM236.221 343.836C236.221 348.671 239.606 351.572 245.167 351.572C250.969 351.572 259.431 347.14 259.431 336.18V333.52L245.973 335.293C239.606 336.099 236.221 338.92 236.221 343.836ZM277.744 298.626H284.836V332.231L304.258 313.051H312.8L292.008 333.279L313.203 356.166H304.258L284.836 334.729V356.166H277.744V298.626ZM354.823 336.986H321.298C322.023 346.012 326.617 351.733 335.078 351.733C340.961 351.733 345.797 348.752 347.167 343.11H354.017C352.727 352.298 344.83 357.133 335.078 357.133C321.701 357.133 314.367 348.429 314.367 334.568C314.367 320.707 322.023 312.084 334.595 312.084C347.973 312.084 354.823 320.868 354.823 336.26V336.986ZM321.378 331.586H347.811C347.005 323.124 342.493 317.483 334.595 317.483C326.697 317.483 322.184 323.124 321.378 331.586ZM384.813 298.626H421.159V304.911H392.228V324.253H419.547V330.539H392.228V356.166H384.813V298.626ZM447.145 357.133C434.09 357.133 426.514 348.349 426.514 334.568C426.514 320.787 434.09 312.084 447.145 312.084C460.2 312.084 467.776 320.787 467.776 334.568C467.776 348.349 460.2 357.133 447.145 357.133ZM447.145 351.572C456.171 351.572 460.684 344.48 460.684 334.568C460.684 324.656 456.171 317.644 447.145 317.644C438.2 317.644 433.606 324.656 433.606 334.568C433.606 344.48 438.2 351.572 447.145 351.572ZM477.173 319.659L477.012 313.051H484.104L484.265 319.82H484.506C485.474 316.355 489.422 312.245 496.192 312.245H498.126V318.531H494.741C487.972 318.531 484.265 323.689 484.265 331.828V356.166H477.173V319.659ZM559.094 356.166V327.879C559.094 320.062 554.259 317.644 549.827 317.644C545.314 317.644 539.431 320.707 539.431 330.136V356.166H532.339V327.879C532.339 320.062 527.504 317.644 523.071 317.644C518.558 317.644 512.675 320.707 512.675 330.136V356.166H505.583V319.659L505.422 313.051H512.514L512.675 318.934H512.917C514.529 314.904 520.17 312.084 525.328 312.084C532.178 312.084 536.449 315.469 538.141 319.74H538.302C540.156 314.985 545.717 312.084 552.083 312.084C559.981 312.084 566.186 316.597 566.186 326.429V356.166H559.094ZM615.476 336.986H581.951C582.676 346.012 587.27 351.733 595.732 351.733C601.615 351.733 606.45 348.752 607.82 343.11H614.67C613.381 352.298 605.483 357.133 595.732 357.133C582.354 357.133 575.021 348.429 575.021 334.568C575.021 320.707 582.676 312.084 595.248 312.084C608.626 312.084 615.476 320.868 615.476 336.26V336.986ZM582.032 331.586H608.465C607.659 323.124 603.146 317.483 595.248 317.483C587.351 317.483 582.838 323.124 582.032 331.586ZM622.555 334.568C622.555 319.498 631.5 312.084 641.977 312.084C648.424 312.084 653.582 315.549 655.758 318.773H655.838V298.626H662.93V345.689L663.172 356.166H656.08L655.838 349.719H655.758C654.065 353.587 648.746 357.133 641.816 357.133C630.211 357.133 622.555 348.832 622.555 334.568ZM656.564 334.568C656.564 324.656 651.567 317.644 643.186 317.644C634.724 317.644 629.647 324.656 629.647 334.568C629.647 344.48 634.724 351.572 643.186 351.572C651.567 351.572 656.564 344.48 656.564 334.568ZM163.274 379.626H170.688V430.88H198.169V437.166H163.274V379.626ZM222.457 438.133C209.402 438.133 201.827 429.349 201.827 415.568C201.827 401.787 209.402 393.084 222.457 393.084C235.513 393.084 243.088 401.787 243.088 415.568C243.088 429.349 235.513 438.133 222.457 438.133ZM222.457 432.572C231.483 432.572 235.996 425.48 235.996 415.568C235.996 405.656 231.483 398.644 222.457 398.644C213.512 398.644 208.918 405.656 208.918 415.568C208.918 425.48 213.512 432.572 222.457 432.572ZM288.105 430.558L288.267 437.166H281.175L281.014 430.396H280.772C279.16 434.023 274.325 438.133 266.991 438.133C257.562 438.133 251.921 432.25 251.921 422.579V394.051H259.013V421.693C259.013 428.382 262.156 432.572 268.764 432.572C276.178 432.572 281.014 426.931 281.014 418.953V394.051H288.105V430.558ZM299.784 400.659L299.623 394.051H306.714L306.876 400.82H307.117C308.729 397.113 313.645 393.084 320.979 393.084C330.488 393.084 336.452 399.047 336.452 408.718V437.166H329.36V409.524C329.36 402.835 325.814 398.644 319.206 398.644C311.711 398.644 306.876 404.286 306.876 412.264V437.166H299.784V400.659ZM345.457 414.923C345.457 400.74 354.886 393.084 364.879 393.084C371.971 393.084 376.726 396.549 378.66 400.176H378.74L378.982 394.051H386.155L385.913 404.527V433.781C385.913 446.272 376.242 452.558 364.96 452.558C354.644 452.558 349.003 449.012 347.633 440.47H354.725C355.773 445.225 359.319 447.32 365.363 447.32C372.938 447.32 378.74 442.404 378.74 433.781V429.188H378.66C376.645 433.217 371.165 436.763 364.718 436.763C352.871 436.763 345.457 429.107 345.457 414.923ZM379.546 414.923C379.546 405.011 374.227 398.644 366.088 398.644C357.868 398.644 352.549 405.011 352.549 414.923C352.549 424.836 357.868 431.202 366.088 431.202C374.227 431.202 379.546 424.836 379.546 414.923ZM435.805 417.986H402.28C403.005 427.012 407.599 432.733 416.06 432.733C421.943 432.733 426.779 429.752 428.149 424.11H434.999C433.709 433.298 425.812 438.133 416.06 438.133C402.683 438.133 395.349 429.429 395.349 415.568C395.349 401.707 403.005 393.084 415.577 393.084C428.955 393.084 435.805 401.868 435.805 417.26V417.986ZM402.36 412.586H428.793C427.987 404.124 423.475 398.483 415.577 398.483C407.679 398.483 403.166 404.124 402.36 412.586ZM505.687 419.678H513.101C511.973 431.847 502.705 438.536 488.924 438.536C470.631 438.536 462.088 425.642 462.088 408.396C462.088 391.15 470.631 378.256 488.924 378.256C502.786 378.256 511.65 384.139 512.779 396.307H505.364C504.156 387.684 497.064 384.541 488.924 384.541C476.353 384.541 469.503 393.89 469.503 408.396C469.503 422.821 476.353 432.25 488.924 432.25C497.064 432.25 504.478 428.543 505.687 419.678ZM521.634 379.626H528.726V400.82H528.968C530.58 397.113 535.415 393.084 542.829 393.084C552.258 393.084 558.302 399.047 558.302 408.718V437.166H551.21V409.524C551.21 402.835 547.665 398.644 541.056 398.644C533.562 398.644 528.726 404.286 528.726 412.264V437.166H521.634V379.626ZM586.331 398.644C580.287 398.644 576.177 400.982 575.612 405.897H568.521C568.924 397.113 575.774 393.084 586.331 393.084C598.58 393.084 604.06 398.403 604.06 407.429V427.012C604.06 431.605 604.06 432.653 604.463 437.166H597.371C597.049 433.781 596.968 432.572 596.968 429.993H596.727C594.551 433.942 589.554 438.133 581.173 438.133C572.711 438.133 566.909 433.298 566.909 424.836C566.909 415.89 573.517 412.103 582.543 410.975L596.968 409.121V407.429C596.968 401.223 593.1 398.644 586.331 398.644ZM574.001 424.836C574.001 429.671 577.385 432.572 582.946 432.572C588.748 432.572 597.21 428.14 597.21 417.18V414.52L583.752 416.293C577.385 417.099 574.001 419.92 574.001 424.836ZM615.523 387.604V379.626H623.26V387.604H615.523ZM615.846 437.166V394.051H622.937V437.166H615.846ZM634.887 400.659L634.726 394.051H641.818L641.979 400.82H642.221C643.188 397.355 647.137 393.245 653.906 393.245H655.84V399.531H652.455C645.686 399.531 641.979 404.689 641.979 412.828V437.166H634.887V400.659Z" fill="white"/>
<path d="M224.275 600.576L245.065 545.675H253.458L274.248 600.576H266.779L261.774 587.178H236.749L231.744 600.576H224.275ZM238.982 581.172H259.541L253.689 565.541C252.149 561.46 250.686 557.071 249.454 552.99H249.146C247.914 557.071 246.374 561.46 244.834 565.541L238.982 581.172ZM280.959 600.576V545.598H287.735V600.576H280.959ZM333.663 594.262L333.817 600.576H327.041L326.887 594.108H326.656C325.116 597.573 320.496 601.5 313.489 601.5C304.48 601.5 299.09 595.879 299.09 586.639V559.381H305.866V585.792C305.866 592.183 308.869 596.187 315.183 596.187C322.267 596.187 326.887 590.797 326.887 583.174V559.381H333.663V594.262ZM396.719 600.576V573.549C396.719 566.08 392.099 563.77 387.864 563.77C383.552 563.77 377.931 566.696 377.931 575.705V600.576H371.155V573.549C371.155 566.08 366.535 563.77 362.3 563.77C357.988 563.77 352.367 566.696 352.367 575.705V600.576H345.591V565.695L345.437 559.381H352.213L352.367 565.002H352.598C354.138 561.152 359.528 558.457 364.456 558.457C371.001 558.457 375.082 561.691 376.699 565.772H376.853C378.624 561.229 383.937 558.457 390.02 558.457C397.566 558.457 403.495 562.769 403.495 572.163V600.576H396.719ZM414.785 553.221V545.598H422.177V553.221H414.785ZM415.093 600.576V559.381H421.869V600.576H415.093ZM434.057 565.695L433.903 559.381H440.679L440.833 565.849H441.064C442.604 562.307 447.301 558.457 454.308 558.457C463.394 558.457 469.092 564.155 469.092 573.395V600.576H462.316V574.165C462.316 567.774 458.928 563.77 452.614 563.77C445.453 563.77 440.833 569.16 440.833 576.783V600.576H434.057V565.695ZM514.58 594.262L514.734 600.576H507.958L507.804 594.108H507.573C506.033 597.573 501.413 601.5 494.406 601.5C485.397 601.5 480.007 595.879 480.007 586.639V559.381H486.783V585.792C486.783 592.183 489.786 596.187 496.1 596.187C503.184 596.187 507.804 590.797 507.804 583.174V559.381H514.58V594.262ZM577.636 600.576V573.549C577.636 566.08 573.016 563.77 568.781 563.77C564.469 563.77 558.848 566.696 558.848 575.705V600.576H552.072V573.549C552.072 566.08 547.452 563.77 543.217 563.77C538.905 563.77 533.284 566.696 533.284 575.705V600.576H526.508V565.695L526.354 559.381H533.13L533.284 565.002H533.515C535.055 561.152 540.445 558.457 545.373 558.457C551.918 558.457 555.999 561.691 557.616 565.772H557.77C559.541 561.229 564.854 558.457 570.937 558.457C578.483 558.457 584.412 562.769 584.412 572.163V600.576H577.636Z" fill="white"/>
<path d="M195.051 706.699C205.215 706.699 212.607 712.243 212.607 721.714C212.607 729.645 208.911 734.881 202.212 740.887L184.656 756.826V757.134H213.762V762.986H176.186V756.21L197.669 736.267C202.828 731.416 205.754 727.566 205.754 722.099C205.754 715.939 201.211 712.551 195.051 712.551C188.968 712.551 183.578 716.016 183.039 723.562H176.186C176.956 711.858 185.118 706.699 195.051 706.699ZM219.165 713.86V708.008H254.585V713.167L230.792 762.986H223.323L246.885 713.86H219.165ZM255.967 752.899H264.745V762.986H255.967V752.899ZM270.635 713.86V708.008H306.055V713.167L282.262 762.986H274.793L298.355 713.86H270.635ZM331.164 764.295C321.385 764.295 313.377 760.445 312.068 749.665H318.921C320.153 756.287 325.235 758.443 331.164 758.443C338.864 758.443 344.716 752.668 344.716 744.891C344.716 737.114 340.25 731.262 331.857 731.262C326.467 731.262 322.54 733.649 320.461 737.73H313.377L318.228 708.008H349.413V713.86H323.926L321.154 729.953H321.462C323.464 727.566 328.084 725.41 333.012 725.41C344.254 725.41 351.646 733.418 351.646 744.891C351.646 756.364 342.945 764.295 331.164 764.295ZM362.467 708.085H369.551V731.57H398.118V708.085H405.202V762.986H398.118V737.576H369.551V762.986H362.467V708.085ZM442.596 728.259L433.356 716.093H438.361L445.214 725.487L452.067 716.093H457.072L447.755 728.259L457.534 740.887H452.529L445.214 731.031L437.822 740.887H432.894L442.596 728.259ZM511.13 721.406C511.13 715.246 506.125 712.551 500.504 712.551C495.037 712.551 489.955 714.63 489.108 721.483H482.255C483.179 710.934 490.417 706.699 500.504 706.699C510.976 706.699 518.06 712.012 518.06 720.482C518.06 728.028 513.209 732.109 509.359 733.418V733.572C514.672 735.035 520.216 739.193 520.216 748.125C520.216 758.443 511.515 764.295 500.504 764.295C488.338 764.295 481.1 759.444 480.792 748.279H487.645C488.338 755.363 493.035 758.443 500.504 758.443C508.05 758.443 513.286 754.593 513.286 747.355C513.286 740.579 508.435 736.883 501.043 736.883H496.5V730.723H500.581C506.51 730.723 511.13 727.412 511.13 721.406ZM547.07 706.699C557.234 706.699 564.626 712.243 564.626 721.714C564.626 729.645 560.93 734.881 554.231 740.887L536.675 756.826V757.134H565.781V762.986H528.205V756.21L549.688 736.267C554.847 731.416 557.773 727.566 557.773 722.099C557.773 715.939 553.23 712.551 547.07 712.551C540.987 712.551 535.597 716.016 535.058 723.562H528.205C528.975 711.858 537.137 706.699 547.07 706.699ZM593.591 762.986H585.121L571.107 708.008H578.191L585.737 738.423C587.123 743.659 588.509 749.665 589.51 754.978H589.818C590.896 749.665 592.359 743.659 593.668 738.423L601.06 708.008H609.53L616.922 738.423C618.231 743.659 619.694 749.665 620.772 754.978H621.08C622.081 749.665 623.467 743.659 624.853 738.423L632.399 708.008H639.483L625.469 762.986H616.999L609.453 733.033C608.144 727.72 606.681 722.176 605.449 716.401H605.141C603.909 722.176 602.446 727.72 601.137 733.033L593.591 762.986ZM252.469 805.259L243.229 793.093H248.234L255.087 802.487L261.94 793.093H266.945L257.628 805.259L267.407 817.887H262.402L255.087 808.031L247.695 817.887H242.767L252.469 805.259ZM321.004 798.406C321.004 792.246 315.999 789.551 310.378 789.551C304.911 789.551 299.829 791.63 298.982 798.483H292.129C293.053 787.934 300.291 783.699 310.378 783.699C320.85 783.699 327.934 789.012 327.934 797.482C327.934 805.028 323.083 809.109 319.233 810.418V810.572C324.546 812.035 330.09 816.193 330.09 825.125C330.09 835.443 321.389 841.295 310.378 841.295C298.212 841.295 290.974 836.444 290.666 825.279H297.519C298.212 832.363 302.909 835.443 310.378 835.443C317.924 835.443 323.16 831.593 323.16 824.355C323.16 817.579 318.309 813.883 310.917 813.883H306.374V807.723H310.455C316.384 807.723 321.004 804.412 321.004 798.406ZM352.477 785.008H357.482V839.986H350.706V800.1H337.462V795.095C347.241 794.325 350.244 792.939 352.477 785.008ZM370.318 829.899H379.096V839.986H370.318V829.899ZM407.749 841.295C397.97 841.295 389.962 837.445 388.653 826.665H395.506C396.738 833.287 401.82 835.443 407.749 835.443C415.449 835.443 421.301 829.668 421.301 821.891C421.301 814.114 416.835 808.262 408.442 808.262C403.052 808.262 399.125 810.649 397.046 814.73H389.962L394.813 785.008H425.998V790.86H400.511L397.739 806.953H398.047C400.049 804.566 404.669 802.41 409.597 802.41C420.839 802.41 428.231 810.418 428.231 821.891C428.231 833.364 419.53 841.295 407.749 841.295ZM439.052 839.986V785.008H456.993C472.316 785.008 483.481 793.94 483.481 812.497C483.481 831.054 472.316 839.986 456.993 839.986H439.052ZM456.223 791.014H446.136V833.98H456.223C468.543 833.98 476.397 826.665 476.397 812.497C476.397 798.329 468.543 791.014 456.223 791.014ZM512.142 792.631V785.008H519.534V792.631H512.142ZM512.45 839.986V798.791H519.226V839.986H512.45ZM531.414 805.105L531.26 798.791H538.036L538.19 805.259H538.421C539.961 801.717 544.658 797.867 551.665 797.867C560.751 797.867 566.449 803.565 566.449 812.805V839.986H559.673V813.575C559.673 807.184 556.285 803.18 549.971 803.18C542.81 803.18 538.19 808.57 538.19 816.193V839.986H531.414V805.105Z" fill="white"/>
<path d="M809.671 649.121L809.671 268.548L735.535 188.191L112.254 188.191" stroke="white" stroke-width="7.32623"/>
<path d="M3.77738 645.765L3.77737 268.547L77.9127 188.191L701.194 188.191" stroke="white" stroke-width="7.32623"/>
<path d="M3.68433 503.833L3.68437 873.603L77.8197 953.959L701.101 953.959" stroke="white" stroke-width="7.32623"/>
<path d="M809.573 482.413L809.573 873.604L735.438 953.961L112.156 953.961" stroke="white" stroke-width="7.32623"/>
<path d="M237.527 1250.81H273.872V1257.09H244.941V1276.43H272.261V1282.72H244.941V1308.35H237.527V1250.81ZM317.578 1301.74L317.74 1308.35H310.648L310.487 1301.58H310.245C308.633 1305.2 303.798 1309.31 296.464 1309.31C287.035 1309.31 281.394 1303.43 281.394 1293.76V1265.23H288.486V1292.87C288.486 1299.56 291.629 1303.75 298.237 1303.75C305.651 1303.75 310.487 1298.11 310.487 1290.13V1265.23H317.578V1301.74ZM329.096 1308.35V1250.81H336.187V1308.35H329.096ZM347.669 1308.35V1250.81H354.761V1308.35H347.669ZM365.355 1289.65V1283.85H388.404V1289.65H365.355ZM397.045 1286.1C397.045 1271.92 406.474 1264.26 416.467 1264.26C423.559 1264.26 428.313 1267.73 430.247 1271.36H430.328L430.57 1265.23H437.742L437.5 1275.71V1304.96C437.5 1317.45 427.83 1323.74 416.547 1323.74C406.232 1323.74 400.591 1320.19 399.221 1311.65H406.313C407.36 1316.4 410.906 1318.5 416.95 1318.5C424.526 1318.5 430.328 1313.58 430.328 1304.96V1300.37H430.247C428.233 1304.4 422.753 1307.94 416.306 1307.94C404.459 1307.94 397.045 1300.29 397.045 1286.1ZM431.134 1286.1C431.134 1276.19 425.815 1269.82 417.676 1269.82C409.456 1269.82 404.137 1276.19 404.137 1286.1C404.137 1296.02 409.456 1302.38 417.676 1302.38C425.815 1302.38 431.134 1296.02 431.134 1286.1ZM449.274 1271.84L449.113 1265.23H456.204L456.366 1272H456.607C457.574 1268.53 461.523 1264.42 468.293 1264.42H470.227V1270.71H466.842C460.073 1270.71 456.366 1275.87 456.366 1284.01V1308.35H449.274V1271.84ZM492.639 1269.82C486.595 1269.82 482.485 1272.16 481.92 1277.08H474.829C475.232 1268.29 482.082 1264.26 492.639 1264.26C504.888 1264.26 510.368 1269.58 510.368 1278.61V1298.19C510.368 1302.79 510.368 1303.83 510.771 1308.35H503.679C503.357 1304.96 503.276 1303.75 503.276 1301.17H503.035C500.859 1305.12 495.862 1309.31 487.481 1309.31C479.019 1309.31 473.217 1304.48 473.217 1296.02C473.217 1287.07 479.825 1283.28 488.851 1282.15L503.276 1280.3V1278.61C503.276 1272.4 499.408 1269.82 492.639 1269.82ZM480.309 1296.02C480.309 1300.85 483.693 1303.75 489.254 1303.75C495.056 1303.75 503.518 1299.32 503.518 1288.36V1285.7L490.06 1287.47C483.693 1288.28 480.309 1291.1 480.309 1296.02ZM521.831 1258.78V1250.81H529.568V1258.78H521.831ZM522.154 1308.35V1265.23H529.245V1308.35H522.154ZM541.195 1271.84L541.034 1265.23H548.126L548.287 1272H548.529C550.14 1268.29 555.056 1264.26 562.39 1264.26C571.899 1264.26 577.863 1270.23 577.863 1279.9V1308.35H570.771V1280.7C570.771 1274.02 567.225 1269.82 560.617 1269.82C553.122 1269.82 548.287 1275.47 548.287 1283.44V1308.35H541.195V1271.84ZM280.853 1389.35V1331.81H287.945V1389.35H280.853ZM337.705 1370.17H304.181C304.906 1379.19 309.499 1384.91 317.961 1384.91C323.844 1384.91 328.679 1381.93 330.049 1376.29H336.9C335.61 1385.48 327.712 1390.31 317.961 1390.31C304.584 1390.31 297.25 1381.61 297.25 1367.75C297.25 1353.89 304.906 1345.26 317.478 1345.26C330.855 1345.26 337.705 1354.05 337.705 1369.44V1370.17ZM304.261 1364.77H330.694C329.888 1356.3 325.375 1350.66 317.478 1350.66C309.58 1350.66 305.067 1356.3 304.261 1364.77ZM363.965 1350.82C357.92 1350.82 353.81 1353.16 353.246 1358.08H346.155C346.558 1349.29 353.408 1345.26 363.965 1345.26C376.214 1345.26 381.694 1350.58 381.694 1359.61V1379.19C381.694 1383.79 381.694 1384.83 382.097 1389.35H375.005C374.683 1385.96 374.602 1384.75 374.602 1382.17H374.361C372.185 1386.12 367.188 1390.31 358.807 1390.31C350.345 1390.31 344.543 1385.48 344.543 1377.02C344.543 1368.07 351.151 1364.28 360.177 1363.15L374.602 1361.3V1359.61C374.602 1353.4 370.734 1350.82 363.965 1350.82ZM351.635 1377.02C351.635 1381.85 355.019 1384.75 360.58 1384.75C366.382 1384.75 374.844 1380.32 374.844 1369.36V1366.7L361.386 1368.47C355.019 1369.28 351.635 1372.1 351.635 1377.02ZM396.066 1346.23V1337.04H403.158V1346.23H411.539V1351.79H403.158V1379.68C403.158 1382.5 403.964 1383.79 406.542 1383.79H411.136V1389.35H404.528C398.484 1389.35 396.066 1386.44 396.066 1379.68V1351.79H389.135V1346.23H396.066ZM420.309 1331.81H427.4V1353H427.642C429.254 1349.29 434.089 1345.26 441.503 1345.26C450.932 1345.26 456.976 1351.23 456.976 1360.9V1389.35H449.885V1361.7C449.885 1355.02 446.339 1350.82 439.73 1350.82C432.236 1350.82 427.4 1356.47 427.4 1364.44V1389.35H420.309V1331.81ZM506.28 1370.17H472.755C473.481 1379.19 478.074 1384.91 486.536 1384.91C492.419 1384.91 497.254 1381.93 498.624 1376.29H505.474C504.185 1385.48 496.287 1390.31 486.536 1390.31C473.158 1390.31 465.825 1381.61 465.825 1367.75C465.825 1353.89 473.481 1345.26 486.052 1345.26C499.43 1345.26 506.28 1354.05 506.28 1369.44V1370.17ZM472.836 1364.77H499.269C498.463 1356.3 493.95 1350.66 486.052 1350.66C478.155 1350.66 473.642 1356.3 472.836 1364.77ZM515.696 1352.84L515.535 1346.23H522.627L522.788 1353H523.03C523.997 1349.53 527.946 1345.42 534.715 1345.42H536.649V1351.71H533.265C526.495 1351.71 522.788 1356.87 522.788 1365.01V1389.35H515.696V1352.84ZM261.773 1431.82C252.747 1431.82 247.993 1438.92 247.993 1448.75C247.993 1458.58 252.667 1465.75 261.773 1465.75C267.656 1465.75 272.492 1463.09 273.539 1457.13H280.631C279.181 1466.72 271.444 1471.31 261.773 1471.31C248.315 1471.31 240.901 1462.53 240.901 1448.75C240.901 1434.89 248.396 1426.26 261.773 1426.26C272.814 1426.26 278.939 1431.58 280.309 1440.04H273.217C272.089 1434.73 267.818 1431.82 261.773 1431.82ZM324.976 1463.74L325.137 1470.35H318.046L317.884 1463.58H317.643C316.031 1467.2 311.196 1471.31 303.862 1471.31C294.433 1471.31 288.792 1465.43 288.792 1455.76V1427.23H295.884V1454.87C295.884 1461.56 299.027 1465.75 305.635 1465.75C313.049 1465.75 317.884 1460.11 317.884 1452.13V1427.23H324.976V1463.74ZM350.999 1431.5C345.681 1431.5 341.248 1433.6 341.248 1438.03C341.248 1442.06 343.988 1443.59 350.032 1444.88L353.981 1445.69C363.088 1447.54 368.809 1449.63 368.809 1458.34C368.809 1465.51 362.201 1471.31 351.402 1471.31C339.878 1471.31 333.995 1466.56 333.592 1457.37H340.684C341.087 1463.01 344.552 1466.07 351.402 1466.07C357.849 1466.07 361.959 1463.33 361.959 1458.9C361.959 1454.71 359.058 1453.18 352.692 1451.81L348.743 1451.09C339.556 1449.23 334.398 1446.65 334.398 1438.67C334.398 1431.58 341.49 1426.26 350.999 1426.26C360.509 1426.26 367.681 1430.45 368.004 1439.08H360.912C360.589 1434.24 356.641 1431.5 350.999 1431.5ZM377.575 1412.81H384.666V1434H384.908C386.52 1430.29 391.355 1426.26 398.769 1426.26C408.198 1426.26 414.242 1432.23 414.242 1441.9V1470.35H407.151V1442.7C407.151 1436.02 403.605 1431.82 396.996 1431.82C389.502 1431.82 384.666 1437.47 384.666 1445.44V1470.35H377.575V1412.81ZM425.267 1420.78V1412.81H433.003V1420.78H425.267ZM425.589 1470.35V1427.23H432.681V1470.35H425.589ZM462.924 1471.31C449.869 1471.31 442.294 1462.53 442.294 1448.75C442.294 1434.97 449.869 1426.26 462.924 1426.26C475.98 1426.26 483.555 1434.97 483.555 1448.75C483.555 1462.53 475.98 1471.31 462.924 1471.31ZM462.924 1465.75C471.95 1465.75 476.463 1458.66 476.463 1448.75C476.463 1438.84 471.95 1431.82 462.924 1431.82C453.979 1431.82 449.385 1438.84 449.385 1448.75C449.385 1458.66 453.979 1465.75 462.924 1465.75ZM492.952 1433.84L492.791 1427.23H499.883L500.044 1434H500.286C501.898 1430.29 506.813 1426.26 514.147 1426.26C523.656 1426.26 529.62 1432.23 529.62 1441.9V1470.35H522.528V1442.7C522.528 1436.02 518.982 1431.82 512.374 1431.82C504.879 1431.82 500.044 1437.47 500.044 1445.44V1470.35H492.952V1433.84ZM555.146 1431.5C549.828 1431.5 545.395 1433.6 545.395 1438.03C545.395 1442.06 548.135 1443.59 554.179 1444.88L558.128 1445.69C567.235 1447.54 572.956 1449.63 572.956 1458.34C572.956 1465.51 566.348 1471.31 555.549 1471.31C544.025 1471.31 538.142 1466.56 537.739 1457.37H544.831C545.234 1463.01 548.699 1466.07 555.549 1466.07C561.996 1466.07 566.106 1463.33 566.106 1458.9C566.106 1454.71 563.205 1453.18 556.839 1451.81L552.89 1451.09C543.703 1449.23 538.545 1446.65 538.545 1438.67C538.545 1431.58 545.637 1426.26 555.146 1426.26C564.656 1426.26 571.828 1430.45 572.151 1439.08H565.059C564.736 1434.24 560.788 1431.5 555.146 1431.5Z" fill="white"/>
<path d="M809.671 1440.89L809.671 1060.32L735.535 979.962L112.254 979.962" stroke="white" stroke-width="7.32623"/>
<path d="M3.77738 1437.54L3.77737 1060.32L77.9127 979.961L701.194 979.961" stroke="white" stroke-width="7.32623"/>
<path d="M3.68433 1295.6L3.68437 1665.37L77.8197 1745.73L701.101 1745.73" stroke="white" stroke-width="7.32623"/>
<path d="M809.573 1274.18L809.573 1665.37L735.438 1745.73L112.156 1745.73" stroke="white" stroke-width="7.32623"/>
<path d="M224.622 1859.61L250.392 1823.07H257.7V1859.92H265.931V1865.76H257.7V1878H250.854V1865.76H224.622V1859.61ZM251.392 1831.61H251.085C248.008 1836.99 244.392 1841.92 240.315 1847.69L231.469 1859.92H250.854V1847C250.854 1843.53 251.008 1836.38 251.392 1831.61ZM301.307 1836.46C301.307 1830.3 296.306 1827.61 290.691 1827.61C285.229 1827.61 280.152 1829.69 279.306 1836.53H272.46C273.383 1825.99 280.614 1821.76 290.691 1821.76C301.153 1821.76 308.23 1827.07 308.23 1835.53C308.23 1843.07 303.384 1847.15 299.537 1848.46V1848.61C304.845 1850.07 310.384 1854.23 310.384 1863.15C310.384 1873.46 301.691 1879.3 290.691 1879.3C278.537 1879.3 271.306 1874.46 270.998 1863.3H277.844C278.537 1870.38 283.229 1873.46 290.691 1873.46C298.23 1873.46 303.461 1869.61 303.461 1862.38C303.461 1855.61 298.614 1851.92 291.229 1851.92H286.691V1845.76H290.768C296.691 1845.76 301.307 1842.46 301.307 1836.46ZM359.531 1850.53C359.531 1866.3 353.607 1879.3 338.607 1879.3C323.607 1879.3 317.606 1866.3 317.606 1850.53C317.606 1834.76 323.607 1821.76 338.607 1821.76C353.607 1821.76 359.531 1834.76 359.531 1850.53ZM352.607 1850.53C352.607 1837.61 348.838 1827.61 338.607 1827.61C328.453 1827.61 324.53 1837.61 324.53 1850.53C324.53 1863.38 328.453 1873.46 338.607 1873.46C348.838 1873.46 352.607 1863.38 352.607 1850.53ZM409.262 1850.53C409.262 1866.3 403.339 1879.3 388.338 1879.3C373.338 1879.3 367.337 1866.3 367.337 1850.53C367.337 1834.76 373.338 1821.76 388.338 1821.76C403.339 1821.76 409.262 1834.76 409.262 1850.53ZM402.338 1850.53C402.338 1837.61 398.569 1827.61 388.338 1827.61C378.184 1827.61 374.261 1837.61 374.261 1850.53C374.261 1863.38 378.184 1873.46 388.338 1873.46C398.569 1873.46 402.338 1863.38 402.338 1850.53ZM437.785 1858V1823.07H444.862V1858.53C444.862 1867.23 450.401 1873.3 459.247 1873.3C468.17 1873.3 473.555 1867.15 473.555 1858.46V1823.07H480.632V1857.92C480.632 1871.61 472.017 1879.3 459.247 1879.3C446.554 1879.3 437.785 1871.69 437.785 1858ZM531.301 1837.76H524.224C523.455 1831.23 518.686 1827.46 510.916 1827.46C502.685 1827.46 497.531 1831.15 497.531 1836.99C497.531 1842.23 502.147 1844.53 509.147 1846L515.147 1847.23C525.147 1849.3 532.455 1852 532.455 1863.46C532.455 1873.23 522.84 1879.3 511.07 1879.3C497.685 1879.3 489.993 1873 489.685 1861.69H496.762C497.147 1869.23 502.301 1873.61 511.07 1873.61C519.609 1873.61 525.224 1869.69 525.301 1863.84C525.378 1857.23 520.84 1855.38 512.532 1853.69L506.532 1852.46C496.762 1850.46 490.454 1846.61 490.454 1837.53C490.454 1828.07 499.608 1821.76 510.916 1821.76C521.763 1821.76 530.455 1826.53 531.301 1837.76ZM542.37 1878V1823.07H560.293C575.601 1823.07 586.756 1831.99 586.756 1850.53C586.756 1869.07 575.601 1878 560.293 1878H542.37ZM559.524 1829.07H549.447V1872H559.524C571.832 1872 579.679 1864.69 579.679 1850.53C579.679 1836.38 571.832 1829.07 559.524 1829.07Z" fill="white"/>
<path d="M808.271 1851.95L734.27 1771.74L112.115 1771.74" stroke="white" stroke-width="7.36716"/>
<path d="M5.08388 1853.53L80.568 1771.73L702.723 1771.73" stroke="white" stroke-width="7.36716"/>
<path d="M808.264 1846.99L732.109 1929.52L109.955 1929.52" stroke="white" stroke-width="7.36716"/>
<path d="M6.56671 1849.31L80.5681 1929.52L702.723 1929.52" stroke="white" stroke-width="7.36716"/>
<path d="M127.809 2057.1C135.655 2057.1 140.348 2054.33 142.809 2051.56V2039.1H125.501V2033.1H149.656V2053.94C145.348 2058.79 137.655 2063.1 127.732 2063.1C110.116 2063.1 101.731 2050.79 101.731 2034.33C101.731 2017.87 109.193 2005.56 126.732 2005.56C140.271 2005.56 148.271 2011.17 149.348 2022.79H142.271C141.117 2014.56 134.501 2011.56 126.732 2011.56C114.809 2011.56 108.808 2020.48 108.808 2034.33C108.808 2048.17 115.501 2057.1 127.809 2057.1ZM160.86 2061.79V2006.87H195.861V2012.87H167.938V2030.56H194.323V2036.56H167.938V2055.79H195.861V2061.79H160.86ZM201.794 2034.33C201.794 2017.17 210.948 2005.56 227.872 2005.56C244.796 2005.56 254.027 2017.17 254.027 2034.33C254.027 2051.48 244.796 2063.1 227.872 2063.1C210.948 2063.1 201.794 2051.48 201.794 2034.33ZM208.871 2034.33C208.871 2047.48 215.256 2057.1 227.872 2057.1C240.488 2057.1 246.95 2047.48 246.95 2034.33C246.95 2021.17 240.488 2011.56 227.872 2011.56C215.256 2011.56 208.871 2021.17 208.871 2034.33ZM305.302 2022.56C305.302 2029.25 300.917 2034.33 296.148 2035.79V2036.1C301.071 2036.94 304.148 2041.17 304.994 2047.71L306.763 2061.79H299.378L297.686 2047.71C296.763 2040.48 292.763 2039.1 284.993 2039.1H271.531V2061.79H264.531V2006.87H287.07C299.225 2006.87 305.302 2013.64 305.302 2022.56ZM298.301 2022.94C298.301 2016.64 294.147 2012.87 286.455 2012.87H271.531V2033.1H286.301C293.994 2033.1 298.301 2029.25 298.301 2022.94ZM340.03 2057.1C347.876 2057.1 352.569 2054.33 355.03 2051.56V2039.1H337.722V2033.1H361.877V2053.94C357.569 2058.79 349.876 2063.1 339.953 2063.1C322.337 2063.1 313.952 2050.79 313.952 2034.33C313.952 2017.87 321.414 2005.56 338.953 2005.56C352.492 2005.56 360.492 2011.17 361.569 2022.79H354.492C353.338 2014.56 346.722 2011.56 338.953 2011.56C327.029 2011.56 321.029 2020.48 321.029 2034.33C321.029 2048.17 327.722 2057.1 340.03 2057.1ZM373.081 2061.79V2006.87H408.082V2012.87H380.158V2030.56H406.544V2036.56H380.158V2055.79H408.082V2061.79H373.081ZM455.566 2061.79V2006.87H473.489C488.797 2006.87 499.952 2015.79 499.952 2034.33C499.952 2052.87 488.797 2061.79 473.489 2061.79H455.566ZM472.72 2012.87H462.643V2055.79H472.72C485.028 2055.79 492.875 2048.48 492.875 2034.33C492.875 2020.17 485.028 2012.87 472.72 2012.87ZM502.512 2061.79L523.282 2006.94H531.667L552.437 2061.79H544.975L539.975 2048.41H514.974L509.974 2061.79H502.512ZM517.205 2042.41H537.744L531.898 2026.79C530.359 2022.71 528.898 2018.33 527.667 2014.25H527.359C526.129 2018.33 524.59 2022.71 523.052 2026.79L517.205 2042.41ZM570.227 2061.79L550.226 2006.87H557.688L568.996 2038.56C570.765 2043.64 572.919 2049.71 574.304 2054.41H574.611C575.996 2049.71 578.073 2043.64 579.842 2038.56L591.227 2006.87H598.612L578.611 2061.79H570.227ZM606.562 2006.87H613.639V2061.79H606.562V2006.87ZM627.596 2061.79V2006.87H662.597V2012.87H634.673V2030.56H661.059V2036.56H634.673V2055.79H662.597V2061.79H627.596ZM710.957 2021.56H703.88C703.11 2015.02 698.341 2011.25 690.572 2011.25C682.341 2011.25 677.187 2014.94 677.187 2020.79C677.187 2026.02 681.802 2028.33 688.802 2029.79L694.802 2031.02C704.803 2033.1 712.111 2035.79 712.111 2047.25C712.111 2057.02 702.495 2063.1 690.725 2063.1C677.34 2063.1 669.648 2056.79 669.34 2045.48H676.417C676.802 2053.02 681.956 2057.41 690.725 2057.41C699.264 2057.41 704.88 2053.48 704.957 2047.64C705.034 2041.02 700.495 2039.17 692.187 2037.48L686.187 2036.25C676.417 2034.25 670.109 2030.4 670.109 2021.33C670.109 2011.87 679.264 2005.56 690.572 2005.56C701.418 2005.56 710.111 2010.33 710.957 2021.56Z" fill="white"/>
<path d="M808.271 2035.74L734.27 1955.53L112.115 1955.53" stroke="white" stroke-width="7.36716"/>
<path d="M5.08388 2037.32L80.568 1955.52L702.723 1955.52" stroke="white" stroke-width="7.36716"/>
<path d="M808.264 2030.78L732.109 2113.32L109.955 2113.32" stroke="white" stroke-width="7.36716"/>
<path d="M6.56671 2033.11L80.5681 2113.32L702.723 2113.32" stroke="white" stroke-width="7.36716"/>
</svg>
