<svg width="814" height="2118" viewBox="0 0 814 2118" fill="none" xmlns="http://www.w3.org/2000/svg">
<path d="M299.589 106.218C307.435 106.218 312.127 103.448 314.589 100.679V88.2172H297.281V82.217H321.435V103.064C317.128 107.91 309.435 112.218 299.512 112.218C281.896 112.218 273.511 99.9098 273.511 83.4478C273.511 66.9858 280.973 54.6777 298.512 54.6777C312.051 54.6777 320.051 60.2933 321.128 71.909H314.051C312.897 63.678 306.281 60.6779 298.512 60.6779C286.588 60.6779 280.588 69.6012 280.588 83.4478C280.588 97.2944 287.281 106.218 299.589 106.218ZM332.64 110.91V55.9854H350.564C365.872 55.9854 377.026 64.9088 377.026 83.4478C377.026 101.987 365.872 110.91 350.564 110.91H332.64ZM349.794 61.9856H339.717V104.91H349.794C362.102 104.91 369.949 97.6021 369.949 83.4478C369.949 69.2935 362.102 61.9856 349.794 61.9856ZM385.02 93.0635V87.5248H407.02V93.0635H385.02ZM410.387 110.91L431.157 56.0624H439.542L460.312 110.91H452.85L447.85 97.5251H422.849L417.849 110.91H410.387ZM425.08 91.525H445.619L439.772 75.9091C438.234 71.8321 436.772 67.4473 435.542 63.3703H435.234C434.003 67.4473 432.465 71.8321 430.926 75.9091L425.08 91.525ZM504.661 94.2173H511.739C510.662 105.833 501.815 112.218 488.661 112.218C471.199 112.218 463.045 99.9098 463.045 83.4478C463.045 66.9858 471.199 54.6777 488.661 54.6777C501.892 54.6777 510.354 60.2933 511.431 71.909H504.354C503.2 63.678 496.43 60.6779 488.661 60.6779C476.661 60.6779 470.122 69.6012 470.122 83.4478C470.122 97.2174 476.661 106.218 488.661 106.218C496.43 106.218 503.508 102.679 504.661 94.2173ZM532.269 55.9854H537.269V110.91H530.5V71.0628H517.269V66.0627C527.038 65.2934 530.038 63.9088 532.269 55.9854Z" fill="white"/>
<path d="M808.772 84.8613L734.77 4.64997L112.616 4.65" stroke="white" stroke-width="7.36716"/>
<path d="M5.58437 86.4433L81.0685 4.64497L703.223 4.64494" stroke="white" stroke-width="7.36716"/>
<path d="M808.764 79.9034L732.61 162.439L110.455 162.439" stroke="white" stroke-width="7.36716"/>
<path d="M7.0672 82.2265L81.0686 162.438L703.223 162.438" stroke="white" stroke-width="7.36716"/>
<path d="M152.363 298.874H174.767C186.613 298.874 193.786 303.548 193.786 313.863C193.786 321.116 188.95 325.065 185.324 326.355V326.677C190.159 327.483 195.8 331.754 195.8 340.377C195.8 351.015 187.741 356.414 176.298 356.414H152.363V298.874ZM159.777 323.776H175.895C181.939 323.776 186.371 320.391 186.371 314.427C186.371 308.544 181.939 305.16 175.895 305.16H159.777V323.776ZM188.386 340.055C188.386 333.769 184.034 330.062 177.104 330.062H159.777V350.128H177.104C184.034 350.128 188.386 346.341 188.386 340.055ZM205.687 319.907L205.526 313.299H212.618L212.779 320.069H213.021C213.988 316.603 217.937 312.493 224.706 312.493H226.64V318.779H223.256C216.486 318.779 212.779 323.937 212.779 332.076V356.414H205.687V319.907ZM249.052 317.893C243.008 317.893 238.898 320.23 238.334 325.146H231.242C231.645 316.362 238.495 312.332 249.052 312.332C261.302 312.332 266.782 317.651 266.782 326.677V346.26C266.782 350.853 266.782 351.901 267.185 356.414H260.093C259.771 353.029 259.69 351.821 259.69 349.242H259.448C257.272 353.191 252.276 357.381 243.895 357.381C235.433 357.381 229.63 352.546 229.63 344.084C229.63 335.139 236.239 331.351 245.265 330.223L259.69 328.369V326.677C259.69 320.472 255.822 317.893 249.052 317.893ZM236.722 344.084C236.722 348.919 240.107 351.821 245.668 351.821C251.47 351.821 259.932 347.388 259.932 336.428V333.769L246.473 335.542C240.107 336.348 236.722 339.168 236.722 344.084ZM278.245 298.874H285.337V332.479L304.758 313.299H313.301L292.509 333.527L313.704 356.414H304.758L285.337 334.978V356.414H278.245V298.874ZM355.323 337.234H321.798C322.524 346.26 327.117 351.982 335.579 351.982C341.462 351.982 346.297 349 347.667 343.359H354.517C353.228 352.546 345.33 357.381 335.579 357.381C322.201 357.381 314.868 348.678 314.868 334.816C314.868 320.955 322.524 312.332 335.096 312.332C348.473 312.332 355.323 321.116 355.323 336.509V337.234ZM321.879 331.835H348.312C347.506 323.373 342.993 317.732 335.096 317.732C327.198 317.732 322.685 323.373 321.879 331.835ZM385.314 298.874H421.66V305.16H392.728V324.501H420.048V330.787H392.728V356.414H385.314V298.874ZM447.646 357.381C434.59 357.381 427.015 348.597 427.015 334.816C427.015 321.036 434.59 312.332 447.646 312.332C460.701 312.332 468.276 321.036 468.276 334.816C468.276 348.597 460.701 357.381 447.646 357.381ZM447.646 351.821C456.672 351.821 461.184 344.729 461.184 334.816C461.184 324.904 456.672 317.893 447.646 317.893C438.7 317.893 434.107 324.904 434.107 334.816C434.107 344.729 438.7 351.821 447.646 351.821ZM477.674 319.907L477.512 313.299H484.604L484.765 320.069H485.007C485.974 316.603 489.923 312.493 496.693 312.493H498.627V318.779H495.242C488.472 318.779 484.765 323.937 484.765 332.076V356.414H477.674V319.907ZM559.595 356.414V328.128C559.595 320.31 554.76 317.893 550.327 317.893C545.814 317.893 539.931 320.955 539.931 330.384V356.414H532.84V328.128C532.84 320.31 528.004 317.893 523.572 317.893C519.059 317.893 513.176 320.955 513.176 330.384V356.414H506.084V319.907L505.923 313.299H513.015L513.176 319.182H513.418C515.03 315.153 520.671 312.332 525.828 312.332C532.678 312.332 536.95 315.717 538.642 319.988H538.803C540.657 315.233 546.217 312.332 552.584 312.332C560.481 312.332 566.687 316.845 566.687 326.677V356.414H559.595ZM615.977 337.234H582.452C583.177 346.26 587.771 351.982 596.233 351.982C602.115 351.982 606.951 349 608.321 343.359H615.171C613.881 352.546 605.984 357.381 596.233 357.381C582.855 357.381 575.521 348.678 575.521 334.816C575.521 320.955 583.177 312.332 595.749 312.332C609.127 312.332 615.977 321.116 615.977 336.509V337.234ZM582.532 331.835H608.965C608.16 323.373 603.647 317.732 595.749 317.732C587.851 317.732 583.338 323.373 582.532 331.835ZM623.056 334.816C623.056 319.746 632.001 312.332 642.478 312.332C648.925 312.332 654.082 315.797 656.258 319.021H656.339V298.874H663.431V345.938L663.673 356.414H656.581L656.339 349.967H656.258C654.566 353.835 649.247 357.381 642.317 357.381C630.712 357.381 623.056 349.081 623.056 334.816ZM657.064 334.816C657.064 324.904 652.068 317.893 643.687 317.893C635.225 317.893 630.148 324.904 630.148 334.816C630.148 344.729 635.225 351.821 643.687 351.821C652.068 351.821 657.064 344.729 657.064 334.816ZM164.871 437.414L186.63 379.954H195.414L217.173 437.414H209.356L204.118 423.392H177.927L172.688 437.414H164.871ZM180.264 417.106H201.781L195.656 400.746C194.044 396.475 192.513 391.882 191.224 387.61H190.901C189.612 391.882 188 396.475 186.388 400.746L180.264 417.106ZM241.537 398.893C232.511 398.893 227.756 405.985 227.756 415.816C227.756 425.648 232.43 432.821 241.537 432.821C247.42 432.821 252.255 430.161 253.303 424.198H260.394C258.944 433.788 251.207 438.381 241.537 438.381C228.078 438.381 220.664 429.597 220.664 415.816C220.664 401.955 228.159 393.332 241.537 393.332C252.577 393.332 258.702 398.651 260.072 407.113H252.98C251.852 401.794 247.581 398.893 241.537 398.893ZM287.655 398.893C278.629 398.893 273.874 405.985 273.874 415.816C273.874 425.648 278.548 432.821 287.655 432.821C293.538 432.821 298.373 430.161 299.421 424.198H306.513C305.062 433.788 297.325 438.381 287.655 438.381C274.197 438.381 266.782 429.597 266.782 415.816C266.782 401.955 274.277 393.332 287.655 393.332C298.695 393.332 304.82 398.651 306.19 407.113H299.098C297.97 401.794 293.699 398.893 287.655 398.893ZM353.356 418.234H319.831C320.556 427.26 325.15 432.982 333.612 432.982C339.495 432.982 344.33 430 345.7 424.359H352.55C351.261 433.546 343.363 438.381 333.612 438.381C320.234 438.381 312.9 429.678 312.9 415.816C312.9 401.955 320.556 393.332 333.128 393.332C346.506 393.332 353.356 402.116 353.356 417.509V418.234ZM319.912 412.835H346.345C345.539 404.373 341.026 398.732 333.128 398.732C325.23 398.732 320.717 404.373 319.912 412.835ZM362.772 400.907L362.611 394.299H369.703L369.864 401.069H370.106C371.717 397.362 376.633 393.332 383.967 393.332C393.476 393.332 399.44 399.296 399.44 408.966V437.414H392.348V409.772C392.348 403.083 388.802 398.893 382.194 398.893C374.699 398.893 369.864 404.534 369.864 412.512V437.414H362.772V400.907ZM413.29 394.299V385.112H420.382V394.299H428.763V399.86H420.382V427.743C420.382 430.564 421.188 431.853 423.767 431.853H428.36V437.414H421.752C415.708 437.414 413.29 434.513 413.29 427.743V399.86H406.36V394.299H413.29ZM498.16 419.926H505.574C504.446 432.095 495.178 438.784 481.398 438.784C463.104 438.784 454.562 425.89 454.562 408.644C454.562 391.398 463.104 378.504 481.398 378.504C495.259 378.504 504.124 384.387 505.252 396.556H497.838C496.629 387.933 489.537 384.79 481.398 384.79C468.826 384.79 461.976 394.138 461.976 408.644C461.976 423.069 468.826 432.498 481.398 432.498C489.537 432.498 496.951 428.791 498.16 419.926ZM514.108 379.874H521.2V401.069H521.441C523.053 397.362 527.888 393.332 535.303 393.332C544.731 393.332 550.776 399.296 550.776 408.966V437.414H543.684V409.772C543.684 403.083 540.138 398.893 533.53 398.893C526.035 398.893 521.2 404.534 521.2 412.512V437.414H514.108V379.874ZM578.804 398.893C572.76 398.893 568.65 401.23 568.086 406.146H560.994C561.397 397.362 568.247 393.332 578.804 393.332C591.053 393.332 596.533 398.651 596.533 407.677V427.26C596.533 431.853 596.533 432.901 596.936 437.414H589.845C589.522 434.029 589.442 432.821 589.442 430.242H589.2C587.024 434.191 582.028 438.381 573.646 438.381C565.185 438.381 559.382 433.546 559.382 425.084C559.382 416.139 565.99 412.351 575.016 411.223L589.442 409.369V407.677C589.442 401.472 585.573 398.893 578.804 398.893ZM566.474 425.084C566.474 429.919 569.859 432.821 575.419 432.821C581.222 432.821 589.683 428.388 589.683 417.428V414.769L576.225 416.542C569.859 417.348 566.474 420.168 566.474 425.084ZM607.997 387.852V379.874H615.733V387.852H607.997ZM608.319 437.414V394.299H615.411V437.414H608.319ZM627.36 400.907L627.199 394.299H634.291L634.452 401.069H634.694C635.661 397.603 639.61 393.493 646.379 393.493H648.314V399.779H644.929C638.159 399.779 634.452 404.937 634.452 413.076V437.414H627.36V400.907Z" fill="white"/>
<path d="M224.775 600.824L245.565 545.923H253.958L274.748 600.824H267.279L262.274 587.426H237.249L232.244 600.824H224.775ZM239.482 581.42H260.041L254.189 565.789C252.649 561.708 251.186 557.319 249.954 553.238H249.646C248.414 557.319 246.874 561.708 245.334 565.789L239.482 581.42ZM281.459 600.824V545.846H288.235V600.824H281.459ZM334.164 594.51L334.318 600.824H327.542L327.388 594.356H327.157C325.617 597.821 320.997 601.748 313.99 601.748C304.981 601.748 299.591 596.127 299.591 586.887V559.629H306.367V586.04C306.367 592.431 309.37 596.435 315.684 596.435C322.768 596.435 327.388 591.045 327.388 583.422V559.629H334.164V594.51ZM397.22 600.824V573.797C397.22 566.328 392.6 564.018 388.365 564.018C384.053 564.018 378.432 566.944 378.432 575.953V600.824H371.656V573.797C371.656 566.328 367.036 564.018 362.801 564.018C358.489 564.018 352.868 566.944 352.868 575.953V600.824H346.092V565.943L345.938 559.629H352.714L352.868 565.25H353.099C354.639 561.4 360.029 558.705 364.957 558.705C371.502 558.705 375.583 561.939 377.2 566.02H377.354C379.125 561.477 384.438 558.705 390.521 558.705C398.067 558.705 403.996 563.017 403.996 572.411V600.824H397.22ZM415.286 553.469V545.846H422.678V553.469H415.286ZM415.594 600.824V559.629H422.37V600.824H415.594ZM434.558 565.943L434.404 559.629H441.18L441.334 566.097H441.565C443.105 562.555 447.802 558.705 454.809 558.705C463.895 558.705 469.593 564.403 469.593 573.643V600.824H462.817V574.413C462.817 568.022 459.429 564.018 453.115 564.018C445.954 564.018 441.334 569.408 441.334 577.031V600.824H434.558V565.943ZM515.08 594.51L515.234 600.824H508.458L508.304 594.356H508.073C506.533 597.821 501.913 601.748 494.906 601.748C485.897 601.748 480.507 596.127 480.507 586.887V559.629H487.283V586.04C487.283 592.431 490.286 596.435 496.6 596.435C503.684 596.435 508.304 591.045 508.304 583.422V559.629H515.08V594.51ZM578.137 600.824V573.797C578.137 566.328 573.517 564.018 569.282 564.018C564.97 564.018 559.349 566.944 559.349 575.953V600.824H552.573V573.797C552.573 566.328 547.953 564.018 543.718 564.018C539.406 564.018 533.785 566.944 533.785 575.953V600.824H527.009V565.943L526.855 559.629H533.631L533.785 565.25H534.016C535.556 561.4 540.946 558.705 545.874 558.705C552.419 558.705 556.5 561.939 558.117 566.02H558.271C560.042 561.477 565.355 558.705 571.438 558.705C578.984 558.705 584.913 563.017 584.913 572.411V600.824H578.137Z" fill="white"/>
<path d="M265.532 721.654C265.532 715.494 260.527 712.799 254.906 712.799C249.439 712.799 244.357 714.878 243.51 721.731H236.657C237.581 711.182 244.819 706.947 254.906 706.947C265.378 706.947 272.462 712.26 272.462 720.73C272.462 728.276 267.611 732.357 263.761 733.666V733.82C269.074 735.283 274.618 739.441 274.618 748.373C274.618 758.691 265.917 764.543 254.906 764.543C242.74 764.543 235.502 759.692 235.194 748.527H242.047C242.74 755.611 247.437 758.691 254.906 758.691C262.452 758.691 267.688 754.841 267.688 747.603C267.688 740.827 262.837 737.131 255.445 737.131H250.902V730.971H254.983C260.912 730.971 265.532 727.66 265.532 721.654ZM297.006 708.256H302.011V763.234H295.235V723.348H281.991V718.343C291.77 717.573 294.773 716.187 297.006 708.256ZM316.771 708.333H323.855V731.818H352.422V708.333H359.506V763.234H352.422V737.824H323.855V763.234H316.771V708.333ZM396.9 728.507L387.66 716.341H392.665L399.518 725.735L406.371 716.341H411.376L402.059 728.507L411.838 741.135H406.833L399.518 731.279L392.126 741.135H387.198L396.9 728.507ZM450.419 708.256H455.424V763.234H448.648V723.348H435.404V718.343C445.183 717.573 448.186 716.187 450.419 708.256ZM506.837 744.677C506.837 755.996 498.906 764.543 487.048 764.543C473.958 764.543 467.182 755.226 467.182 738.44C467.182 716.957 476.422 706.947 488.511 706.947C497.135 706.947 504.219 711.336 505.22 720.807H498.367C497.366 714.955 493.593 712.799 488.511 712.799C481.042 712.799 474.805 719.498 474.651 732.357H474.959C477.038 729.354 481.504 726.351 488.28 726.351C498.367 726.351 506.837 733.358 506.837 744.677ZM474.42 745.293C474.42 752.685 479.271 758.691 487.048 758.691C494.902 758.691 499.984 752.685 499.984 745.293C499.984 737.901 494.902 732.203 487.048 732.203C479.271 732.203 474.42 737.901 474.42 745.293ZM534.661 763.234H526.191L512.177 708.256H519.261L526.807 738.671C528.193 743.907 529.579 749.913 530.58 755.226H530.888C531.966 749.913 533.429 743.907 534.738 738.671L542.13 708.256H550.6L557.992 738.671C559.301 743.907 560.764 749.913 561.842 755.226H562.15C563.151 749.913 564.537 743.907 565.923 738.671L573.469 708.256H580.553L566.539 763.234H558.069L550.523 733.281C549.214 727.968 547.751 722.424 546.519 716.649H546.211C544.979 722.424 543.516 727.968 542.207 733.281L534.661 763.234ZM287.052 805.507L277.812 793.341H282.817L289.67 802.735L296.523 793.341H301.528L292.211 805.507L301.99 818.135H296.985L289.67 808.279L282.278 818.135H277.35L287.052 805.507ZM345.037 783.947C355.201 783.947 362.593 789.491 362.593 798.962C362.593 806.893 358.897 812.129 352.198 818.135L334.642 834.074V834.382H363.748V840.234H326.172V833.458L347.655 813.515C352.814 808.664 355.74 804.814 355.74 799.347C355.74 793.187 351.197 789.799 345.037 789.799C338.954 789.799 333.564 793.264 333.025 800.81H326.172C326.942 789.106 335.104 783.947 345.037 783.947ZM385.706 785.256H390.711V840.234H383.935V800.348H370.691V795.343C380.47 794.573 383.473 793.187 385.706 785.256ZM405.472 840.234V785.256H423.413C438.736 785.256 449.901 794.188 449.901 812.745C449.901 831.302 438.736 840.234 423.413 840.234H405.472ZM422.643 791.262H412.556V834.228H422.643C434.963 834.228 442.817 826.913 442.817 812.745C442.817 798.577 434.963 791.262 422.643 791.262ZM478.561 792.879V785.256H485.953V792.879H478.561ZM478.869 840.234V799.039H485.645V840.234H478.869ZM497.833 805.353L497.679 799.039H504.455L504.609 805.507H504.84C506.38 801.965 511.077 798.115 518.084 798.115C527.17 798.115 532.868 803.813 532.868 813.053V840.234H526.092V813.823C526.092 807.432 522.704 803.428 516.39 803.428C509.229 803.428 504.609 808.818 504.609 816.441V840.234H497.833V805.353Z" fill="white"/>
<path d="M810.171 649.37L810.171 268.797L736.036 188.44L112.754 188.44" stroke="white" stroke-width="7.32623"/>
<path d="M4.27812 646.014L4.2781 268.796L78.4134 188.44L701.695 188.44" stroke="white" stroke-width="7.32623"/>
<path d="M4.18506 504.082L4.1851 873.851L78.3204 954.208L701.602 954.208" stroke="white" stroke-width="7.32623"/>
<path d="M810.074 482.661L810.074 873.852L735.939 954.209L112.657 954.209" stroke="white" stroke-width="7.32623"/>
<path d="M171.883 1344.18C180.103 1344.18 185.019 1341.28 187.598 1338.38V1325.32H169.465V1319.03H194.77V1340.87C190.257 1345.95 182.198 1350.46 171.803 1350.46C153.348 1350.46 144.564 1337.57 144.564 1320.32C144.564 1303.08 152.381 1290.18 170.755 1290.18C184.938 1290.18 193.32 1296.07 194.448 1308.24H187.034C185.825 1299.61 178.894 1296.47 170.755 1296.47C158.264 1296.47 151.978 1305.82 151.978 1320.32C151.978 1334.83 158.989 1344.18 171.883 1344.18ZM205.058 1312.59L204.897 1305.98H211.988L212.15 1312.75H212.391C213.358 1309.28 217.307 1305.17 224.077 1305.17H226.011V1311.46H222.626C215.857 1311.46 212.15 1316.62 212.15 1324.76V1349.09H205.058V1312.59ZM269.462 1329.91H235.937C236.662 1338.94 241.256 1344.66 249.718 1344.66C255.601 1344.66 260.436 1341.68 261.806 1336.04H268.656C267.367 1345.23 259.469 1350.06 249.718 1350.06C236.34 1350.06 229.007 1341.36 229.007 1327.5C229.007 1313.63 236.662 1305.01 249.234 1305.01C262.612 1305.01 269.462 1313.8 269.462 1329.19V1329.91ZM236.018 1324.51H262.451C261.645 1316.05 257.132 1310.41 249.234 1310.41C241.337 1310.41 236.824 1316.05 236.018 1324.51ZM316.997 1329.91H283.472C284.197 1338.94 288.791 1344.66 297.252 1344.66C303.135 1344.66 307.971 1341.68 309.341 1336.04H316.191C314.901 1345.23 307.004 1350.06 297.252 1350.06C283.875 1350.06 276.541 1341.36 276.541 1327.5C276.541 1313.63 284.197 1305.01 296.769 1305.01C310.147 1305.01 316.997 1313.8 316.997 1329.19V1329.91ZM283.552 1324.51H309.985C309.179 1316.05 304.667 1310.41 296.769 1310.41C288.871 1310.41 284.358 1316.05 283.552 1324.51ZM326.413 1312.59L326.252 1305.98H333.343L333.505 1312.75H333.746C335.358 1309.04 340.274 1305.01 347.608 1305.01C357.117 1305.01 363.081 1310.98 363.081 1320.65V1349.09H355.989V1321.45C355.989 1314.76 352.443 1310.57 345.835 1310.57C338.34 1310.57 333.505 1316.21 333.505 1324.19V1349.09H326.413V1312.59ZM436.501 1309.04C436.501 1318.23 430.135 1326.53 417.16 1326.53H402.251V1349.09H394.837V1291.55H417.16C430.135 1291.55 436.501 1299.77 436.501 1309.04ZM429.087 1309.04C429.087 1302.67 424.735 1297.84 417.966 1297.84H402.251V1320.24H417.966C424.735 1320.24 429.087 1315.41 429.087 1309.04ZM461.575 1350.06C448.52 1350.06 440.945 1341.28 440.945 1327.5C440.945 1313.72 448.52 1305.01 461.575 1305.01C474.631 1305.01 482.206 1313.72 482.206 1327.5C482.206 1341.28 474.631 1350.06 461.575 1350.06ZM461.575 1344.5C470.601 1344.5 475.114 1337.41 475.114 1327.5C475.114 1317.58 470.601 1310.57 461.575 1310.57C452.63 1310.57 448.037 1317.58 448.037 1327.5C448.037 1337.41 452.63 1344.5 461.575 1344.5ZM508.134 1325.4L512.566 1305.98H520.786L525.218 1325.4C526.508 1331.04 527.717 1336.36 528.845 1341.68H529.087C530.376 1336.36 531.746 1330.8 533.438 1325.4L539.402 1305.98H546.574L532.632 1349.09H525.057L519.658 1326.93C518.449 1321.94 517.804 1318.79 516.837 1313.55H516.515C515.548 1318.79 514.903 1321.94 513.694 1326.93L508.295 1349.09H500.719L486.778 1305.98H493.95L499.914 1325.4C501.606 1330.8 502.976 1336.36 504.265 1341.68H504.507C505.635 1336.36 506.844 1331.04 508.134 1325.4ZM551.203 1327.5C551.203 1312.43 560.148 1305.01 570.625 1305.01C577.072 1305.01 582.23 1308.48 584.406 1311.7H584.486V1291.55H591.578V1338.62L591.82 1349.09H584.728L584.486 1342.65H584.406C582.713 1346.51 577.394 1350.06 570.464 1350.06C558.859 1350.06 551.203 1341.76 551.203 1327.5ZM585.211 1327.5C585.211 1317.58 580.215 1310.57 571.834 1310.57C563.372 1310.57 558.295 1317.58 558.295 1327.5C558.295 1337.41 563.372 1344.5 571.834 1344.5C580.215 1344.5 585.211 1337.41 585.211 1327.5ZM641.475 1329.91H607.951C608.676 1338.94 613.269 1344.66 621.731 1344.66C627.614 1344.66 632.449 1341.68 633.82 1336.04H640.67C639.38 1345.23 631.482 1350.06 621.731 1350.06C608.354 1350.06 601.02 1341.36 601.02 1327.5C601.02 1313.63 608.676 1305.01 621.248 1305.01C634.625 1305.01 641.475 1313.8 641.475 1329.19V1329.91ZM608.031 1324.51H634.464C633.658 1316.05 629.145 1310.41 621.248 1310.41C613.35 1310.41 608.837 1316.05 608.031 1324.51ZM650.892 1312.59L650.73 1305.98H657.822L657.983 1312.75H658.225C659.192 1309.28 663.141 1305.17 669.911 1305.17H671.845V1311.46H668.46C661.69 1311.46 657.983 1316.62 657.983 1324.76V1349.09H650.892V1312.59ZM364.843 1412.61H372.257C371.129 1424.77 361.861 1431.46 348.08 1431.46C329.787 1431.46 321.244 1418.57 321.244 1401.32C321.244 1384.08 329.787 1371.18 348.08 1371.18C361.942 1371.18 370.806 1377.07 371.935 1389.24H364.52C363.312 1380.61 356.22 1377.47 348.08 1377.47C335.509 1377.47 328.659 1386.82 328.659 1401.32C328.659 1415.75 335.509 1425.18 348.08 1425.18C356.22 1425.18 363.634 1421.47 364.843 1412.61ZM399.245 1431.06C386.19 1431.06 378.615 1422.28 378.615 1408.5C378.615 1394.72 386.19 1386.01 399.245 1386.01C412.301 1386.01 419.876 1394.72 419.876 1408.5C419.876 1422.28 412.301 1431.06 399.245 1431.06ZM399.245 1425.5C408.271 1425.5 412.784 1418.41 412.784 1408.5C412.784 1398.58 408.271 1391.57 399.245 1391.57C390.3 1391.57 385.706 1398.58 385.706 1408.5C385.706 1418.41 390.3 1425.5 399.245 1425.5ZM446.116 1391.57C440.072 1391.57 435.962 1393.91 435.398 1398.83H428.306C428.709 1390.04 435.559 1386.01 446.116 1386.01C458.366 1386.01 463.846 1391.33 463.846 1400.36V1419.94C463.846 1424.53 463.846 1425.58 464.249 1430.09H457.157C456.835 1426.71 456.754 1425.5 456.754 1422.92H456.512C454.336 1426.87 449.34 1431.06 440.959 1431.06C432.497 1431.06 426.695 1426.23 426.695 1417.76C426.695 1408.82 433.303 1405.03 442.329 1403.9L456.754 1402.05V1400.36C456.754 1394.15 452.886 1391.57 446.116 1391.57ZM433.786 1417.76C433.786 1422.6 437.171 1425.5 442.732 1425.5C448.534 1425.5 456.996 1421.07 456.996 1410.11V1407.45L443.538 1409.22C437.171 1410.03 433.786 1412.85 433.786 1417.76ZM478.218 1386.98V1377.79H485.309V1386.98H493.691V1392.54H485.309V1420.42C485.309 1423.24 486.115 1424.53 488.694 1424.53H493.288V1430.09H486.679C480.635 1430.09 478.218 1427.19 478.218 1420.42V1392.54H471.287V1386.98H478.218Z" fill="white"/>
<path d="M810.171 1441.14L810.171 1060.57L736.036 980.21L112.754 980.21" stroke="white" stroke-width="7.32623"/>
<path d="M4.27812 1437.78L4.2781 1060.57L78.4134 980.209L701.695 980.209" stroke="white" stroke-width="7.32623"/>
<path d="M4.18506 1295.85L4.1851 1665.62L78.3204 1745.98L701.602 1745.98" stroke="white" stroke-width="7.32623"/>
<path d="M810.074 1274.43L810.074 1665.62L735.939 1745.98L112.657 1745.98" stroke="white" stroke-width="7.32623"/>
<path d="M246.909 1822.01C257.063 1822.01 264.448 1827.55 264.448 1837.01C264.448 1844.94 260.755 1850.17 254.063 1856.17L236.524 1872.09V1872.4H265.602V1878.24H228.062V1871.47L249.524 1851.55C254.678 1846.7 257.601 1842.86 257.601 1837.4C257.601 1831.24 253.063 1827.86 246.909 1827.86C240.832 1827.86 235.447 1831.32 234.908 1838.86H228.062C228.831 1827.17 236.985 1822.01 246.909 1822.01ZM291.231 1822.01C301.385 1822.01 308.77 1827.55 308.77 1837.01C308.77 1844.94 305.078 1850.17 298.385 1856.17L280.846 1872.09V1872.4H309.924V1878.24H272.384V1871.47L293.846 1851.55C299 1846.7 301.924 1842.86 301.924 1837.4C301.924 1831.24 297.385 1827.86 291.231 1827.86C285.154 1827.86 279.769 1831.32 279.231 1838.86H272.384C273.154 1827.17 281.308 1822.01 291.231 1822.01ZM359.092 1850.78C359.092 1866.55 353.169 1879.55 338.169 1879.55C323.168 1879.55 317.168 1866.55 317.168 1850.78C317.168 1835.01 323.168 1822.01 338.169 1822.01C353.169 1822.01 359.092 1835.01 359.092 1850.78ZM352.169 1850.78C352.169 1837.86 348.4 1827.86 338.169 1827.86C328.015 1827.86 324.091 1837.86 324.091 1850.78C324.091 1863.63 328.015 1873.71 338.169 1873.71C348.4 1873.71 352.169 1863.63 352.169 1850.78ZM408.823 1850.78C408.823 1866.55 402.9 1879.55 387.9 1879.55C372.899 1879.55 366.899 1866.55 366.899 1850.78C366.899 1835.01 372.899 1822.01 387.9 1822.01C402.9 1822.01 408.823 1835.01 408.823 1850.78ZM401.9 1850.78C401.9 1837.86 398.131 1827.86 387.9 1827.86C377.746 1827.86 373.822 1837.86 373.822 1850.78C373.822 1863.63 377.746 1873.71 387.9 1873.71C398.131 1873.71 401.9 1863.63 401.9 1850.78ZM437.347 1858.24V1823.32H444.424V1858.78C444.424 1867.47 449.962 1873.55 458.809 1873.55C467.732 1873.55 473.117 1867.4 473.117 1858.71V1823.32H480.194V1858.17C480.194 1871.86 471.578 1879.55 458.809 1879.55C446.116 1879.55 437.347 1871.94 437.347 1858.24ZM530.863 1838.01H523.786C523.017 1831.47 518.247 1827.7 510.478 1827.7C502.247 1827.7 497.093 1831.4 497.093 1837.24C497.093 1842.47 501.708 1844.78 508.709 1846.24L514.709 1847.47C524.709 1849.55 532.017 1852.24 532.017 1863.71C532.017 1873.47 522.401 1879.55 510.632 1879.55C497.247 1879.55 489.554 1873.24 489.247 1861.94H496.324C496.708 1869.47 501.862 1873.86 510.632 1873.86C519.171 1873.86 524.786 1869.94 524.863 1864.09C524.94 1857.47 520.401 1855.63 512.093 1853.94L506.093 1852.7C496.324 1850.7 490.016 1846.86 490.016 1837.78C490.016 1828.32 499.17 1822.01 510.478 1822.01C521.324 1822.01 530.017 1826.78 530.863 1838.01ZM541.931 1878.24V1823.32H559.855C575.163 1823.32 586.317 1832.24 586.317 1850.78C586.317 1869.32 575.163 1878.24 559.855 1878.24H541.931ZM559.086 1829.32H549.009V1872.24H559.086C571.394 1872.24 579.24 1864.94 579.24 1850.78C579.24 1836.63 571.394 1829.32 559.086 1829.32Z" fill="white"/>
<path d="M808.772 1852.2L734.771 1771.98L112.616 1771.98" stroke="white" stroke-width="7.36716"/>
<path d="M5.58461 1853.78L81.0688 1771.98L703.223 1771.98" stroke="white" stroke-width="7.36716"/>
<path d="M808.765 1847.24L732.61 1929.77L110.455 1929.77" stroke="white" stroke-width="7.36716"/>
<path d="M7.06745 1849.56L81.0688 1929.77L703.223 1929.77" stroke="white" stroke-width="7.36716"/>
<path d="M128.31 2057.35C136.156 2057.35 140.849 2054.58 143.31 2051.81V2039.35H126.002V2033.35H150.156V2054.19C145.849 2059.04 138.156 2063.35 128.233 2063.35C110.617 2063.35 102.232 2051.04 102.232 2034.58C102.232 2018.11 109.694 2005.81 127.233 2005.81C140.772 2005.81 148.772 2011.42 149.849 2023.04H142.772C141.618 2014.81 135.002 2011.81 127.233 2011.81C115.309 2011.81 109.309 2020.73 109.309 2034.58C109.309 2048.42 116.002 2057.35 128.31 2057.35ZM161.361 2062.04V2007.11H196.362V2013.11H168.438V2030.81H194.824V2036.81H168.438V2056.04H196.362V2062.04H161.361ZM202.295 2034.58C202.295 2017.42 211.449 2005.81 228.373 2005.81C245.296 2005.81 254.527 2017.42 254.527 2034.58C254.527 2051.73 245.296 2063.35 228.373 2063.35C211.449 2063.35 202.295 2051.73 202.295 2034.58ZM209.372 2034.58C209.372 2047.73 215.757 2057.35 228.373 2057.35C240.989 2057.35 247.45 2047.73 247.45 2034.58C247.45 2021.42 240.989 2011.81 228.373 2011.81C215.757 2011.81 209.372 2021.42 209.372 2034.58ZM305.802 2022.81C305.802 2029.5 301.418 2034.58 296.648 2036.04V2036.35C301.571 2037.19 304.648 2041.42 305.495 2047.96L307.264 2062.04H299.879L298.187 2047.96C297.264 2040.73 293.264 2039.35 285.494 2039.35H272.032V2062.04H265.032V2007.11H287.571C299.725 2007.11 305.802 2013.88 305.802 2022.81ZM298.802 2023.19C298.802 2016.88 294.648 2013.11 286.956 2013.11H272.032V2033.35H286.802C294.494 2033.35 298.802 2029.5 298.802 2023.19ZM340.531 2057.35C348.377 2057.35 353.069 2054.58 355.531 2051.81V2039.35H338.223V2033.35H362.377V2054.19C358.07 2059.04 350.377 2063.35 340.454 2063.35C322.838 2063.35 314.453 2051.04 314.453 2034.58C314.453 2018.11 321.915 2005.81 339.454 2005.81C352.992 2005.81 360.993 2011.42 362.07 2023.04H354.993C353.839 2014.81 347.223 2011.81 339.454 2011.81C327.53 2011.81 321.53 2020.73 321.53 2034.58C321.53 2048.42 328.222 2057.35 340.531 2057.35ZM373.582 2062.04V2007.11H408.583V2013.11H380.659V2030.81H407.045V2036.81H380.659V2056.04H408.583V2062.04H373.582ZM456.066 2062.04V2007.11H473.99C489.298 2007.11 500.452 2016.04 500.452 2034.58C500.452 2053.12 489.298 2062.04 473.99 2062.04H456.066ZM473.221 2013.11H463.144V2056.04H473.221C485.529 2056.04 493.375 2048.73 493.375 2034.58C493.375 2020.42 485.529 2013.11 473.221 2013.11ZM503.013 2062.04L523.783 2007.19H532.168L552.938 2062.04H545.476L540.476 2048.65H515.475L510.475 2062.04H503.013ZM517.706 2042.65H538.245L532.399 2027.04C530.86 2022.96 529.399 2018.58 528.168 2014.5H527.86C526.629 2018.58 525.091 2022.96 523.552 2027.04L517.706 2042.65ZM570.727 2062.04L550.727 2007.11H558.188L569.497 2038.81C571.266 2043.88 573.42 2049.96 574.804 2054.65H575.112C576.497 2049.96 578.574 2043.88 580.343 2038.81L591.728 2007.11H599.113L579.112 2062.04H570.727ZM607.063 2007.11H614.14V2062.04H607.063V2007.11ZM628.097 2062.04V2007.11H663.098V2013.11H635.174V2030.81H661.559V2036.81H635.174V2056.04H663.098V2062.04H628.097ZM711.458 2021.81H704.38C703.611 2015.27 698.842 2011.5 691.072 2011.5C682.841 2011.5 677.687 2015.19 677.687 2021.04C677.687 2026.27 682.303 2028.58 689.303 2030.04L695.303 2031.27C705.304 2033.35 712.611 2036.04 712.611 2047.5C712.611 2057.27 702.996 2063.35 691.226 2063.35C677.841 2063.35 670.149 2057.04 669.841 2045.73H676.918C677.303 2053.27 682.457 2057.65 691.226 2057.65C699.765 2057.65 705.38 2053.73 705.457 2047.88C705.534 2041.27 700.996 2039.42 692.688 2037.73L686.688 2036.5C676.918 2034.5 670.61 2030.65 670.61 2021.58C670.61 2012.11 679.764 2005.81 691.072 2005.81C701.919 2005.81 710.611 2010.58 711.458 2021.81Z" fill="white"/>
<path d="M808.772 2035.99L734.771 1955.78L112.616 1955.78" stroke="white" stroke-width="7.36716"/>
<path d="M5.58461 2037.57L81.0688 1955.77L703.223 1955.77" stroke="white" stroke-width="7.36716"/>
<path d="M808.765 2031.03L732.61 2113.57L110.455 2113.57" stroke="white" stroke-width="7.36716"/>
<path d="M7.06745 2033.36L81.0688 2113.57L703.223 2113.57" stroke="white" stroke-width="7.36716"/>
</svg>
