<svg width="814" height="1326" viewBox="0 0 814 1326" fill="none" xmlns="http://www.w3.org/2000/svg">
<path d="M261.013 105.997C268.86 105.997 273.552 103.228 276.014 100.458V87.9965H258.706V81.9963H282.86V102.843C278.552 107.689 270.86 111.997 260.936 111.997C243.321 111.997 234.936 99.6891 234.936 83.2271C234.936 66.7651 242.397 54.457 259.936 54.457C273.475 54.457 281.475 60.0726 282.552 71.6883H275.475C274.321 63.4573 267.706 60.4572 259.936 60.4572C248.013 60.4572 242.013 69.3805 242.013 83.2271C242.013 97.0737 248.705 105.997 261.013 105.997ZM294.065 110.689V55.7647H311.988C327.297 55.7647 338.451 64.6881 338.451 83.2271C338.451 101.766 327.297 110.689 311.988 110.689H294.065ZM311.219 61.7649H301.142V104.689H311.219C323.527 104.689 331.374 97.3814 331.374 83.2271C331.374 69.0728 323.527 61.7649 311.219 61.7649ZM346.444 92.8428V87.3041H368.445V92.8428H346.444ZM417.541 70.4575H410.464C409.694 63.9188 404.925 60.1495 397.156 60.1495C388.925 60.1495 383.771 63.8419 383.771 69.6882C383.771 74.9192 388.386 77.2269 395.386 78.6885L401.387 79.9193C411.387 81.9963 418.695 84.6887 418.695 96.1506C418.695 105.92 409.079 111.997 397.309 111.997C383.924 111.997 376.232 105.689 375.924 94.3813H383.001C383.386 101.92 388.54 106.305 397.309 106.305C405.848 106.305 411.464 102.382 411.541 96.5352C411.618 89.9196 407.079 88.0734 398.771 86.381L392.771 85.1502C383.001 83.1502 376.693 79.3039 376.693 70.2267C376.693 60.7649 385.848 54.457 397.156 54.457C408.002 54.457 416.695 59.2264 417.541 70.4575ZM465.995 70.4575H458.918C458.148 63.9188 453.379 60.1495 445.61 60.1495C437.379 60.1495 432.225 63.8419 432.225 69.6882C432.225 74.9192 436.84 77.2269 443.84 78.6885L449.841 79.9193C459.841 81.9963 467.149 84.6887 467.149 96.1506C467.149 105.92 457.533 111.997 445.763 111.997C432.378 111.997 424.686 105.689 424.378 94.3813H431.455C431.84 101.92 436.994 106.305 445.763 106.305C454.302 106.305 459.918 102.382 459.995 96.5352C460.072 89.9196 455.533 88.0734 447.225 86.381L441.225 85.1502C431.455 83.1502 425.147 79.3039 425.147 70.2267C425.147 60.7649 434.302 54.457 445.61 54.457C456.456 54.457 465.149 59.2264 465.995 70.4575ZM492.371 54.457C502.525 54.457 509.91 59.9956 509.91 69.4575C509.91 77.3808 506.218 82.6117 499.525 88.6119L481.986 104.535V104.843H511.064V110.689H473.525V103.92L494.987 83.9963C500.141 79.15 503.064 75.3038 503.064 69.8421C503.064 63.688 498.525 60.3033 492.371 60.3033C486.294 60.3033 480.909 63.765 480.371 71.3037H473.525C474.294 59.611 482.448 54.457 492.371 54.457ZM517.874 92.8428V87.3041H539.874V92.8428H517.874ZM557.042 110.689V61.7649H539.426V55.7647H581.735V61.7649H564.119V110.689H557.042Z" fill="white"/>
<path d="M808.772 84.6406L734.771 4.42927L112.616 4.4293" stroke="white" stroke-width="7.36716"/>
<path d="M5.58449 86.2226L81.0686 4.42426L703.223 4.42424" stroke="white" stroke-width="7.36716"/>
<path d="M808.765 79.6817L732.61 162.218L110.455 162.218" stroke="white" stroke-width="7.36716"/>
<path d="M7.06732 82.0058L81.0687 162.217L703.223 162.217" stroke="white" stroke-width="7.36716"/>
<path d="M152.363 298.653H174.767C186.613 298.653 193.786 303.327 193.786 313.643C193.786 320.896 188.95 324.844 185.324 326.134V326.456C190.159 327.262 195.8 331.533 195.8 340.156C195.8 350.794 187.741 356.193 176.298 356.193H152.363V298.653ZM159.777 323.555H175.895C181.939 323.555 186.371 320.17 186.371 314.207C186.371 308.324 181.939 304.939 175.895 304.939H159.777V323.555ZM188.386 339.834C188.386 333.548 184.034 329.841 177.104 329.841H159.777V349.907H177.104C184.034 349.907 188.386 346.12 188.386 339.834ZM205.687 319.687L205.526 313.079H212.618L212.779 319.848H213.021C213.988 316.383 217.937 312.273 224.706 312.273H226.64V318.559H223.256C216.486 318.559 212.779 323.716 212.779 331.856V356.193H205.687V319.687ZM249.052 317.672C243.008 317.672 238.898 320.009 238.334 324.925H231.242C231.645 316.141 238.495 312.111 249.052 312.111C261.302 312.111 266.782 317.43 266.782 326.456V346.039C266.782 350.633 266.782 351.68 267.185 356.193H260.093C259.771 352.809 259.69 351.6 259.69 349.021H259.448C257.272 352.97 252.276 357.16 243.895 357.16C235.433 357.16 229.63 352.325 229.63 343.863C229.63 334.918 236.239 331.13 245.265 330.002L259.69 328.149V326.456C259.69 320.251 255.822 317.672 249.052 317.672ZM236.722 343.863C236.722 348.699 240.107 351.6 245.668 351.6C251.47 351.6 259.932 347.167 259.932 336.207V333.548L246.473 335.321C240.107 336.127 236.722 338.947 236.722 343.863ZM278.245 298.653H285.337V332.259L304.758 313.079H313.301L292.509 333.306L313.704 356.193H304.758L285.337 334.757V356.193H278.245V298.653ZM355.323 337.013H321.798C322.524 346.039 327.117 351.761 335.579 351.761C341.462 351.761 346.297 348.779 347.667 343.138H354.517C353.228 352.325 345.33 357.16 335.579 357.16C322.201 357.16 314.868 348.457 314.868 334.596C314.868 320.734 322.524 312.111 335.096 312.111C348.473 312.111 355.323 320.896 355.323 336.288V337.013ZM321.879 331.614H348.312C347.506 323.152 342.993 317.511 335.096 317.511C327.198 317.511 322.685 323.152 321.879 331.614ZM385.314 298.653H421.66V304.939H392.728V324.28H420.048V330.566H392.728V356.193H385.314V298.653ZM447.646 357.16C434.59 357.16 427.015 348.376 427.015 334.596C427.015 320.815 434.59 312.111 447.646 312.111C460.701 312.111 468.276 320.815 468.276 334.596C468.276 348.376 460.701 357.16 447.646 357.16ZM447.646 351.6C456.672 351.6 461.184 344.508 461.184 334.596C461.184 324.683 456.672 317.672 447.646 317.672C438.7 317.672 434.107 324.683 434.107 334.596C434.107 344.508 438.7 351.6 447.646 351.6ZM477.674 319.687L477.512 313.079H484.604L484.765 319.848H485.007C485.974 316.383 489.923 312.273 496.693 312.273H498.627V318.559H495.242C488.472 318.559 484.765 323.716 484.765 331.856V356.193H477.674V319.687ZM559.595 356.193V327.907C559.595 320.09 554.76 317.672 550.327 317.672C545.814 317.672 539.931 320.734 539.931 330.163V356.193H532.84V327.907C532.84 320.09 528.004 317.672 523.572 317.672C519.059 317.672 513.176 320.734 513.176 330.163V356.193H506.084V319.687L505.923 313.079H513.015L513.176 318.961H513.418C515.03 314.932 520.671 312.111 525.828 312.111C532.678 312.111 536.95 315.496 538.642 319.767H538.803C540.657 315.013 546.217 312.111 552.584 312.111C560.481 312.111 566.687 316.624 566.687 326.456V356.193H559.595ZM615.977 337.013H582.452C583.177 346.039 587.771 351.761 596.233 351.761C602.115 351.761 606.951 348.779 608.321 343.138H615.171C613.881 352.325 605.984 357.16 596.233 357.16C582.855 357.16 575.521 348.457 575.521 334.596C575.521 320.734 583.177 312.111 595.749 312.111C609.127 312.111 615.977 320.896 615.977 336.288V337.013ZM582.532 331.614H608.965C608.16 323.152 603.647 317.511 595.749 317.511C587.851 317.511 583.338 323.152 582.532 331.614ZM623.056 334.596C623.056 319.526 632.001 312.111 642.478 312.111C648.925 312.111 654.082 315.577 656.258 318.8H656.339V298.653H663.431V345.717L663.673 356.193H656.581L656.339 349.746H656.258C654.566 353.615 649.247 357.16 642.317 357.16C630.712 357.16 623.056 348.86 623.056 334.596ZM657.064 334.596C657.064 324.683 652.068 317.672 643.687 317.672C635.225 317.672 630.148 324.683 630.148 334.596C630.148 344.508 635.225 351.6 643.687 351.6C652.068 351.6 657.064 344.508 657.064 334.596ZM262.083 395.046H254.669C253.863 388.196 248.867 384.247 240.727 384.247C232.104 384.247 226.705 388.115 226.705 394.24C226.705 399.72 231.54 402.137 238.874 403.669L245.16 404.958C255.636 407.134 263.292 409.954 263.292 421.962C263.292 432.197 253.219 438.563 240.889 438.563C226.866 438.563 218.807 431.955 218.485 420.109H225.899C226.302 428.006 231.702 432.6 240.889 432.6C249.834 432.6 255.717 428.49 255.797 422.365C255.878 415.434 251.123 413.5 242.42 411.727L236.134 410.438C225.899 408.343 219.291 404.313 219.291 394.804C219.291 384.891 228.881 378.283 240.727 378.283C252.09 378.283 261.197 383.28 262.083 395.046ZM275.29 394.079V384.891H282.382V394.079H290.763V399.639H282.382V427.523C282.382 430.343 283.188 431.633 285.767 431.633H290.36V437.193H283.752C277.708 437.193 275.29 434.292 275.29 427.523V399.639H268.36V394.079H275.29ZM316.965 438.16C303.909 438.16 296.334 429.376 296.334 415.596C296.334 401.815 303.909 393.111 316.965 393.111C330.02 393.111 337.595 401.815 337.595 415.596C337.595 429.376 330.02 438.16 316.965 438.16ZM316.965 432.6C325.991 432.6 330.504 425.508 330.504 415.596C330.504 405.683 325.991 398.672 316.965 398.672C308.019 398.672 303.426 405.683 303.426 415.596C303.426 425.508 308.019 432.6 316.965 432.6ZM365.286 438.16C352.231 438.16 344.656 429.376 344.656 415.596C344.656 401.815 352.231 393.111 365.286 393.111C378.342 393.111 385.917 401.815 385.917 415.596C385.917 429.376 378.342 438.16 365.286 438.16ZM365.286 432.6C374.312 432.6 378.825 425.508 378.825 415.596C378.825 405.683 374.312 398.672 365.286 398.672C356.341 398.672 351.748 405.683 351.748 415.596C351.748 425.508 356.341 432.6 365.286 432.6ZM395.153 437.193V379.653H402.245V437.193H395.153ZM473.628 395.046H466.214C465.408 388.196 460.412 384.247 452.272 384.247C443.649 384.247 438.25 388.115 438.25 394.24C438.25 399.72 443.085 402.137 450.419 403.669L456.705 404.958C467.181 407.134 474.837 409.954 474.837 421.962C474.837 432.197 464.763 438.563 452.433 438.563C438.411 438.563 430.352 431.955 430.03 420.109H437.444C437.847 428.006 443.246 432.6 452.433 432.6C461.379 432.6 467.262 428.49 467.342 422.365C467.423 415.434 462.668 413.5 453.965 411.727L447.679 410.438C437.444 408.343 430.836 404.313 430.836 394.804C430.836 384.891 440.426 378.283 452.272 378.283C463.635 378.283 472.742 383.28 473.628 395.046ZM521.891 418.013H488.366C489.092 427.039 493.685 432.761 502.147 432.761C508.03 432.761 512.865 429.779 514.235 424.138H521.085C519.796 433.325 511.898 438.16 502.147 438.16C488.769 438.16 481.436 429.457 481.436 415.596C481.436 401.734 489.092 393.111 501.663 393.111C515.041 393.111 521.891 401.896 521.891 417.288V418.013ZM488.447 412.614H514.88C514.074 404.152 509.561 398.511 501.663 398.511C493.766 398.511 489.253 404.152 488.447 412.614ZM548.15 398.672C542.106 398.672 537.996 401.009 537.432 405.925H530.34C530.743 397.141 537.593 393.111 548.15 393.111C560.4 393.111 565.88 398.43 565.88 407.456V427.039C565.88 431.633 565.88 432.68 566.283 437.193H559.191C558.869 433.809 558.788 432.6 558.788 430.021H558.546C556.371 433.97 551.374 438.16 542.993 438.16C534.531 438.16 528.729 433.325 528.729 424.863C528.729 415.918 535.337 412.13 544.363 411.002L558.788 409.149V407.456C558.788 401.251 554.92 398.672 548.15 398.672ZM535.82 424.863C535.82 429.699 539.205 432.6 544.766 432.6C550.568 432.6 559.03 428.167 559.03 417.207V414.548L545.572 416.321C539.205 417.127 535.82 419.947 535.82 424.863ZM580.252 394.079V384.891H587.344V394.079H595.725V399.639H587.344V427.523C587.344 430.343 588.149 431.633 590.728 431.633H595.322V437.193H588.714C582.669 437.193 580.252 434.292 580.252 427.523V399.639H573.321V394.079H580.252Z" fill="white"/>
<path d="M224.775 600.604L245.565 545.703H253.958L274.748 600.604H267.279L262.274 587.206H237.249L232.244 600.604H224.775ZM239.482 581.2H260.041L254.189 565.569C252.649 561.488 251.186 557.099 249.954 553.018H249.646C248.414 557.099 246.874 561.488 245.334 565.569L239.482 581.2ZM281.459 600.604V545.626H288.235V600.604H281.459ZM334.164 594.29L334.318 600.604H327.542L327.388 594.136H327.157C325.617 597.601 320.997 601.528 313.99 601.528C304.981 601.528 299.591 595.907 299.591 586.667V559.409H306.367V585.82C306.367 592.211 309.37 596.215 315.684 596.215C322.768 596.215 327.388 590.825 327.388 583.202V559.409H334.164V594.29ZM397.22 600.604V573.577C397.22 566.108 392.6 563.798 388.365 563.798C384.053 563.798 378.432 566.724 378.432 575.733V600.604H371.656V573.577C371.656 566.108 367.036 563.798 362.801 563.798C358.489 563.798 352.868 566.724 352.868 575.733V600.604H346.092V565.723L345.938 559.409H352.714L352.868 565.03H353.099C354.639 561.18 360.029 558.485 364.957 558.485C371.502 558.485 375.583 561.719 377.2 565.8H377.354C379.125 561.257 384.438 558.485 390.521 558.485C398.067 558.485 403.996 562.797 403.996 572.191V600.604H397.22ZM415.286 553.249V545.626H422.678V553.249H415.286ZM415.594 600.604V559.409H422.37V600.604H415.594ZM434.558 565.723L434.404 559.409H441.18L441.334 565.877H441.565C443.105 562.335 447.802 558.485 454.809 558.485C463.895 558.485 469.593 564.183 469.593 573.423V600.604H462.817V574.193C462.817 567.802 459.429 563.798 453.115 563.798C445.954 563.798 441.334 569.188 441.334 576.811V600.604H434.558V565.723ZM515.08 594.29L515.234 600.604H508.458L508.304 594.136H508.073C506.533 597.601 501.913 601.528 494.906 601.528C485.897 601.528 480.507 595.907 480.507 586.667V559.409H487.283V585.82C487.283 592.211 490.286 596.215 496.6 596.215C503.684 596.215 508.304 590.825 508.304 583.202V559.409H515.08V594.29ZM578.137 600.604V573.577C578.137 566.108 573.517 563.798 569.282 563.798C564.97 563.798 559.349 566.724 559.349 575.733V600.604H552.573V573.577C552.573 566.108 547.953 563.798 543.718 563.798C539.406 563.798 533.785 566.724 533.785 575.733V600.604H527.009V565.723L526.855 559.409H533.631L533.785 565.03H534.016C535.556 561.18 540.946 558.485 545.874 558.485C552.419 558.485 556.5 561.719 558.117 565.8H558.271C560.042 561.257 565.355 558.485 571.438 558.485C578.984 558.485 584.913 562.797 584.913 572.191V600.604H578.137Z" fill="white"/>
<path d="M146.497 706.727C156.661 706.727 164.053 712.271 164.053 721.742C164.053 729.673 160.357 734.909 153.658 740.915L136.102 756.854V757.162H165.208V763.014H127.632V756.238L149.115 736.295C154.274 731.444 157.2 727.594 157.2 722.127C157.2 715.967 152.657 712.579 146.497 712.579C140.414 712.579 135.024 716.044 134.485 723.59H127.632C128.402 711.886 136.564 706.727 146.497 706.727ZM192.171 764.323C182.392 764.323 174.384 760.473 173.075 749.693H179.928C181.16 756.315 186.242 758.471 192.171 758.471C199.871 758.471 205.723 752.696 205.723 744.919C205.723 737.142 201.257 731.29 192.864 731.29C187.474 731.29 183.547 733.677 181.468 737.758H174.384L179.235 708.036H210.42V713.888H184.933L182.161 729.981H182.469C184.471 727.594 189.091 725.438 194.019 725.438C205.261 725.438 212.653 733.446 212.653 744.919C212.653 756.392 203.952 764.323 192.171 764.323ZM221.55 752.927H230.328V763.014H221.55V752.927ZM236.218 713.888V708.036H271.638V713.195L247.845 763.014H240.376L263.938 713.888H236.218ZM296.747 764.323C286.968 764.323 278.96 760.473 277.651 749.693H284.504C285.736 756.315 290.818 758.471 296.747 758.471C304.447 758.471 310.299 752.696 310.299 744.919C310.299 737.142 305.833 731.29 297.44 731.29C292.05 731.29 288.123 733.677 286.044 737.758H278.96L283.811 708.036H314.996V713.888H289.509L286.737 729.981H287.045C289.047 727.594 293.667 725.438 298.595 725.438C309.837 725.438 317.229 733.446 317.229 744.919C317.229 756.392 308.528 764.323 296.747 764.323ZM328.05 708.113H335.134V731.598H363.701V708.113H370.785V763.014H363.701V737.604H335.134V763.014H328.05V708.113ZM408.179 728.287L398.939 716.121H403.944L410.797 725.515L417.65 716.121H422.655L413.338 728.287L423.117 740.915H418.112L410.797 731.059L403.405 740.915H398.477L408.179 728.287ZM461.698 708.036H466.703V763.014H459.927V723.128H446.683V718.123C456.462 717.353 459.465 715.967 461.698 708.036ZM475.766 713.888V708.036H511.186V713.195L487.393 763.014H479.924L503.486 713.888H475.766ZM512.568 752.927H521.346V763.014H512.568V752.927ZM549.46 706.727C559.624 706.727 567.016 712.271 567.016 721.742C567.016 729.673 563.32 734.909 556.621 740.915L539.065 756.854V757.162H568.171V763.014H530.595V756.238L552.078 736.295C557.237 731.444 560.163 727.594 560.163 722.127C560.163 715.967 555.62 712.579 549.46 712.579C543.377 712.579 537.987 716.044 537.448 723.59H530.595C531.365 711.886 539.527 706.727 549.46 706.727ZM595.134 764.323C585.355 764.323 577.347 760.473 576.038 749.693H582.891C584.123 756.315 589.205 758.471 595.134 758.471C602.834 758.471 608.686 752.696 608.686 744.919C608.686 737.142 604.22 731.29 595.827 731.29C590.437 731.29 586.51 733.677 584.431 737.758H577.347L582.198 708.036H613.383V713.888H587.896L585.124 729.981H585.432C587.434 727.594 592.054 725.438 596.982 725.438C608.224 725.438 615.616 733.446 615.616 744.919C615.616 756.392 606.915 764.323 595.134 764.323ZM643.147 763.014H634.677L620.663 708.036H627.747L635.293 738.451C636.679 743.687 638.065 749.693 639.066 755.006H639.374C640.452 749.693 641.915 743.687 643.224 738.451L650.616 708.036H659.086L666.478 738.451C667.787 743.687 669.25 749.693 670.328 755.006H670.636C671.637 749.693 673.023 743.687 674.409 738.451L681.955 708.036H689.039L675.025 763.014H666.555L659.009 733.061C657.7 727.748 656.237 722.204 655.005 716.429H654.697C653.465 722.204 652.002 727.748 650.693 733.061L643.147 763.014ZM285.99 805.287L276.75 793.121H281.755L288.608 802.515L295.461 793.121H300.466L291.149 805.287L300.928 817.915H295.923L288.608 808.059L281.216 817.915H276.288L285.99 805.287ZM339.509 785.036H344.514V840.014H337.738V800.128H324.494V795.123C334.273 794.353 337.276 792.967 339.509 785.036ZM385.147 798.434C385.147 792.274 380.142 789.579 374.521 789.579C369.054 789.579 363.972 791.658 363.125 798.511H356.272C357.196 787.962 364.434 783.727 374.521 783.727C384.993 783.727 392.077 789.04 392.077 797.51C392.077 805.056 387.226 809.137 383.376 810.446V810.6C388.689 812.063 394.233 816.221 394.233 825.153C394.233 835.471 385.532 841.323 374.521 841.323C362.355 841.323 355.117 836.472 354.809 825.307H361.662C362.355 832.391 367.052 835.471 374.521 835.471C382.067 835.471 387.303 831.621 387.303 824.383C387.303 817.607 382.452 813.911 375.06 813.911H370.517V807.751H374.598C380.527 807.751 385.147 804.44 385.147 798.434ZM405.763 840.014V785.036H423.704C439.027 785.036 450.192 793.968 450.192 812.525C450.192 831.082 439.027 840.014 423.704 840.014H405.763ZM422.934 791.042H412.847V834.008H422.934C435.254 834.008 443.108 826.693 443.108 812.525C443.108 798.357 435.254 791.042 422.934 791.042ZM478.853 792.659V785.036H486.245V792.659H478.853ZM479.161 840.014V798.819H485.937V840.014H479.161ZM498.125 805.133L497.971 798.819H504.747L504.901 805.287H505.132C506.672 801.745 511.369 797.895 518.376 797.895C527.462 797.895 533.16 803.593 533.16 812.833V840.014H526.384V813.603C526.384 807.212 522.996 803.208 516.682 803.208C509.521 803.208 504.901 808.598 504.901 816.221V840.014H498.125V805.133Z" fill="white"/>
<path d="M810.171 649.148L810.171 268.576L736.036 188.219L112.754 188.219" stroke="white" stroke-width="7.32623"/>
<path d="M4.27824 645.792L4.27822 268.575L78.4136 188.218L701.695 188.218" stroke="white" stroke-width="7.32623"/>
<path d="M4.18512 503.861L4.18516 873.631L78.3205 953.987L701.602 953.987" stroke="white" stroke-width="7.32623"/>
<path d="M810.074 482.441L810.074 873.633L735.939 953.989L112.657 953.989" stroke="white" stroke-width="7.32623"/>
<path d="M252.051 1037.18V1031.33H287.436V1036.48L263.667 1086.25H256.205L279.744 1037.18H252.051ZM332.95 1058.79C332.95 1074.56 327.027 1087.56 312.026 1087.56C297.026 1087.56 291.026 1074.56 291.026 1058.79C291.026 1043.02 297.026 1030.02 312.026 1030.02C327.027 1030.02 332.95 1043.02 332.95 1058.79ZM326.027 1058.79C326.027 1045.87 322.257 1035.87 312.026 1035.87C301.872 1035.87 297.949 1045.87 297.949 1058.79C297.949 1071.64 301.872 1081.72 312.026 1081.72C322.257 1081.72 326.027 1071.64 326.027 1058.79ZM382.681 1058.79C382.681 1074.56 376.758 1087.56 361.757 1087.56C346.757 1087.56 340.757 1074.56 340.757 1058.79C340.757 1043.02 346.757 1030.02 361.757 1030.02C376.758 1030.02 382.681 1043.02 382.681 1058.79ZM375.758 1058.79C375.758 1045.87 371.988 1035.87 361.757 1035.87C351.603 1035.87 347.68 1045.87 347.68 1058.79C347.68 1071.64 351.603 1081.72 361.757 1081.72C371.988 1081.72 375.758 1071.64 375.758 1058.79ZM411.204 1066.25V1031.33H418.281V1066.79C418.281 1075.48 423.82 1081.56 432.666 1081.56C441.59 1081.56 446.974 1075.41 446.974 1066.71V1031.33H454.051V1066.18C454.051 1079.87 445.436 1087.56 432.666 1087.56C419.973 1087.56 411.204 1079.95 411.204 1066.25ZM504.721 1046.02H497.643C496.874 1039.48 492.105 1035.71 484.335 1035.71C476.104 1035.71 470.95 1039.41 470.95 1045.25C470.95 1050.48 475.566 1052.79 482.566 1054.25L488.566 1055.48C498.567 1057.56 505.874 1060.25 505.874 1071.72C505.874 1081.48 496.259 1087.56 484.489 1087.56C471.104 1087.56 463.412 1081.25 463.104 1069.95H470.181C470.566 1077.48 475.72 1081.87 484.489 1081.87C493.028 1081.87 498.643 1077.95 498.72 1072.1C498.797 1065.48 494.259 1063.64 485.951 1061.95L479.951 1060.71C470.181 1058.71 463.873 1054.87 463.873 1045.79C463.873 1036.33 473.027 1030.02 484.335 1030.02C495.182 1030.02 503.874 1034.79 504.721 1046.02ZM515.789 1086.25V1031.33H533.712C549.021 1031.33 560.175 1040.25 560.175 1058.79C560.175 1077.33 549.021 1086.25 533.712 1086.25H515.789ZM532.943 1037.33H522.866V1080.25H532.943C545.251 1080.25 553.098 1072.95 553.098 1058.79C553.098 1044.64 545.251 1037.33 532.943 1037.33Z" fill="white"/>
<path d="M808.772 1060.21L734.771 979.994L112.616 979.994" stroke="white" stroke-width="7.36716"/>
<path d="M5.58461 1061.79L81.0688 979.989L703.223 979.989" stroke="white" stroke-width="7.36716"/>
<path d="M808.765 1055.25L732.61 1137.78L110.455 1137.78" stroke="white" stroke-width="7.36716"/>
<path d="M7.06745 1057.57L81.0688 1137.78L703.223 1137.78" stroke="white" stroke-width="7.36716"/>
<path d="M128.31 1265.36C136.156 1265.36 140.849 1262.59 143.31 1259.82V1247.36H126.002V1241.36H150.157V1262.2C145.849 1267.05 138.156 1271.36 128.233 1271.36C110.617 1271.36 102.232 1259.05 102.232 1242.59C102.232 1226.12 109.694 1213.82 127.233 1213.82C140.772 1213.82 148.772 1219.43 149.849 1231.05H142.772C141.618 1222.82 135.002 1219.82 127.233 1219.82C115.309 1219.82 109.309 1228.74 109.309 1242.59C109.309 1256.43 116.002 1265.36 128.31 1265.36ZM161.361 1270.05V1215.12H196.362V1221.12H168.438V1238.82H194.824V1244.82H168.438V1264.05H196.362V1270.05H161.361ZM202.295 1242.59C202.295 1225.43 211.449 1213.82 228.373 1213.82C245.296 1213.82 254.527 1225.43 254.527 1242.59C254.527 1259.74 245.296 1271.36 228.373 1271.36C211.449 1271.36 202.295 1259.74 202.295 1242.59ZM209.372 1242.59C209.372 1255.74 215.757 1265.36 228.373 1265.36C240.989 1265.36 247.45 1255.74 247.45 1242.59C247.45 1229.43 240.989 1219.82 228.373 1219.82C215.757 1219.82 209.372 1229.43 209.372 1242.59ZM305.802 1230.82C305.802 1237.51 301.418 1242.59 296.648 1244.05V1244.36C301.571 1245.2 304.649 1249.43 305.495 1255.97L307.264 1270.05H299.879L298.187 1255.97C297.264 1248.74 293.264 1247.36 285.494 1247.36H272.032V1270.05H265.032V1215.12H287.571C299.725 1215.12 305.802 1221.89 305.802 1230.82ZM298.802 1231.2C298.802 1224.89 294.648 1221.12 286.956 1221.12H272.032V1241.36H286.802C294.494 1241.36 298.802 1237.51 298.802 1231.2ZM340.531 1265.36C348.377 1265.36 353.069 1262.59 355.531 1259.82V1247.36H338.223V1241.36H362.377V1262.2C358.07 1267.05 350.377 1271.36 340.454 1271.36C322.838 1271.36 314.453 1259.05 314.453 1242.59C314.453 1226.12 321.915 1213.82 339.454 1213.82C352.992 1213.82 360.993 1219.43 362.07 1231.05H354.993C353.839 1222.82 347.223 1219.82 339.454 1219.82C327.53 1219.82 321.53 1228.74 321.53 1242.59C321.53 1256.43 328.223 1265.36 340.531 1265.36ZM373.582 1270.05V1215.12H408.583V1221.12H380.659V1238.82H407.045V1244.82H380.659V1264.05H408.583V1270.05H373.582ZM456.066 1270.05V1215.12H473.99C489.298 1215.12 500.452 1224.05 500.452 1242.59C500.452 1261.13 489.298 1270.05 473.99 1270.05H456.066ZM473.221 1221.12H463.144V1264.05H473.221C485.529 1264.05 493.375 1256.74 493.375 1242.59C493.375 1228.43 485.529 1221.12 473.221 1221.12ZM503.013 1270.05L523.783 1215.2H532.168L552.938 1270.05H545.476L540.476 1256.66H515.475L510.475 1270.05H503.013ZM517.706 1250.66H538.245L532.399 1235.05C530.86 1230.97 529.399 1226.59 528.168 1222.51H527.86C526.629 1226.59 525.091 1230.97 523.552 1235.05L517.706 1250.66ZM570.727 1270.05L550.727 1215.12H558.189L569.497 1246.82C571.266 1251.89 573.42 1257.97 574.804 1262.66H575.112C576.497 1257.97 578.574 1251.89 580.343 1246.82L591.728 1215.12H599.113L579.112 1270.05H570.727ZM607.063 1215.12H614.14V1270.05H607.063V1215.12ZM628.097 1270.05V1215.12H663.098V1221.12H635.174V1238.82H661.559V1244.82H635.174V1264.05H663.098V1270.05H628.097ZM711.458 1229.82H704.38C703.611 1223.28 698.842 1219.51 691.072 1219.51C682.841 1219.51 677.687 1223.2 677.687 1229.05C677.687 1234.28 682.303 1236.59 689.303 1238.05L695.303 1239.28C705.304 1241.36 712.611 1244.05 712.611 1255.51C712.611 1265.28 702.996 1271.36 691.226 1271.36C677.841 1271.36 670.149 1265.05 669.841 1253.74H676.918C677.303 1261.28 682.457 1265.66 691.226 1265.66C699.765 1265.66 705.38 1261.74 705.457 1255.89C705.534 1249.28 700.996 1247.43 692.688 1245.74L686.688 1244.51C676.918 1242.51 670.61 1238.66 670.61 1229.59C670.61 1220.12 679.764 1213.82 691.072 1213.82C701.919 1213.82 710.611 1218.59 711.458 1229.82Z" fill="white"/>
<path d="M808.772 1244L734.771 1163.79L112.616 1163.79" stroke="white" stroke-width="7.36716"/>
<path d="M5.58461 1245.58L81.0688 1163.78L703.223 1163.78" stroke="white" stroke-width="7.36716"/>
<path d="M808.765 1239.04L732.61 1321.58L110.455 1321.58" stroke="white" stroke-width="7.36716"/>
<path d="M7.06745 1241.37L81.0688 1321.58L703.223 1321.58" stroke="white" stroke-width="7.36716"/>
</svg>
