<svg width="815" height="1326" viewBox="0 0 815 1326" fill="none" xmlns="http://www.w3.org/2000/svg">
<path d="M291.865 105.748C299.712 105.748 304.404 102.979 306.866 100.209V87.7474H289.558V81.7473H313.712V102.594C309.404 107.44 301.712 111.748 291.789 111.748C274.173 111.748 265.788 99.4401 265.788 82.9781C265.788 66.516 273.249 54.208 290.788 54.208C304.327 54.208 312.328 59.8235 313.405 71.4393H306.327C305.174 63.2082 298.558 60.2082 290.788 60.2082C278.865 60.2082 272.865 69.1315 272.865 82.9781C272.865 96.8246 279.557 105.748 291.865 105.748ZM324.917 110.44V55.5157H342.841C358.149 55.5157 369.303 64.4391 369.303 82.9781C369.303 101.517 358.149 110.44 342.841 110.44H324.917ZM342.071 61.5159H331.994V104.44H342.071C354.379 104.44 362.226 97.1323 362.226 82.9781C362.226 68.8238 354.379 61.5159 342.071 61.5159ZM377.296 92.5937V87.0551H399.297V92.5937H377.296ZM450.778 72.2085C450.778 80.978 444.701 88.9013 432.316 88.9013H418.084V110.44H411.007V55.5157H432.316C444.701 55.5157 450.778 63.3621 450.778 72.2085ZM443.701 72.2085C443.701 66.1314 439.547 61.5159 433.085 61.5159H418.084V82.9011H433.085C439.547 82.9011 443.701 78.2856 443.701 72.2085ZM498.516 93.7476H505.593C504.516 105.363 495.67 111.748 482.515 111.748C465.053 111.748 456.899 99.4401 456.899 82.9781C456.899 66.516 465.053 54.208 482.515 54.208C495.747 54.208 504.208 59.8235 505.285 71.4393H498.208C497.054 63.2082 490.285 60.2082 482.515 60.2082C470.515 60.2082 463.976 69.1315 463.976 82.9781C463.976 96.7477 470.515 105.748 482.515 105.748C490.285 105.748 497.362 102.209 498.516 93.7476ZM530.585 54.208C540.739 54.208 548.124 59.7466 548.124 69.2084C548.124 77.1317 544.432 82.3627 537.739 88.3628L520.2 104.286V104.594H549.278V110.44H511.739V103.671L533.201 83.7473C538.355 78.901 541.278 75.0548 541.278 69.5931C541.278 63.439 536.739 60.0543 530.585 60.0543C524.508 60.0543 519.123 63.5159 518.585 71.0546H511.739C512.508 59.362 520.662 54.208 530.585 54.208Z" fill="white"/>
<path d="M809.087 84.3916L735.085 4.18025L112.931 4.18027" stroke="white" stroke-width="7.36716"/>
<path d="M5.89931 85.9736L81.3835 4.17524L703.538 4.17521" stroke="white" stroke-width="7.36716"/>
<path d="M809.079 79.4336L732.925 161.97L110.77 161.97" stroke="white" stroke-width="7.36716"/>
<path d="M7.38214 81.7568L81.3835 161.968L703.538 161.968" stroke="white" stroke-width="7.36716"/>
<path d="M152.678 298.404H175.082C186.928 298.404 194.1 303.078 194.1 313.394C194.1 320.647 189.265 324.595 185.639 325.885V326.207C190.474 327.013 196.115 331.284 196.115 339.907C196.115 350.545 188.056 355.944 176.613 355.944H152.678V298.404ZM160.092 323.306H176.21C182.254 323.306 186.686 319.921 186.686 313.958C186.686 308.075 182.254 304.69 176.21 304.69H160.092V323.306ZM188.701 339.585C188.701 333.299 184.349 329.592 177.419 329.592H160.092V349.658H177.419C184.349 349.658 188.701 345.871 188.701 339.585ZM206.002 319.438L205.841 312.829H212.933L213.094 319.599H213.336C214.303 316.134 218.252 312.024 225.021 312.024H226.955V318.31H223.571C216.801 318.31 213.094 323.467 213.094 331.607V355.944H206.002V319.438ZM249.367 317.423C243.323 317.423 239.213 319.76 238.649 324.676H231.557C231.96 315.892 238.81 311.862 249.367 311.862C261.617 311.862 267.097 317.181 267.097 326.207V345.79C267.097 350.384 267.097 351.431 267.5 355.944H260.408C260.085 352.56 260.005 351.351 260.005 348.772H259.763C257.587 352.721 252.591 356.911 244.21 356.911C235.748 356.911 229.945 352.076 229.945 343.614C229.945 334.669 236.554 330.881 245.58 329.753L260.005 327.9V326.207C260.005 320.002 256.137 317.423 249.367 317.423ZM237.037 343.614C237.037 348.45 240.422 351.351 245.982 351.351C251.785 351.351 260.247 346.918 260.247 335.958V333.299L246.788 335.072C240.422 335.878 237.037 338.698 237.037 343.614ZM278.56 298.404H285.652V332.01L305.073 312.829H313.616L292.824 333.057L314.019 355.944H305.073L285.652 334.508V355.944H278.56V298.404ZM355.638 336.764H322.113C322.839 345.79 327.432 351.512 335.894 351.512C341.777 351.512 346.612 348.53 347.982 342.889H354.832C353.543 352.076 345.645 356.911 335.894 356.911C322.516 356.911 315.183 348.208 315.183 334.347C315.183 320.485 322.839 311.862 335.411 311.862C348.788 311.862 355.638 320.647 355.638 336.039V336.764ZM322.194 331.365H348.627C347.821 322.903 343.308 317.262 335.411 317.262C327.513 317.262 323 322.903 322.194 331.365ZM385.629 298.404H421.975V304.69H393.043V324.031H420.363V330.317H393.043V355.944H385.629V298.404ZM447.961 356.911C434.905 356.911 427.33 348.127 427.33 334.347C427.33 320.566 434.905 311.862 447.961 311.862C461.016 311.862 468.591 320.566 468.591 334.347C468.591 348.127 461.016 356.911 447.961 356.911ZM447.961 351.351C456.986 351.351 461.499 344.259 461.499 334.347C461.499 324.434 456.986 317.423 447.961 317.423C439.015 317.423 434.422 324.434 434.422 334.347C434.422 344.259 439.015 351.351 447.961 351.351ZM477.989 319.438L477.827 312.829H484.919L485.08 319.599H485.322C486.289 316.134 490.238 312.024 497.007 312.024H498.942V318.31H495.557C488.787 318.31 485.08 323.467 485.08 331.607V355.944H477.989V319.438ZM559.91 355.944V327.658C559.91 319.841 555.075 317.423 550.642 317.423C546.129 317.423 540.246 320.485 540.246 329.914V355.944H533.155V327.658C533.155 319.841 528.319 317.423 523.887 317.423C519.374 317.423 513.491 320.485 513.491 329.914V355.944H506.399V319.438L506.238 312.829H513.33L513.491 318.712H513.733C515.344 314.683 520.986 311.862 526.143 311.862C532.993 311.862 537.265 315.247 538.957 319.518H539.118C540.972 314.764 546.532 311.862 552.899 311.862C560.796 311.862 567.002 316.375 567.002 326.207V355.944H559.91ZM616.292 336.764H582.767C583.492 345.79 588.086 351.512 596.547 351.512C602.43 351.512 607.266 348.53 608.636 342.889H615.486C614.196 352.076 606.299 356.911 596.547 356.911C583.17 356.911 575.836 348.208 575.836 334.347C575.836 320.485 583.492 311.862 596.064 311.862C609.442 311.862 616.292 320.647 616.292 336.039V336.764ZM582.847 331.365H609.28C608.475 322.903 603.962 317.262 596.064 317.262C588.166 317.262 583.653 322.903 582.847 331.365ZM623.371 334.347C623.371 319.277 632.316 311.862 642.793 311.862C649.24 311.862 654.397 315.328 656.573 318.551H656.654V298.404H663.746V345.468L663.987 355.944H656.896L656.654 349.497H656.573C654.881 353.366 649.562 356.911 642.631 356.911C631.027 356.911 623.371 348.611 623.371 334.347ZM657.379 334.347C657.379 324.434 652.383 317.423 644.002 317.423C635.54 317.423 630.463 324.434 630.463 334.347C630.463 344.259 635.54 351.351 644.002 351.351C652.383 351.351 657.379 344.259 657.379 334.347ZM251.518 396.892C251.518 406.079 245.151 414.38 232.176 414.38H217.267V436.944H209.853V379.404H232.176C245.151 379.404 251.518 387.624 251.518 396.892ZM244.103 396.892C244.103 390.525 239.752 385.69 232.982 385.69H217.267V408.094H232.982C239.752 408.094 244.103 403.258 244.103 396.892ZM276.243 398.423C270.199 398.423 266.089 400.76 265.525 405.676H258.433C258.836 396.892 265.686 392.862 276.243 392.862C288.493 392.862 293.973 398.181 293.973 407.207V426.79C293.973 431.384 293.973 432.431 294.376 436.944H287.284C286.961 433.56 286.881 432.351 286.881 429.772H286.639C284.463 433.721 279.467 437.911 271.085 437.911C262.624 437.911 256.821 433.076 256.821 424.614C256.821 415.669 263.43 411.881 272.455 410.753L286.881 408.9V407.207C286.881 401.002 283.013 398.423 276.243 398.423ZM263.913 424.614C263.913 429.45 267.298 432.351 272.858 432.351C278.661 432.351 287.123 427.918 287.123 416.958V414.299L273.664 416.072C267.298 416.878 263.913 419.698 263.913 424.614ZM308.344 393.829V384.642H315.436V393.829H323.817V399.39H315.436V427.274C315.436 430.094 316.242 431.384 318.821 431.384H323.414V436.944H316.806C310.762 436.944 308.344 434.043 308.344 427.274V399.39H301.414V393.829H308.344ZM332.587 387.382V379.404H340.324V387.382H332.587ZM332.909 436.944V393.829H340.001V436.944H332.909ZM370.245 437.911C357.189 437.911 349.614 429.127 349.614 415.347C349.614 401.566 357.189 392.862 370.245 392.862C383.3 392.862 390.875 401.566 390.875 415.347C390.875 429.127 383.3 437.911 370.245 437.911ZM370.245 432.351C379.271 432.351 383.783 425.259 383.783 415.347C383.783 405.434 379.271 398.423 370.245 398.423C361.299 398.423 356.706 405.434 356.706 415.347C356.706 425.259 361.299 432.351 370.245 432.351ZM460.739 419.457H468.153C467.024 431.625 457.757 438.314 443.976 438.314C425.683 438.314 417.14 425.42 417.14 408.174C417.14 390.928 425.683 378.034 443.976 378.034C457.837 378.034 466.702 383.917 467.83 396.086H460.416C459.207 387.463 452.116 384.32 443.976 384.32C431.404 384.32 424.554 393.668 424.554 408.174C424.554 422.6 431.404 432.028 443.976 432.028C452.116 432.028 459.53 428.321 460.739 419.457ZM476.686 379.404H483.778V400.599H484.02C485.632 396.892 490.467 392.862 497.881 392.862C507.31 392.862 513.354 398.826 513.354 408.497V436.944H506.262V409.302C506.262 402.614 502.716 398.423 496.108 398.423C488.613 398.423 483.778 404.064 483.778 412.042V436.944H476.686V379.404ZM541.382 398.423C535.338 398.423 531.228 400.76 530.664 405.676H523.572C523.975 396.892 530.825 392.862 541.382 392.862C553.632 392.862 559.112 398.181 559.112 407.207V426.79C559.112 431.384 559.112 432.431 559.515 436.944H552.423C552.101 433.56 552.02 432.351 552.02 429.772H551.778C549.602 433.721 544.606 437.911 536.225 437.911C527.763 437.911 521.961 433.076 521.961 424.614C521.961 415.669 528.569 411.881 537.595 410.753L552.02 408.9V407.207C552.02 401.002 548.152 398.423 541.382 398.423ZM529.052 424.614C529.052 429.45 532.437 432.351 537.998 432.351C543.8 432.351 552.262 427.918 552.262 416.958V414.299L538.804 416.072C532.437 416.878 529.052 419.698 529.052 424.614ZM570.575 387.382V379.404H578.311V387.382H570.575ZM570.897 436.944V393.829H577.989V436.944H570.897ZM589.939 400.438L589.778 393.829H596.87L597.031 400.599H597.272C598.24 397.134 602.188 393.024 608.958 393.024H610.892V399.31H607.507C600.738 399.31 597.031 404.467 597.031 412.607V436.944H589.939V400.438Z" fill="white"/>
<path d="M225.09 600.354L245.88 545.453H254.273L275.063 600.354H267.594L262.589 586.956H237.564L232.559 600.354H225.09ZM239.797 580.95H260.356L254.504 565.319C252.964 561.238 251.501 556.849 250.269 552.768H249.961C248.729 556.849 247.189 561.238 245.649 565.319L239.797 580.95ZM281.774 600.354V545.376H288.55V600.354H281.774ZM334.479 594.04L334.633 600.354H327.857L327.703 593.886H327.472C325.932 597.351 321.312 601.278 314.305 601.278C305.296 601.278 299.906 595.657 299.906 586.417V559.159H306.682V585.57C306.682 591.961 309.685 595.965 315.999 595.965C323.083 595.965 327.703 590.575 327.703 582.952V559.159H334.479V594.04ZM397.535 600.354V573.327C397.535 565.858 392.915 563.548 388.68 563.548C384.368 563.548 378.747 566.474 378.747 575.483V600.354H371.971V573.327C371.971 565.858 367.351 563.548 363.116 563.548C358.804 563.548 353.183 566.474 353.183 575.483V600.354H346.407V565.473L346.253 559.159H353.029L353.183 564.78H353.414C354.954 560.93 360.344 558.235 365.272 558.235C371.817 558.235 375.898 561.469 377.515 565.55H377.669C379.44 561.007 384.753 558.235 390.836 558.235C398.382 558.235 404.311 562.547 404.311 571.941V600.354H397.535ZM415.601 552.999V545.376H422.993V552.999H415.601ZM415.909 600.354V559.159H422.685V600.354H415.909ZM434.873 565.473L434.719 559.159H441.495L441.649 565.627H441.88C443.42 562.085 448.117 558.235 455.124 558.235C464.21 558.235 469.908 563.933 469.908 573.173V600.354H463.132V573.943C463.132 567.552 459.744 563.548 453.43 563.548C446.269 563.548 441.649 568.938 441.649 576.561V600.354H434.873V565.473ZM515.395 594.04L515.549 600.354H508.773L508.619 593.886H508.388C506.848 597.351 502.228 601.278 495.221 601.278C486.212 601.278 480.822 595.657 480.822 586.417V559.159H487.598V585.57C487.598 591.961 490.601 595.965 496.915 595.965C503.999 595.965 508.619 590.575 508.619 582.952V559.159H515.395V594.04ZM578.452 600.354V573.327C578.452 565.858 573.832 563.548 569.597 563.548C565.285 563.548 559.664 566.474 559.664 575.483V600.354H552.888V573.327C552.888 565.858 548.268 563.548 544.033 563.548C539.721 563.548 534.1 566.474 534.1 575.483V600.354H527.324V565.473L527.17 559.159H533.946L534.1 564.78H534.331C535.871 560.93 541.261 558.235 546.189 558.235C552.734 558.235 556.815 561.469 558.432 565.55H558.586C560.357 561.007 565.67 558.235 571.753 558.235C579.299 558.235 585.228 562.547 585.228 571.941V600.354H578.452Z" fill="white"/>
<path d="M207.38 706.478C217.544 706.478 224.936 712.022 224.936 721.493C224.936 729.424 221.24 734.66 214.541 740.666L196.985 756.605V756.913H226.091V762.765H188.515V755.989L209.998 736.046C215.157 731.195 218.083 727.345 218.083 721.878C218.083 715.718 213.54 712.33 207.38 712.33C201.297 712.33 195.907 715.795 195.368 723.341H188.515C189.285 711.637 197.447 706.478 207.38 706.478ZM233.42 726.344C233.42 715.025 241.274 706.478 253.132 706.478C266.299 706.478 273.152 715.795 273.152 732.581C273.152 754.064 264.143 764.074 251.823 764.074C243.199 764.074 236.115 759.608 235.037 750.214H241.967C242.968 756.066 246.741 758.607 251.823 758.607C259.446 758.607 265.529 751.292 265.683 738.356H265.375C263.45 741.513 258.676 744.67 251.9 744.67C241.89 744.67 233.42 738.048 233.42 726.344ZM265.914 725.574C265.914 718.105 260.986 712.33 253.132 712.33C245.355 712.33 240.35 718.105 240.35 725.574C240.35 733.043 245.355 738.818 253.132 738.818C260.986 738.818 265.914 732.427 265.914 725.574ZM284.96 707.864H292.044V731.349H320.611V707.864H327.695V762.765H320.611V737.355H292.044V762.765H284.96V707.864ZM365.088 728.038L355.848 715.872H360.853L367.706 725.266L374.559 715.872H379.564L370.247 728.038L380.026 740.666H375.021L367.706 730.81L360.314 740.666H355.386L365.088 728.038ZM423.074 706.478C433.238 706.478 440.63 712.022 440.63 721.493C440.63 729.424 436.934 734.66 430.235 740.666L412.679 756.605V756.913H441.785V762.765H404.209V755.989L425.692 736.046C430.851 731.195 433.777 727.345 433.777 721.878C433.777 715.718 429.234 712.33 423.074 712.33C416.991 712.33 411.601 715.795 411.062 723.341H404.209C404.979 711.637 413.141 706.478 423.074 706.478ZM449.113 726.344C449.113 715.025 456.967 706.478 468.825 706.478C481.992 706.478 488.845 715.795 488.845 732.581C488.845 754.064 479.836 764.074 467.516 764.074C458.892 764.074 451.808 759.608 450.73 750.214H457.66C458.661 756.066 462.434 758.607 467.516 758.607C475.139 758.607 481.222 751.292 481.376 738.356H481.068C479.143 741.513 474.369 744.67 467.593 744.67C457.583 744.67 449.113 738.048 449.113 726.344ZM481.607 725.574C481.607 718.105 476.679 712.33 468.825 712.33C461.048 712.33 456.043 718.105 456.043 725.574C456.043 733.043 461.048 738.818 468.825 738.818C476.679 738.818 481.607 732.427 481.607 725.574ZM497.45 752.678H506.228V762.765H497.45V752.678ZM534.881 764.074C525.102 764.074 517.094 760.224 515.785 749.444H522.638C523.87 756.066 528.952 758.222 534.881 758.222C542.581 758.222 548.433 752.447 548.433 744.67C548.433 736.893 543.967 731.041 535.574 731.041C530.184 731.041 526.257 733.428 524.178 737.509H517.094L521.945 707.787H553.13V713.639H527.643L524.871 729.732H525.179C527.181 727.345 531.801 725.189 536.729 725.189C547.971 725.189 555.363 733.197 555.363 744.67C555.363 756.143 546.662 764.074 534.881 764.074ZM582.893 762.765H574.423L560.409 707.787H567.493L575.039 738.202C576.425 743.438 577.811 749.444 578.812 754.757H579.12C580.198 749.444 581.661 743.438 582.97 738.202L590.362 707.787H598.832L606.224 738.202C607.533 743.438 608.996 749.444 610.074 754.757H610.382C611.383 749.444 612.769 743.438 614.155 738.202L621.701 707.787H628.785L614.771 762.765H606.301L598.755 732.812C597.446 727.499 595.983 721.955 594.751 716.18H594.443C593.211 721.955 591.748 727.499 590.439 732.812L582.893 762.765ZM286.69 805.038L277.45 792.872H282.455L289.308 802.266L296.161 792.872H301.166L291.849 805.038L301.628 817.666H296.623L289.308 807.81L281.916 817.666H276.988L286.69 805.038ZM355.224 798.185C355.224 792.025 350.219 789.33 344.598 789.33C339.131 789.33 334.049 791.409 333.202 798.262H326.349C327.273 787.713 334.511 783.478 344.598 783.478C355.07 783.478 362.154 788.791 362.154 797.261C362.154 804.807 357.303 808.888 353.453 810.197V810.351C358.766 811.814 364.31 815.972 364.31 824.904C364.31 835.222 355.609 841.074 344.598 841.074C332.432 841.074 325.194 836.223 324.886 825.058H331.739C332.432 832.142 337.129 835.222 344.598 835.222C352.144 835.222 357.38 831.372 357.38 824.134C357.38 817.358 352.529 813.662 345.137 813.662H340.594V807.502H344.675C350.604 807.502 355.224 804.191 355.224 798.185ZM386.698 784.787H391.703V839.765H384.927V799.879H371.683V794.874C381.462 794.104 384.465 792.718 386.698 784.787ZM406.463 839.765V784.787H424.404C439.727 784.787 450.892 793.719 450.892 812.276C450.892 830.833 439.727 839.765 424.404 839.765H406.463ZM423.634 790.793H413.547V833.759H423.634C435.954 833.759 443.808 826.444 443.808 812.276C443.808 798.108 435.954 790.793 423.634 790.793ZM479.553 792.41V784.787H486.945V792.41H479.553ZM479.861 839.765V798.57H486.637V839.765H479.861ZM498.825 804.884L498.671 798.57H505.447L505.601 805.038H505.832C507.372 801.496 512.069 797.646 519.076 797.646C528.162 797.646 533.86 803.344 533.86 812.584V839.765H527.084V813.354C527.084 806.963 523.696 802.959 517.382 802.959C510.221 802.959 505.601 808.349 505.601 815.972V839.765H498.825V804.884Z" fill="white"/>
<path d="M810.486 648.9L810.486 268.328L736.351 187.971L113.069 187.971" stroke="white" stroke-width="7.32623"/>
<path d="M4.5933 645.544L4.59328 268.327L78.7286 187.97L702.01 187.97" stroke="white" stroke-width="7.32623"/>
<path d="M4.5 503.612L4.50004 873.382L78.6354 953.738L701.917 953.738" stroke="white" stroke-width="7.32623"/>
<path d="M810.389 482.191L810.389 873.383L736.254 953.739L112.972 953.739" stroke="white" stroke-width="7.32623"/>
<path d="M246.773 1029.77C256.927 1029.77 264.312 1035.31 264.312 1044.77C264.312 1052.7 260.62 1057.93 253.927 1063.93L236.388 1079.85V1080.16H265.466V1086H227.926V1079.24L249.388 1059.31C254.542 1054.47 257.466 1050.62 257.466 1045.16C257.466 1039 252.927 1035.62 246.773 1035.62C240.696 1035.62 235.311 1039.08 234.773 1046.62H227.926C228.696 1034.93 236.85 1029.77 246.773 1029.77ZM301.634 1044.47C301.634 1038.31 296.634 1035.62 291.018 1035.62C285.557 1035.62 280.48 1037.7 279.633 1044.54H272.787C273.71 1034 280.941 1029.77 291.018 1029.77C301.48 1029.77 308.557 1035.08 308.557 1043.54C308.557 1051.08 303.711 1055.16 299.865 1056.47V1056.62C305.173 1058.08 310.711 1062.23 310.711 1071.16C310.711 1081.47 302.019 1087.31 291.018 1087.31C278.864 1087.31 271.633 1082.47 271.325 1071.31H278.172C278.864 1078.39 283.557 1081.47 291.018 1081.47C298.557 1081.47 303.788 1077.62 303.788 1070.39C303.788 1063.62 298.942 1059.93 291.557 1059.93H287.018V1053.77H291.095C297.018 1053.77 301.634 1050.47 301.634 1044.47ZM359.858 1058.54C359.858 1074.31 353.935 1087.31 338.934 1087.31C323.934 1087.31 317.934 1074.31 317.934 1058.54C317.934 1042.77 323.934 1029.77 338.934 1029.77C353.935 1029.77 359.858 1042.77 359.858 1058.54ZM352.935 1058.54C352.935 1045.62 349.165 1035.62 338.934 1035.62C328.78 1035.62 324.857 1045.62 324.857 1058.54C324.857 1071.39 328.78 1081.47 338.934 1081.47C349.165 1081.47 352.935 1071.39 352.935 1058.54ZM409.589 1058.54C409.589 1074.31 403.666 1087.31 388.665 1087.31C373.665 1087.31 367.665 1074.31 367.665 1058.54C367.665 1042.77 373.665 1029.77 388.665 1029.77C403.666 1029.77 409.589 1042.77 409.589 1058.54ZM402.666 1058.54C402.666 1045.62 398.897 1035.62 388.665 1035.62C378.511 1035.62 374.588 1045.62 374.588 1058.54C374.588 1071.39 378.511 1081.47 388.665 1081.47C398.897 1081.47 402.666 1071.39 402.666 1058.54ZM438.112 1066V1031.08H445.189V1066.54C445.189 1075.24 450.728 1081.31 459.574 1081.31C468.498 1081.31 473.883 1075.16 473.883 1066.47V1031.08H480.96V1065.93C480.96 1079.62 472.344 1087.31 459.574 1087.31C446.882 1087.31 438.112 1079.7 438.112 1066ZM531.629 1045.77H524.552C523.782 1039.23 519.013 1035.46 511.244 1035.46C503.013 1035.46 497.859 1039.16 497.859 1045C497.859 1050.23 502.474 1052.54 509.474 1054L515.475 1055.23C525.475 1057.31 532.783 1060 532.783 1071.47C532.783 1081.24 523.167 1087.31 511.397 1087.31C498.012 1087.31 490.32 1081 490.012 1069.7H497.089C497.474 1077.24 502.628 1081.62 511.397 1081.62C519.936 1081.62 525.552 1077.7 525.629 1071.85C525.706 1065.24 521.167 1063.39 512.859 1061.7L506.859 1060.47C497.089 1058.47 490.781 1054.62 490.781 1045.54C490.781 1036.08 499.936 1029.77 511.244 1029.77C522.09 1029.77 530.783 1034.54 531.629 1045.77ZM542.697 1086V1031.08H560.621C575.929 1031.08 587.083 1040 587.083 1058.54C587.083 1077.08 575.929 1086 560.621 1086H542.697ZM559.851 1037.08H549.774V1080H559.851C572.16 1080 580.006 1072.7 580.006 1058.54C580.006 1044.39 572.16 1037.08 559.851 1037.08Z" fill="white"/>
<path d="M809.087 1059.96L735.086 979.745L112.931 979.745" stroke="white" stroke-width="7.36716"/>
<path d="M5.89931 1061.54L81.3835 979.74L703.538 979.74" stroke="white" stroke-width="7.36716"/>
<path d="M809.08 1055L732.925 1137.53L110.77 1137.53" stroke="white" stroke-width="7.36716"/>
<path d="M7.38214 1057.32L81.3835 1137.53L703.538 1137.53" stroke="white" stroke-width="7.36716"/>
<path d="M128.625 1265.11C136.471 1265.11 141.163 1262.34 143.625 1259.57V1247.11H126.317V1241.11H150.471V1261.95C146.164 1266.8 138.471 1271.11 128.548 1271.11C110.932 1271.11 102.547 1258.8 102.547 1242.34C102.547 1225.87 110.009 1213.57 127.548 1213.57C141.087 1213.57 149.087 1219.18 150.164 1230.8H143.087C141.933 1222.57 135.317 1219.57 127.548 1219.57C115.624 1219.57 109.624 1228.49 109.624 1242.34C109.624 1256.18 116.317 1265.11 128.625 1265.11ZM161.676 1269.8V1214.87H196.677V1220.87H168.753V1238.57H195.139V1244.57H168.753V1263.8H196.677V1269.8H161.676ZM202.61 1242.34C202.61 1225.18 211.764 1213.57 228.688 1213.57C245.611 1213.57 254.842 1225.18 254.842 1242.34C254.842 1259.49 245.611 1271.11 228.688 1271.11C211.764 1271.11 202.61 1259.49 202.61 1242.34ZM209.687 1242.34C209.687 1255.49 216.072 1265.11 228.688 1265.11C241.303 1265.11 247.765 1255.49 247.765 1242.34C247.765 1229.18 241.303 1219.57 228.688 1219.57C216.072 1219.57 209.687 1229.18 209.687 1242.34ZM306.117 1230.57C306.117 1237.26 301.733 1242.34 296.963 1243.8V1244.11C301.886 1244.95 304.963 1249.18 305.81 1255.72L307.579 1269.8H300.194L298.502 1255.72C297.579 1248.49 293.578 1247.11 285.809 1247.11H272.347V1269.8H265.347V1214.87H287.886C300.04 1214.87 306.117 1221.64 306.117 1230.57ZM299.117 1230.95C299.117 1224.64 294.963 1220.87 287.271 1220.87H272.347V1241.11H287.117C294.809 1241.11 299.117 1237.26 299.117 1230.95ZM340.845 1265.11C348.692 1265.11 353.384 1262.34 355.846 1259.57V1247.11H338.538V1241.11H362.692V1261.95C358.384 1266.8 350.692 1271.11 340.769 1271.11C323.153 1271.11 314.768 1258.8 314.768 1242.34C314.768 1225.87 322.23 1213.57 339.769 1213.57C353.307 1213.57 361.308 1219.18 362.385 1230.8H355.307C354.154 1222.57 347.538 1219.57 339.769 1219.57C327.845 1219.57 321.845 1228.49 321.845 1242.34C321.845 1256.18 328.537 1265.11 340.845 1265.11ZM373.897 1269.8V1214.87H408.898V1220.87H380.974V1238.57H407.36V1244.57H380.974V1263.8H408.898V1269.8H373.897ZM456.381 1269.8V1214.87H474.305C489.613 1214.87 500.767 1223.8 500.767 1242.34C500.767 1260.88 489.613 1269.8 474.305 1269.8H456.381ZM473.536 1220.87H463.459V1263.8H473.536C485.844 1263.8 493.69 1256.49 493.69 1242.34C493.69 1228.18 485.844 1220.87 473.536 1220.87ZM503.328 1269.8L524.098 1214.95H532.483L553.253 1269.8H545.791L540.791 1256.41H515.79L510.79 1269.8H503.328ZM518.021 1250.41H538.56L532.714 1234.8C531.175 1230.72 529.714 1226.34 528.483 1222.26H528.175C526.944 1226.34 525.406 1230.72 523.867 1234.8L518.021 1250.41ZM571.042 1269.8L551.042 1214.87H558.503L569.811 1246.57C571.581 1251.64 573.735 1257.72 575.119 1262.41H575.427C576.812 1257.72 578.889 1251.64 580.658 1246.57L592.043 1214.87H599.428L579.427 1269.8H571.042ZM607.377 1214.87H614.455V1269.8H607.377V1214.87ZM628.412 1269.8V1214.87H663.413V1220.87H635.489V1238.57H661.874V1244.57H635.489V1263.8H663.413V1269.8H628.412ZM711.772 1229.57H704.695C703.926 1223.03 699.157 1219.26 691.387 1219.26C683.156 1219.26 678.002 1222.95 678.002 1228.8C678.002 1234.03 682.618 1236.34 689.618 1237.8L695.618 1239.03C705.618 1241.11 712.926 1243.8 712.926 1255.26C712.926 1265.03 703.311 1271.11 691.541 1271.11C678.156 1271.11 670.464 1264.8 670.156 1253.49H677.233C677.618 1261.03 682.772 1265.41 691.541 1265.41C700.08 1265.41 705.695 1261.49 705.772 1255.64C705.849 1249.03 701.311 1247.18 693.003 1245.49L687.003 1244.26C677.233 1242.26 670.925 1238.41 670.925 1229.34C670.925 1219.87 680.079 1213.57 691.387 1213.57C702.234 1213.57 710.926 1218.34 711.772 1229.57Z" fill="white"/>
<path d="M809.087 1243.75L735.086 1163.54L112.931 1163.54" stroke="white" stroke-width="7.36716"/>
<path d="M5.89931 1245.33L81.3835 1163.53L703.538 1163.53" stroke="white" stroke-width="7.36716"/>
<path d="M809.08 1238.79L732.925 1321.33L110.77 1321.33" stroke="white" stroke-width="7.36716"/>
<path d="M7.38214 1241.12L81.3835 1321.33L703.538 1321.33" stroke="white" stroke-width="7.36716"/>
</svg>
