<svg width="814" height="1326" viewBox="0 0 814 1326" fill="none" xmlns="http://www.w3.org/2000/svg">
<path d="M288.384 105.748C296.23 105.748 300.923 102.979 303.384 100.209V87.7474H286.076V81.7473H310.231V102.594C305.923 107.44 298.23 111.748 288.307 111.748C270.691 111.748 262.306 99.4401 262.306 82.9781C262.306 66.516 269.768 54.208 287.307 54.208C300.846 54.208 308.846 59.8235 309.923 71.4393H302.846C301.692 63.2082 295.076 60.2082 287.307 60.2082C275.383 60.2082 269.383 69.1315 269.383 82.9781C269.383 96.8246 276.076 105.748 288.384 105.748ZM321.435 110.44V55.5157H339.359C354.667 55.5157 365.821 64.4391 365.821 82.9781C365.821 101.517 354.667 110.44 339.359 110.44H321.435ZM338.59 61.5159H328.512V104.44H338.59C350.898 104.44 358.744 97.1323 358.744 82.9781C358.744 68.8238 350.898 61.5159 338.59 61.5159ZM373.815 92.5937V87.0551H395.816V92.5937H373.815ZM407.526 110.44V55.5157H425.449C440.757 55.5157 451.912 64.4391 451.912 82.9781C451.912 101.517 440.757 110.44 425.449 110.44H407.526ZM424.68 61.5159H414.603V104.44H424.68C436.988 104.44 444.834 97.1323 444.834 82.9781C444.834 68.8238 436.988 61.5159 424.68 61.5159ZM500.368 93.7476H507.445C506.368 105.363 497.522 111.748 484.368 111.748C466.905 111.748 458.751 99.4401 458.751 82.9781C458.751 66.516 466.905 54.208 484.368 54.208C497.599 54.208 506.06 59.8235 507.137 71.4393H500.06C498.906 63.2082 492.137 60.2082 484.368 60.2082C472.367 60.2082 465.829 69.1315 465.829 82.9781C465.829 96.7477 472.367 105.748 484.368 105.748C492.137 105.748 499.214 102.209 500.368 93.7476ZM532.437 54.208C542.592 54.208 549.976 59.7466 549.976 69.2084C549.976 77.1317 546.284 82.3627 539.592 88.3628L522.053 104.286V104.594H551.13V110.44H513.591V103.671L535.053 83.7473C540.207 78.901 543.13 75.0548 543.13 69.5931C543.13 63.439 538.591 60.0543 532.437 60.0543C526.36 60.0543 520.976 63.5159 520.437 71.0546H513.591C514.36 59.362 522.514 54.208 532.437 54.208Z" fill="white"/>
<path d="M808.272 84.3916L734.271 4.18025L112.116 4.18027" stroke="white" stroke-width="7.36716"/>
<path d="M5.08486 85.9736L80.569 4.17524L702.724 4.17521" stroke="white" stroke-width="7.36716"/>
<path d="M808.265 79.4336L732.11 161.97L109.956 161.97" stroke="white" stroke-width="7.36716"/>
<path d="M6.56769 81.7568L80.5691 161.968L702.724 161.968" stroke="white" stroke-width="7.36716"/>
<path d="M151.863 298.404H174.267C186.113 298.404 193.286 303.078 193.286 313.394C193.286 320.647 188.45 324.595 184.824 325.885V326.207C189.659 327.013 195.3 331.284 195.3 339.907C195.3 350.545 187.241 355.944 175.798 355.944H151.863V298.404ZM159.277 323.306H175.395C181.439 323.306 185.871 319.921 185.871 313.958C185.871 308.075 181.439 304.69 175.395 304.69H159.277V323.306ZM187.886 339.585C187.886 333.299 183.534 329.592 176.604 329.592H159.277V349.658H176.604C183.534 349.658 187.886 345.871 187.886 339.585ZM205.187 319.438L205.026 312.829H212.118L212.279 319.599H212.521C213.488 316.134 217.437 312.024 224.206 312.024H226.14V318.31H222.756C215.986 318.31 212.279 323.467 212.279 331.607V355.944H205.187V319.438ZM248.552 317.423C242.508 317.423 238.398 319.76 237.834 324.676H230.742C231.145 315.892 237.995 311.862 248.552 311.862C260.802 311.862 266.282 317.181 266.282 326.207V345.79C266.282 350.384 266.282 351.431 266.685 355.944H259.593C259.271 352.56 259.19 351.351 259.19 348.772H258.948C256.772 352.721 251.776 356.911 243.395 356.911C234.933 356.911 229.13 352.076 229.13 343.614C229.13 334.669 235.739 330.881 244.765 329.753L259.19 327.9V326.207C259.19 320.002 255.322 317.423 248.552 317.423ZM236.222 343.614C236.222 348.45 239.607 351.351 245.168 351.351C250.97 351.351 259.432 346.918 259.432 335.958V333.299L245.973 335.072C239.607 335.878 236.222 338.698 236.222 343.614ZM277.745 298.404H284.837V332.01L304.258 312.829H312.801L292.009 333.057L313.204 355.944H304.258L284.837 334.508V355.944H277.745V298.404ZM354.823 336.764H321.298C322.024 345.79 326.617 351.512 335.079 351.512C340.962 351.512 345.797 348.53 347.167 342.889H354.017C352.728 352.076 344.83 356.911 335.079 356.911C321.701 356.911 314.368 348.208 314.368 334.347C314.368 320.485 322.024 311.862 334.596 311.862C347.973 311.862 354.823 320.647 354.823 336.039V336.764ZM321.379 331.365H347.812C347.006 322.903 342.493 317.262 334.596 317.262C326.698 317.262 322.185 322.903 321.379 331.365ZM384.814 298.404H421.16V304.69H392.228V324.031H419.548V330.317H392.228V355.944H384.814V298.404ZM447.146 356.911C434.09 356.911 426.515 348.127 426.515 334.347C426.515 320.566 434.09 311.862 447.146 311.862C460.201 311.862 467.776 320.566 467.776 334.347C467.776 348.127 460.201 356.911 447.146 356.911ZM447.146 351.351C456.172 351.351 460.684 344.259 460.684 334.347C460.684 324.434 456.172 317.423 447.146 317.423C438.2 317.423 433.607 324.434 433.607 334.347C433.607 344.259 438.2 351.351 447.146 351.351ZM477.174 319.438L477.012 312.829H484.104L484.265 319.599H484.507C485.474 316.134 489.423 312.024 496.193 312.024H498.127V318.31H494.742C487.972 318.31 484.265 323.467 484.265 331.607V355.944H477.174V319.438ZM559.095 355.944V327.658C559.095 319.841 554.26 317.423 549.827 317.423C545.314 317.423 539.431 320.485 539.431 329.914V355.944H532.34V327.658C532.34 319.841 527.504 317.423 523.072 317.423C518.559 317.423 512.676 320.485 512.676 329.914V355.944H505.584V319.438L505.423 312.829H512.515L512.676 318.712H512.918C514.53 314.683 520.171 311.862 525.328 311.862C532.178 311.862 536.45 315.247 538.142 319.518H538.303C540.157 314.764 545.717 311.862 552.084 311.862C559.981 311.862 566.187 316.375 566.187 326.207V355.944H559.095ZM615.477 336.764H581.952C582.677 345.79 587.271 351.512 595.733 351.512C601.615 351.512 606.451 348.53 607.821 342.889H614.671C613.381 352.076 605.484 356.911 595.733 356.911C582.355 356.911 575.021 348.208 575.021 334.347C575.021 320.485 582.677 311.862 595.249 311.862C608.627 311.862 615.477 320.647 615.477 336.039V336.764ZM582.032 331.365H608.465C607.66 322.903 603.147 317.262 595.249 317.262C587.351 317.262 582.838 322.903 582.032 331.365ZM622.556 334.347C622.556 319.277 631.501 311.862 641.978 311.862C648.425 311.862 653.582 315.328 655.758 318.551H655.839V298.404H662.931V345.468L663.173 355.944H656.081L655.839 349.497H655.758C654.066 353.366 648.747 356.911 641.817 356.911C630.212 356.911 622.556 348.611 622.556 334.347ZM656.564 334.347C656.564 324.434 651.568 317.423 643.187 317.423C634.725 317.423 629.648 324.434 629.648 334.347C629.648 344.259 634.725 351.351 643.187 351.351C651.568 351.351 656.564 344.259 656.564 334.347ZM184.209 436.944V379.404H202.986C219.023 379.404 230.708 388.752 230.708 408.174C230.708 427.596 219.023 436.944 202.986 436.944H184.209ZM202.18 385.69H191.623V430.658H202.18C215.074 430.658 223.294 423.003 223.294 408.174C223.294 393.346 215.074 385.69 202.18 385.69ZM239.969 387.382V379.404H247.705V387.382H239.969ZM240.291 436.944V393.829H247.383V436.944H240.291ZM259.333 400.438L259.172 393.829H266.263L266.425 400.599H266.666C268.278 396.892 273.194 392.862 280.528 392.862C290.037 392.862 296.001 398.826 296.001 408.497V436.944H288.909V409.302C288.909 402.614 285.363 398.423 278.755 398.423C271.26 398.423 266.425 404.064 266.425 412.042V436.944H259.333V400.438ZM307.021 387.382V379.404H314.758V387.382H307.021ZM307.343 436.944V393.829H314.435V436.944H307.343ZM326.385 400.438L326.224 393.829H333.316L333.477 400.599H333.719C335.33 396.892 340.246 392.862 347.58 392.862C357.089 392.862 363.053 398.826 363.053 408.497V436.944H355.961V409.302C355.961 402.614 352.415 398.423 345.807 398.423C338.312 398.423 333.477 404.064 333.477 412.042V436.944H326.385V400.438ZM372.059 414.702C372.059 400.518 381.487 392.862 391.48 392.862C398.572 392.862 403.327 396.328 405.261 399.954H405.342L405.583 393.829H412.756L412.514 404.306V433.56C412.514 446.051 402.843 452.337 391.561 452.337C381.246 452.337 375.604 448.791 374.234 440.248H381.326C382.374 445.003 385.92 447.098 391.964 447.098C399.539 447.098 405.342 442.183 405.342 433.56V428.966H405.261C403.246 432.995 397.766 436.541 391.319 436.541C379.473 436.541 372.059 428.885 372.059 414.702ZM406.147 414.702C406.147 404.79 400.829 398.423 392.689 398.423C384.469 398.423 379.15 404.79 379.15 414.702C379.15 424.614 384.469 430.981 392.689 430.981C400.829 430.981 406.147 424.614 406.147 414.702ZM484.753 419.457H492.168C491.039 431.625 481.772 438.314 467.991 438.314C449.697 438.314 441.155 425.42 441.155 408.174C441.155 390.928 449.697 378.034 467.991 378.034C481.852 378.034 490.717 383.917 491.845 396.086H484.431C483.222 387.463 476.13 384.32 467.991 384.32C455.419 384.32 448.569 393.668 448.569 408.174C448.569 422.6 455.419 432.028 467.991 432.028C476.13 432.028 483.545 428.321 484.753 419.457ZM500.701 379.404H507.793V400.599H508.035C509.646 396.892 514.482 392.862 521.896 392.862C531.325 392.862 537.369 398.826 537.369 408.497V436.944H530.277V409.302C530.277 402.614 526.731 398.423 520.123 398.423C512.628 398.423 507.793 404.064 507.793 412.042V436.944H500.701V379.404ZM565.397 398.423C559.353 398.423 555.243 400.76 554.679 405.676H547.587C547.99 396.892 554.84 392.862 565.397 392.862C577.647 392.862 583.127 398.181 583.127 407.207V426.79C583.127 431.384 583.127 432.431 583.53 436.944H576.438C576.116 433.56 576.035 432.351 576.035 429.772H575.793C573.617 433.721 568.621 437.911 560.24 437.911C551.778 437.911 545.975 433.076 545.975 424.614C545.975 415.669 552.584 411.881 561.61 410.753L576.035 408.9V407.207C576.035 401.002 572.167 398.423 565.397 398.423ZM553.067 424.614C553.067 429.45 556.452 432.351 562.013 432.351C567.815 432.351 576.277 427.918 576.277 416.958V414.299L562.818 416.072C556.452 416.878 553.067 419.698 553.067 424.614ZM594.59 387.382V379.404H602.326V387.382H594.59ZM594.912 436.944V393.829H602.004V436.944H594.912ZM613.954 400.438L613.793 393.829H620.884L621.045 400.599H621.287C622.254 397.134 626.203 393.024 632.973 393.024H634.907V399.31H631.522C624.753 399.31 621.045 404.467 621.045 412.607V436.944H613.954V400.438Z" fill="white"/>
<path d="M224.275 600.354L245.065 545.453H253.458L274.248 600.354H266.779L261.774 586.956H236.749L231.744 600.354H224.275ZM238.982 580.95H259.541L253.689 565.319C252.149 561.238 250.686 556.849 249.454 552.768H249.146C247.914 556.849 246.374 561.238 244.834 565.319L238.982 580.95ZM280.959 600.354V545.376H287.735V600.354H280.959ZM333.664 594.04L333.818 600.354H327.042L326.888 593.886H326.657C325.117 597.351 320.497 601.278 313.49 601.278C304.481 601.278 299.091 595.657 299.091 586.417V559.159H305.867V585.57C305.867 591.961 308.87 595.965 315.184 595.965C322.268 595.965 326.888 590.575 326.888 582.952V559.159H333.664V594.04ZM396.72 600.354V573.327C396.72 565.858 392.1 563.548 387.865 563.548C383.553 563.548 377.932 566.474 377.932 575.483V600.354H371.156V573.327C371.156 565.858 366.536 563.548 362.301 563.548C357.989 563.548 352.368 566.474 352.368 575.483V600.354H345.592V565.473L345.438 559.159H352.214L352.368 564.78H352.599C354.139 560.93 359.529 558.235 364.457 558.235C371.002 558.235 375.083 561.469 376.7 565.55H376.854C378.625 561.007 383.938 558.235 390.021 558.235C397.567 558.235 403.496 562.547 403.496 571.941V600.354H396.72ZM414.786 552.999V545.376H422.178V552.999H414.786ZM415.094 600.354V559.159H421.87V600.354H415.094ZM434.058 565.473L433.904 559.159H440.68L440.834 565.627H441.065C442.605 562.085 447.302 558.235 454.309 558.235C463.395 558.235 469.093 563.933 469.093 573.173V600.354H462.317V573.943C462.317 567.552 458.929 563.548 452.615 563.548C445.454 563.548 440.834 568.938 440.834 576.561V600.354H434.058V565.473ZM514.58 594.04L514.734 600.354H507.958L507.804 593.886H507.573C506.033 597.351 501.413 601.278 494.406 601.278C485.397 601.278 480.007 595.657 480.007 586.417V559.159H486.783V585.57C486.783 591.961 489.786 595.965 496.1 595.965C503.184 595.965 507.804 590.575 507.804 582.952V559.159H514.58V594.04ZM577.637 600.354V573.327C577.637 565.858 573.017 563.548 568.782 563.548C564.47 563.548 558.849 566.474 558.849 575.483V600.354H552.073V573.327C552.073 565.858 547.453 563.548 543.218 563.548C538.906 563.548 533.285 566.474 533.285 575.483V600.354H526.509V565.473L526.355 559.159H533.131L533.285 564.78H533.516C535.056 560.93 540.446 558.235 545.374 558.235C551.919 558.235 556 561.469 557.617 565.55H557.771C559.542 561.007 564.855 558.235 570.938 558.235C578.484 558.235 584.413 562.547 584.413 571.941V600.354H577.637Z" fill="white"/>
<path d="M236.026 721.185C236.026 715.025 231.021 712.33 225.4 712.33C219.933 712.33 214.851 714.409 214.004 721.262H207.151C208.075 710.713 215.313 706.478 225.4 706.478C235.872 706.478 242.956 711.791 242.956 720.261C242.956 727.807 238.105 731.888 234.255 733.197V733.351C239.568 734.814 245.112 738.972 245.112 747.904C245.112 758.222 236.411 764.074 225.4 764.074C213.234 764.074 205.996 759.223 205.688 748.058H212.541C213.234 755.142 217.931 758.222 225.4 758.222C232.946 758.222 238.182 754.372 238.182 747.134C238.182 740.358 233.331 736.662 225.939 736.662H221.396V730.502H225.477C231.406 730.502 236.026 727.191 236.026 721.185ZM267.5 707.787H272.505V762.765H265.729V722.879H252.485V717.874C262.264 717.104 265.267 715.718 267.5 707.787ZM285.34 752.678H294.118V762.765H285.34V752.678ZM322.771 764.074C312.992 764.074 304.984 760.224 303.675 749.444H310.528C311.76 756.066 316.842 758.222 322.771 758.222C330.471 758.222 336.323 752.447 336.323 744.67C336.323 736.893 331.857 731.041 323.464 731.041C318.074 731.041 314.147 733.428 312.068 737.509H304.984L309.835 707.787H341.02V713.639H315.533L312.761 729.732H313.069C315.071 727.345 319.691 725.189 324.619 725.189C335.861 725.189 343.253 733.197 343.253 744.67C343.253 756.143 334.552 764.074 322.771 764.074ZM354.075 707.864H361.159V731.349H389.726V707.864H396.81V762.765H389.726V737.355H361.159V762.765H354.075V707.864ZM434.204 728.038L424.964 715.872H429.969L436.822 725.266L443.675 715.872H448.68L439.363 728.038L449.142 740.666H444.137L436.822 730.81L429.43 740.666H424.502L434.204 728.038ZM487.723 707.787H492.728V762.765H485.952V722.879H472.708V717.874C482.487 717.104 485.49 715.718 487.723 707.787ZM501.79 713.639V707.787H537.21V712.946L513.417 762.765H505.948L529.51 713.639H501.79ZM563.167 762.765H554.697L540.683 707.787H547.767L555.313 738.202C556.699 743.438 558.085 749.444 559.086 754.757H559.394C560.472 749.444 561.935 743.438 563.244 738.202L570.636 707.787H579.106L586.498 738.202C587.807 743.438 589.27 749.444 590.348 754.757H590.656C591.657 749.444 593.043 743.438 594.429 738.202L601.975 707.787H609.059L595.045 762.765H586.575L579.029 732.812C577.72 727.499 576.257 721.955 575.025 716.18H574.717C573.485 721.955 572.022 727.499 570.713 732.812L563.167 762.765ZM227.007 805.038L217.767 792.872H222.772L229.625 802.266L236.478 792.872H241.483L232.166 805.038L241.945 817.666H236.94L229.625 807.81L222.233 817.666H217.305L227.007 805.038ZM284.993 783.478C295.157 783.478 302.549 789.022 302.549 798.493C302.549 806.424 298.853 811.66 292.154 817.666L274.598 833.605V833.913H303.704V839.765H266.128V832.989L287.611 813.046C292.77 808.195 295.696 804.345 295.696 798.878C295.696 792.718 291.153 789.33 284.993 789.33C278.91 789.33 273.52 792.795 272.981 800.341H266.128C266.898 788.637 275.06 783.478 284.993 783.478ZM330.128 783.478C340.292 783.478 347.684 789.022 347.684 798.493C347.684 806.424 343.988 811.66 337.289 817.666L319.733 833.605V833.913H348.839V839.765H311.263V832.989L332.746 813.046C337.905 808.195 340.831 804.345 340.831 798.878C340.831 792.718 336.288 789.33 330.128 789.33C324.045 789.33 318.655 792.795 318.116 800.341H311.263C312.033 788.637 320.195 783.478 330.128 783.478ZM358.015 829.678H366.793V839.765H358.015V829.678ZM372.683 790.639V784.787H408.103V789.946L384.31 839.765H376.841L400.403 790.639H372.683ZM433.212 841.074C423.433 841.074 415.425 837.224 414.116 826.444H420.969C422.201 833.066 427.283 835.222 433.212 835.222C440.912 835.222 446.764 829.447 446.764 821.67C446.764 813.893 442.298 808.041 433.905 808.041C428.515 808.041 424.588 810.428 422.509 814.509H415.425L420.276 784.787H451.461V790.639H425.974L423.202 806.732H423.51C425.512 804.345 430.132 802.189 435.06 802.189C446.302 802.189 453.694 810.197 453.694 821.67C453.694 833.143 444.993 841.074 433.212 841.074ZM464.516 839.765V784.787H482.457C497.78 784.787 508.945 793.719 508.945 812.276C508.945 830.833 497.78 839.765 482.457 839.765H464.516ZM481.687 790.793H471.6V833.759H481.687C494.007 833.759 501.861 826.444 501.861 812.276C501.861 798.108 494.007 790.793 481.687 790.793ZM537.606 792.41V784.787H544.998V792.41H537.606ZM537.914 839.765V798.57H544.69V839.765H537.914ZM556.877 804.884L556.723 798.57H563.499L563.653 805.038H563.884C565.424 801.496 570.121 797.646 577.128 797.646C586.214 797.646 591.912 803.344 591.912 812.584V839.765H585.136V813.354C585.136 806.963 581.748 802.959 575.434 802.959C568.273 802.959 563.653 808.349 563.653 815.972V839.765H556.877V804.884Z" fill="white"/>
<path d="M809.671 648.9L809.671 268.328L735.536 187.971L112.254 187.971" stroke="white" stroke-width="7.32623"/>
<path d="M3.77836 645.544L3.77834 268.327L77.9137 187.97L701.195 187.97" stroke="white" stroke-width="7.32623"/>
<path d="M3.68506 503.612L3.6851 873.382L77.8204 953.738L701.102 953.738" stroke="white" stroke-width="7.32623"/>
<path d="M809.574 482.191L809.574 873.383L735.438 953.739L112.157 953.739" stroke="white" stroke-width="7.32623"/>
<path d="M248.295 1031.08H253.295V1086H246.526V1046.16H233.295V1041.16C243.064 1040.39 246.064 1039 248.295 1031.08ZM283.119 1087.31C273.349 1087.31 265.349 1083.47 264.041 1072.7H270.888C272.118 1079.31 277.195 1081.47 283.119 1081.47C290.811 1081.47 296.658 1075.7 296.658 1067.93C296.658 1060.16 292.196 1054.31 283.811 1054.31C278.426 1054.31 274.503 1056.7 272.426 1060.77H265.349L270.195 1031.08H301.35V1036.93H275.888L273.118 1053H273.426C275.426 1050.62 280.042 1048.47 284.965 1048.47C296.196 1048.47 303.581 1056.47 303.581 1067.93C303.581 1079.39 294.888 1087.31 283.119 1087.31ZM352.245 1058.54C352.245 1074.31 346.321 1087.31 331.321 1087.31C316.32 1087.31 310.32 1074.31 310.32 1058.54C310.32 1042.77 316.32 1029.77 331.321 1029.77C346.321 1029.77 352.245 1042.77 352.245 1058.54ZM345.321 1058.54C345.321 1045.62 341.552 1035.62 331.321 1035.62C321.167 1035.62 317.244 1045.62 317.244 1058.54C317.244 1071.39 321.167 1081.47 331.321 1081.47C341.552 1081.47 345.321 1071.39 345.321 1058.54ZM401.976 1058.54C401.976 1074.31 396.052 1087.31 381.052 1087.31C366.051 1087.31 360.051 1074.31 360.051 1058.54C360.051 1042.77 366.051 1029.77 381.052 1029.77C396.052 1029.77 401.976 1042.77 401.976 1058.54ZM395.052 1058.54C395.052 1045.62 391.283 1035.62 381.052 1035.62C370.898 1035.62 366.975 1045.62 366.975 1058.54C366.975 1071.39 370.898 1081.47 381.052 1081.47C391.283 1081.47 395.052 1071.39 395.052 1058.54ZM430.499 1066V1031.08H437.576V1066.54C437.576 1075.24 443.114 1081.31 451.961 1081.31C460.884 1081.31 466.269 1075.16 466.269 1066.47V1031.08H473.346V1065.93C473.346 1079.62 464.731 1087.31 451.961 1087.31C439.268 1087.31 430.499 1079.7 430.499 1066ZM524.015 1045.77H516.938C516.169 1039.23 511.4 1035.46 503.63 1035.46C495.399 1035.46 490.245 1039.16 490.245 1045C490.245 1050.23 494.861 1052.54 501.861 1054L507.861 1055.23C517.861 1057.31 525.169 1060 525.169 1071.47C525.169 1081.24 515.554 1087.31 503.784 1087.31C490.399 1087.31 482.706 1081 482.399 1069.7H489.476C489.86 1077.24 495.014 1081.62 503.784 1081.62C512.323 1081.62 517.938 1077.7 518.015 1071.85C518.092 1065.24 513.553 1063.39 505.246 1061.7L499.245 1060.47C489.476 1058.47 483.168 1054.62 483.168 1045.54C483.168 1036.08 492.322 1029.77 503.63 1029.77C514.477 1029.77 523.169 1034.54 524.015 1045.77ZM535.084 1086V1031.08H553.007C568.315 1031.08 579.47 1040 579.47 1058.54C579.47 1077.08 568.315 1086 553.007 1086H535.084ZM552.238 1037.08H542.161V1080H552.238C564.546 1080 572.392 1072.7 572.392 1058.54C572.392 1044.39 564.546 1037.08 552.238 1037.08Z" fill="white"/>
<path d="M808.272 1059.96L734.271 979.745L112.116 979.745" stroke="white" stroke-width="7.36716"/>
<path d="M5.08486 1061.54L80.569 979.74L702.724 979.74" stroke="white" stroke-width="7.36716"/>
<path d="M808.265 1055L732.11 1137.53L109.956 1137.53" stroke="white" stroke-width="7.36716"/>
<path d="M6.56769 1057.32L80.5691 1137.53L702.724 1137.53" stroke="white" stroke-width="7.36716"/>
<path d="M127.81 1265.11C135.656 1265.11 140.349 1262.34 142.81 1259.57V1247.11H125.502V1241.11H149.656V1261.95C145.349 1266.8 137.656 1271.11 127.733 1271.11C110.117 1271.11 101.732 1258.8 101.732 1242.34C101.732 1225.87 109.194 1213.57 126.733 1213.57C140.272 1213.57 148.272 1219.18 149.349 1230.8H142.272C141.118 1222.57 134.502 1219.57 126.733 1219.57C114.809 1219.57 108.809 1228.49 108.809 1242.34C108.809 1256.18 115.502 1265.11 127.81 1265.11ZM160.861 1269.8V1214.87H195.862V1220.87H167.938V1238.57H194.324V1244.57H167.938V1263.8H195.862V1269.8H160.861ZM201.795 1242.34C201.795 1225.18 210.949 1213.57 227.873 1213.57C244.796 1213.57 254.027 1225.18 254.027 1242.34C254.027 1259.49 244.796 1271.11 227.873 1271.11C210.949 1271.11 201.795 1259.49 201.795 1242.34ZM208.872 1242.34C208.872 1255.49 215.257 1265.11 227.873 1265.11C240.489 1265.11 246.95 1255.49 246.95 1242.34C246.95 1229.18 240.489 1219.57 227.873 1219.57C215.257 1219.57 208.872 1229.18 208.872 1242.34ZM305.302 1230.57C305.302 1237.26 300.918 1242.34 296.148 1243.8V1244.11C301.071 1244.95 304.148 1249.18 304.995 1255.72L306.764 1269.8H299.379L297.687 1255.72C296.764 1248.49 292.764 1247.11 284.994 1247.11H271.532V1269.8H264.532V1214.87H287.071C299.225 1214.87 305.302 1221.64 305.302 1230.57ZM298.302 1230.95C298.302 1224.64 294.148 1220.87 286.456 1220.87H271.532V1241.11H286.302C293.994 1241.11 298.302 1237.26 298.302 1230.95ZM340.031 1265.11C347.877 1265.11 352.569 1262.34 355.031 1259.57V1247.11H337.723V1241.11H361.877V1261.95C357.57 1266.8 349.877 1271.11 339.954 1271.11C322.338 1271.11 313.953 1258.8 313.953 1242.34C313.953 1225.87 321.415 1213.57 338.954 1213.57C352.492 1213.57 360.493 1219.18 361.57 1230.8H354.493C353.339 1222.57 346.723 1219.57 338.954 1219.57C327.03 1219.57 321.03 1228.49 321.03 1242.34C321.03 1256.18 327.722 1265.11 340.031 1265.11ZM373.082 1269.8V1214.87H408.083V1220.87H380.159V1238.57H406.545V1244.57H380.159V1263.8H408.083V1269.8H373.082ZM455.566 1269.8V1214.87H473.49C488.798 1214.87 499.952 1223.8 499.952 1242.34C499.952 1260.88 488.798 1269.8 473.49 1269.8H455.566ZM472.721 1220.87H462.644V1263.8H472.721C485.029 1263.8 492.875 1256.49 492.875 1242.34C492.875 1228.18 485.029 1220.87 472.721 1220.87ZM502.513 1269.8L523.283 1214.95H531.668L552.438 1269.8H544.976L539.976 1256.41H514.975L509.975 1269.8H502.513ZM517.206 1250.41H537.745L531.899 1234.8C530.36 1230.72 528.899 1226.34 527.668 1222.26H527.36C526.129 1226.34 524.591 1230.72 523.052 1234.8L517.206 1250.41ZM570.227 1269.8L550.227 1214.87H557.688L568.997 1246.57C570.766 1251.64 572.92 1257.72 574.304 1262.41H574.612C575.997 1257.72 578.074 1251.64 579.843 1246.57L591.228 1214.87H598.613L578.612 1269.8H570.227ZM606.563 1214.87H613.64V1269.8H606.563V1214.87ZM627.597 1269.8V1214.87H662.598V1220.87H634.674V1238.57H661.059V1244.57H634.674V1263.8H662.598V1269.8H627.597ZM710.958 1229.57H703.88C703.111 1223.03 698.342 1219.26 690.572 1219.26C682.341 1219.26 677.187 1222.95 677.187 1228.8C677.187 1234.03 681.803 1236.34 688.803 1237.8L694.803 1239.03C704.804 1241.11 712.111 1243.8 712.111 1255.26C712.111 1265.03 702.496 1271.11 690.726 1271.11C677.341 1271.11 669.649 1264.8 669.341 1253.49H676.418C676.803 1261.03 681.957 1265.41 690.726 1265.41C699.265 1265.41 704.88 1261.49 704.957 1255.64C705.034 1249.03 700.496 1247.18 692.188 1245.49L686.188 1244.26C676.418 1242.26 670.11 1238.41 670.11 1229.34C670.11 1219.87 679.264 1213.57 690.572 1213.57C701.419 1213.57 710.111 1218.34 710.958 1229.57Z" fill="white"/>
<path d="M808.272 1243.75L734.271 1163.54L112.116 1163.54" stroke="white" stroke-width="7.36716"/>
<path d="M5.08486 1245.33L80.569 1163.53L702.724 1163.53" stroke="white" stroke-width="7.36716"/>
<path d="M808.265 1238.79L732.11 1321.33L109.956 1321.33" stroke="white" stroke-width="7.36716"/>
<path d="M6.56769 1241.12L80.5691 1321.33L702.724 1321.33" stroke="white" stroke-width="7.36716"/>
</svg>
