<svg width="814" height="1326" viewBox="0 0 814 1326" fill="none" xmlns="http://www.w3.org/2000/svg">
<path d="M269.166 105.97C277.012 105.97 281.704 103.2 284.166 100.431V87.9691H266.858V81.9689H291.012V102.816C286.705 107.662 279.012 111.97 269.089 111.97C251.473 111.97 243.088 99.6618 243.088 83.1997C243.088 66.7377 250.55 54.4297 268.089 54.4297C281.627 54.4297 289.628 60.0452 290.705 71.6609H283.628C282.474 63.4299 275.858 60.4298 268.089 60.4298C256.165 60.4298 250.165 69.3532 250.165 83.1997C250.165 97.0463 256.857 105.97 269.166 105.97ZM302.217 110.662V55.7374H320.141C335.449 55.7374 346.603 64.6607 346.603 83.1997C346.603 101.739 335.449 110.662 320.141 110.662H302.217ZM319.371 61.7376H309.294V104.662H319.371C331.679 104.662 339.526 97.354 339.526 83.1997C339.526 69.0455 331.679 61.7376 319.371 61.7376ZM354.597 92.8154V87.2768H376.597V92.8154H354.597ZM388.307 55.7374H395.384V104.662H421.616V110.662H388.307V55.7374ZM465.149 93.9693H472.226C471.149 105.585 462.302 111.97 449.148 111.97C431.686 111.97 423.532 99.6618 423.532 83.1997C423.532 66.7377 431.686 54.4297 449.148 54.4297C462.379 54.4297 470.841 60.0452 471.918 71.6609H464.841C463.687 63.4299 456.918 60.4298 449.148 60.4298C437.148 60.4298 430.609 69.3532 430.609 83.1997C430.609 96.9694 437.148 105.97 449.148 105.97C456.918 105.97 463.995 102.431 465.149 93.9693ZM492.756 55.7374H497.757V110.662H490.987V70.8148H477.756V65.8146C487.525 65.0454 490.526 63.6607 492.756 55.7374ZM509.349 92.8154V87.2768H531.349V92.8154H509.349ZM548.517 110.662V61.7376H530.901V55.7374H573.21V61.7376H555.594V110.662H548.517Z" fill="white"/>
<path d="M808.586 84.613L734.584 4.40168L112.43 4.40171" stroke="white" stroke-width="7.36716"/>
<path d="M5.39809 86.1951L80.8822 4.39667L703.037 4.39665" stroke="white" stroke-width="7.36716"/>
<path d="M808.578 79.6551L732.424 162.191L110.269 162.191" stroke="white" stroke-width="7.36716"/>
<path d="M6.88092 81.9787L80.8823 162.19L703.037 162.19" stroke="white" stroke-width="7.36716"/>
<path d="M152.177 298.626H174.58C186.427 298.626 193.599 303.3 193.599 313.615C193.599 320.868 188.764 324.817 185.137 326.106V326.429C189.973 327.235 195.614 331.506 195.614 340.129C195.614 350.766 187.555 356.166 176.112 356.166H152.177V298.626ZM159.591 323.527H175.709C181.753 323.527 186.185 320.143 186.185 314.179C186.185 308.296 181.753 304.911 175.709 304.911H159.591V323.527ZM188.2 339.806C188.2 333.52 183.848 329.813 176.917 329.813H159.591V349.88H176.917C183.848 349.88 188.2 346.092 188.2 339.806ZM205.501 319.659L205.34 313.051H212.432L212.593 319.82H212.835C213.802 316.355 217.751 312.245 224.52 312.245H226.454V318.531H223.069C216.3 318.531 212.593 323.689 212.593 331.828V356.166H205.501V319.659ZM248.866 317.644C242.822 317.644 238.712 319.982 238.148 324.897H231.056C231.459 316.113 238.309 312.084 248.866 312.084C261.115 312.084 266.595 317.403 266.595 326.429V346.012C266.595 350.605 266.595 351.653 266.998 356.166H259.907C259.584 352.781 259.504 351.572 259.504 348.993H259.262C257.086 352.942 252.09 357.133 243.708 357.133C235.247 357.133 229.444 352.298 229.444 343.836C229.444 334.89 236.052 331.103 245.078 329.975L259.504 328.121V326.429C259.504 320.223 255.635 317.644 248.866 317.644ZM236.536 343.836C236.536 348.671 239.921 351.572 245.481 351.572C251.284 351.572 259.745 347.14 259.745 336.18V333.52L246.287 335.293C239.921 336.099 236.536 338.92 236.536 343.836ZM278.059 298.626H285.15V332.231L304.572 313.051H313.115L292.323 333.279L313.517 356.166H304.572L285.15 334.729V356.166H278.059V298.626ZM355.137 336.986H321.612C322.337 346.012 326.931 351.733 335.393 351.733C341.276 351.733 346.111 348.752 347.481 343.11H354.331C353.042 352.298 345.144 357.133 335.393 357.133C322.015 357.133 314.682 348.429 314.682 334.568C314.682 320.707 322.337 312.084 334.909 312.084C348.287 312.084 355.137 320.868 355.137 336.26V336.986ZM321.693 331.586H348.126C347.32 323.124 342.807 317.483 334.909 317.483C327.012 317.483 322.499 323.124 321.693 331.586ZM385.128 298.626H421.473V304.911H392.542V324.253H419.862V330.539H392.542V356.166H385.128V298.626ZM447.459 357.133C434.404 357.133 426.829 348.349 426.829 334.568C426.829 320.787 434.404 312.084 447.459 312.084C460.515 312.084 468.09 320.787 468.09 334.568C468.09 348.349 460.515 357.133 447.459 357.133ZM447.459 351.572C456.485 351.572 460.998 344.48 460.998 334.568C460.998 324.656 456.485 317.644 447.459 317.644C438.514 317.644 433.92 324.656 433.92 334.568C433.92 344.48 438.514 351.572 447.459 351.572ZM477.487 319.659L477.326 313.051H484.418L484.579 319.82H484.821C485.788 316.355 489.737 312.245 496.506 312.245H498.44V318.531H495.056C488.286 318.531 484.579 323.689 484.579 331.828V356.166H477.487V319.659ZM559.409 356.166V327.879C559.409 320.062 554.573 317.644 550.141 317.644C545.628 317.644 539.745 320.707 539.745 330.136V356.166H532.653V327.879C532.653 320.062 527.818 317.644 523.386 317.644C518.873 317.644 512.99 320.707 512.99 330.136V356.166H505.898V319.659L505.737 313.051H512.829L512.99 318.934H513.231C514.843 314.904 520.484 312.084 525.642 312.084C532.492 312.084 536.763 315.469 538.456 319.74H538.617C540.47 314.985 546.031 312.084 552.398 312.084C560.295 312.084 566.5 316.597 566.5 326.429V356.166H559.409ZM615.79 336.986H582.266C582.991 346.012 587.584 351.733 596.046 351.733C601.929 351.733 606.765 348.752 608.135 343.11H614.985C613.695 352.298 605.797 357.133 596.046 357.133C582.669 357.133 575.335 348.429 575.335 334.568C575.335 320.707 582.991 312.084 595.563 312.084C608.94 312.084 615.79 320.868 615.79 336.26V336.986ZM582.346 331.586H608.779C607.973 323.124 603.46 317.483 595.563 317.483C587.665 317.483 583.152 323.124 582.346 331.586ZM622.87 334.568C622.87 319.498 631.815 312.084 642.291 312.084C648.739 312.084 653.896 315.549 656.072 318.773H656.153V298.626H663.244V345.689L663.486 356.166H656.394L656.153 349.719H656.072C654.38 353.587 649.061 357.133 642.13 357.133C630.526 357.133 622.87 348.832 622.87 334.568ZM656.878 334.568C656.878 324.656 651.881 317.644 643.5 317.644C635.038 317.644 629.961 324.656 629.961 334.568C629.961 344.48 635.038 351.572 643.5 351.572C651.881 351.572 656.878 344.48 656.878 334.568ZM163.588 379.626H171.002V430.88H198.483V437.166H163.588V379.626ZM222.772 438.133C209.716 438.133 202.141 429.349 202.141 415.568C202.141 401.787 209.716 393.084 222.772 393.084C235.827 393.084 243.402 401.787 243.402 415.568C243.402 429.349 235.827 438.133 222.772 438.133ZM222.772 432.572C231.798 432.572 236.311 425.48 236.311 415.568C236.311 405.656 231.798 398.644 222.772 398.644C213.826 398.644 209.233 405.656 209.233 415.568C209.233 425.48 213.826 432.572 222.772 432.572ZM288.42 430.558L288.581 437.166H281.489L281.328 430.396H281.086C279.475 434.023 274.639 438.133 267.306 438.133C257.877 438.133 252.236 432.25 252.236 422.579V394.051H259.327V421.693C259.327 428.382 262.47 432.572 269.079 432.572C276.493 432.572 281.328 426.931 281.328 418.953V394.051H288.42V430.558ZM300.098 400.659L299.937 394.051H307.029L307.19 400.82H307.432C309.044 397.113 313.959 393.084 321.293 393.084C330.802 393.084 336.766 399.047 336.766 408.718V437.166H329.674V409.524C329.674 402.835 326.128 398.644 319.52 398.644C312.025 398.644 307.19 404.286 307.19 412.264V437.166H300.098V400.659ZM345.772 414.923C345.772 400.74 355.201 393.084 365.194 393.084C372.285 393.084 377.04 396.549 378.974 400.176H379.055L379.297 394.051H386.469L386.227 404.527V433.781C386.227 446.272 376.557 452.558 365.274 452.558C354.959 452.558 349.318 449.012 347.948 440.47H355.039C356.087 445.225 359.633 447.32 365.677 447.32C373.252 447.32 379.055 442.404 379.055 433.781V429.188H378.974C376.96 433.217 371.479 436.763 365.032 436.763C353.186 436.763 345.772 429.107 345.772 414.923ZM379.861 414.923C379.861 405.011 374.542 398.644 366.402 398.644C358.182 398.644 352.864 405.011 352.864 414.923C352.864 424.836 358.182 431.202 366.402 431.202C374.542 431.202 379.861 424.836 379.861 414.923ZM436.119 417.986H402.594C403.32 427.012 407.913 432.733 416.375 432.733C422.258 432.733 427.093 429.752 428.463 424.11H435.313C434.024 433.298 426.126 438.133 416.375 438.133C402.997 438.133 395.664 429.429 395.664 415.568C395.664 401.707 403.32 393.084 415.891 393.084C429.269 393.084 436.119 401.868 436.119 417.26V417.986ZM402.675 412.586H429.108C428.302 404.124 423.789 398.483 415.891 398.483C407.994 398.483 403.481 404.124 402.675 412.586ZM506.001 419.678H513.415C512.287 431.847 503.019 438.536 489.239 438.536C470.945 438.536 462.403 425.642 462.403 408.396C462.403 391.15 470.945 378.256 489.239 378.256C503.1 378.256 511.965 384.139 513.093 396.307H505.679C504.47 387.684 497.378 384.541 489.239 384.541C476.667 384.541 469.817 393.89 469.817 408.396C469.817 422.821 476.667 432.25 489.239 432.25C497.378 432.25 504.792 428.543 506.001 419.678ZM521.949 379.626H529.041V400.82H529.282C530.894 397.113 535.73 393.084 543.144 393.084C552.573 393.084 558.617 399.047 558.617 408.718V437.166H551.525V409.524C551.525 402.835 547.979 398.644 541.371 398.644C533.876 398.644 529.041 404.286 529.041 412.264V437.166H521.949V379.626ZM586.645 398.644C580.601 398.644 576.491 400.982 575.927 405.897H568.835C569.238 397.113 576.088 393.084 586.645 393.084C598.895 393.084 604.375 398.403 604.375 407.429V427.012C604.375 431.605 604.375 432.653 604.778 437.166H597.686C597.363 433.781 597.283 432.572 597.283 429.993H597.041C594.865 433.942 589.869 438.133 581.487 438.133C573.026 438.133 567.223 433.298 567.223 424.836C567.223 415.89 573.832 412.103 582.857 410.975L597.283 409.121V407.429C597.283 401.223 593.415 398.644 586.645 398.644ZM574.315 424.836C574.315 429.671 577.7 432.572 583.26 432.572C589.063 432.572 597.525 428.14 597.525 417.18V414.52L584.066 416.293C577.7 417.099 574.315 419.92 574.315 424.836ZM615.838 387.604V379.626H623.574V387.604H615.838ZM616.16 437.166V394.051H623.252V437.166H616.16ZM635.202 400.659L635.04 394.051H642.132L642.293 400.82H642.535C643.502 397.355 647.451 393.245 654.22 393.245H656.155V399.531H652.77C646 399.531 642.293 404.689 642.293 412.828V437.166H635.202V400.659Z" fill="white"/>
<path d="M224.589 600.576L245.379 545.675H253.772L274.562 600.576H267.093L262.088 587.178H237.063L232.058 600.576H224.589ZM239.296 581.172H259.855L254.003 565.541C252.463 561.46 251 557.071 249.768 552.99H249.46C248.228 557.071 246.688 561.46 245.148 565.541L239.296 581.172ZM281.273 600.576V545.598H288.049V600.576H281.273ZM333.977 594.262L334.131 600.576H327.355L327.201 594.108H326.97C325.43 597.573 320.81 601.5 313.803 601.5C304.794 601.5 299.404 595.879 299.404 586.639V559.381H306.18V585.792C306.18 592.183 309.183 596.187 315.497 596.187C322.581 596.187 327.201 590.797 327.201 583.174V559.381H333.977V594.262ZM397.034 600.576V573.549C397.034 566.08 392.414 563.77 388.179 563.77C383.867 563.77 378.246 566.696 378.246 575.705V600.576H371.47V573.549C371.47 566.08 366.85 563.77 362.615 563.77C358.303 563.77 352.682 566.696 352.682 575.705V600.576H345.906V565.695L345.752 559.381H352.528L352.682 565.002H352.913C354.453 561.152 359.843 558.457 364.771 558.457C371.316 558.457 375.397 561.691 377.014 565.772H377.168C378.939 561.229 384.252 558.457 390.335 558.457C397.881 558.457 403.81 562.769 403.81 572.163V600.576H397.034ZM415.1 553.221V545.598H422.492V553.221H415.1ZM415.408 600.576V559.381H422.184V600.576H415.408ZM434.371 565.695L434.217 559.381H440.993L441.147 565.849H441.378C442.918 562.307 447.615 558.457 454.622 558.457C463.708 558.457 469.406 564.155 469.406 573.395V600.576H462.63V574.165C462.63 567.774 459.242 563.77 452.928 563.77C445.767 563.77 441.147 569.16 441.147 576.783V600.576H434.371V565.695ZM514.894 594.262L515.048 600.576H508.272L508.118 594.108H507.887C506.347 597.573 501.727 601.5 494.72 601.5C485.711 601.5 480.321 595.879 480.321 586.639V559.381H487.097V585.792C487.097 592.183 490.1 596.187 496.414 596.187C503.498 596.187 508.118 590.797 508.118 583.174V559.381H514.894V594.262ZM577.951 600.576V573.549C577.951 566.08 573.331 563.77 569.096 563.77C564.784 563.77 559.163 566.696 559.163 575.705V600.576H552.387V573.549C552.387 566.08 547.767 563.77 543.532 563.77C539.22 563.77 533.599 566.696 533.599 575.705V600.576H526.823V565.695L526.669 559.381H533.445L533.599 565.002H533.83C535.37 561.152 540.76 558.457 545.688 558.457C552.233 558.457 556.314 561.691 557.931 565.772H558.085C559.856 561.229 565.169 558.457 571.252 558.457C578.798 558.457 584.727 562.769 584.727 572.163V600.576H577.951Z" fill="white"/>
<path d="M139.039 721.406C139.039 715.246 134.034 712.551 128.413 712.551C122.946 712.551 117.864 714.63 117.017 721.483H110.164C111.088 710.934 118.326 706.699 128.413 706.699C138.885 706.699 145.969 712.012 145.969 720.482C145.969 728.028 141.118 732.109 137.268 733.418V733.572C142.581 735.035 148.125 739.193 148.125 748.125C148.125 758.443 139.424 764.295 128.413 764.295C116.247 764.295 109.009 759.444 108.701 748.279H115.554C116.247 755.363 120.944 758.443 128.413 758.443C135.959 758.443 141.195 754.593 141.195 747.355C141.195 740.579 136.344 736.883 128.952 736.883H124.409V730.723H128.49C134.419 730.723 139.039 727.412 139.039 721.406ZM185.527 721.406C185.527 715.246 180.522 712.551 174.901 712.551C169.434 712.551 164.352 714.63 163.505 721.483H156.652C157.576 710.934 164.814 706.699 174.901 706.699C185.373 706.699 192.457 712.012 192.457 720.482C192.457 728.028 187.606 732.109 183.756 733.418V733.572C189.069 735.035 194.613 739.193 194.613 748.125C194.613 758.443 185.912 764.295 174.901 764.295C162.735 764.295 155.497 759.444 155.189 748.279H162.042C162.735 755.363 167.432 758.443 174.901 758.443C182.447 758.443 187.683 754.593 187.683 747.355C187.683 740.579 182.832 736.883 175.44 736.883H170.897V730.723H174.978C180.907 730.723 185.527 727.412 185.527 721.406ZM203.091 752.899H211.869V762.986H203.091V752.899ZM239.983 706.699C250.147 706.699 257.539 712.243 257.539 721.714C257.539 729.645 253.843 734.881 247.144 740.887L229.588 756.826V757.134H258.694V762.986H221.118V756.21L242.601 736.267C247.76 731.416 250.686 727.566 250.686 722.099C250.686 715.939 246.143 712.551 239.983 712.551C233.9 712.551 228.51 716.016 227.971 723.562H221.118C221.888 711.858 230.05 706.699 239.983 706.699ZM285.657 764.295C275.878 764.295 267.87 760.445 266.561 749.665H273.414C274.646 756.287 279.728 758.443 285.657 758.443C293.357 758.443 299.209 752.668 299.209 744.891C299.209 737.114 294.743 731.262 286.35 731.262C280.96 731.262 277.033 733.649 274.954 737.73H267.87L272.721 708.008H303.906V713.86H278.419L275.647 729.953H275.955C277.957 727.566 282.577 725.41 287.505 725.41C298.747 725.41 306.139 733.418 306.139 744.891C306.139 756.364 297.438 764.295 285.657 764.295ZM316.961 708.085H324.045V731.57H352.612V708.085H359.696V762.986H352.612V737.576H324.045V762.986H316.961V708.085ZM397.09 728.259L387.85 716.093H392.855L399.708 725.487L406.561 716.093H411.566L402.249 728.259L412.028 740.887H407.023L399.708 731.031L392.316 740.887H387.388L397.09 728.259ZM455.075 706.699C465.239 706.699 472.631 712.243 472.631 721.714C472.631 729.645 468.935 734.881 462.236 740.887L444.68 756.826V757.134H473.786V762.986H436.21V756.21L457.693 736.267C462.852 731.416 465.778 727.566 465.778 722.099C465.778 715.939 461.235 712.551 455.075 712.551C448.992 712.551 443.602 716.016 443.063 723.562H436.21C436.98 711.858 445.142 706.699 455.075 706.699ZM501.673 764.295C489.738 764.295 481.576 758.52 481.576 748.356C481.576 739.424 487.274 734.958 492.51 733.649V733.495C486.966 731.493 483.655 727.258 483.655 721.021C483.655 711.242 492.587 706.699 501.596 706.699C510.528 706.699 519.537 711.242 519.537 721.021C519.537 727.258 516.149 731.493 510.605 733.495V733.649C515.841 734.958 521.539 739.424 521.539 748.356C521.539 758.52 513.531 764.295 501.673 764.295ZM490.585 721.637C490.585 727.335 495.59 730.723 501.596 730.723C507.525 730.723 512.684 727.335 512.684 721.637C512.684 715.862 507.525 712.551 501.596 712.551C495.59 712.551 490.585 715.862 490.585 721.637ZM488.506 747.509C488.506 754.747 494.666 758.443 501.596 758.443C508.526 758.443 514.609 754.747 514.609 747.509C514.609 740.348 508.526 736.575 501.596 736.575C494.666 736.575 488.506 740.348 488.506 747.509ZM530.203 752.899H538.981V762.986H530.203V752.899ZM567.095 706.699C577.259 706.699 584.651 712.243 584.651 721.714C584.651 729.645 580.955 734.881 574.256 740.887L556.7 756.826V757.134H585.806V762.986H548.23V756.21L569.713 736.267C574.872 731.416 577.798 727.566 577.798 722.099C577.798 715.939 573.255 712.551 567.095 712.551C561.012 712.551 555.622 716.016 555.083 723.562H548.23C549 711.858 557.162 706.699 567.095 706.699ZM612.769 764.295C602.99 764.295 594.982 760.445 593.673 749.665H600.526C601.758 756.287 606.84 758.443 612.769 758.443C620.469 758.443 626.321 752.668 626.321 744.891C626.321 737.114 621.855 731.262 613.462 731.262C608.072 731.262 604.145 733.649 602.066 737.73H594.982L599.833 708.008H631.018V713.86H605.531L602.759 729.953H603.067C605.069 727.566 609.689 725.41 614.617 725.41C625.859 725.41 633.251 733.418 633.251 744.891C633.251 756.364 624.55 764.295 612.769 764.295ZM660.782 762.986H652.312L638.298 708.008H645.382L652.928 738.423C654.314 743.659 655.7 749.665 656.701 754.978H657.009C658.087 749.665 659.55 743.659 660.859 738.423L668.251 708.008H676.721L684.113 738.423C685.422 743.659 686.885 749.665 687.963 754.978H688.271C689.272 749.665 690.658 743.659 692.044 738.423L699.59 708.008H706.674L692.66 762.986H684.19L676.644 733.033C675.335 727.72 673.872 722.176 672.64 716.401H672.332C671.1 722.176 669.637 727.72 668.328 733.033L660.782 762.986ZM226.147 805.259L216.907 793.093H221.912L228.765 802.487L235.618 793.093H240.623L231.306 805.259L241.085 817.887H236.08L228.765 808.031L221.373 817.887H216.445L226.147 805.259ZM294.681 798.406C294.681 792.246 289.676 789.551 284.055 789.551C278.588 789.551 273.506 791.63 272.659 798.483H265.806C266.73 787.934 273.968 783.699 284.055 783.699C294.527 783.699 301.611 789.012 301.611 797.482C301.611 805.028 296.76 809.109 292.91 810.418V810.572C298.223 812.035 303.767 816.193 303.767 825.125C303.767 835.443 295.066 841.295 284.055 841.295C271.889 841.295 264.651 836.444 264.343 825.279H271.196C271.889 832.363 276.586 835.443 284.055 835.443C291.601 835.443 296.837 831.593 296.837 824.355C296.837 817.579 291.986 813.883 284.594 813.883H280.051V807.723H284.132C290.061 807.723 294.681 804.412 294.681 798.406ZM341.17 798.406C341.17 792.246 336.165 789.551 330.544 789.551C325.077 789.551 319.995 791.63 319.148 798.483H312.295C313.219 787.934 320.457 783.699 330.544 783.699C341.016 783.699 348.1 789.012 348.1 797.482C348.1 805.028 343.249 809.109 339.399 810.418V810.572C344.712 812.035 350.256 816.193 350.256 825.125C350.256 835.443 341.555 841.295 330.544 841.295C318.378 841.295 311.14 836.444 310.832 825.279H317.685C318.378 832.363 323.075 835.443 330.544 835.443C338.09 835.443 343.326 831.593 343.326 824.355C343.326 817.579 338.475 813.883 331.083 813.883H326.54V807.723H330.621C336.55 807.723 341.17 804.412 341.17 798.406ZM358.733 829.899H367.511V839.986H358.733V829.899ZM373.401 790.86V785.008H408.821V790.167L385.028 839.986H377.559L401.121 790.86H373.401ZM433.931 841.295C424.152 841.295 416.144 837.445 414.835 826.665H421.688C422.92 833.287 428.002 835.443 433.931 835.443C441.631 835.443 447.483 829.668 447.483 821.891C447.483 814.114 443.017 808.262 434.624 808.262C429.234 808.262 425.307 810.649 423.228 814.73H416.144L420.995 785.008H452.18V790.86H426.693L423.921 806.953H424.229C426.231 804.566 430.851 802.41 435.779 802.41C447.021 802.41 454.413 810.418 454.413 821.891C454.413 833.364 445.712 841.295 433.931 841.295ZM465.234 839.986V785.008H483.175C498.498 785.008 509.663 793.94 509.663 812.497C509.663 831.054 498.498 839.986 483.175 839.986H465.234ZM482.405 791.014H472.318V833.98H482.405C494.725 833.98 502.579 826.665 502.579 812.497C502.579 798.329 494.725 791.014 482.405 791.014ZM538.324 792.631V785.008H545.716V792.631H538.324ZM538.632 839.986V798.791H545.408V839.986H538.632ZM557.596 805.105L557.442 798.791H564.218L564.372 805.259H564.603C566.143 801.717 570.84 797.867 577.847 797.867C586.933 797.867 592.631 803.565 592.631 812.805V839.986H585.855V813.575C585.855 807.184 582.467 803.18 576.153 803.18C568.992 803.18 564.372 808.57 564.372 816.193V839.986H557.596V805.105Z" fill="white"/>
<path d="M809.985 649.121L809.985 268.548L735.85 188.191L112.568 188.191" stroke="white" stroke-width="7.32623"/>
<path d="M4.09184 645.765L4.09182 268.547L78.2272 188.191L701.509 188.191" stroke="white" stroke-width="7.32623"/>
<path d="M3.99878 503.833L3.99882 873.603L78.1341 953.959L701.416 953.959" stroke="white" stroke-width="7.32623"/>
<path d="M809.888 482.413L809.888 873.604L735.752 953.961L112.471 953.961" stroke="white" stroke-width="7.32623"/>
<path d="M246.272 1029.99C256.426 1029.99 263.811 1035.53 263.811 1044.99C263.811 1052.92 260.118 1058.15 253.426 1064.15L235.887 1080.07V1080.38H264.965V1086.23H227.425V1079.46L248.887 1059.53C254.041 1054.69 256.964 1050.84 256.964 1045.38C256.964 1039.23 252.426 1035.84 246.272 1035.84C240.195 1035.84 234.81 1039.3 234.271 1046.84H227.425C228.194 1035.15 236.348 1029.99 246.272 1029.99ZM301.133 1044.69C301.133 1038.53 296.133 1035.84 290.517 1035.84C285.055 1035.84 279.978 1037.92 279.132 1044.76H272.286C273.209 1034.23 280.44 1029.99 290.517 1029.99C300.979 1029.99 308.056 1035.3 308.056 1043.76C308.056 1051.3 303.21 1055.38 299.363 1056.69V1056.84C304.671 1058.3 310.21 1062.46 310.21 1071.38C310.21 1081.69 301.517 1087.53 290.517 1087.53C278.363 1087.53 271.132 1082.69 270.824 1071.53H277.671C278.363 1078.61 283.055 1081.69 290.517 1081.69C298.056 1081.69 303.287 1077.84 303.287 1070.61C303.287 1063.84 298.44 1060.15 291.056 1060.15H286.517V1053.99H290.594C296.517 1053.99 301.133 1050.69 301.133 1044.69ZM359.357 1058.76C359.357 1074.53 353.434 1087.53 338.433 1087.53C323.433 1087.53 317.433 1074.53 317.433 1058.76C317.433 1042.99 323.433 1029.99 338.433 1029.99C353.434 1029.99 359.357 1042.99 359.357 1058.76ZM352.434 1058.76C352.434 1045.84 348.664 1035.84 338.433 1035.84C328.279 1035.84 324.356 1045.84 324.356 1058.76C324.356 1071.61 328.279 1081.69 338.433 1081.69C348.664 1081.69 352.434 1071.61 352.434 1058.76ZM409.088 1058.76C409.088 1074.53 403.165 1087.53 388.164 1087.53C373.164 1087.53 367.164 1074.53 367.164 1058.76C367.164 1042.99 373.164 1029.99 388.164 1029.99C403.165 1029.99 409.088 1042.99 409.088 1058.76ZM402.165 1058.76C402.165 1045.84 398.395 1035.84 388.164 1035.84C378.01 1035.84 374.087 1045.84 374.087 1058.76C374.087 1071.61 378.01 1081.69 388.164 1081.69C398.395 1081.69 402.165 1071.61 402.165 1058.76ZM437.611 1066.23V1031.3H444.688V1066.76C444.688 1075.46 450.227 1081.53 459.073 1081.53C467.997 1081.53 473.381 1075.38 473.381 1066.69V1031.3H480.458V1066.15C480.458 1079.84 471.843 1087.53 459.073 1087.53C446.38 1087.53 437.611 1079.92 437.611 1066.23ZM531.128 1045.99H524.051C523.281 1039.46 518.512 1035.69 510.742 1035.69C502.511 1035.69 497.357 1039.38 497.357 1045.23C497.357 1050.46 501.973 1052.76 508.973 1054.23L514.973 1055.46C524.974 1057.53 532.282 1060.23 532.282 1071.69C532.282 1081.46 522.666 1087.53 510.896 1087.53C497.511 1087.53 489.819 1081.23 489.511 1069.92H496.588C496.973 1077.46 502.127 1081.84 510.896 1081.84C519.435 1081.84 525.051 1077.92 525.127 1072.07C525.204 1065.46 520.666 1063.61 512.358 1061.92L506.358 1060.69C496.588 1058.69 490.28 1054.84 490.28 1045.76C490.28 1036.3 499.434 1029.99 510.742 1029.99C521.589 1029.99 530.281 1034.76 531.128 1045.99ZM542.196 1086.23V1031.3H560.12C575.428 1031.3 586.582 1040.23 586.582 1058.76C586.582 1077.3 575.428 1086.23 560.12 1086.23H542.196ZM559.35 1037.3H549.273V1080.23H559.35C571.658 1080.23 579.505 1072.92 579.505 1058.76C579.505 1044.61 571.658 1037.3 559.35 1037.3Z" fill="white"/>
<path d="M808.586 1060.18L734.584 979.966L112.43 979.966" stroke="white" stroke-width="7.36716"/>
<path d="M5.39833 1061.76L80.8825 979.961L703.037 979.961" stroke="white" stroke-width="7.36716"/>
<path d="M808.578 1055.22L732.424 1137.76L110.269 1137.76" stroke="white" stroke-width="7.36716"/>
<path d="M6.88117 1057.54L80.8825 1137.75L703.037 1137.75" stroke="white" stroke-width="7.36716"/>
<path d="M128.123 1265.33C135.97 1265.33 140.662 1262.56 143.124 1259.79V1247.33H125.816V1241.33H149.97V1262.17C145.662 1267.02 137.97 1271.33 128.046 1271.33C110.431 1271.33 102.046 1259.02 102.046 1242.56C102.046 1226.1 109.507 1213.79 127.046 1213.79C140.585 1213.79 148.586 1219.4 149.662 1231.02H142.585C141.431 1222.79 134.816 1219.79 127.046 1219.79C115.123 1219.79 109.123 1228.71 109.123 1242.56C109.123 1256.4 115.815 1265.33 128.123 1265.33ZM161.175 1270.02V1215.1H196.176V1221.1H168.252V1238.79H194.637V1244.79H168.252V1264.02H196.176V1270.02H161.175ZM202.109 1242.56C202.109 1225.4 211.263 1213.79 228.186 1213.79C245.11 1213.79 254.341 1225.4 254.341 1242.56C254.341 1259.71 245.11 1271.33 228.186 1271.33C211.263 1271.33 202.109 1259.71 202.109 1242.56ZM209.186 1242.56C209.186 1255.71 215.571 1265.33 228.186 1265.33C240.802 1265.33 247.264 1255.71 247.264 1242.56C247.264 1229.4 240.802 1219.79 228.186 1219.79C215.571 1219.79 209.186 1229.4 209.186 1242.56ZM305.616 1230.79C305.616 1237.48 301.231 1242.56 296.462 1244.02V1244.33C301.385 1245.17 304.462 1249.4 305.308 1255.94L307.078 1270.02H299.693L298 1255.94C297.077 1248.71 293.077 1247.33 285.308 1247.33H271.846V1270.02H264.846V1215.1H287.385C299.539 1215.1 305.616 1221.87 305.616 1230.79ZM298.616 1231.17C298.616 1224.87 294.462 1221.1 286.769 1221.1H271.846V1241.33H286.616C294.308 1241.33 298.616 1237.48 298.616 1231.17ZM340.344 1265.33C348.191 1265.33 352.883 1262.56 355.345 1259.79V1247.33H338.037V1241.33H362.191V1262.17C357.883 1267.02 350.191 1271.33 340.267 1271.33C322.651 1271.33 314.267 1259.02 314.267 1242.56C314.267 1226.1 321.728 1213.79 339.267 1213.79C352.806 1213.79 360.806 1219.4 361.883 1231.02H354.806C353.652 1222.79 347.037 1219.79 339.267 1219.79C327.344 1219.79 321.344 1228.71 321.344 1242.56C321.344 1256.4 328.036 1265.33 340.344 1265.33ZM373.396 1270.02V1215.1H408.397V1221.1H380.473V1238.79H406.858V1244.79H380.473V1264.02H408.397V1270.02H373.396ZM455.88 1270.02V1215.1H473.804C489.112 1215.1 500.266 1224.02 500.266 1242.56C500.266 1261.1 489.112 1270.02 473.804 1270.02H455.88ZM473.035 1221.1H462.957V1264.02H473.035C485.343 1264.02 493.189 1256.71 493.189 1242.56C493.189 1228.4 485.343 1221.1 473.035 1221.1ZM502.827 1270.02L523.597 1215.17H531.982L552.751 1270.02H545.29L540.29 1256.64H515.289L510.289 1270.02H502.827ZM517.52 1250.64H538.059L532.212 1235.02C530.674 1230.94 529.212 1226.56 527.981 1222.48H527.674C526.443 1226.56 524.904 1230.94 523.366 1235.02L517.52 1250.64ZM570.541 1270.02L550.54 1215.1H558.002L569.31 1246.79C571.08 1251.87 573.233 1257.94 574.618 1262.64H574.926C576.31 1257.94 578.387 1251.87 580.157 1246.79L591.542 1215.1H598.927L578.926 1270.02H570.541ZM606.876 1215.1H613.953V1270.02H606.876V1215.1ZM627.911 1270.02V1215.1H662.912V1221.1H634.988V1238.79H661.373V1244.79H634.988V1264.02H662.912V1270.02H627.911ZM711.271 1229.79H704.194C703.425 1223.25 698.655 1219.48 690.886 1219.48C682.655 1219.48 677.501 1223.17 677.501 1229.02C677.501 1234.25 682.117 1236.56 689.117 1238.02L695.117 1239.25C705.117 1241.33 712.425 1244.02 712.425 1255.48C712.425 1265.25 702.809 1271.33 691.04 1271.33C677.655 1271.33 669.962 1265.02 669.655 1253.71H676.732C677.116 1261.25 682.27 1265.64 691.04 1265.64C699.579 1265.64 705.194 1261.71 705.271 1255.87C705.348 1249.25 700.809 1247.4 692.501 1245.71L686.501 1244.48C676.732 1242.48 670.424 1238.63 670.424 1229.56C670.424 1220.1 679.578 1213.79 690.886 1213.79C701.733 1213.79 710.425 1218.56 711.271 1229.79Z" fill="white"/>
<path d="M808.586 1243.97L734.584 1163.76L112.43 1163.76" stroke="white" stroke-width="7.36716"/>
<path d="M5.39833 1245.55L80.8825 1163.75L703.037 1163.75" stroke="white" stroke-width="7.36716"/>
<path d="M808.578 1239.01L732.424 1321.55L110.269 1321.55" stroke="white" stroke-width="7.36716"/>
<path d="M6.88117 1241.34L80.8825 1321.55L703.037 1321.55" stroke="white" stroke-width="7.36716"/>
</svg>
