<svg width="814" height="1326" viewBox="0 0 814 1326" fill="none" xmlns="http://www.w3.org/2000/svg">
<path d="M288.208 106.218C296.054 106.218 300.747 103.448 303.208 100.679V88.2172H285.9V82.217H310.054V103.064C305.747 107.91 298.054 112.218 288.131 112.218C270.515 112.218 262.13 99.9098 262.13 83.4478C262.13 66.9858 269.592 54.6777 287.131 54.6777C300.67 54.6777 308.67 60.2933 309.747 71.909H302.67C301.516 63.678 294.9 60.6779 287.131 60.6779C275.207 60.6779 269.207 69.6012 269.207 83.4478C269.207 97.2944 275.9 106.218 288.208 106.218ZM321.259 110.91V55.9854H339.183C354.491 55.9854 365.645 64.9088 365.645 83.4478C365.645 101.987 354.491 110.91 339.183 110.91H321.259ZM338.414 61.9856H328.336V104.91H338.414C350.722 104.91 358.568 97.6021 358.568 83.4478C358.568 69.2935 350.722 61.9856 338.414 61.9856ZM373.639 93.0635V87.5248H395.639V93.0635H373.639ZM407.349 110.91V55.9854H425.273C440.581 55.9854 451.735 64.9088 451.735 83.4478C451.735 101.987 440.581 110.91 425.273 110.91H407.349ZM424.504 61.9856H414.427V104.91H424.504C436.812 104.91 444.658 97.6021 444.658 83.4478C444.658 69.2935 436.812 61.9856 424.504 61.9856ZM500.192 94.2173H507.269C506.192 105.833 497.346 112.218 484.191 112.218C466.729 112.218 458.575 99.9098 458.575 83.4478C458.575 66.9858 466.729 54.6777 484.191 54.6777C497.422 54.6777 505.884 60.2933 506.961 71.909H499.884C498.73 63.678 491.961 60.6779 484.191 60.6779C472.191 60.6779 465.652 69.6012 465.652 83.4478C465.652 97.2174 472.191 106.218 484.191 106.218C491.961 106.218 499.038 102.679 500.192 94.2173ZM542.8 69.3705C542.8 63.2164 537.8 60.524 532.184 60.524C526.723 60.524 521.646 62.601 520.799 69.4474H513.953C514.876 58.9086 522.107 54.6777 532.184 54.6777C542.646 54.6777 549.723 59.9856 549.723 68.4473C549.723 75.986 544.877 80.0631 541.031 81.3708V81.5247C546.339 82.9862 551.877 87.1402 551.877 96.0636C551.877 106.372 543.185 112.218 532.184 112.218C520.03 112.218 512.799 107.372 512.491 96.2174H519.338C520.03 103.295 524.723 106.372 532.184 106.372C539.723 106.372 544.954 102.525 544.954 95.2943C544.954 88.5249 540.108 84.8325 532.723 84.8325H528.184V78.6784H532.261C538.184 78.6784 542.8 75.3706 542.8 69.3705Z" fill="white"/>
<path d="M808.772 84.8613L734.771 4.64997L112.616 4.65" stroke="white" stroke-width="7.36716"/>
<path d="M5.58449 86.4433L81.0686 4.64497L703.223 4.64494" stroke="white" stroke-width="7.36716"/>
<path d="M808.765 79.9034L732.61 162.439L110.455 162.439" stroke="white" stroke-width="7.36716"/>
<path d="M7.06732 82.2265L81.0687 162.438L703.223 162.438" stroke="white" stroke-width="7.36716"/>
<path d="M152.363 298.874H174.767C186.613 298.874 193.786 303.548 193.786 313.863C193.786 321.116 188.95 325.065 185.324 326.355V326.677C190.159 327.483 195.8 331.754 195.8 340.377C195.8 351.015 187.741 356.414 176.298 356.414H152.363V298.874ZM159.777 323.776H175.895C181.939 323.776 186.371 320.391 186.371 314.427C186.371 308.544 181.939 305.16 175.895 305.16H159.777V323.776ZM188.386 340.055C188.386 333.769 184.034 330.062 177.104 330.062H159.777V350.128H177.104C184.034 350.128 188.386 346.341 188.386 340.055ZM205.687 319.907L205.526 313.299H212.618L212.779 320.069H213.021C213.988 316.603 217.937 312.493 224.706 312.493H226.64V318.779H223.256C216.486 318.779 212.779 323.937 212.779 332.076V356.414H205.687V319.907ZM249.052 317.893C243.008 317.893 238.898 320.23 238.334 325.146H231.242C231.645 316.362 238.495 312.332 249.052 312.332C261.302 312.332 266.782 317.651 266.782 326.677V346.26C266.782 350.853 266.782 351.901 267.185 356.414H260.093C259.771 353.029 259.69 351.821 259.69 349.242H259.448C257.272 353.191 252.276 357.381 243.895 357.381C235.433 357.381 229.63 352.546 229.63 344.084C229.63 335.139 236.239 331.351 245.265 330.223L259.69 328.369V326.677C259.69 320.472 255.822 317.893 249.052 317.893ZM236.722 344.084C236.722 348.919 240.107 351.821 245.668 351.821C251.47 351.821 259.932 347.388 259.932 336.428V333.769L246.473 335.542C240.107 336.348 236.722 339.168 236.722 344.084ZM278.245 298.874H285.337V332.479L304.758 313.299H313.301L292.509 333.527L313.704 356.414H304.758L285.337 334.978V356.414H278.245V298.874ZM355.323 337.234H321.798C322.524 346.26 327.117 351.982 335.579 351.982C341.462 351.982 346.297 349 347.667 343.359H354.517C353.228 352.546 345.33 357.381 335.579 357.381C322.201 357.381 314.868 348.678 314.868 334.816C314.868 320.955 322.524 312.332 335.096 312.332C348.473 312.332 355.323 321.116 355.323 336.509V337.234ZM321.879 331.835H348.312C347.506 323.373 342.993 317.732 335.096 317.732C327.198 317.732 322.685 323.373 321.879 331.835ZM385.314 298.874H421.66V305.16H392.728V324.501H420.048V330.787H392.728V356.414H385.314V298.874ZM447.646 357.381C434.59 357.381 427.015 348.597 427.015 334.816C427.015 321.036 434.59 312.332 447.646 312.332C460.701 312.332 468.276 321.036 468.276 334.816C468.276 348.597 460.701 357.381 447.646 357.381ZM447.646 351.821C456.672 351.821 461.184 344.729 461.184 334.816C461.184 324.904 456.672 317.893 447.646 317.893C438.7 317.893 434.107 324.904 434.107 334.816C434.107 344.729 438.7 351.821 447.646 351.821ZM477.674 319.907L477.512 313.299H484.604L484.765 320.069H485.007C485.974 316.603 489.923 312.493 496.693 312.493H498.627V318.779H495.242C488.472 318.779 484.765 323.937 484.765 332.076V356.414H477.674V319.907ZM559.595 356.414V328.128C559.595 320.31 554.76 317.893 550.327 317.893C545.814 317.893 539.931 320.955 539.931 330.384V356.414H532.84V328.128C532.84 320.31 528.004 317.893 523.572 317.893C519.059 317.893 513.176 320.955 513.176 330.384V356.414H506.084V319.907L505.923 313.299H513.015L513.176 319.182H513.418C515.03 315.153 520.671 312.332 525.828 312.332C532.678 312.332 536.95 315.717 538.642 319.988H538.803C540.657 315.233 546.217 312.332 552.584 312.332C560.481 312.332 566.687 316.845 566.687 326.677V356.414H559.595ZM615.977 337.234H582.452C583.177 346.26 587.771 351.982 596.233 351.982C602.115 351.982 606.951 349 608.321 343.359H615.171C613.881 352.546 605.984 357.381 596.233 357.381C582.855 357.381 575.521 348.678 575.521 334.816C575.521 320.955 583.177 312.332 595.749 312.332C609.127 312.332 615.977 321.116 615.977 336.509V337.234ZM582.532 331.835H608.965C608.16 323.373 603.647 317.732 595.749 317.732C587.851 317.732 583.338 323.373 582.532 331.835ZM623.056 334.816C623.056 319.746 632.001 312.332 642.478 312.332C648.925 312.332 654.082 315.797 656.258 319.021H656.339V298.874H663.431V345.938L663.673 356.414H656.581L656.339 349.967H656.258C654.566 353.835 649.247 357.381 642.317 357.381C630.712 357.381 623.056 349.081 623.056 334.816ZM657.064 334.816C657.064 324.904 652.068 317.893 643.687 317.893C635.225 317.893 630.148 324.904 630.148 334.816C630.148 344.729 635.225 351.821 643.687 351.821C652.068 351.821 657.064 344.729 657.064 334.816ZM184.709 437.414V379.874H203.486C219.523 379.874 231.208 389.222 231.208 408.644C231.208 428.066 219.523 437.414 203.486 437.414H184.709ZM202.68 386.16H192.123V431.128H202.68C215.574 431.128 223.794 423.472 223.794 408.644C223.794 393.816 215.574 386.16 202.68 386.16ZM240.469 387.852V379.874H248.205V387.852H240.469ZM240.791 437.414V394.299H247.883V437.414H240.791ZM259.833 400.907L259.672 394.299H266.763L266.925 401.069H267.166C268.778 397.362 273.694 393.332 281.028 393.332C290.537 393.332 296.501 399.296 296.501 408.966V437.414H289.409V409.772C289.409 403.083 285.863 398.893 279.255 398.893C271.76 398.893 266.925 404.534 266.925 412.512V437.414H259.833V400.907ZM307.521 387.852V379.874H315.258V387.852H307.521ZM307.843 437.414V394.299H314.935V437.414H307.843ZM326.885 400.907L326.724 394.299H333.816L333.977 401.069H334.219C335.83 397.362 340.746 393.332 348.08 393.332C357.589 393.332 363.553 399.296 363.553 408.966V437.414H356.461V409.772C356.461 403.083 352.915 398.893 346.307 398.893C338.812 398.893 333.977 404.534 333.977 412.512V437.414H326.885V400.907ZM372.559 415.172C372.559 400.988 381.987 393.332 391.98 393.332C399.072 393.332 403.827 396.797 405.761 400.424H405.842L406.083 394.299H413.256L413.014 404.776V434.029C413.014 446.521 403.343 452.806 392.061 452.806C381.746 452.806 376.104 449.261 374.734 440.718H381.826C382.874 445.473 386.42 447.568 392.464 447.568C400.039 447.568 405.842 442.652 405.842 434.029V429.436H405.761C403.746 433.465 398.266 437.011 391.819 437.011C379.973 437.011 372.559 429.355 372.559 415.172ZM406.647 415.172C406.647 405.259 401.329 398.893 393.189 398.893C384.969 398.893 379.65 405.259 379.65 415.172C379.65 425.084 384.969 431.451 393.189 431.451C401.329 431.451 406.647 425.084 406.647 415.172ZM485.253 419.926H492.668C491.539 432.095 482.272 438.784 468.491 438.784C450.197 438.784 441.655 425.89 441.655 408.644C441.655 391.398 450.197 378.504 468.491 378.504C482.352 378.504 491.217 384.387 492.345 396.556H484.931C483.722 387.933 476.63 384.79 468.491 384.79C455.919 384.79 449.069 394.138 449.069 408.644C449.069 423.069 455.919 432.498 468.491 432.498C476.63 432.498 484.045 428.791 485.253 419.926ZM501.201 379.874H508.293V401.069H508.535C510.146 397.362 514.982 393.332 522.396 393.332C531.825 393.332 537.869 399.296 537.869 408.966V437.414H530.777V409.772C530.777 403.083 527.231 398.893 520.623 398.893C513.128 398.893 508.293 404.534 508.293 412.512V437.414H501.201V379.874ZM565.897 398.893C559.853 398.893 555.743 401.23 555.179 406.146H548.087C548.49 397.362 555.34 393.332 565.897 393.332C578.147 393.332 583.627 398.651 583.627 407.677V427.26C583.627 431.853 583.627 432.901 584.03 437.414H576.938C576.616 434.029 576.535 432.821 576.535 430.242H576.293C574.117 434.191 569.121 438.381 560.74 438.381C552.278 438.381 546.475 433.546 546.475 425.084C546.475 416.139 553.084 412.351 562.11 411.223L576.535 409.369V407.677C576.535 401.472 572.667 398.893 565.897 398.893ZM553.567 425.084C553.567 429.919 556.952 432.821 562.513 432.821C568.315 432.821 576.777 428.388 576.777 417.428V414.769L563.318 416.542C556.952 417.348 553.567 420.168 553.567 425.084ZM595.09 387.852V379.874H602.826V387.852H595.09ZM595.412 437.414V394.299H602.504V437.414H595.412ZM614.454 400.907L614.293 394.299H621.384L621.545 401.069H621.787C622.754 397.603 626.703 393.493 633.473 393.493H635.407V399.779H632.022C625.253 399.779 621.545 404.937 621.545 413.076V437.414H614.454V400.907Z" fill="white"/>
<path d="M224.775 600.824L245.565 545.923H253.958L274.748 600.824H267.279L262.274 587.426H237.249L232.244 600.824H224.775ZM239.482 581.42H260.041L254.189 565.789C252.649 561.708 251.186 557.319 249.954 553.238H249.646C248.414 557.319 246.874 561.708 245.334 565.789L239.482 581.42ZM281.459 600.824V545.846H288.235V600.824H281.459ZM334.164 594.51L334.318 600.824H327.542L327.388 594.356H327.157C325.617 597.821 320.997 601.748 313.99 601.748C304.981 601.748 299.591 596.127 299.591 586.887V559.629H306.367V586.04C306.367 592.431 309.37 596.435 315.684 596.435C322.768 596.435 327.388 591.045 327.388 583.422V559.629H334.164V594.51ZM397.22 600.824V573.797C397.22 566.328 392.6 564.018 388.365 564.018C384.053 564.018 378.432 566.944 378.432 575.953V600.824H371.656V573.797C371.656 566.328 367.036 564.018 362.801 564.018C358.489 564.018 352.868 566.944 352.868 575.953V600.824H346.092V565.943L345.938 559.629H352.714L352.868 565.25H353.099C354.639 561.4 360.029 558.705 364.957 558.705C371.502 558.705 375.583 561.939 377.2 566.02H377.354C379.125 561.477 384.438 558.705 390.521 558.705C398.067 558.705 403.996 563.017 403.996 572.411V600.824H397.22ZM415.286 553.469V545.846H422.678V553.469H415.286ZM415.594 600.824V559.629H422.37V600.824H415.594ZM434.558 565.943L434.404 559.629H441.18L441.334 566.097H441.565C443.105 562.555 447.802 558.705 454.809 558.705C463.895 558.705 469.593 564.403 469.593 573.643V600.824H462.817V574.413C462.817 568.022 459.429 564.018 453.115 564.018C445.954 564.018 441.334 569.408 441.334 577.031V600.824H434.558V565.943ZM515.08 594.51L515.234 600.824H508.458L508.304 594.356H508.073C506.533 597.821 501.913 601.748 494.906 601.748C485.897 601.748 480.507 596.127 480.507 586.887V559.629H487.283V586.04C487.283 592.431 490.286 596.435 496.6 596.435C503.684 596.435 508.304 591.045 508.304 583.422V559.629H515.08V594.51ZM578.137 600.824V573.797C578.137 566.328 573.517 564.018 569.282 564.018C564.97 564.018 559.349 566.944 559.349 575.953V600.824H552.573V573.797C552.573 566.328 547.953 564.018 543.718 564.018C539.406 564.018 533.785 566.944 533.785 575.953V600.824H527.009V565.943L526.855 559.629H533.631L533.785 565.25H534.016C535.556 561.4 540.946 558.705 545.874 558.705C552.419 558.705 556.5 561.939 558.117 566.02H558.271C560.042 561.477 565.355 558.705 571.438 558.705C578.984 558.705 584.913 563.017 584.913 572.411V600.824H578.137Z" fill="white"/>
<path d="M191.754 706.947C201.918 706.947 209.31 712.491 209.31 721.962C209.31 729.893 205.614 735.129 198.915 741.135L181.359 757.074V757.382H210.465V763.234H172.889V756.458L194.372 736.515C199.531 731.664 202.457 727.814 202.457 722.347C202.457 716.187 197.914 712.799 191.754 712.799C185.671 712.799 180.281 716.264 179.742 723.81H172.889C173.659 712.106 181.821 706.947 191.754 706.947ZM258.218 744.677C258.218 755.996 250.287 764.543 238.429 764.543C225.339 764.543 218.563 755.226 218.563 738.44C218.563 716.957 227.803 706.947 239.892 706.947C248.516 706.947 255.6 711.336 256.601 720.807H249.748C248.747 714.955 244.974 712.799 239.892 712.799C232.423 712.799 226.186 719.498 226.032 732.357H226.34C228.419 729.354 232.885 726.351 239.661 726.351C249.748 726.351 258.218 733.358 258.218 744.677ZM225.801 745.293C225.801 752.685 230.652 758.691 238.429 758.691C246.283 758.691 251.365 752.685 251.365 745.293C251.365 737.901 246.283 732.203 238.429 732.203C230.652 732.203 225.801 737.901 225.801 745.293ZM269.333 708.333H276.417V731.818H304.984V708.333H312.068V763.234H304.984V737.824H276.417V763.234H269.333V708.333ZM349.462 728.507L340.222 716.341H345.227L352.08 725.735L358.933 716.341H363.938L354.621 728.507L364.4 741.135H359.395L352.08 731.279L344.688 741.135H339.76L349.462 728.507ZM402.981 708.256H407.986V763.234H401.21V723.348H387.966V718.343C397.745 717.573 400.748 716.187 402.981 708.256ZM418.974 726.813C418.974 715.494 426.828 706.947 438.686 706.947C451.853 706.947 458.706 716.264 458.706 733.05C458.706 754.533 449.697 764.543 437.377 764.543C428.753 764.543 421.669 760.077 420.591 750.683H427.521C428.522 756.535 432.295 759.076 437.377 759.076C445 759.076 451.083 751.761 451.237 738.825H450.929C449.004 741.982 444.23 745.139 437.454 745.139C427.444 745.139 418.974 738.517 418.974 726.813ZM451.468 726.043C451.468 718.574 446.54 712.799 438.686 712.799C430.909 712.799 425.904 718.574 425.904 726.043C425.904 733.512 430.909 739.287 438.686 739.287C446.54 739.287 451.468 732.896 451.468 726.043ZM467.311 753.147H476.089V763.234H467.311V753.147ZM504.203 706.947C514.367 706.947 521.759 712.491 521.759 721.962C521.759 729.893 518.063 735.129 511.364 741.135L493.808 757.074V757.382H522.914V763.234H485.338V756.458L506.821 736.515C511.98 731.664 514.906 727.814 514.906 722.347C514.906 716.187 510.363 712.799 504.203 712.799C498.12 712.799 492.73 716.264 492.191 723.81H485.338C486.108 712.106 494.27 706.947 504.203 706.947ZM549.877 764.543C540.098 764.543 532.09 760.693 530.781 749.913H537.634C538.866 756.535 543.948 758.691 549.877 758.691C557.577 758.691 563.429 752.916 563.429 745.139C563.429 737.362 558.963 731.51 550.57 731.51C545.18 731.51 541.253 733.897 539.174 737.978H532.09L536.941 708.256H568.126V714.108H542.639L539.867 730.201H540.175C542.177 727.814 546.797 725.658 551.725 725.658C562.967 725.658 570.359 733.666 570.359 745.139C570.359 756.612 561.658 764.543 549.877 764.543ZM597.889 763.234H589.419L575.405 708.256H582.489L590.035 738.671C591.421 743.907 592.807 749.913 593.808 755.226H594.116C595.194 749.913 596.657 743.907 597.966 738.671L605.358 708.256H613.828L621.22 738.671C622.529 743.907 623.992 749.913 625.07 755.226H625.378C626.379 749.913 627.765 743.907 629.151 738.671L636.697 708.256H643.781L629.767 763.234H621.297L613.751 733.281C612.442 727.968 610.979 722.424 609.747 716.649H609.439C608.207 722.424 606.744 727.968 605.435 733.281L597.889 763.234ZM276.703 805.507L267.463 793.341H272.468L279.321 802.735L286.174 793.341H291.179L281.862 805.507L291.641 818.135H286.636L279.321 808.279L271.929 818.135H267.001L276.703 805.507ZM334.688 783.947C344.852 783.947 352.244 789.491 352.244 798.962C352.244 806.893 348.548 812.129 341.849 818.135L324.293 834.074V834.382H353.399V840.234H315.823V833.458L337.306 813.515C342.465 808.664 345.391 804.814 345.391 799.347C345.391 793.187 340.848 789.799 334.688 789.799C328.605 789.799 323.215 793.264 322.676 800.81H315.823C316.593 789.106 324.755 783.947 334.688 783.947ZM403.386 812.745C403.386 828.53 397.457 841.543 382.442 841.543C367.427 841.543 361.421 828.53 361.421 812.745C361.421 796.96 367.427 783.947 382.442 783.947C397.457 783.947 403.386 796.96 403.386 812.745ZM396.456 812.745C396.456 799.809 392.683 789.799 382.442 789.799C372.278 789.799 368.351 799.809 368.351 812.745C368.351 825.604 372.278 835.691 382.442 835.691C392.683 835.691 396.456 825.604 396.456 812.745ZM415.05 840.234V785.256H432.991C448.314 785.256 459.479 794.188 459.479 812.745C459.479 831.302 448.314 840.234 432.991 840.234H415.05ZM432.221 791.262H422.134V834.228H432.221C444.541 834.228 452.395 826.913 452.395 812.745C452.395 798.577 444.541 791.262 432.221 791.262ZM488.14 792.879V785.256H495.532V792.879H488.14ZM488.448 840.234V799.039H495.224V840.234H488.448ZM507.411 805.353L507.257 799.039H514.033L514.187 805.507H514.418C515.958 801.965 520.655 798.115 527.662 798.115C536.748 798.115 542.446 803.813 542.446 813.053V840.234H535.67V813.823C535.67 807.432 532.282 803.428 525.968 803.428C518.807 803.428 514.187 808.818 514.187 816.441V840.234H507.411V805.353Z" fill="white"/>
<path d="M810.171 649.37L810.171 268.797L736.036 188.44L112.754 188.44" stroke="white" stroke-width="7.32623"/>
<path d="M4.27824 646.014L4.27822 268.796L78.4136 188.44L701.695 188.44" stroke="white" stroke-width="7.32623"/>
<path d="M4.18512 504.082L4.18516 873.851L78.3205 954.208L701.602 954.208" stroke="white" stroke-width="7.32623"/>
<path d="M810.074 482.661L810.074 873.852L735.939 954.209L112.657 954.209" stroke="white" stroke-width="7.32623"/>
<path d="M248.795 1031.55H253.795V1086.47H247.026V1046.63H233.795V1041.63C243.564 1040.86 246.564 1039.47 248.795 1031.55ZM283.619 1087.78C273.849 1087.78 265.849 1083.94 264.541 1073.17H271.388C272.618 1079.78 277.695 1081.94 283.619 1081.94C291.311 1081.94 297.158 1076.17 297.158 1068.4C297.158 1060.63 292.696 1054.78 284.311 1054.78C278.926 1054.78 275.003 1057.17 272.926 1061.24H265.849L270.695 1031.55H301.85V1037.4H276.388L273.618 1053.47H273.926C275.926 1051.09 280.542 1048.94 285.465 1048.94C296.696 1048.94 304.081 1056.94 304.081 1068.4C304.081 1079.86 295.388 1087.78 283.619 1087.78ZM352.745 1059.01C352.745 1074.78 346.821 1087.78 331.821 1087.78C316.82 1087.78 310.82 1074.78 310.82 1059.01C310.82 1043.24 316.82 1030.24 331.821 1030.24C346.821 1030.24 352.745 1043.24 352.745 1059.01ZM345.821 1059.01C345.821 1046.09 342.052 1036.09 331.821 1036.09C321.667 1036.09 317.744 1046.09 317.744 1059.01C317.744 1071.86 321.667 1081.94 331.821 1081.94C342.052 1081.94 345.821 1071.86 345.821 1059.01ZM402.476 1059.01C402.476 1074.78 396.552 1087.78 381.552 1087.78C366.552 1087.78 360.551 1074.78 360.551 1059.01C360.551 1043.24 366.552 1030.24 381.552 1030.24C396.552 1030.24 402.476 1043.24 402.476 1059.01ZM395.552 1059.01C395.552 1046.09 391.783 1036.09 381.552 1036.09C371.398 1036.09 367.475 1046.09 367.475 1059.01C367.475 1071.86 371.398 1081.94 381.552 1081.94C391.783 1081.94 395.552 1071.86 395.552 1059.01ZM430.999 1066.47V1031.55H438.076V1067.01C438.076 1075.71 443.615 1081.78 452.461 1081.78C461.384 1081.78 466.769 1075.63 466.769 1066.94V1031.55H473.846V1066.4C473.846 1080.09 465.231 1087.78 452.461 1087.78C439.768 1087.78 430.999 1080.17 430.999 1066.47ZM524.515 1046.24H517.438C516.669 1039.7 511.9 1035.93 504.13 1035.93C495.899 1035.93 490.745 1039.63 490.745 1045.47C490.745 1050.7 495.361 1053.01 502.361 1054.47L508.361 1055.7C518.361 1057.78 525.669 1060.47 525.669 1071.94C525.669 1081.71 516.054 1087.78 504.284 1087.78C490.899 1087.78 483.206 1081.47 482.899 1070.17H489.976C490.361 1077.71 495.515 1082.09 504.284 1082.09C512.823 1082.09 518.438 1078.17 518.515 1072.32C518.592 1065.7 514.054 1063.86 505.746 1062.17L499.745 1060.94C489.976 1058.94 483.668 1055.09 483.668 1046.01C483.668 1036.55 492.822 1030.24 504.13 1030.24C514.977 1030.24 523.669 1035.01 524.515 1046.24ZM535.584 1086.47V1031.55H553.507C568.815 1031.55 579.97 1040.47 579.97 1059.01C579.97 1077.55 568.815 1086.47 553.507 1086.47H535.584ZM552.738 1037.55H542.661V1080.47H552.738C565.046 1080.47 572.892 1073.17 572.892 1059.01C572.892 1044.86 565.046 1037.55 552.738 1037.55Z" fill="white"/>
<path d="M808.772 1060.43L734.771 980.214L112.616 980.214" stroke="white" stroke-width="7.36716"/>
<path d="M5.58461 1062.01L81.0688 980.209L703.223 980.209" stroke="white" stroke-width="7.36716"/>
<path d="M808.765 1055.47L732.61 1138L110.455 1138" stroke="white" stroke-width="7.36716"/>
<path d="M7.06745 1057.79L81.0688 1138L703.223 1138" stroke="white" stroke-width="7.36716"/>
<path d="M128.31 1265.58C136.156 1265.58 140.849 1262.81 143.31 1260.04V1247.58H126.002V1241.58H150.157V1262.42C145.849 1267.27 138.156 1271.58 128.233 1271.58C110.617 1271.58 102.232 1259.27 102.232 1242.81C102.232 1226.34 109.694 1214.04 127.233 1214.04C140.772 1214.04 148.772 1219.65 149.849 1231.27H142.772C141.618 1223.04 135.002 1220.04 127.233 1220.04C115.309 1220.04 109.309 1228.96 109.309 1242.81C109.309 1256.65 116.002 1265.58 128.31 1265.58ZM161.361 1270.27V1215.34H196.362V1221.34H168.438V1239.04H194.824V1245.04H168.438V1264.27H196.362V1270.27H161.361ZM202.295 1242.81C202.295 1225.65 211.449 1214.04 228.373 1214.04C245.296 1214.04 254.527 1225.65 254.527 1242.81C254.527 1259.96 245.296 1271.58 228.373 1271.58C211.449 1271.58 202.295 1259.96 202.295 1242.81ZM209.372 1242.81C209.372 1255.96 215.757 1265.58 228.373 1265.58C240.989 1265.58 247.45 1255.96 247.45 1242.81C247.45 1229.65 240.989 1220.04 228.373 1220.04C215.757 1220.04 209.372 1229.65 209.372 1242.81ZM305.802 1231.04C305.802 1237.73 301.418 1242.81 296.648 1244.27V1244.58C301.571 1245.42 304.649 1249.65 305.495 1256.19L307.264 1270.27H299.879L298.187 1256.19C297.264 1248.96 293.264 1247.58 285.494 1247.58H272.032V1270.27H265.032V1215.34H287.571C299.725 1215.34 305.802 1222.11 305.802 1231.04ZM298.802 1231.42C298.802 1225.11 294.648 1221.34 286.956 1221.34H272.032V1241.58H286.802C294.494 1241.58 298.802 1237.73 298.802 1231.42ZM340.531 1265.58C348.377 1265.58 353.069 1262.81 355.531 1260.04V1247.58H338.223V1241.58H362.377V1262.42C358.07 1267.27 350.377 1271.58 340.454 1271.58C322.838 1271.58 314.453 1259.27 314.453 1242.81C314.453 1226.34 321.915 1214.04 339.454 1214.04C352.992 1214.04 360.993 1219.65 362.07 1231.27H354.993C353.839 1223.04 347.223 1220.04 339.454 1220.04C327.53 1220.04 321.53 1228.96 321.53 1242.81C321.53 1256.65 328.223 1265.58 340.531 1265.58ZM373.582 1270.27V1215.34H408.583V1221.34H380.659V1239.04H407.045V1245.04H380.659V1264.27H408.583V1270.27H373.582ZM456.066 1270.27V1215.34H473.99C489.298 1215.34 500.452 1224.27 500.452 1242.81C500.452 1261.35 489.298 1270.27 473.99 1270.27H456.066ZM473.221 1221.34H463.144V1264.27H473.221C485.529 1264.27 493.375 1256.96 493.375 1242.81C493.375 1228.65 485.529 1221.34 473.221 1221.34ZM503.013 1270.27L523.783 1215.42H532.168L552.938 1270.27H545.476L540.476 1256.88H515.475L510.475 1270.27H503.013ZM517.706 1250.88H538.245L532.399 1235.27C530.86 1231.19 529.399 1226.81 528.168 1222.73H527.86C526.629 1226.81 525.091 1231.19 523.552 1235.27L517.706 1250.88ZM570.727 1270.27L550.727 1215.34H558.189L569.497 1247.04C571.266 1252.11 573.42 1258.19 574.804 1262.88H575.112C576.497 1258.19 578.574 1252.11 580.343 1247.04L591.728 1215.34H599.113L579.112 1270.27H570.727ZM607.063 1215.34H614.14V1270.27H607.063V1215.34ZM628.097 1270.27V1215.34H663.098V1221.34H635.174V1239.04H661.559V1245.04H635.174V1264.27H663.098V1270.27H628.097ZM711.458 1230.04H704.38C703.611 1223.5 698.842 1219.73 691.072 1219.73C682.841 1219.73 677.687 1223.42 677.687 1229.27C677.687 1234.5 682.303 1236.81 689.303 1238.27L695.303 1239.5C705.304 1241.58 712.611 1244.27 712.611 1255.73C712.611 1265.5 702.996 1271.58 691.226 1271.58C677.841 1271.58 670.149 1265.27 669.841 1253.96H676.918C677.303 1261.5 682.457 1265.88 691.226 1265.88C699.765 1265.88 705.38 1261.96 705.457 1256.11C705.534 1249.5 700.996 1247.65 692.688 1245.96L686.688 1244.73C676.918 1242.73 670.61 1238.88 670.61 1229.81C670.61 1220.34 679.764 1214.04 691.072 1214.04C701.919 1214.04 710.611 1218.81 711.458 1230.04Z" fill="white"/>
<path d="M808.772 1244.22L734.771 1164.01L112.616 1164.01" stroke="white" stroke-width="7.36716"/>
<path d="M5.58461 1245.8L81.0688 1164L703.223 1164" stroke="white" stroke-width="7.36716"/>
<path d="M808.765 1239.26L732.61 1321.8L110.455 1321.8" stroke="white" stroke-width="7.36716"/>
<path d="M7.06745 1241.58L81.0688 1321.8L703.223 1321.8" stroke="white" stroke-width="7.36716"/>
</svg>
