<svg width="814" height="2117" viewBox="0 0 814 2117" fill="none" xmlns="http://www.w3.org/2000/svg">
<path d="M292.039 105.748C299.885 105.748 304.578 102.979 307.039 100.209V87.7474H289.731V81.7473H313.886V102.594C309.578 107.44 301.885 111.748 291.962 111.748C274.346 111.748 265.961 99.4401 265.961 82.9781C265.961 66.516 273.423 54.208 290.962 54.208C304.501 54.208 312.501 59.8235 313.578 71.4393H306.501C305.347 63.2082 298.731 60.2082 290.962 60.2082C279.039 60.2082 273.038 69.1315 273.038 82.9781C273.038 96.8246 279.731 105.748 292.039 105.748ZM325.09 110.44V55.5157H343.014C358.322 55.5157 369.476 64.4391 369.476 82.9781C369.476 101.517 358.322 110.44 343.014 110.44H325.09ZM342.245 61.5159H332.168V104.44H342.245C354.553 104.44 362.399 97.1323 362.399 82.9781C362.399 68.8238 354.553 61.5159 342.245 61.5159ZM377.47 92.5937V87.0551H399.471V92.5937H377.47ZM448.566 70.2085H441.489C440.72 63.6698 435.951 59.9005 428.181 59.9005C419.95 59.9005 414.796 63.5929 414.796 69.4392C414.796 74.6701 419.412 76.9779 426.412 78.4395L432.412 79.6703C442.412 81.7473 449.72 84.4397 449.72 95.9015C449.72 105.671 440.105 111.748 428.335 111.748C414.95 111.748 407.257 105.44 406.95 94.1322H414.027C414.412 101.671 419.566 106.056 428.335 106.056C436.874 106.056 442.489 102.132 442.566 96.2862C442.643 89.6706 438.105 87.8244 429.797 86.132L423.796 84.9012C414.027 82.9011 407.719 79.0549 407.719 69.9777C407.719 60.5159 416.873 54.208 428.181 54.208C439.028 54.208 447.72 58.9774 448.566 70.2085ZM497.713 93.7476H504.79C503.713 105.363 494.866 111.748 481.712 111.748C464.25 111.748 456.096 99.4401 456.096 82.9781C456.096 66.516 464.25 54.208 481.712 54.208C494.943 54.208 503.405 59.8235 504.482 71.4393H497.405C496.251 63.2082 489.482 60.2082 481.712 60.2082C469.712 60.2082 463.173 69.1315 463.173 82.9781C463.173 96.7477 469.712 105.748 481.712 105.748C489.482 105.748 496.559 102.209 497.713 93.7476ZM529.782 54.208C539.936 54.208 547.321 59.7466 547.321 69.2084C547.321 77.1317 543.629 82.3627 536.936 88.3628L519.397 104.286V104.594H548.475V110.44H510.935V103.671L532.398 83.7473C537.552 78.901 540.475 75.0548 540.475 69.5931C540.475 63.439 535.936 60.0543 529.782 60.0543C523.705 60.0543 518.32 63.5159 517.782 71.0546H510.935C511.705 59.362 519.859 54.208 529.782 54.208Z" fill="white"/>
<path d="M808.772 84.3916L734.771 4.18025L112.616 4.18027" stroke="white" stroke-width="7.36716"/>
<path d="M5.58449 85.9736L81.0686 4.17524L703.223 4.17521" stroke="white" stroke-width="7.36716"/>
<path d="M808.765 79.4336L732.61 161.97L110.455 161.97" stroke="white" stroke-width="7.36716"/>
<path d="M7.06732 81.7568L81.0687 161.968L703.223 161.968" stroke="white" stroke-width="7.36716"/>
<path d="M152.363 298.404H174.767C186.613 298.404 193.786 303.078 193.786 313.394C193.786 320.647 188.95 324.595 185.324 325.885V326.207C190.159 327.013 195.8 331.284 195.8 339.907C195.8 350.545 187.741 355.944 176.298 355.944H152.363V298.404ZM159.777 323.306H175.895C181.939 323.306 186.371 319.921 186.371 313.958C186.371 308.075 181.939 304.69 175.895 304.69H159.777V323.306ZM188.386 339.585C188.386 333.299 184.034 329.592 177.104 329.592H159.777V349.658H177.104C184.034 349.658 188.386 345.871 188.386 339.585ZM205.687 319.438L205.526 312.829H212.618L212.779 319.599H213.021C213.988 316.134 217.937 312.024 224.706 312.024H226.64V318.31H223.256C216.486 318.31 212.779 323.467 212.779 331.607V355.944H205.687V319.438ZM249.052 317.423C243.008 317.423 238.898 319.76 238.334 324.676H231.242C231.645 315.892 238.495 311.862 249.052 311.862C261.302 311.862 266.782 317.181 266.782 326.207V345.79C266.782 350.384 266.782 351.431 267.185 355.944H260.093C259.771 352.56 259.69 351.351 259.69 348.772H259.448C257.272 352.721 252.276 356.911 243.895 356.911C235.433 356.911 229.63 352.076 229.63 343.614C229.63 334.669 236.239 330.881 245.265 329.753L259.69 327.9V326.207C259.69 320.002 255.822 317.423 249.052 317.423ZM236.722 343.614C236.722 348.45 240.107 351.351 245.668 351.351C251.47 351.351 259.932 346.918 259.932 335.958V333.299L246.473 335.072C240.107 335.878 236.722 338.698 236.722 343.614ZM278.245 298.404H285.337V332.01L304.758 312.829H313.301L292.509 333.057L313.704 355.944H304.758L285.337 334.508V355.944H278.245V298.404ZM355.323 336.764H321.798C322.524 345.79 327.117 351.512 335.579 351.512C341.462 351.512 346.297 348.53 347.667 342.889H354.517C353.228 352.076 345.33 356.911 335.579 356.911C322.201 356.911 314.868 348.208 314.868 334.347C314.868 320.485 322.524 311.862 335.096 311.862C348.473 311.862 355.323 320.647 355.323 336.039V336.764ZM321.879 331.365H348.312C347.506 322.903 342.993 317.262 335.096 317.262C327.198 317.262 322.685 322.903 321.879 331.365ZM385.314 298.404H421.66V304.69H392.728V324.031H420.048V330.317H392.728V355.944H385.314V298.404ZM447.646 356.911C434.59 356.911 427.015 348.127 427.015 334.347C427.015 320.566 434.59 311.862 447.646 311.862C460.701 311.862 468.276 320.566 468.276 334.347C468.276 348.127 460.701 356.911 447.646 356.911ZM447.646 351.351C456.672 351.351 461.184 344.259 461.184 334.347C461.184 324.434 456.672 317.423 447.646 317.423C438.7 317.423 434.107 324.434 434.107 334.347C434.107 344.259 438.7 351.351 447.646 351.351ZM477.674 319.438L477.512 312.829H484.604L484.765 319.599H485.007C485.974 316.134 489.923 312.024 496.693 312.024H498.627V318.31H495.242C488.472 318.31 484.765 323.467 484.765 331.607V355.944H477.674V319.438ZM559.595 355.944V327.658C559.595 319.841 554.76 317.423 550.327 317.423C545.814 317.423 539.931 320.485 539.931 329.914V355.944H532.84V327.658C532.84 319.841 528.004 317.423 523.572 317.423C519.059 317.423 513.176 320.485 513.176 329.914V355.944H506.084V319.438L505.923 312.829H513.015L513.176 318.712H513.418C515.03 314.683 520.671 311.862 525.828 311.862C532.678 311.862 536.95 315.247 538.642 319.518H538.803C540.657 314.764 546.217 311.862 552.584 311.862C560.481 311.862 566.687 316.375 566.687 326.207V355.944H559.595ZM615.977 336.764H582.452C583.177 345.79 587.771 351.512 596.233 351.512C602.115 351.512 606.951 348.53 608.321 342.889H615.171C613.881 352.076 605.984 356.911 596.233 356.911C582.855 356.911 575.521 348.208 575.521 334.347C575.521 320.485 583.177 311.862 595.749 311.862C609.127 311.862 615.977 320.647 615.977 336.039V336.764ZM582.532 331.365H608.965C608.16 322.903 603.647 317.262 595.749 317.262C587.851 317.262 583.338 322.903 582.532 331.365ZM623.056 334.347C623.056 319.277 632.001 311.862 642.478 311.862C648.925 311.862 654.082 315.328 656.258 318.551H656.339V298.404H663.431V345.468L663.673 355.944H656.581L656.339 349.497H656.258C654.566 353.366 649.247 356.911 642.317 356.911C630.712 356.911 623.056 348.611 623.056 334.347ZM657.064 334.347C657.064 324.434 652.068 317.423 643.687 317.423C635.225 317.423 630.148 324.434 630.148 334.347C630.148 344.259 635.225 351.351 643.687 351.351C652.068 351.351 657.064 344.259 657.064 334.347ZM212.581 394.797H205.167C204.361 387.947 199.365 383.998 191.225 383.998C182.602 383.998 177.203 387.866 177.203 393.991C177.203 399.471 182.038 401.888 189.372 403.42L195.658 404.709C206.134 406.885 213.79 409.705 213.79 421.713C213.79 431.948 203.717 438.314 191.386 438.314C177.364 438.314 169.305 431.706 168.983 419.86H176.397C176.8 427.757 182.199 432.351 191.386 432.351C200.332 432.351 206.215 428.241 206.295 422.116C206.376 415.185 201.621 413.251 192.918 411.478L186.632 410.189C176.397 408.094 169.789 404.064 169.789 394.555C169.789 384.642 179.379 378.034 191.225 378.034C202.588 378.034 211.695 383.031 212.581 394.797ZM222.565 436.944V379.404H229.657V436.944H222.565ZM241.138 387.382V379.404H248.874V387.382H241.138ZM241.46 436.944V393.829H248.552V436.944H241.46ZM300.957 415.427C300.957 430.497 291.609 437.911 281.294 437.911C274.927 437.911 269.77 434.527 267.755 431.223H267.674V451.37H260.582V404.306L260.341 393.829H267.432L267.674 400.277H267.755C269.85 396.489 275.411 392.862 281.697 392.862C293.301 392.862 300.957 401.163 300.957 415.427ZM266.949 415.427C266.949 425.34 271.865 432.351 280.327 432.351C288.788 432.351 293.865 425.34 293.865 415.427C293.865 405.515 288.788 398.423 280.327 398.423C271.865 398.423 266.949 405.515 266.949 415.427ZM350.774 415.427C350.774 430.497 341.426 437.911 331.111 437.911C324.744 437.911 319.586 434.527 317.572 431.223H317.491V451.37H310.399V404.306L310.158 393.829H317.249L317.491 400.277H317.572C319.667 396.489 325.228 392.862 331.513 392.862C343.118 392.862 350.774 401.163 350.774 415.427ZM316.766 415.427C316.766 425.34 321.682 432.351 330.143 432.351C338.605 432.351 343.682 425.34 343.682 415.427C343.682 405.515 338.605 398.423 330.143 398.423C321.682 398.423 316.766 405.515 316.766 415.427ZM398.254 417.764H364.729C365.454 426.79 370.048 432.512 378.51 432.512C384.393 432.512 389.228 429.53 390.598 423.889H397.448C396.159 433.076 388.261 437.911 378.51 437.911C365.132 437.911 357.799 429.208 357.799 415.347C357.799 401.485 365.454 392.862 378.026 392.862C391.404 392.862 398.254 401.647 398.254 417.039V417.764ZM364.81 412.365H391.243C390.437 403.903 385.924 398.262 378.026 398.262C370.129 398.262 365.616 403.903 364.81 412.365ZM407.67 400.438L407.509 393.829H414.601L414.762 400.599H415.004C415.971 397.134 419.92 393.024 426.689 393.024H428.623V399.31H425.239C418.469 399.31 414.762 404.467 414.762 412.607V436.944H407.67V400.438ZM496.547 419.457H503.961C502.833 431.625 493.565 438.314 479.784 438.314C461.491 438.314 452.948 425.42 452.948 408.174C452.948 390.928 461.491 378.034 479.784 378.034C493.646 378.034 502.51 383.917 503.639 396.086H496.224C495.016 387.463 487.924 384.32 479.784 384.32C467.213 384.32 460.363 393.668 460.363 408.174C460.363 422.6 467.213 432.028 479.784 432.028C487.924 432.028 495.338 428.321 496.547 419.457ZM512.494 379.404H519.586V400.599H519.828C521.44 396.892 526.275 392.862 533.689 392.862C543.118 392.862 549.162 398.826 549.162 408.497V436.944H542.07V409.302C542.07 402.614 538.525 398.423 531.916 398.423C524.422 398.423 519.586 404.064 519.586 412.042V436.944H512.494V379.404ZM577.191 398.423C571.147 398.423 567.037 400.76 566.472 405.676H559.381C559.784 396.892 566.634 392.862 577.191 392.862C589.44 392.862 594.92 398.181 594.92 407.207V426.79C594.92 431.384 594.92 432.431 595.323 436.944H588.231C587.909 433.56 587.828 432.351 587.828 429.772H587.587C585.411 433.721 580.414 437.911 572.033 437.911C563.571 437.911 557.769 433.076 557.769 424.614C557.769 415.669 564.377 411.881 573.403 410.753L587.828 408.9V407.207C587.828 401.002 583.96 398.423 577.191 398.423ZM564.861 424.614C564.861 429.45 568.245 432.351 573.806 432.351C579.608 432.351 588.07 427.918 588.07 416.958V414.299L574.612 416.072C568.245 416.878 564.861 419.698 564.861 424.614ZM606.383 387.382V379.404H614.12V387.382H606.383ZM606.706 436.944V393.829H613.797V436.944H606.706ZM625.747 400.438L625.586 393.829H632.678L632.839 400.599H633.081C634.048 397.134 637.997 393.024 644.766 393.024H646.7V399.31H643.315C636.546 399.31 632.839 404.467 632.839 412.607V436.944H625.747V400.438Z" fill="white"/>
<path d="M224.775 600.354L245.565 545.453H253.958L274.748 600.354H267.279L262.274 586.956H237.249L232.244 600.354H224.775ZM239.482 580.95H260.041L254.189 565.319C252.649 561.238 251.186 556.849 249.954 552.768H249.646C248.414 556.849 246.874 561.238 245.334 565.319L239.482 580.95ZM281.459 600.354V545.376H288.235V600.354H281.459ZM334.164 594.04L334.318 600.354H327.542L327.388 593.886H327.157C325.617 597.351 320.997 601.278 313.99 601.278C304.981 601.278 299.591 595.657 299.591 586.417V559.159H306.367V585.57C306.367 591.961 309.37 595.965 315.684 595.965C322.768 595.965 327.388 590.575 327.388 582.952V559.159H334.164V594.04ZM397.22 600.354V573.327C397.22 565.858 392.6 563.548 388.365 563.548C384.053 563.548 378.432 566.474 378.432 575.483V600.354H371.656V573.327C371.656 565.858 367.036 563.548 362.801 563.548C358.489 563.548 352.868 566.474 352.868 575.483V600.354H346.092V565.473L345.938 559.159H352.714L352.868 564.78H353.099C354.639 560.93 360.029 558.235 364.957 558.235C371.502 558.235 375.583 561.469 377.2 565.55H377.354C379.125 561.007 384.438 558.235 390.521 558.235C398.067 558.235 403.996 562.547 403.996 571.941V600.354H397.22ZM415.286 552.999V545.376H422.678V552.999H415.286ZM415.594 600.354V559.159H422.37V600.354H415.594ZM434.558 565.473L434.404 559.159H441.18L441.334 565.627H441.565C443.105 562.085 447.802 558.235 454.809 558.235C463.895 558.235 469.593 563.933 469.593 573.173V600.354H462.817V573.943C462.817 567.552 459.429 563.548 453.115 563.548C445.954 563.548 441.334 568.938 441.334 576.561V600.354H434.558V565.473ZM515.08 594.04L515.234 600.354H508.458L508.304 593.886H508.073C506.533 597.351 501.913 601.278 494.906 601.278C485.897 601.278 480.507 595.657 480.507 586.417V559.159H487.283V585.57C487.283 591.961 490.286 595.965 496.6 595.965C503.684 595.965 508.304 590.575 508.304 582.952V559.159H515.08V594.04ZM578.137 600.354V573.327C578.137 565.858 573.517 563.548 569.282 563.548C564.97 563.548 559.349 566.474 559.349 575.483V600.354H552.573V573.327C552.573 565.858 547.953 563.548 543.718 563.548C539.406 563.548 533.785 566.474 533.785 575.483V600.354H527.009V565.473L526.855 559.159H533.631L533.785 564.78H534.016C535.556 560.93 540.946 558.235 545.874 558.235C552.419 558.235 556.5 561.469 558.117 565.55H558.271C560.042 561.007 565.355 558.235 571.438 558.235C578.984 558.235 584.913 562.547 584.913 571.941V600.354H578.137Z" fill="white"/>
<path d="M131.872 706.478C142.036 706.478 149.428 712.022 149.428 721.493C149.428 729.424 145.732 734.66 139.033 740.666L121.477 756.605V756.913H150.583V762.765H113.007V755.989L134.49 736.046C139.649 731.195 142.575 727.345 142.575 721.878C142.575 715.718 138.032 712.33 131.872 712.33C125.789 712.33 120.399 715.795 119.86 723.341H113.007C113.777 711.637 121.939 706.478 131.872 706.478ZM198.336 744.208C198.336 755.527 190.405 764.074 178.547 764.074C165.457 764.074 158.681 754.757 158.681 737.971C158.681 716.488 167.921 706.478 180.01 706.478C188.634 706.478 195.718 710.867 196.719 720.338H189.866C188.865 714.486 185.092 712.33 180.01 712.33C172.541 712.33 166.304 719.029 166.15 731.888H166.458C168.537 728.885 173.003 725.882 179.779 725.882C189.866 725.882 198.336 732.889 198.336 744.208ZM165.919 744.824C165.919 752.216 170.77 758.222 178.547 758.222C186.401 758.222 191.483 752.216 191.483 744.824C191.483 737.432 186.401 731.734 178.547 731.734C170.77 731.734 165.919 737.432 165.919 744.824ZM207.526 752.678H216.304V762.765H207.526V752.678ZM222.194 713.639V707.787H257.614V712.946L233.821 762.765H226.352L249.914 713.639H222.194ZM282.723 764.074C272.944 764.074 264.936 760.224 263.627 749.444H270.48C271.712 756.066 276.794 758.222 282.723 758.222C290.423 758.222 296.275 752.447 296.275 744.67C296.275 736.893 291.809 731.041 283.416 731.041C278.026 731.041 274.099 733.428 272.02 737.509H264.936L269.787 707.787H300.972V713.639H275.485L272.713 729.732H273.021C275.023 727.345 279.643 725.189 284.571 725.189C295.813 725.189 303.205 733.197 303.205 744.67C303.205 756.143 294.504 764.074 282.723 764.074ZM314.027 707.864H321.111V731.349H349.678V707.864H356.762V762.765H349.678V737.355H321.111V762.765H314.027V707.864ZM394.155 728.038L384.915 715.872H389.92L396.773 725.266L403.626 715.872H408.631L399.314 728.038L409.093 740.666H404.088L396.773 730.81L389.381 740.666H384.453L394.155 728.038ZM452.14 706.478C462.304 706.478 469.696 712.022 469.696 721.493C469.696 729.424 466 734.66 459.301 740.666L441.745 756.605V756.913H470.851V762.765H433.275V755.989L454.758 736.046C459.917 731.195 462.843 727.345 462.843 721.878C462.843 715.718 458.3 712.33 452.14 712.33C446.057 712.33 440.667 715.795 440.128 723.341H433.275C434.045 711.637 442.207 706.478 452.14 706.478ZM497.815 764.074C488.036 764.074 480.028 760.224 478.719 749.444H485.572C486.804 756.066 491.886 758.222 497.815 758.222C505.515 758.222 511.367 752.447 511.367 744.67C511.367 736.893 506.901 731.041 498.508 731.041C493.118 731.041 489.191 733.428 487.112 737.509H480.028L484.879 707.787H516.064V713.639H490.577L487.805 729.732H488.113C490.115 727.345 494.735 725.189 499.663 725.189C510.905 725.189 518.297 733.197 518.297 744.67C518.297 756.143 509.596 764.074 497.815 764.074ZM527.193 752.678H535.971V762.765H527.193V752.678ZM564.085 706.478C574.249 706.478 581.641 712.022 581.641 721.493C581.641 729.424 577.945 734.66 571.246 740.666L553.69 756.605V756.913H582.796V762.765H545.22V755.989L566.703 736.046C571.862 731.195 574.788 727.345 574.788 721.878C574.788 715.718 570.245 712.33 564.085 712.33C558.002 712.33 552.612 715.795 552.073 723.341H545.22C545.99 711.637 554.152 706.478 564.085 706.478ZM609.76 764.074C599.981 764.074 591.973 760.224 590.664 749.444H597.517C598.749 756.066 603.831 758.222 609.76 758.222C617.46 758.222 623.312 752.447 623.312 744.67C623.312 736.893 618.846 731.041 610.453 731.041C605.063 731.041 601.136 733.428 599.057 737.509H591.973L596.824 707.787H628.009V713.639H602.522L599.75 729.732H600.058C602.06 727.345 606.68 725.189 611.608 725.189C622.85 725.189 630.242 733.197 630.242 744.67C630.242 756.143 621.541 764.074 609.76 764.074ZM657.772 762.765H649.302L635.288 707.787H642.372L649.918 738.202C651.304 743.438 652.69 749.444 653.691 754.757H653.999C655.077 749.444 656.54 743.438 657.849 738.202L665.241 707.787H673.711L681.103 738.202C682.412 743.438 683.875 749.444 684.953 754.757H685.261C686.262 749.444 687.648 743.438 689.034 738.202L696.58 707.787H703.664L689.65 762.765H681.18L673.634 732.812C672.325 727.499 670.862 721.955 669.63 716.18H669.322C668.09 721.955 666.627 727.499 665.318 732.812L657.772 762.765ZM226.831 805.038L217.591 792.872H222.596L229.449 802.266L236.302 792.872H241.307L231.99 805.038L241.769 817.666H236.764L229.449 807.81L222.057 817.666H217.129L226.831 805.038ZM284.816 783.478C294.98 783.478 302.372 789.022 302.372 798.493C302.372 806.424 298.676 811.66 291.977 817.666L274.421 833.605V833.913H303.527V839.765H265.951V832.989L287.434 813.046C292.593 808.195 295.519 804.345 295.519 798.878C295.519 792.718 290.976 789.33 284.816 789.33C278.733 789.33 273.343 792.795 272.804 800.341H265.951C266.721 788.637 274.883 783.478 284.816 783.478ZM310.855 803.344C310.855 792.025 318.709 783.478 330.567 783.478C343.734 783.478 350.587 792.795 350.587 809.581C350.587 831.064 341.578 841.074 329.258 841.074C320.634 841.074 313.55 836.608 312.472 827.214H319.402C320.403 833.066 324.176 835.607 329.258 835.607C336.881 835.607 342.964 828.292 343.118 815.356H342.81C340.885 818.513 336.111 821.67 329.335 821.67C319.325 821.67 310.855 815.048 310.855 803.344ZM343.349 802.574C343.349 795.105 338.421 789.33 330.567 789.33C322.79 789.33 317.785 795.105 317.785 802.574C317.785 810.043 322.79 815.818 330.567 815.818C338.421 815.818 343.349 809.427 343.349 802.574ZM359.192 829.678H367.97V839.765H359.192V829.678ZM373.86 790.639V784.787H409.28V789.946L385.487 839.765H378.018L401.58 790.639H373.86ZM434.389 841.074C424.61 841.074 416.602 837.224 415.293 826.444H422.146C423.378 833.066 428.46 835.222 434.389 835.222C442.089 835.222 447.941 829.447 447.941 821.67C447.941 813.893 443.475 808.041 435.082 808.041C429.692 808.041 425.765 810.428 423.686 814.509H416.602L421.453 784.787H452.638V790.639H427.151L424.379 806.732H424.687C426.689 804.345 431.309 802.189 436.237 802.189C447.479 802.189 454.871 810.197 454.871 821.67C454.871 833.143 446.17 841.074 434.389 841.074ZM465.692 839.765V784.787H483.633C498.956 784.787 510.121 793.719 510.121 812.276C510.121 830.833 498.956 839.765 483.633 839.765H465.692ZM482.863 790.793H472.776V833.759H482.863C495.183 833.759 503.037 826.444 503.037 812.276C503.037 798.108 495.183 790.793 482.863 790.793ZM538.782 792.41V784.787H546.174V792.41H538.782ZM539.09 839.765V798.57H545.866V839.765H539.09ZM558.054 804.884L557.9 798.57H564.676L564.83 805.038H565.061C566.601 801.496 571.298 797.646 578.305 797.646C587.391 797.646 593.089 803.344 593.089 812.584V839.765H586.313V813.354C586.313 806.963 582.925 802.959 576.611 802.959C569.45 802.959 564.83 808.349 564.83 815.972V839.765H558.054V804.884Z" fill="white"/>
<path d="M810.171 648.9L810.171 268.328L736.036 187.971L112.754 187.971" stroke="white" stroke-width="7.32623"/>
<path d="M4.27824 645.544L4.27822 268.327L78.4136 187.97L701.695 187.97" stroke="white" stroke-width="7.32623"/>
<path d="M4.18512 503.612L4.18516 873.382L78.3205 953.738L701.602 953.738" stroke="white" stroke-width="7.32623"/>
<path d="M810.074 482.191L810.074 873.383L735.939 953.739L112.657 953.739" stroke="white" stroke-width="7.32623"/>
<path d="M233.935 1250.58H270.281V1256.87H241.349V1276.21H268.669V1282.5H241.349V1308.12H233.935V1250.58ZM313.987 1301.52L314.148 1308.12H307.056L306.895 1301.35H306.653C305.041 1304.98 300.206 1309.09 292.873 1309.09C283.444 1309.09 277.803 1303.21 277.803 1293.54V1265.01H284.894V1292.65C284.894 1299.34 288.037 1303.53 294.646 1303.53C302.06 1303.53 306.895 1297.89 306.895 1289.91V1265.01H313.987V1301.52ZM325.504 1308.12V1250.58H332.596V1308.12H325.504ZM344.077 1308.12V1250.58H351.169V1308.12H344.077ZM361.764 1289.43V1283.63H384.812V1289.43H361.764ZM420.692 1303.21C428.912 1303.21 433.828 1300.31 436.407 1297.41V1284.35H418.275V1278.06H443.579V1299.9C439.066 1304.98 431.008 1309.49 420.612 1309.49C402.157 1309.49 393.373 1296.6 393.373 1279.35C393.373 1262.11 401.19 1249.21 419.564 1249.21C433.748 1249.21 442.129 1255.1 443.257 1267.27H435.843C434.634 1258.64 427.703 1255.5 419.564 1255.5C407.073 1255.5 400.787 1264.85 400.787 1279.35C400.787 1293.86 407.798 1303.21 420.692 1303.21ZM453.867 1271.62L453.706 1265.01H460.798L460.959 1271.78H461.201C462.168 1268.31 466.116 1264.2 472.886 1264.2H474.82V1270.49H471.435C464.666 1270.49 460.959 1275.65 460.959 1283.79V1308.12H453.867V1271.62ZM497.232 1269.6C491.188 1269.6 487.078 1271.94 486.513 1276.86H479.422C479.825 1268.07 486.675 1264.04 497.232 1264.04C509.481 1264.04 514.961 1269.36 514.961 1278.39V1297.97C514.961 1302.56 514.961 1303.61 515.364 1308.12H508.272C507.95 1304.74 507.869 1303.53 507.869 1300.95H507.628C505.452 1304.9 500.455 1309.09 492.074 1309.09C483.612 1309.09 477.81 1304.26 477.81 1295.79C477.81 1286.85 484.418 1283.06 493.444 1281.93L507.869 1280.08V1278.39C507.869 1272.18 504.001 1269.6 497.232 1269.6ZM484.902 1295.79C484.902 1300.63 488.286 1303.53 493.847 1303.53C499.649 1303.53 508.111 1299.1 508.111 1288.14V1285.48L494.653 1287.25C488.286 1288.06 484.902 1290.88 484.902 1295.79ZM526.424 1258.56V1250.58H534.161V1258.56H526.424ZM526.747 1308.12V1265.01H533.838V1308.12H526.747ZM545.788 1271.62L545.627 1265.01H552.719L552.88 1271.78H553.122C554.734 1268.07 559.649 1264.04 566.983 1264.04C576.492 1264.04 582.456 1270.01 582.456 1279.68V1308.12H575.364V1280.48C575.364 1273.79 571.818 1269.6 565.21 1269.6C557.715 1269.6 552.88 1275.24 552.88 1283.22V1308.12H545.788V1271.62ZM271.082 1331.58H278.496V1382.84H305.976V1389.12H271.082V1331.58ZM350.09 1369.94H316.565C317.29 1378.97 321.884 1384.69 330.346 1384.69C336.229 1384.69 341.064 1381.71 342.434 1376.07H349.284C347.994 1385.26 340.097 1390.09 330.346 1390.09C316.968 1390.09 309.634 1381.39 309.634 1367.53C309.634 1353.67 317.29 1345.04 329.862 1345.04C343.24 1345.04 350.09 1353.83 350.09 1369.22V1369.94ZM316.646 1364.54H343.079C342.273 1356.08 337.76 1350.44 329.862 1350.44C321.964 1350.44 317.451 1356.08 316.646 1364.54ZM376.349 1350.6C370.305 1350.6 366.195 1352.94 365.631 1357.86H358.539C358.942 1349.07 365.792 1345.04 376.349 1345.04C388.598 1345.04 394.079 1350.36 394.079 1359.39V1378.97C394.079 1383.56 394.079 1384.61 394.481 1389.12H387.39C387.067 1385.74 386.987 1384.53 386.987 1381.95H386.745C384.569 1385.9 379.573 1390.09 371.191 1390.09C362.73 1390.09 356.927 1385.26 356.927 1376.79C356.927 1367.85 363.535 1364.06 372.561 1362.93L386.987 1361.08V1359.39C386.987 1353.18 383.118 1350.6 376.349 1350.6ZM364.019 1376.79C364.019 1381.63 367.404 1384.53 372.964 1384.53C378.767 1384.53 387.228 1380.1 387.228 1369.14V1366.48L373.77 1368.25C367.404 1369.06 364.019 1371.88 364.019 1376.79ZM408.45 1346.01V1336.82H415.542V1346.01H423.923V1351.57H415.542V1379.45C415.542 1382.27 416.348 1383.56 418.927 1383.56H423.52V1389.12H416.912C410.868 1389.12 408.45 1386.22 408.45 1379.45V1351.57H401.52V1346.01H408.45ZM432.693 1331.58H439.785V1352.78H440.027C441.638 1349.07 446.474 1345.04 453.888 1345.04C463.317 1345.04 469.361 1351.01 469.361 1360.68V1389.12H462.269V1361.48C462.269 1354.79 458.723 1350.6 452.115 1350.6C444.62 1350.6 439.785 1356.24 439.785 1364.22V1389.12H432.693V1331.58ZM518.665 1369.94H485.14C485.865 1378.97 490.459 1384.69 498.92 1384.69C504.803 1384.69 509.639 1381.71 511.009 1376.07H517.859C516.569 1385.26 508.672 1390.09 498.92 1390.09C485.543 1390.09 478.209 1381.39 478.209 1367.53C478.209 1353.67 485.865 1345.04 498.437 1345.04C511.815 1345.04 518.665 1353.83 518.665 1369.22V1369.94ZM485.22 1364.54H511.653C510.847 1356.08 506.334 1350.44 498.437 1350.44C490.539 1350.44 486.026 1356.08 485.22 1364.54ZM528.081 1352.62L527.92 1346.01H535.011L535.173 1352.78H535.414C536.381 1349.31 540.33 1345.2 547.1 1345.2H549.034V1351.49H545.649C538.88 1351.49 535.173 1356.65 535.173 1364.79V1389.12H528.081V1352.62ZM279.414 1452.64H286.828C285.7 1464.81 276.433 1471.49 262.652 1471.49C244.358 1471.49 235.816 1458.6 235.816 1441.35C235.816 1424.11 244.358 1411.21 262.652 1411.21C276.513 1411.21 285.378 1417.1 286.506 1429.27H279.092C277.883 1420.64 270.791 1417.5 262.652 1417.5C250.08 1417.5 243.23 1426.85 243.23 1441.35C243.23 1455.78 250.08 1465.21 262.652 1465.21C270.791 1465.21 278.205 1461.5 279.414 1452.64ZM331.143 1463.52L331.304 1470.12H324.213L324.052 1463.35H323.81C322.198 1466.98 317.363 1471.09 310.029 1471.09C300.6 1471.09 294.959 1465.21 294.959 1455.54V1427.01H302.051V1454.65C302.051 1461.34 305.194 1465.53 311.802 1465.53C319.216 1465.53 324.052 1459.89 324.052 1451.91V1427.01H331.143V1463.52ZM357.166 1431.28C351.848 1431.28 347.415 1433.38 347.415 1437.81C347.415 1441.84 350.155 1443.37 356.199 1444.66L360.148 1445.46C369.255 1447.32 374.977 1449.41 374.977 1458.12C374.977 1465.29 368.368 1471.09 357.569 1471.09C346.045 1471.09 340.162 1466.34 339.759 1457.15H346.851C347.254 1462.79 350.719 1465.85 357.569 1465.85C364.016 1465.85 368.126 1463.11 368.126 1458.68C368.126 1454.49 365.225 1452.96 358.859 1451.59L354.91 1450.86C345.723 1449.01 340.565 1446.43 340.565 1438.45C340.565 1431.36 347.657 1426.04 357.166 1426.04C366.676 1426.04 373.848 1430.23 374.171 1438.86H367.079C366.756 1434.02 362.808 1431.28 357.166 1431.28ZM383.742 1412.58H390.834V1433.78H391.075C392.687 1430.07 397.522 1426.04 404.937 1426.04C414.365 1426.04 420.41 1432.01 420.41 1441.68V1470.12H413.318V1442.48C413.318 1435.79 409.772 1431.6 403.164 1431.6C395.669 1431.6 390.834 1437.24 390.834 1445.22V1470.12H383.742V1412.58ZM431.434 1420.56V1412.58H439.17V1420.56H431.434ZM431.756 1470.12V1427.01H438.848V1470.12H431.756ZM469.091 1471.09C456.036 1471.09 448.461 1462.31 448.461 1448.53C448.461 1434.75 456.036 1426.04 469.091 1426.04C482.147 1426.04 489.722 1434.75 489.722 1448.53C489.722 1462.31 482.147 1471.09 469.091 1471.09ZM469.091 1465.53C478.117 1465.53 482.63 1458.44 482.63 1448.53C482.63 1438.61 478.117 1431.6 469.091 1431.6C460.146 1431.6 455.552 1438.61 455.552 1448.53C455.552 1458.44 460.146 1465.53 469.091 1465.53ZM499.119 1433.62L498.958 1427.01H506.05L506.211 1433.78H506.453C508.065 1430.07 512.981 1426.04 520.314 1426.04C529.824 1426.04 535.787 1432.01 535.787 1441.68V1470.12H528.695V1442.48C528.695 1435.79 525.149 1431.6 518.541 1431.6C511.046 1431.6 506.211 1437.24 506.211 1445.22V1470.12H499.119V1433.62ZM561.313 1431.28C555.995 1431.28 551.562 1433.38 551.562 1437.81C551.562 1441.84 554.302 1443.37 560.346 1444.66L564.295 1445.46C573.402 1447.32 579.124 1449.41 579.124 1458.12C579.124 1465.29 572.515 1471.09 561.716 1471.09C550.192 1471.09 544.309 1466.34 543.906 1457.15H550.998C551.401 1462.79 554.866 1465.85 561.716 1465.85C568.163 1465.85 572.274 1463.11 572.274 1458.68C572.274 1454.49 569.372 1452.96 563.006 1451.59L559.057 1450.86C549.87 1449.01 544.712 1446.43 544.712 1438.45C544.712 1431.36 551.804 1426.04 561.313 1426.04C570.823 1426.04 577.995 1430.23 578.318 1438.86H571.226C570.903 1434.02 566.955 1431.28 561.313 1431.28Z" fill="white"/>
<path d="M810.171 1440.67L810.171 1060.1L736.036 979.74L112.754 979.74" stroke="white" stroke-width="7.32623"/>
<path d="M4.27824 1437.31L4.27822 1060.1L78.4136 979.74L701.695 979.739" stroke="white" stroke-width="7.32623"/>
<path d="M4.18512 1295.38L4.18516 1665.15L78.3205 1745.51L701.602 1745.51" stroke="white" stroke-width="7.32623"/>
<path d="M810.074 1273.96L810.074 1665.15L735.939 1745.51L112.657 1745.51" stroke="white" stroke-width="7.32623"/>
<path d="M244.204 1821.54C254.359 1821.54 261.743 1827.08 261.743 1836.54C261.743 1844.47 258.051 1849.7 251.358 1855.7L233.819 1871.62V1871.93H262.897V1877.77H225.358V1871L246.82 1851.08C251.974 1846.24 254.897 1842.39 254.897 1836.93C254.897 1830.77 250.358 1827.39 244.204 1827.39C238.127 1827.39 232.743 1830.85 232.204 1838.39H225.358C226.127 1826.7 234.281 1821.54 244.204 1821.54ZM312.066 1850.31C312.066 1866.08 306.143 1879.08 291.142 1879.08C276.142 1879.08 270.141 1866.08 270.141 1850.31C270.141 1834.54 276.142 1821.54 291.142 1821.54C306.143 1821.54 312.066 1834.54 312.066 1850.31ZM305.143 1850.31C305.143 1837.39 301.373 1827.39 291.142 1827.39C280.988 1827.39 277.065 1837.39 277.065 1850.31C277.065 1863.16 280.988 1873.24 291.142 1873.24C301.373 1873.24 305.143 1863.16 305.143 1850.31ZM361.797 1850.31C361.797 1866.08 355.874 1879.08 340.873 1879.08C325.873 1879.08 319.873 1866.08 319.873 1850.31C319.873 1834.54 325.873 1821.54 340.873 1821.54C355.874 1821.54 361.797 1834.54 361.797 1850.31ZM354.874 1850.31C354.874 1837.39 351.104 1827.39 340.873 1827.39C330.719 1827.39 326.796 1837.39 326.796 1850.31C326.796 1863.16 330.719 1873.24 340.873 1873.24C351.104 1873.24 354.874 1863.16 354.874 1850.31ZM411.528 1850.31C411.528 1866.08 405.605 1879.08 390.604 1879.08C375.604 1879.08 369.604 1866.08 369.604 1850.31C369.604 1834.54 375.604 1821.54 390.604 1821.54C405.605 1821.54 411.528 1834.54 411.528 1850.31ZM404.605 1850.31C404.605 1837.39 400.835 1827.39 390.604 1827.39C380.45 1827.39 376.527 1837.39 376.527 1850.31C376.527 1863.16 380.45 1873.24 390.604 1873.24C400.835 1873.24 404.605 1863.16 404.605 1850.31ZM440.051 1857.77V1822.85H447.128V1858.31C447.128 1867 452.667 1873.08 461.513 1873.08C470.436 1873.08 475.821 1866.93 475.821 1858.24V1822.85H482.898V1857.7C482.898 1871.39 474.283 1879.08 461.513 1879.08C448.82 1879.08 440.051 1871.47 440.051 1857.77ZM533.568 1837.54H526.49C525.721 1831 520.952 1827.23 513.182 1827.23C504.951 1827.23 499.797 1830.93 499.797 1836.77C499.797 1842 504.413 1844.31 511.413 1845.77L517.413 1847C527.414 1849.08 534.721 1851.77 534.721 1863.24C534.721 1873.01 525.106 1879.08 513.336 1879.08C499.951 1879.08 492.259 1872.77 491.951 1861.47H499.028C499.413 1869 504.567 1873.39 513.336 1873.39C521.875 1873.39 527.491 1869.47 527.567 1863.62C527.644 1857 523.106 1855.16 514.798 1853.47L508.798 1852.24C499.028 1850.24 492.72 1846.39 492.72 1837.31C492.72 1827.85 501.874 1821.54 513.182 1821.54C524.029 1821.54 532.721 1826.31 533.568 1837.54ZM544.636 1877.77V1822.85H562.559C577.868 1822.85 589.022 1831.77 589.022 1850.31C589.022 1868.85 577.868 1877.77 562.559 1877.77H544.636ZM561.79 1828.85H551.713V1871.77H561.79C574.098 1871.77 581.945 1864.47 581.945 1850.31C581.945 1836.16 574.098 1828.85 561.79 1828.85Z" fill="white"/>
<path d="M808.772 1851.73L734.771 1771.51L112.616 1771.51" stroke="white" stroke-width="7.36716"/>
<path d="M5.58461 1853.31L81.0688 1771.51L703.223 1771.51" stroke="white" stroke-width="7.36716"/>
<path d="M808.765 1846.77L732.61 1929.3L110.455 1929.3" stroke="white" stroke-width="7.36716"/>
<path d="M7.06745 1849.09L81.0688 1929.3L703.223 1929.3" stroke="white" stroke-width="7.36716"/>
<path d="M128.31 2056.88C136.156 2056.88 140.849 2054.11 143.31 2051.34V2038.88H126.002V2032.88H150.157V2053.72C145.849 2058.57 138.156 2062.88 128.233 2062.88C110.617 2062.88 102.232 2050.57 102.232 2034.11C102.232 2017.64 109.694 2005.34 127.233 2005.34C140.772 2005.34 148.772 2010.95 149.849 2022.57H142.772C141.618 2014.34 135.002 2011.34 127.233 2011.34C115.309 2011.34 109.309 2020.26 109.309 2034.11C109.309 2047.95 116.002 2056.88 128.31 2056.88ZM161.361 2061.57V2006.64H196.362V2012.64H168.438V2030.34H194.824V2036.34H168.438V2055.57H196.362V2061.57H161.361ZM202.295 2034.11C202.295 2016.95 211.449 2005.34 228.373 2005.34C245.296 2005.34 254.527 2016.95 254.527 2034.11C254.527 2051.26 245.296 2062.88 228.373 2062.88C211.449 2062.88 202.295 2051.26 202.295 2034.11ZM209.372 2034.11C209.372 2047.26 215.757 2056.88 228.373 2056.88C240.989 2056.88 247.45 2047.26 247.45 2034.11C247.45 2020.95 240.989 2011.34 228.373 2011.34C215.757 2011.34 209.372 2020.95 209.372 2034.11ZM305.802 2022.34C305.802 2029.03 301.418 2034.11 296.648 2035.57V2035.88C301.571 2036.72 304.649 2040.95 305.495 2047.49L307.264 2061.57H299.879L298.187 2047.49C297.264 2040.26 293.264 2038.88 285.494 2038.88H272.032V2061.57H265.032V2006.64H287.571C299.725 2006.64 305.802 2013.41 305.802 2022.34ZM298.802 2022.72C298.802 2016.41 294.648 2012.64 286.956 2012.64H272.032V2032.88H286.802C294.494 2032.88 298.802 2029.03 298.802 2022.72ZM340.531 2056.88C348.377 2056.88 353.069 2054.11 355.531 2051.34V2038.88H338.223V2032.88H362.377V2053.72C358.07 2058.57 350.377 2062.88 340.454 2062.88C322.838 2062.88 314.453 2050.57 314.453 2034.11C314.453 2017.64 321.915 2005.34 339.454 2005.34C352.992 2005.34 360.993 2010.95 362.07 2022.57H354.993C353.839 2014.34 347.223 2011.34 339.454 2011.34C327.53 2011.34 321.53 2020.26 321.53 2034.11C321.53 2047.95 328.223 2056.88 340.531 2056.88ZM373.582 2061.57V2006.64H408.583V2012.64H380.659V2030.34H407.045V2036.34H380.659V2055.57H408.583V2061.57H373.582ZM456.066 2061.57V2006.64H473.99C489.298 2006.64 500.452 2015.57 500.452 2034.11C500.452 2052.65 489.298 2061.57 473.99 2061.57H456.066ZM473.221 2012.64H463.144V2055.57H473.221C485.529 2055.57 493.375 2048.26 493.375 2034.11C493.375 2019.95 485.529 2012.64 473.221 2012.64ZM503.013 2061.57L523.783 2006.72H532.168L552.938 2061.57H545.476L540.476 2048.18H515.475L510.475 2061.57H503.013ZM517.706 2042.18H538.245L532.399 2026.57C530.86 2022.49 529.399 2018.11 528.168 2014.03H527.86C526.629 2018.11 525.091 2022.49 523.552 2026.57L517.706 2042.18ZM570.727 2061.57L550.727 2006.64H558.189L569.497 2038.34C571.266 2043.41 573.42 2049.49 574.804 2054.18H575.112C576.497 2049.49 578.574 2043.41 580.343 2038.34L591.728 2006.64H599.113L579.112 2061.57H570.727ZM607.063 2006.64H614.14V2061.57H607.063V2006.64ZM628.097 2061.57V2006.64H663.098V2012.64H635.174V2030.34H661.559V2036.34H635.174V2055.57H663.098V2061.57H628.097ZM711.458 2021.34H704.38C703.611 2014.8 698.842 2011.03 691.072 2011.03C682.841 2011.03 677.687 2014.72 677.687 2020.57C677.687 2025.8 682.303 2028.11 689.303 2029.57L695.303 2030.8C705.304 2032.88 712.611 2035.57 712.611 2047.03C712.611 2056.8 702.996 2062.88 691.226 2062.88C677.841 2062.88 670.149 2056.57 669.841 2045.26H676.918C677.303 2052.8 682.457 2057.18 691.226 2057.18C699.765 2057.18 705.38 2053.26 705.457 2047.41C705.534 2040.8 700.996 2038.95 692.688 2037.26L686.688 2036.03C676.918 2034.03 670.61 2030.18 670.61 2021.11C670.61 2011.64 679.764 2005.34 691.072 2005.34C701.919 2005.34 710.611 2010.11 711.458 2021.34Z" fill="white"/>
<path d="M808.772 2035.52L734.771 1955.31L112.616 1955.31" stroke="white" stroke-width="7.36716"/>
<path d="M5.58461 2037.1L81.0688 1955.3L703.223 1955.3" stroke="white" stroke-width="7.36716"/>
<path d="M808.765 2030.56L732.61 2113.1L110.455 2113.1" stroke="white" stroke-width="7.36716"/>
<path d="M7.06745 2032.88L81.0688 2113.1L703.223 2113.1" stroke="white" stroke-width="7.36716"/>
</svg>
