<svg width="814" height="1326" viewBox="0 0 814 1326" fill="none" xmlns="http://www.w3.org/2000/svg">
<path d="M299.103 105.97C306.95 105.97 311.642 103.2 314.104 100.431V87.9691H296.796V81.9689H320.95V102.816C316.642 107.662 308.95 111.97 299.026 111.97C281.41 111.97 273.026 99.6618 273.026 83.1997C273.026 66.7377 280.487 54.4297 298.026 54.4297C311.565 54.4297 319.565 60.0452 320.642 71.6609H313.565C312.411 63.4299 305.796 60.4298 298.026 60.4298C286.103 60.4298 280.103 69.3532 280.103 83.1997C280.103 97.0463 286.795 105.97 299.103 105.97ZM332.155 110.662V55.7374H350.078C365.387 55.7374 376.541 64.6607 376.541 83.1997C376.541 101.739 365.387 110.662 350.078 110.662H332.155ZM349.309 61.7376H339.232V104.662H349.309C361.617 104.662 369.464 97.354 369.464 83.1997C369.464 69.0455 361.617 61.7376 349.309 61.7376ZM384.534 92.8154V87.2768H406.535V92.8154H384.534ZM455.631 70.4301H448.554C447.784 63.8915 443.015 60.1221 435.246 60.1221C427.015 60.1221 421.861 63.8146 421.861 69.6609C421.861 74.8918 426.476 77.1996 433.476 78.6612L439.476 79.892C449.477 81.9689 456.785 84.6613 456.785 96.1232C456.785 105.893 447.169 111.97 435.399 111.97C422.014 111.97 414.322 105.662 414.014 94.3539H421.091C421.476 101.893 426.63 106.277 435.399 106.277C443.938 106.277 449.554 102.354 449.631 96.5078C449.708 89.8923 445.169 88.046 436.861 86.3537L430.861 85.1229C421.091 83.1228 414.783 79.2766 414.783 70.1994C414.783 60.7375 423.938 54.4297 435.246 54.4297C446.092 54.4297 454.785 59.199 455.631 70.4301ZM504.777 93.9693H511.854C510.777 105.585 501.931 111.97 488.777 111.97C471.315 111.97 463.16 99.6618 463.16 83.1997C463.16 66.7377 471.315 54.4297 488.777 54.4297C502.008 54.4297 510.47 60.0452 511.547 71.6609H504.469C503.316 63.4299 496.546 60.4298 488.777 60.4298C476.776 60.4298 470.238 69.3532 470.238 83.1997C470.238 96.9694 476.776 105.97 488.777 105.97C496.546 105.97 503.623 102.431 504.777 93.9693ZM532.385 55.7374H537.385V110.662H530.616V70.8148H517.384V65.8146C527.154 65.0454 530.154 63.6607 532.385 55.7374Z" fill="white"/>
<path d="M808.587 84.613L734.586 4.40168L112.431 4.40171" stroke="white" stroke-width="7.36716"/>
<path d="M5.39931 86.1951L80.8835 4.39667L703.038 4.39665" stroke="white" stroke-width="7.36716"/>
<path d="M808.58 79.6551L732.425 162.191L110.271 162.191" stroke="white" stroke-width="7.36716"/>
<path d="M6.88214 81.9787L80.8835 162.19L703.038 162.19" stroke="white" stroke-width="7.36716"/>
<path d="M152.178 298.626H174.582C186.428 298.626 193.6 303.3 193.6 313.615C193.6 320.868 188.765 324.817 185.139 326.106V326.429C189.974 327.235 195.615 331.506 195.615 340.129C195.615 350.766 187.556 356.166 176.113 356.166H152.178V298.626ZM159.592 323.527H175.71C181.754 323.527 186.186 320.143 186.186 314.179C186.186 308.296 181.754 304.911 175.71 304.911H159.592V323.527ZM188.201 339.806C188.201 333.52 183.849 329.813 176.919 329.813H159.592V349.88H176.919C183.849 349.88 188.201 346.092 188.201 339.806ZM205.502 319.659L205.341 313.051H212.433L212.594 319.82H212.836C213.803 316.355 217.752 312.245 224.521 312.245H226.455V318.531H223.071C216.301 318.531 212.594 323.689 212.594 331.828V356.166H205.502V319.659ZM248.867 317.644C242.823 317.644 238.713 319.982 238.149 324.897H231.057C231.46 316.113 238.31 312.084 248.867 312.084C261.117 312.084 266.597 317.403 266.597 326.429V346.012C266.597 350.605 266.597 351.653 267 356.166H259.908C259.585 352.781 259.505 351.572 259.505 348.993H259.263C257.087 352.942 252.091 357.133 243.71 357.133C235.248 357.133 229.445 352.298 229.445 343.836C229.445 334.89 236.054 331.103 245.08 329.975L259.505 328.121V326.429C259.505 320.223 255.637 317.644 248.867 317.644ZM236.537 343.836C236.537 348.671 239.922 351.572 245.482 351.572C251.285 351.572 259.747 347.14 259.747 336.18V333.52L246.288 335.293C239.922 336.099 236.537 338.92 236.537 343.836ZM278.06 298.626H285.152V332.231L304.573 313.051H313.116L292.324 333.279L313.519 356.166H304.573L285.152 334.729V356.166H278.06V298.626ZM355.138 336.986H321.613C322.339 346.012 326.932 351.733 335.394 351.733C341.277 351.733 346.112 348.752 347.482 343.11H354.332C353.043 352.298 345.145 357.133 335.394 357.133C322.016 357.133 314.683 348.429 314.683 334.568C314.683 320.707 322.339 312.084 334.911 312.084C348.288 312.084 355.138 320.868 355.138 336.26V336.986ZM321.694 331.586H348.127C347.321 323.124 342.808 317.483 334.911 317.483C327.013 317.483 322.5 323.124 321.694 331.586ZM385.129 298.626H421.475V304.911H392.543V324.253H419.863V330.539H392.543V356.166H385.129V298.626ZM447.461 357.133C434.405 357.133 426.83 348.349 426.83 334.568C426.83 320.787 434.405 312.084 447.461 312.084C460.516 312.084 468.091 320.787 468.091 334.568C468.091 348.349 460.516 357.133 447.461 357.133ZM447.461 351.572C456.486 351.572 460.999 344.48 460.999 334.568C460.999 324.656 456.486 317.644 447.461 317.644C438.515 317.644 433.922 324.656 433.922 334.568C433.922 344.48 438.515 351.572 447.461 351.572ZM477.489 319.659L477.327 313.051H484.419L484.58 319.82H484.822C485.789 316.355 489.738 312.245 496.507 312.245H498.442V318.531H495.057C488.287 318.531 484.58 323.689 484.58 331.828V356.166H477.489V319.659ZM559.41 356.166V327.879C559.41 320.062 554.575 317.644 550.142 317.644C545.629 317.644 539.746 320.707 539.746 330.136V356.166H532.655V327.879C532.655 320.062 527.819 317.644 523.387 317.644C518.874 317.644 512.991 320.707 512.991 330.136V356.166H505.899V319.659L505.738 313.051H512.83L512.991 318.934H513.233C514.844 314.904 520.486 312.084 525.643 312.084C532.493 312.084 536.765 315.469 538.457 319.74H538.618C540.472 314.985 546.032 312.084 552.399 312.084C560.296 312.084 566.502 316.597 566.502 326.429V356.166H559.41ZM615.792 336.986H582.267C582.992 346.012 587.586 351.733 596.047 351.733C601.93 351.733 606.766 348.752 608.136 343.11H614.986C613.696 352.298 605.799 357.133 596.047 357.133C582.67 357.133 575.336 348.429 575.336 334.568C575.336 320.707 582.992 312.084 595.564 312.084C608.942 312.084 615.792 320.868 615.792 336.26V336.986ZM582.347 331.586H608.78C607.975 323.124 603.462 317.483 595.564 317.483C587.666 317.483 583.153 323.124 582.347 331.586ZM622.871 334.568C622.871 319.498 631.816 312.084 642.293 312.084C648.74 312.084 653.897 315.549 656.073 318.773H656.154V298.626H663.246V345.689L663.487 356.166H656.396L656.154 349.719H656.073C654.381 353.587 649.062 357.133 642.131 357.133C630.527 357.133 622.871 348.832 622.871 334.568ZM656.879 334.568C656.879 324.656 651.883 317.644 643.502 317.644C635.04 317.644 629.963 324.656 629.963 334.568C629.963 344.48 635.04 351.572 643.502 351.572C651.883 351.572 656.879 344.48 656.879 334.568ZM212.396 395.018H204.982C204.176 388.168 199.18 384.219 191.04 384.219C182.417 384.219 177.018 388.087 177.018 394.212C177.018 399.692 181.853 402.11 189.187 403.641L195.473 404.93C205.949 407.106 213.605 409.927 213.605 421.935C213.605 432.169 203.531 438.536 191.201 438.536C177.179 438.536 169.12 431.928 168.798 420.081H176.212C176.615 427.979 182.014 432.572 191.201 432.572C200.147 432.572 206.03 428.462 206.11 422.337C206.191 415.407 201.436 413.473 192.733 411.7L186.447 410.41C176.212 408.315 169.604 404.286 169.604 394.776C169.604 384.864 179.194 378.256 191.04 378.256C202.403 378.256 211.51 383.252 212.396 395.018ZM222.38 437.166V379.626H229.472V437.166H222.38ZM240.953 387.604V379.626H248.689V387.604H240.953ZM241.275 437.166V394.051H248.367V437.166H241.275ZM300.772 415.649C300.772 430.719 291.424 438.133 281.109 438.133C274.742 438.133 269.584 434.748 267.57 431.444H267.489V451.591H260.397V404.527L260.156 394.051H267.247L267.489 400.498H267.57C269.665 396.71 275.226 393.084 281.512 393.084C293.116 393.084 300.772 401.384 300.772 415.649ZM266.764 415.649C266.764 425.561 271.68 432.572 280.142 432.572C288.603 432.572 293.68 425.561 293.68 415.649C293.68 405.736 288.603 398.644 280.142 398.644C271.68 398.644 266.764 405.736 266.764 415.649ZM350.589 415.649C350.589 430.719 341.241 438.133 330.925 438.133C324.559 438.133 319.401 434.748 317.387 431.444H317.306V451.591H310.214V404.527L309.972 394.051H317.064L317.306 400.498H317.387C319.482 396.71 325.043 393.084 331.328 393.084C342.933 393.084 350.589 401.384 350.589 415.649ZM316.581 415.649C316.581 425.561 321.497 432.572 329.958 432.572C338.42 432.572 343.497 425.561 343.497 415.649C343.497 405.736 338.42 398.644 329.958 398.644C321.497 398.644 316.581 405.736 316.581 415.649ZM398.069 417.986H364.544C365.269 427.012 369.863 432.733 378.325 432.733C384.208 432.733 389.043 429.752 390.413 424.11H397.263C395.974 433.298 388.076 438.133 378.325 438.133C364.947 438.133 357.614 429.429 357.614 415.568C357.614 401.707 365.269 393.084 377.841 393.084C391.219 393.084 398.069 401.868 398.069 417.26V417.986ZM364.625 412.586H391.058C390.252 404.124 385.739 398.483 377.841 398.483C369.944 398.483 365.431 404.124 364.625 412.586ZM407.485 400.659L407.324 394.051H414.416L414.577 400.82H414.819C415.786 397.355 419.735 393.245 426.504 393.245H428.438V399.531H425.053C418.284 399.531 414.577 404.689 414.577 412.828V437.166H407.485V400.659ZM496.362 419.678H503.776C502.648 431.847 493.38 438.536 479.599 438.536C461.306 438.536 452.763 425.642 452.763 408.396C452.763 391.15 461.306 378.256 479.599 378.256C493.461 378.256 502.325 384.139 503.454 396.307H496.039C494.831 387.684 487.739 384.541 479.599 384.541C467.028 384.541 460.177 393.89 460.177 408.396C460.177 422.821 467.028 432.25 479.599 432.25C487.739 432.25 495.153 428.543 496.362 419.678ZM512.309 379.626H519.401V400.82H519.643C521.255 397.113 526.09 393.084 533.504 393.084C542.933 393.084 548.977 399.047 548.977 408.718V437.166H541.885V409.524C541.885 402.835 538.34 398.644 531.731 398.644C524.237 398.644 519.401 404.286 519.401 412.264V437.166H512.309V379.626ZM577.006 398.644C570.961 398.644 566.851 400.982 566.287 405.897H559.196C559.599 397.113 566.449 393.084 577.006 393.084C589.255 393.084 594.735 398.403 594.735 407.429V427.012C594.735 431.605 594.735 432.653 595.138 437.166H588.046C587.724 433.781 587.643 432.572 587.643 429.993H587.402C585.226 433.942 580.229 438.133 571.848 438.133C563.386 438.133 557.584 433.298 557.584 424.836C557.584 415.89 564.192 412.103 573.218 410.975L587.643 409.121V407.429C587.643 401.223 583.775 398.644 577.006 398.644ZM564.676 424.836C564.676 429.671 568.06 432.572 573.621 432.572C579.423 432.572 587.885 428.14 587.885 417.18V414.52L574.427 416.293C568.06 417.099 564.676 419.92 564.676 424.836ZM606.198 387.604V379.626H613.935V387.604H606.198ZM606.521 437.166V394.051H613.612V437.166H606.521ZM625.562 400.659L625.401 394.051H632.493L632.654 400.82H632.896C633.863 397.355 637.811 393.245 644.581 393.245H646.515V399.531H643.13C636.361 399.531 632.654 404.689 632.654 412.828V437.166H625.562V400.659Z" fill="white"/>
<path d="M224.59 600.576L245.38 545.675H253.773L274.563 600.576H267.094L262.089 587.178H237.064L232.059 600.576H224.59ZM239.297 581.172H259.856L254.004 565.541C252.464 561.46 251.001 557.071 249.769 552.99H249.461C248.229 557.071 246.689 561.46 245.149 565.541L239.297 581.172ZM281.274 600.576V545.598H288.05V600.576H281.274ZM333.979 594.262L334.133 600.576H327.357L327.203 594.108H326.972C325.432 597.573 320.812 601.5 313.805 601.5C304.796 601.5 299.406 595.879 299.406 586.639V559.381H306.182V585.792C306.182 592.183 309.185 596.187 315.499 596.187C322.583 596.187 327.203 590.797 327.203 583.174V559.381H333.979V594.262ZM397.035 600.576V573.549C397.035 566.08 392.415 563.77 388.18 563.77C383.868 563.77 378.247 566.696 378.247 575.705V600.576H371.471V573.549C371.471 566.08 366.851 563.77 362.616 563.77C358.304 563.77 352.683 566.696 352.683 575.705V600.576H345.907V565.695L345.753 559.381H352.529L352.683 565.002H352.914C354.454 561.152 359.844 558.457 364.772 558.457C371.317 558.457 375.398 561.691 377.015 565.772H377.169C378.94 561.229 384.253 558.457 390.336 558.457C397.882 558.457 403.811 562.769 403.811 572.163V600.576H397.035ZM415.101 553.221V545.598H422.493V553.221H415.101ZM415.409 600.576V559.381H422.185V600.576H415.409ZM434.373 565.695L434.219 559.381H440.995L441.149 565.849H441.38C442.92 562.307 447.617 558.457 454.624 558.457C463.71 558.457 469.408 564.155 469.408 573.395V600.576H462.632V574.165C462.632 567.774 459.244 563.77 452.93 563.77C445.769 563.77 441.149 569.16 441.149 576.783V600.576H434.373V565.695ZM514.895 594.262L515.049 600.576H508.273L508.119 594.108H507.888C506.348 597.573 501.728 601.5 494.721 601.5C485.712 601.5 480.322 595.879 480.322 586.639V559.381H487.098V585.792C487.098 592.183 490.101 596.187 496.415 596.187C503.499 596.187 508.119 590.797 508.119 583.174V559.381H514.895V594.262ZM577.952 600.576V573.549C577.952 566.08 573.332 563.77 569.097 563.77C564.785 563.77 559.164 566.696 559.164 575.705V600.576H552.388V573.549C552.388 566.08 547.768 563.77 543.533 563.77C539.221 563.77 533.6 566.696 533.6 575.705V600.576H526.824V565.695L526.67 559.381H533.446L533.6 565.002H533.831C535.371 561.152 540.761 558.457 545.689 558.457C552.234 558.457 556.315 561.691 557.932 565.772H558.086C559.857 561.229 565.17 558.457 571.253 558.457C578.799 558.457 584.728 562.769 584.728 572.163V600.576H577.952Z" fill="white"/>
<path d="M162.526 706.699C172.69 706.699 180.082 712.243 180.082 721.714C180.082 729.645 176.386 734.881 169.687 740.887L152.131 756.826V757.134H181.237V762.986H143.661V756.21L165.144 736.267C170.303 731.416 173.229 727.566 173.229 722.099C173.229 715.939 168.686 712.551 162.526 712.551C156.443 712.551 151.053 716.016 150.514 723.562H143.661C144.431 711.858 152.593 706.699 162.526 706.699ZM228.99 744.429C228.99 755.748 221.059 764.295 209.201 764.295C196.111 764.295 189.335 754.978 189.335 738.192C189.335 716.709 198.575 706.699 210.664 706.699C219.288 706.699 226.372 711.088 227.373 720.559H220.52C219.519 714.707 215.746 712.551 210.664 712.551C203.195 712.551 196.958 719.25 196.804 732.109H197.112C199.191 729.106 203.657 726.103 210.433 726.103C220.52 726.103 228.99 733.11 228.99 744.429ZM196.573 745.045C196.573 752.437 201.424 758.443 209.201 758.443C217.055 758.443 222.137 752.437 222.137 745.045C222.137 737.653 217.055 731.955 209.201 731.955C201.424 731.955 196.573 737.653 196.573 745.045ZM238.18 752.899H246.958V762.986H238.18V752.899ZM252.848 713.86V708.008H288.268V713.167L264.475 762.986H257.006L280.568 713.86H252.848ZM313.377 764.295C303.598 764.295 295.59 760.445 294.281 749.665H301.134C302.366 756.287 307.448 758.443 313.377 758.443C321.077 758.443 326.929 752.668 326.929 744.891C326.929 737.114 322.463 731.262 314.07 731.262C308.68 731.262 304.753 733.649 302.674 737.73H295.59L300.441 708.008H331.626V713.86H306.139L303.367 729.953H303.675C305.677 727.566 310.297 725.41 315.225 725.41C326.467 725.41 333.859 733.418 333.859 744.891C333.859 756.364 325.158 764.295 313.377 764.295ZM344.681 708.085H351.765V731.57H380.332V708.085H387.416V762.986H380.332V737.576H351.765V762.986H344.681V708.085ZM424.809 728.259L415.569 716.093H420.574L427.427 725.487L434.28 716.093H439.285L429.968 728.259L439.747 740.887H434.742L427.427 731.031L420.035 740.887H415.107L424.809 728.259ZM482.795 706.699C492.959 706.699 500.351 712.243 500.351 721.714C500.351 729.645 496.655 734.881 489.956 740.887L472.4 756.826V757.134H501.506V762.986H463.93V756.21L485.413 736.267C490.572 731.416 493.498 727.566 493.498 722.099C493.498 715.939 488.955 712.551 482.795 712.551C476.712 712.551 471.322 716.016 470.783 723.562H463.93C464.7 711.858 472.862 706.699 482.795 706.699ZM523.464 708.008H528.469V762.986H521.693V723.1H508.449V718.095C518.228 717.325 521.231 715.939 523.464 708.008ZM541.304 752.899H550.082V762.986H541.304V752.899ZM578.735 764.295C568.956 764.295 560.948 760.445 559.639 749.665H566.492C567.724 756.287 572.806 758.443 578.735 758.443C586.435 758.443 592.287 752.668 592.287 744.891C592.287 737.114 587.821 731.262 579.428 731.262C574.038 731.262 570.111 733.649 568.032 737.73H560.948L565.799 708.008H596.984V713.86H571.497L568.725 729.953H569.033C571.035 727.566 575.655 725.41 580.583 725.41C591.825 725.41 599.217 733.418 599.217 744.891C599.217 756.364 590.516 764.295 578.735 764.295ZM626.748 762.986H618.278L604.264 708.008H611.348L618.894 738.423C620.28 743.659 621.666 749.665 622.667 754.978H622.975C624.053 749.665 625.516 743.659 626.825 738.423L634.217 708.008H642.687L650.079 738.423C651.388 743.659 652.851 749.665 653.929 754.978H654.237C655.238 749.665 656.624 743.659 658.01 738.423L665.556 708.008H672.64L658.626 762.986H650.156L642.61 733.033C641.301 727.72 639.838 722.176 638.606 716.401H638.298C637.066 722.176 635.603 727.72 634.294 733.033L626.748 762.986ZM278.21 805.259L268.97 793.093H273.975L280.828 802.487L287.681 793.093H292.686L283.369 805.259L293.148 817.887H288.143L280.828 808.031L273.436 817.887H268.508L278.21 805.259ZM336.195 783.699C346.359 783.699 353.751 789.243 353.751 798.714C353.751 806.645 350.055 811.881 343.356 817.887L325.8 833.826V834.134H354.906V839.986H317.33V833.21L338.813 813.267C343.972 808.416 346.898 804.566 346.898 799.099C346.898 792.939 342.355 789.551 336.195 789.551C330.112 789.551 324.722 793.016 324.183 800.562H317.33C318.1 788.858 326.262 783.699 336.195 783.699ZM381.869 841.295C372.09 841.295 364.082 837.445 362.773 826.665H369.626C370.858 833.287 375.94 835.443 381.869 835.443C389.569 835.443 395.421 829.668 395.421 821.891C395.421 814.114 390.955 808.262 382.562 808.262C377.172 808.262 373.245 810.649 371.166 814.73H364.082L368.933 785.008H400.118V790.86H374.631L371.859 806.953H372.167C374.169 804.566 378.789 802.41 383.717 802.41C394.959 802.41 402.351 810.418 402.351 821.891C402.351 833.364 393.65 841.295 381.869 841.295ZM413.173 839.986V785.008H431.114C446.437 785.008 457.602 793.94 457.602 812.497C457.602 831.054 446.437 839.986 431.114 839.986H413.173ZM430.344 791.014H420.257V833.98H430.344C442.664 833.98 450.518 826.665 450.518 812.497C450.518 798.329 442.664 791.014 430.344 791.014ZM486.263 792.631V785.008H493.655V792.631H486.263ZM486.571 839.986V798.791H493.347V839.986H486.571ZM505.535 805.105L505.381 798.791H512.157L512.311 805.259H512.542C514.082 801.717 518.779 797.867 525.786 797.867C534.872 797.867 540.57 803.565 540.57 812.805V839.986H533.794V813.575C533.794 807.184 530.406 803.18 524.092 803.18C516.931 803.18 512.311 808.57 512.311 816.193V839.986H505.535V805.105Z" fill="white"/>
<path d="M809.986 649.121L809.986 268.548L735.851 188.191L112.569 188.191" stroke="white" stroke-width="7.32623"/>
<path d="M4.0933 645.765L4.09328 268.547L78.2286 188.191L701.51 188.191" stroke="white" stroke-width="7.32623"/>
<path d="M4 503.833L4.00004 873.603L78.1354 953.959L701.417 953.959" stroke="white" stroke-width="7.32623"/>
<path d="M809.889 482.413L809.889 873.604L735.753 953.961L112.472 953.961" stroke="white" stroke-width="7.32623"/>
<path d="M246.724 1029.99C256.878 1029.99 264.263 1035.53 264.263 1044.99C264.263 1052.92 260.57 1058.15 253.878 1064.15L236.339 1080.07V1080.38H265.417V1086.23H227.877V1079.46L249.339 1059.53C254.493 1054.69 257.416 1050.84 257.416 1045.38C257.416 1039.23 252.878 1035.84 246.724 1035.84C240.647 1035.84 235.262 1039.3 234.723 1046.84H227.877C228.646 1035.15 236.8 1029.99 246.724 1029.99ZM291.046 1029.99C301.2 1029.99 308.585 1035.53 308.585 1044.99C308.585 1052.92 304.893 1058.15 298.2 1064.15L280.661 1080.07V1080.38H309.739V1086.23H272.199V1079.46L293.661 1059.53C298.815 1054.69 301.739 1050.84 301.739 1045.38C301.739 1039.23 297.2 1035.84 291.046 1035.84C284.969 1035.84 279.584 1039.3 279.046 1046.84H272.199C272.968 1035.15 281.123 1029.99 291.046 1029.99ZM358.907 1058.76C358.907 1074.53 352.984 1087.53 337.984 1087.53C322.983 1087.53 316.983 1074.53 316.983 1058.76C316.983 1042.99 322.983 1029.99 337.984 1029.99C352.984 1029.99 358.907 1042.99 358.907 1058.76ZM351.984 1058.76C351.984 1045.84 348.215 1035.84 337.984 1035.84C327.83 1035.84 323.906 1045.84 323.906 1058.76C323.906 1071.61 327.83 1081.69 337.984 1081.69C348.215 1081.69 351.984 1071.61 351.984 1058.76ZM408.638 1058.76C408.638 1074.53 402.715 1087.53 387.715 1087.53C372.714 1087.53 366.714 1074.53 366.714 1058.76C366.714 1042.99 372.714 1029.99 387.715 1029.99C402.715 1029.99 408.638 1042.99 408.638 1058.76ZM401.715 1058.76C401.715 1045.84 397.946 1035.84 387.715 1035.84C377.561 1035.84 373.637 1045.84 373.637 1058.76C373.637 1071.61 377.561 1081.69 387.715 1081.69C397.946 1081.69 401.715 1071.61 401.715 1058.76ZM437.161 1066.23V1031.3H444.239V1066.76C444.239 1075.46 449.777 1081.53 458.624 1081.53C467.547 1081.53 472.932 1075.38 472.932 1066.69V1031.3H480.009V1066.15C480.009 1079.84 471.393 1087.53 458.624 1087.53C445.931 1087.53 437.161 1079.92 437.161 1066.23ZM530.678 1045.99H523.601C522.832 1039.46 518.062 1035.69 510.293 1035.69C502.062 1035.69 496.908 1039.38 496.908 1045.23C496.908 1050.46 501.523 1052.76 508.524 1054.23L514.524 1055.46C524.524 1057.53 531.832 1060.23 531.832 1071.69C531.832 1081.46 522.216 1087.53 510.447 1087.53C497.062 1087.53 489.369 1081.23 489.061 1069.92H496.139C496.523 1077.46 501.677 1081.84 510.447 1081.84C518.985 1081.84 524.601 1077.92 524.678 1072.07C524.755 1065.46 520.216 1063.61 511.908 1061.92L505.908 1060.69C496.139 1058.69 489.831 1054.84 489.831 1045.76C489.831 1036.3 498.985 1029.99 510.293 1029.99C521.139 1029.99 529.832 1034.76 530.678 1045.99ZM541.746 1086.23V1031.3H559.67C574.978 1031.3 586.132 1040.23 586.132 1058.76C586.132 1077.3 574.978 1086.23 559.67 1086.23H541.746ZM558.901 1037.3H548.823V1080.23H558.901C571.209 1080.23 579.055 1072.92 579.055 1058.76C579.055 1044.61 571.209 1037.3 558.901 1037.3Z" fill="white"/>
<path d="M808.587 1060.18L734.586 979.966L112.431 979.966" stroke="white" stroke-width="7.36716"/>
<path d="M5.39931 1061.76L80.8835 979.961L703.038 979.961" stroke="white" stroke-width="7.36716"/>
<path d="M808.58 1055.22L732.425 1137.76L110.271 1137.76" stroke="white" stroke-width="7.36716"/>
<path d="M6.88214 1057.54L80.8835 1137.75L703.038 1137.75" stroke="white" stroke-width="7.36716"/>
<path d="M128.125 1265.33C135.971 1265.33 140.663 1262.56 143.125 1259.79V1247.33H125.817V1241.33H149.971V1262.17C145.664 1267.02 137.971 1271.33 128.048 1271.33C110.432 1271.33 102.047 1259.02 102.047 1242.56C102.047 1226.1 109.509 1213.79 127.048 1213.79C140.587 1213.79 148.587 1219.4 149.664 1231.02H142.587C141.433 1222.79 134.817 1219.79 127.048 1219.79C115.124 1219.79 109.124 1228.71 109.124 1242.56C109.124 1256.4 115.817 1265.33 128.125 1265.33ZM161.176 1270.02V1215.1H196.177V1221.1H168.253V1238.79H194.639V1244.79H168.253V1264.02H196.177V1270.02H161.176ZM202.11 1242.56C202.11 1225.4 211.264 1213.79 228.188 1213.79C245.111 1213.79 254.342 1225.4 254.342 1242.56C254.342 1259.71 245.111 1271.33 228.188 1271.33C211.264 1271.33 202.11 1259.71 202.11 1242.56ZM209.187 1242.56C209.187 1255.71 215.572 1265.33 228.188 1265.33C240.803 1265.33 247.265 1255.71 247.265 1242.56C247.265 1229.4 240.803 1219.79 228.188 1219.79C215.572 1219.79 209.187 1229.4 209.187 1242.56ZM305.617 1230.79C305.617 1237.48 301.233 1242.56 296.463 1244.02V1244.33C301.386 1245.17 304.463 1249.4 305.31 1255.94L307.079 1270.02H299.694L298.002 1255.94C297.079 1248.71 293.078 1247.33 285.309 1247.33H271.847V1270.02H264.847V1215.1H287.386C299.54 1215.1 305.617 1221.87 305.617 1230.79ZM298.617 1231.17C298.617 1224.87 294.463 1221.1 286.771 1221.1H271.847V1241.33H286.617C294.309 1241.33 298.617 1237.48 298.617 1231.17ZM340.345 1265.33C348.192 1265.33 352.884 1262.56 355.346 1259.79V1247.33H338.038V1241.33H362.192V1262.17C357.884 1267.02 350.192 1271.33 340.269 1271.33C322.653 1271.33 314.268 1259.02 314.268 1242.56C314.268 1226.1 321.73 1213.79 339.269 1213.79C352.807 1213.79 360.808 1219.4 361.885 1231.02H354.807C353.654 1222.79 347.038 1219.79 339.269 1219.79C327.345 1219.79 321.345 1228.71 321.345 1242.56C321.345 1256.4 328.037 1265.33 340.345 1265.33ZM373.397 1270.02V1215.1H408.398V1221.1H380.474V1238.79H406.86V1244.79H380.474V1264.02H408.398V1270.02H373.397ZM455.881 1270.02V1215.1H473.805C489.113 1215.1 500.267 1224.02 500.267 1242.56C500.267 1261.1 489.113 1270.02 473.805 1270.02H455.881ZM473.036 1221.1H462.959V1264.02H473.036C485.344 1264.02 493.19 1256.71 493.19 1242.56C493.19 1228.4 485.344 1221.1 473.036 1221.1ZM502.828 1270.02L523.598 1215.17H531.983L552.753 1270.02H545.291L540.291 1256.64H515.29L510.29 1270.02H502.828ZM517.521 1250.64H538.06L532.214 1235.02C530.675 1230.94 529.214 1226.56 527.983 1222.48H527.675C526.444 1226.56 524.906 1230.94 523.367 1235.02L517.521 1250.64ZM570.542 1270.02L550.542 1215.1H558.003L569.311 1246.79C571.081 1251.87 573.235 1257.94 574.619 1262.64H574.927C576.312 1257.94 578.389 1251.87 580.158 1246.79L591.543 1215.1H598.928L578.927 1270.02H570.542ZM606.877 1215.1H613.955V1270.02H606.877V1215.1ZM627.912 1270.02V1215.1H662.913V1221.1H634.989V1238.79H661.374V1244.79H634.989V1264.02H662.913V1270.02H627.912ZM711.272 1229.79H704.195C703.426 1223.25 698.657 1219.48 690.887 1219.48C682.656 1219.48 677.502 1223.17 677.502 1229.02C677.502 1234.25 682.118 1236.56 689.118 1238.02L695.118 1239.25C705.118 1241.33 712.426 1244.02 712.426 1255.48C712.426 1265.25 702.811 1271.33 691.041 1271.33C677.656 1271.33 669.964 1265.02 669.656 1253.71H676.733C677.118 1261.25 682.272 1265.64 691.041 1265.64C699.58 1265.64 705.195 1261.71 705.272 1255.87C705.349 1249.25 700.811 1247.4 692.503 1245.71L686.503 1244.48C676.733 1242.48 670.425 1238.63 670.425 1229.56C670.425 1220.1 679.579 1213.79 690.887 1213.79C701.734 1213.79 710.426 1218.56 711.272 1229.79Z" fill="white"/>
<path d="M808.587 1243.97L734.586 1163.76L112.431 1163.76" stroke="white" stroke-width="7.36716"/>
<path d="M5.39931 1245.55L80.8835 1163.75L703.038 1163.75" stroke="white" stroke-width="7.36716"/>
<path d="M808.58 1239.01L732.425 1321.55L110.271 1321.55" stroke="white" stroke-width="7.36716"/>
<path d="M6.88214 1241.34L80.8835 1321.55L703.038 1321.55" stroke="white" stroke-width="7.36716"/>
</svg>
