<svg width="814" height="1326" viewBox="0 0 814 1326" fill="none" xmlns="http://www.w3.org/2000/svg">
<path d="M295.889 105.97C303.736 105.97 308.428 103.2 310.89 100.431V87.9691H293.582V81.9689H317.736V102.816C313.428 107.662 305.736 111.97 295.812 111.97C278.196 111.97 269.812 99.6618 269.812 83.1997C269.812 66.7377 277.273 54.4297 294.812 54.4297C308.351 54.4297 316.351 60.0452 317.428 71.6609H310.351C309.197 63.4299 302.582 60.4298 294.812 60.4298C282.889 60.4298 276.889 69.3532 276.889 83.1997C276.889 97.0463 283.581 105.97 295.889 105.97ZM328.941 110.662V55.7374H346.864C362.173 55.7374 373.327 64.6607 373.327 83.1997C373.327 101.739 362.173 110.662 346.864 110.662H328.941ZM346.095 61.7376H336.018V104.662H346.095C358.403 104.662 366.25 97.354 366.25 83.1997C366.25 69.0455 358.403 61.7376 346.095 61.7376ZM381.32 92.8154V87.2768H403.321V92.8154H381.32ZM415.031 55.7374H422.108V104.662H448.34V110.662H415.031V55.7374ZM491.872 93.9693H498.949C497.873 105.585 489.026 111.97 475.872 111.97C458.41 111.97 450.256 99.6618 450.256 83.1997C450.256 66.7377 458.41 54.4297 475.872 54.4297C489.103 54.4297 497.565 60.0452 498.642 71.6609H491.565C490.411 63.4299 483.641 60.4298 475.872 60.4298C463.872 60.4298 457.333 69.3532 457.333 83.1997C457.333 96.9694 463.872 105.97 475.872 105.97C483.641 105.97 490.718 102.431 491.872 93.9693ZM503.095 92.2769L528.865 55.7374H536.173V92.5846H544.404V98.431H536.173V110.662H529.327V98.431H503.095V92.2769ZM529.865 64.2761H529.557C526.48 69.6609 522.865 74.5841 518.788 80.3535L509.941 92.5846H529.327V79.6612C529.327 76.1995 529.48 69.0455 529.865 64.2761Z" fill="white"/>
<path d="M808.265 84.613L734.264 4.40168L112.109 4.40171" stroke="white" stroke-width="7.36716"/>
<path d="M5.07802 86.1951L80.5622 4.39667L702.717 4.39665" stroke="white" stroke-width="7.36716"/>
<path d="M808.258 79.6551L732.103 162.191L109.949 162.191" stroke="white" stroke-width="7.36716"/>
<path d="M6.56085 81.9787L80.5622 162.19L702.717 162.19" stroke="white" stroke-width="7.36716"/>
<path d="M151.856 298.626H174.26C186.106 298.626 193.279 303.3 193.279 313.615C193.279 320.868 188.443 324.817 184.817 326.106V326.429C189.652 327.235 195.293 331.506 195.293 340.129C195.293 350.766 187.235 356.166 175.791 356.166H151.856V298.626ZM159.27 323.527H175.388C181.432 323.527 185.865 320.143 185.865 314.179C185.865 308.296 181.432 304.911 175.388 304.911H159.27V323.527ZM187.879 339.806C187.879 333.52 183.528 329.813 176.597 329.813H159.27V349.88H176.597C183.528 349.88 187.879 346.092 187.879 339.806ZM205.181 319.659L205.019 313.051H212.111L212.272 319.82H212.514C213.481 316.355 217.43 312.245 224.2 312.245H226.134V318.531H222.749C215.979 318.531 212.272 323.689 212.272 331.828V356.166H205.181V319.659ZM248.545 317.644C242.501 317.644 238.391 319.982 237.827 324.897H230.735C231.138 316.113 237.988 312.084 248.545 312.084C260.795 312.084 266.275 317.403 266.275 326.429V346.012C266.275 350.605 266.275 351.653 266.678 356.166H259.586C259.264 352.781 259.183 351.572 259.183 348.993H258.941C256.765 352.942 251.769 357.133 243.388 357.133C234.926 357.133 229.124 352.298 229.124 343.836C229.124 334.89 235.732 331.103 244.758 329.975L259.183 328.121V326.429C259.183 320.223 255.315 317.644 248.545 317.644ZM236.215 343.836C236.215 348.671 239.6 351.572 245.161 351.572C250.963 351.572 259.425 347.14 259.425 336.18V333.52L245.967 335.293C239.6 336.099 236.215 338.92 236.215 343.836ZM277.738 298.626H284.83V332.231L304.252 313.051H312.794L292.002 333.279L313.197 356.166H304.252L284.83 334.729V356.166H277.738V298.626ZM354.816 336.986H321.292C322.017 346.012 326.61 351.733 335.072 351.733C340.955 351.733 345.791 348.752 347.161 343.11H354.011C352.721 352.298 344.823 357.133 335.072 357.133C321.695 357.133 314.361 348.429 314.361 334.568C314.361 320.707 322.017 312.084 334.589 312.084C347.966 312.084 354.816 320.868 354.816 336.26V336.986ZM321.372 331.586H347.805C346.999 323.124 342.486 317.483 334.589 317.483C326.691 317.483 322.178 323.124 321.372 331.586ZM384.807 298.626H421.153V304.911H392.221V324.253H419.541V330.539H392.221V356.166H384.807V298.626ZM447.139 357.133C434.083 357.133 426.508 348.349 426.508 334.568C426.508 320.787 434.083 312.084 447.139 312.084C460.194 312.084 467.769 320.787 467.769 334.568C467.769 348.349 460.194 357.133 447.139 357.133ZM447.139 351.572C456.165 351.572 460.678 344.48 460.678 334.568C460.678 324.656 456.165 317.644 447.139 317.644C438.193 317.644 433.6 324.656 433.6 334.568C433.6 344.48 438.193 351.572 447.139 351.572ZM477.167 319.659L477.006 313.051H484.097L484.259 319.82H484.5C485.467 316.355 489.416 312.245 496.186 312.245H498.12V318.531H494.735C487.966 318.531 484.259 323.689 484.259 331.828V356.166H477.167V319.659ZM559.088 356.166V327.879C559.088 320.062 554.253 317.644 549.82 317.644C545.308 317.644 539.425 320.707 539.425 330.136V356.166H532.333V327.879C532.333 320.062 527.497 317.644 523.065 317.644C518.552 317.644 512.669 320.707 512.669 330.136V356.166H505.577V319.659L505.416 313.051H512.508L512.669 318.934H512.911C514.523 314.904 520.164 312.084 525.322 312.084C532.172 312.084 536.443 315.469 538.135 319.74H538.296C540.15 314.985 545.71 312.084 552.077 312.084C559.975 312.084 566.18 316.597 566.18 326.429V356.166H559.088ZM615.47 336.986H581.945C582.67 346.012 587.264 351.733 595.726 351.733C601.609 351.733 606.444 348.752 607.814 343.11H614.664C613.375 352.298 605.477 357.133 595.726 357.133C582.348 357.133 575.014 348.429 575.014 334.568C575.014 320.707 582.67 312.084 595.242 312.084C608.62 312.084 615.47 320.868 615.47 336.26V336.986ZM582.026 331.586H608.459C607.653 323.124 603.14 317.483 595.242 317.483C587.344 317.483 582.832 323.124 582.026 331.586ZM622.549 334.568C622.549 319.498 631.494 312.084 641.971 312.084C648.418 312.084 653.576 315.549 655.752 318.773H655.832V298.626H662.924V345.689L663.166 356.166H656.074L655.832 349.719H655.752C654.059 353.587 648.74 357.133 641.81 357.133C630.205 357.133 622.549 348.832 622.549 334.568ZM656.557 334.568C656.557 324.656 651.561 317.644 643.18 317.644C634.718 317.644 629.641 324.656 629.641 334.568C629.641 344.48 634.718 351.572 643.18 351.572C651.561 351.572 656.557 344.48 656.557 334.568ZM163.268 379.626H170.682V430.88H198.163V437.166H163.268V379.626ZM222.451 438.133C209.396 438.133 201.82 429.349 201.82 415.568C201.82 401.787 209.396 393.084 222.451 393.084C235.506 393.084 243.082 401.787 243.082 415.568C243.082 429.349 235.506 438.133 222.451 438.133ZM222.451 432.572C231.477 432.572 235.99 425.48 235.99 415.568C235.99 405.656 231.477 398.644 222.451 398.644C213.506 398.644 208.912 405.656 208.912 415.568C208.912 425.48 213.506 432.572 222.451 432.572ZM288.099 430.558L288.26 437.166H281.169L281.007 430.396H280.766C279.154 434.023 274.319 438.133 266.985 438.133C257.556 438.133 251.915 432.25 251.915 422.579V394.051H259.007V421.693C259.007 428.382 262.15 432.572 268.758 432.572C276.172 432.572 281.007 426.931 281.007 418.953V394.051H288.099V430.558ZM299.778 400.659L299.616 394.051H306.708L306.869 400.82H307.111C308.723 397.113 313.639 393.084 320.972 393.084C330.482 393.084 336.445 399.047 336.445 408.718V437.166H329.354V409.524C329.354 402.835 325.808 398.644 319.2 398.644C311.705 398.644 306.869 404.286 306.869 412.264V437.166H299.778V400.659ZM345.451 414.923C345.451 400.74 354.88 393.084 364.873 393.084C371.965 393.084 376.72 396.549 378.654 400.176H378.734L378.976 394.051H386.148L385.907 404.527V433.781C385.907 446.272 376.236 452.558 364.954 452.558C354.638 452.558 348.997 449.012 347.627 440.47H354.719C355.767 445.225 359.312 447.32 365.357 447.32C372.932 447.32 378.734 442.404 378.734 433.781V429.188H378.654C376.639 433.217 371.159 436.763 364.712 436.763C352.865 436.763 345.451 429.107 345.451 414.923ZM379.54 414.923C379.54 405.011 374.221 398.644 366.082 398.644C357.862 398.644 352.543 405.011 352.543 414.923C352.543 424.836 357.862 431.202 366.082 431.202C374.221 431.202 379.54 424.836 379.54 414.923ZM435.798 417.986H402.274C402.999 427.012 407.592 432.733 416.054 432.733C421.937 432.733 426.773 429.752 428.143 424.11H434.993C433.703 433.298 425.805 438.133 416.054 438.133C402.677 438.133 395.343 429.429 395.343 415.568C395.343 401.707 402.999 393.084 415.571 393.084C428.948 393.084 435.798 401.868 435.798 417.26V417.986ZM402.354 412.586H428.787C427.981 404.124 423.468 398.483 415.571 398.483C407.673 398.483 403.16 404.124 402.354 412.586ZM505.681 419.678H513.095C511.967 431.847 502.699 438.536 488.918 438.536C470.625 438.536 462.082 425.642 462.082 408.396C462.082 391.15 470.625 378.256 488.918 378.256C502.779 378.256 511.644 384.139 512.772 396.307H505.358C504.149 387.684 497.058 384.541 488.918 384.541C476.346 384.541 469.496 393.89 469.496 408.396C469.496 422.821 476.346 432.25 488.918 432.25C497.058 432.25 504.472 428.543 505.681 419.678ZM521.628 379.626H528.72V400.82H528.962C530.574 397.113 535.409 393.084 542.823 393.084C552.252 393.084 558.296 399.047 558.296 408.718V437.166H551.204V409.524C551.204 402.835 547.658 398.644 541.05 398.644C533.555 398.644 528.72 404.286 528.72 412.264V437.166H521.628V379.626ZM586.325 398.644C580.28 398.644 576.17 400.982 575.606 405.897H568.515C568.917 397.113 575.767 393.084 586.325 393.084C598.574 393.084 604.054 398.403 604.054 407.429V427.012C604.054 431.605 604.054 432.653 604.457 437.166H597.365C597.043 433.781 596.962 432.572 596.962 429.993H596.72C594.545 433.942 589.548 438.133 581.167 438.133C572.705 438.133 566.903 433.298 566.903 424.836C566.903 415.89 573.511 412.103 582.537 410.975L596.962 409.121V407.429C596.962 401.223 593.094 398.644 586.325 398.644ZM573.995 424.836C573.995 429.671 577.379 432.572 582.94 432.572C588.742 432.572 597.204 428.14 597.204 417.18V414.52L583.746 416.293C577.379 417.099 573.995 419.92 573.995 424.836ZM615.517 387.604V379.626H623.254V387.604H615.517ZM615.839 437.166V394.051H622.931V437.166H615.839ZM634.881 400.659L634.72 394.051H641.812L641.973 400.82H642.215C643.182 397.355 647.13 393.245 653.9 393.245H655.834V399.531H652.449C645.68 399.531 641.973 404.689 641.973 412.828V437.166H634.881V400.659Z" fill="white"/>
<path d="M224.269 600.576L245.059 545.675H253.452L274.242 600.576H266.773L261.768 587.178H236.743L231.738 600.576H224.269ZM238.976 581.172H259.535L253.683 565.541C252.143 561.46 250.68 557.071 249.448 552.99H249.14C247.908 557.071 246.368 561.46 244.828 565.541L238.976 581.172ZM280.953 600.576V545.598H287.729V600.576H280.953ZM333.657 594.262L333.811 600.576H327.035L326.881 594.108H326.65C325.11 597.573 320.49 601.5 313.483 601.5C304.474 601.5 299.084 595.879 299.084 586.639V559.381H305.86V585.792C305.86 592.183 308.863 596.187 315.177 596.187C322.261 596.187 326.881 590.797 326.881 583.174V559.381H333.657V594.262ZM396.713 600.576V573.549C396.713 566.08 392.093 563.77 387.858 563.77C383.546 563.77 377.925 566.696 377.925 575.705V600.576H371.149V573.549C371.149 566.08 366.529 563.77 362.294 563.77C357.982 563.77 352.361 566.696 352.361 575.705V600.576H345.585V565.695L345.431 559.381H352.207L352.361 565.002H352.592C354.132 561.152 359.522 558.457 364.45 558.457C370.995 558.457 375.076 561.691 376.693 565.772H376.847C378.618 561.229 383.931 558.457 390.014 558.457C397.56 558.457 403.489 562.769 403.489 572.163V600.576H396.713ZM414.779 553.221V545.598H422.171V553.221H414.779ZM415.087 600.576V559.381H421.863V600.576H415.087ZM434.051 565.695L433.897 559.381H440.673L440.827 565.849H441.058C442.598 562.307 447.295 558.457 454.302 558.457C463.388 558.457 469.086 564.155 469.086 573.395V600.576H462.31V574.165C462.31 567.774 458.922 563.77 452.608 563.77C445.447 563.77 440.827 569.16 440.827 576.783V600.576H434.051V565.695ZM514.574 594.262L514.728 600.576H507.952L507.798 594.108H507.567C506.027 597.573 501.407 601.5 494.4 601.5C485.391 601.5 480.001 595.879 480.001 586.639V559.381H486.777V585.792C486.777 592.183 489.78 596.187 496.094 596.187C503.178 596.187 507.798 590.797 507.798 583.174V559.381H514.574V594.262ZM577.63 600.576V573.549C577.63 566.08 573.01 563.77 568.775 563.77C564.463 563.77 558.842 566.696 558.842 575.705V600.576H552.066V573.549C552.066 566.08 547.446 563.77 543.211 563.77C538.899 563.77 533.278 566.696 533.278 575.705V600.576H526.502V565.695L526.348 559.381H533.124L533.278 565.002H533.509C535.049 561.152 540.439 558.457 545.367 558.457C551.912 558.457 555.993 561.691 557.61 565.772H557.764C559.535 561.229 564.848 558.457 570.931 558.457C578.477 558.457 584.406 562.769 584.406 572.163V600.576H577.63Z" fill="white"/>
<path d="M171.274 706.699C181.438 706.699 188.83 712.243 188.83 721.714C188.83 729.645 185.134 734.881 178.435 740.887L160.879 756.826V757.134H189.985V762.986H152.409V756.21L173.892 736.267C179.051 731.416 181.977 727.566 181.977 722.099C181.977 715.939 177.434 712.551 171.274 712.551C165.191 712.551 159.801 716.016 159.262 723.562H152.409C153.179 711.858 161.341 706.699 171.274 706.699ZM237.738 744.429C237.738 755.748 229.807 764.295 217.949 764.295C204.859 764.295 198.083 754.978 198.083 738.192C198.083 716.709 207.323 706.699 219.412 706.699C228.036 706.699 235.12 711.088 236.121 720.559H229.268C228.267 714.707 224.494 712.551 219.412 712.551C211.943 712.551 205.706 719.25 205.552 732.109H205.86C207.939 729.106 212.405 726.103 219.181 726.103C229.268 726.103 237.738 733.11 237.738 744.429ZM205.321 745.045C205.321 752.437 210.172 758.443 217.949 758.443C225.803 758.443 230.885 752.437 230.885 745.045C230.885 737.653 225.803 731.955 217.949 731.955C210.172 731.955 205.321 737.653 205.321 745.045ZM246.928 752.899H255.706V762.986H246.928V752.899ZM284.359 764.295C274.58 764.295 266.572 760.445 265.263 749.665H272.116C273.348 756.287 278.43 758.443 284.359 758.443C292.059 758.443 297.911 752.668 297.911 744.891C297.911 737.114 293.445 731.262 285.052 731.262C279.662 731.262 275.735 733.649 273.656 737.73H266.572L271.423 708.008H302.608V713.86H277.121L274.349 729.953H274.657C276.659 727.566 281.279 725.41 286.207 725.41C297.449 725.41 304.841 733.418 304.841 744.891C304.841 756.364 296.14 764.295 284.359 764.295ZM315.663 708.085H322.747V731.57H351.314V708.085H358.398V762.986H351.314V737.576H322.747V762.986H315.663V708.085ZM395.792 728.259L386.552 716.093H391.557L398.41 725.487L405.263 716.093H410.268L400.951 728.259L410.73 740.887H405.725L398.41 731.031L391.018 740.887H386.09L395.792 728.259ZM464.326 721.406C464.326 715.246 459.321 712.551 453.7 712.551C448.233 712.551 443.151 714.63 442.304 721.483H435.451C436.375 710.934 443.613 706.699 453.7 706.699C464.172 706.699 471.256 712.012 471.256 720.482C471.256 728.028 466.405 732.109 462.555 733.418V733.572C467.868 735.035 473.412 739.193 473.412 748.125C473.412 758.443 464.711 764.295 453.7 764.295C441.534 764.295 434.296 759.444 433.988 748.279H440.841C441.534 755.363 446.231 758.443 453.7 758.443C461.246 758.443 466.482 754.593 466.482 747.355C466.482 740.579 461.631 736.883 454.239 736.883H449.696V730.723H453.777C459.706 730.723 464.326 727.412 464.326 721.406ZM523.376 735.497C523.376 751.282 517.447 764.295 502.432 764.295C487.417 764.295 481.411 751.282 481.411 735.497C481.411 719.712 487.417 706.699 502.432 706.699C517.447 706.699 523.376 719.712 523.376 735.497ZM516.446 735.497C516.446 722.561 512.673 712.551 502.432 712.551C492.268 712.551 488.341 722.561 488.341 735.497C488.341 748.356 492.268 758.443 502.432 758.443C512.673 758.443 516.446 748.356 516.446 735.497ZM531.837 752.899H540.615V762.986H531.837V752.899ZM569.29 764.295C557.355 764.295 549.193 758.52 549.193 748.356C549.193 739.424 554.891 734.958 560.127 733.649V733.495C554.583 731.493 551.272 727.258 551.272 721.021C551.272 711.242 560.204 706.699 569.213 706.699C578.145 706.699 587.154 711.242 587.154 721.021C587.154 727.258 583.766 731.493 578.222 733.495V733.649C583.458 734.958 589.156 739.424 589.156 748.356C589.156 758.52 581.148 764.295 569.29 764.295ZM558.202 721.637C558.202 727.335 563.207 730.723 569.213 730.723C575.142 730.723 580.301 727.335 580.301 721.637C580.301 715.862 575.142 712.551 569.213 712.551C563.207 712.551 558.202 715.862 558.202 721.637ZM556.123 747.509C556.123 754.747 562.283 758.443 569.213 758.443C576.143 758.443 582.226 754.747 582.226 747.509C582.226 740.348 576.143 736.575 569.213 736.575C562.283 736.575 556.123 740.348 556.123 747.509ZM617.356 762.986H608.886L594.872 708.008H601.956L609.502 738.423C610.888 743.659 612.274 749.665 613.275 754.978H613.583C614.661 749.665 616.124 743.659 617.433 738.423L624.825 708.008H633.295L640.687 738.423C641.996 743.659 643.459 749.665 644.537 754.978H644.845C645.846 749.665 647.232 743.659 648.618 738.423L656.164 708.008H663.248L649.234 762.986H640.764L633.218 733.033C631.909 727.72 630.446 722.176 629.214 716.401H628.906C627.674 722.176 626.211 727.72 624.902 733.033L617.356 762.986ZM251.552 805.259L242.312 793.093H247.317L254.17 802.487L261.023 793.093H266.028L256.711 805.259L266.49 817.887H261.485L254.17 808.031L246.778 817.887H241.85L251.552 805.259ZM309.537 783.699C319.701 783.699 327.093 789.243 327.093 798.714C327.093 806.645 323.397 811.881 316.698 817.887L299.142 833.826V834.134H328.248V839.986H290.672V833.21L312.155 813.267C317.314 808.416 320.24 804.566 320.24 799.099C320.24 792.939 315.697 789.551 309.537 789.551C303.454 789.551 298.064 793.016 297.525 800.562H290.672C291.442 788.858 299.604 783.699 309.537 783.699ZM333.651 790.86V785.008H369.071V790.167L345.278 839.986H337.809L361.371 790.86H333.651ZM370.453 829.899H379.231V839.986H370.453V829.899ZM407.884 841.295C398.105 841.295 390.097 837.445 388.788 826.665H395.641C396.873 833.287 401.955 835.443 407.884 835.443C415.584 835.443 421.436 829.668 421.436 821.891C421.436 814.114 416.97 808.262 408.577 808.262C403.187 808.262 399.26 810.649 397.181 814.73H390.097L394.948 785.008H426.133V790.86H400.646L397.874 806.953H398.182C400.184 804.566 404.804 802.41 409.732 802.41C420.974 802.41 428.366 810.418 428.366 821.891C428.366 833.364 419.665 841.295 407.884 841.295ZM439.188 839.986V785.008H457.129C472.452 785.008 483.617 793.94 483.617 812.497C483.617 831.054 472.452 839.986 457.129 839.986H439.188ZM456.359 791.014H446.272V833.98H456.359C468.679 833.98 476.533 826.665 476.533 812.497C476.533 798.329 468.679 791.014 456.359 791.014ZM512.277 792.631V785.008H519.669V792.631H512.277ZM512.585 839.986V798.791H519.361V839.986H512.585ZM531.549 805.105L531.395 798.791H538.171L538.325 805.259H538.556C540.096 801.717 544.793 797.867 551.8 797.867C560.886 797.867 566.584 803.565 566.584 812.805V839.986H559.808V813.575C559.808 807.184 556.42 803.18 550.106 803.18C542.945 803.18 538.325 808.57 538.325 816.193V839.986H531.549V805.105Z" fill="white"/>
<path d="M809.665 649.121L809.664 268.548L735.529 188.191L112.248 188.191" stroke="white" stroke-width="7.32623"/>
<path d="M3.77152 645.765L3.77151 268.547L77.9069 188.191L701.188 188.191" stroke="white" stroke-width="7.32623"/>
<path d="M3.67822 503.833L3.67827 873.603L77.8136 953.959L701.095 953.959" stroke="white" stroke-width="7.32623"/>
<path d="M809.567 482.413L809.567 873.604L735.431 953.961L112.15 953.961" stroke="white" stroke-width="7.32623"/>
<path d="M245.5 1029.99C255.655 1029.99 263.039 1035.53 263.039 1044.99C263.039 1052.92 259.347 1058.15 252.655 1064.15L235.116 1080.07V1080.38H264.193V1086.23H226.654V1079.46L248.116 1059.53C253.27 1054.69 256.193 1050.84 256.193 1045.38C256.193 1039.23 251.655 1035.84 245.5 1035.84C239.423 1035.84 234.039 1039.3 233.5 1046.84H226.654C227.423 1035.15 235.577 1029.99 245.5 1029.99ZM290.361 1087.53C280.592 1087.53 272.591 1083.69 271.284 1072.92H278.13C279.361 1079.53 284.438 1081.69 290.361 1081.69C298.054 1081.69 303.9 1075.92 303.9 1068.15C303.9 1060.38 299.438 1054.53 291.054 1054.53C285.669 1054.53 281.746 1056.92 279.669 1061H272.591L277.438 1031.3H308.593V1037.15H283.13L280.361 1053.23H280.669C282.669 1050.84 287.284 1048.69 292.207 1048.69C303.439 1048.69 310.823 1056.69 310.823 1068.15C310.823 1079.61 302.131 1087.53 290.361 1087.53ZM359.487 1058.76C359.487 1074.53 353.564 1087.53 338.563 1087.53C323.563 1087.53 317.563 1074.53 317.563 1058.76C317.563 1042.99 323.563 1029.99 338.563 1029.99C353.564 1029.99 359.487 1042.99 359.487 1058.76ZM352.564 1058.76C352.564 1045.84 348.794 1035.84 338.563 1035.84C328.409 1035.84 324.486 1045.84 324.486 1058.76C324.486 1071.61 328.409 1081.69 338.563 1081.69C348.794 1081.69 352.564 1071.61 352.564 1058.76ZM409.218 1058.76C409.218 1074.53 403.295 1087.53 388.294 1087.53C373.294 1087.53 367.294 1074.53 367.294 1058.76C367.294 1042.99 373.294 1029.99 388.294 1029.99C403.295 1029.99 409.218 1042.99 409.218 1058.76ZM402.295 1058.76C402.295 1045.84 398.526 1035.84 388.294 1035.84C378.14 1035.84 374.217 1045.84 374.217 1058.76C374.217 1071.61 378.14 1081.69 388.294 1081.69C398.526 1081.69 402.295 1071.61 402.295 1058.76ZM437.741 1066.23V1031.3H444.818V1066.76C444.818 1075.46 450.357 1081.53 459.203 1081.53C468.127 1081.53 473.511 1075.38 473.511 1066.69V1031.3H480.589V1066.15C480.589 1079.84 471.973 1087.53 459.203 1087.53C446.511 1087.53 437.741 1079.92 437.741 1066.23ZM531.258 1045.99H524.181C523.411 1039.46 518.642 1035.69 510.873 1035.69C502.642 1035.69 497.488 1039.38 497.488 1045.23C497.488 1050.46 502.103 1052.76 509.103 1054.23L515.104 1055.46C525.104 1057.53 532.412 1060.23 532.412 1071.69C532.412 1081.46 522.796 1087.53 511.026 1087.53C497.641 1087.53 489.949 1081.23 489.641 1069.92H496.718C497.103 1077.46 502.257 1081.84 511.026 1081.84C519.565 1081.84 525.181 1077.92 525.258 1072.07C525.335 1065.46 520.796 1063.61 512.488 1061.92L506.488 1060.69C496.718 1058.69 490.41 1054.84 490.41 1045.76C490.41 1036.3 499.565 1029.99 510.873 1029.99C521.719 1029.99 530.412 1034.76 531.258 1045.99ZM542.326 1086.23V1031.3H560.25C575.558 1031.3 586.712 1040.23 586.712 1058.76C586.712 1077.3 575.558 1086.23 560.25 1086.23H542.326ZM559.48 1037.3H549.403V1080.23H559.48C571.788 1080.23 579.635 1072.92 579.635 1058.76C579.635 1044.61 571.788 1037.3 559.48 1037.3Z" fill="white"/>
<path d="M808.265 1060.18L734.264 979.966L112.109 979.966" stroke="white" stroke-width="7.36716"/>
<path d="M5.07802 1061.76L80.5622 979.961L702.717 979.961" stroke="white" stroke-width="7.36716"/>
<path d="M808.258 1055.22L732.103 1137.76L109.949 1137.76" stroke="white" stroke-width="7.36716"/>
<path d="M6.56085 1057.54L80.5622 1137.75L702.717 1137.75" stroke="white" stroke-width="7.36716"/>
<path d="M127.803 1265.33C135.649 1265.33 140.342 1262.56 142.803 1259.79V1247.33H125.495V1241.33H149.65V1262.17C145.342 1267.02 137.649 1271.33 127.726 1271.33C110.11 1271.33 101.725 1259.02 101.725 1242.56C101.725 1226.1 109.187 1213.79 126.726 1213.79C140.265 1213.79 148.265 1219.4 149.342 1231.02H142.265C141.111 1222.79 134.495 1219.79 126.726 1219.79C114.802 1219.79 108.802 1228.71 108.802 1242.56C108.802 1256.4 115.495 1265.33 127.803 1265.33ZM160.854 1270.02V1215.1H195.855V1221.1H167.931V1238.79H194.317V1244.79H167.931V1264.02H195.855V1270.02H160.854ZM201.788 1242.56C201.788 1225.4 210.942 1213.79 227.866 1213.79C244.79 1213.79 254.021 1225.4 254.021 1242.56C254.021 1259.71 244.79 1271.33 227.866 1271.33C210.942 1271.33 201.788 1259.71 201.788 1242.56ZM208.865 1242.56C208.865 1255.71 215.25 1265.33 227.866 1265.33C240.482 1265.33 246.943 1255.71 246.943 1242.56C246.943 1229.4 240.482 1219.79 227.866 1219.79C215.25 1219.79 208.865 1229.4 208.865 1242.56ZM305.296 1230.79C305.296 1237.48 300.911 1242.56 296.141 1244.02V1244.33C301.065 1245.17 304.142 1249.4 304.988 1255.94L306.757 1270.02H299.372L297.68 1255.94C296.757 1248.71 292.757 1247.33 284.987 1247.33H271.525V1270.02H264.525V1215.1H287.064C299.218 1215.1 305.296 1221.87 305.296 1230.79ZM298.295 1231.17C298.295 1224.87 294.141 1221.1 286.449 1221.1H271.525V1241.33H286.295C293.987 1241.33 298.295 1237.48 298.295 1231.17ZM340.024 1265.33C347.87 1265.33 352.563 1262.56 355.024 1259.79V1247.33H337.716V1241.33H361.871V1262.17C357.563 1267.02 349.87 1271.33 339.947 1271.33C322.331 1271.33 313.946 1259.02 313.946 1242.56C313.946 1226.1 321.408 1213.79 338.947 1213.79C352.486 1213.79 360.486 1219.4 361.563 1231.02H354.486C353.332 1222.79 346.716 1219.79 338.947 1219.79C327.023 1219.79 321.023 1228.71 321.023 1242.56C321.023 1256.4 327.716 1265.33 340.024 1265.33ZM373.075 1270.02V1215.1H408.076V1221.1H380.152V1238.79H406.538V1244.79H380.152V1264.02H408.076V1270.02H373.075ZM455.56 1270.02V1215.1H473.483C488.791 1215.1 499.946 1224.02 499.946 1242.56C499.946 1261.1 488.791 1270.02 473.483 1270.02H455.56ZM472.714 1221.1H462.637V1264.02H472.714C485.022 1264.02 492.868 1256.71 492.868 1242.56C492.868 1228.4 485.022 1221.1 472.714 1221.1ZM502.506 1270.02L523.276 1215.17H531.661L552.431 1270.02H544.969L539.969 1256.64H514.968L509.968 1270.02H502.506ZM517.199 1250.64H537.738L531.892 1235.02C530.353 1230.94 528.892 1226.56 527.661 1222.48H527.353C526.122 1226.56 524.584 1230.94 523.045 1235.02L517.199 1250.64ZM570.22 1270.02L550.22 1215.1H557.682L568.99 1246.79C570.759 1251.87 572.913 1257.94 574.298 1262.64H574.605C575.99 1257.94 578.067 1251.87 579.836 1246.79L591.221 1215.1H598.606L578.605 1270.02H570.22ZM606.556 1215.1H613.633V1270.02H606.556V1215.1ZM627.59 1270.02V1215.1H662.591V1221.1H634.667V1238.79H661.053V1244.79H634.667V1264.02H662.591V1270.02H627.59ZM710.951 1229.79H703.874C703.104 1223.25 698.335 1219.48 690.565 1219.48C682.334 1219.48 677.18 1223.17 677.18 1229.02C677.18 1234.25 681.796 1236.56 688.796 1238.02L694.796 1239.25C704.797 1241.33 712.105 1244.02 712.105 1255.48C712.105 1265.25 702.489 1271.33 690.719 1271.33C677.334 1271.33 669.642 1265.02 669.334 1253.71H676.411C676.796 1261.25 681.95 1265.64 690.719 1265.64C699.258 1265.64 704.874 1261.71 704.951 1255.87C705.027 1249.25 700.489 1247.4 692.181 1245.71L686.181 1244.48C676.411 1242.48 670.103 1238.63 670.103 1229.56C670.103 1220.1 679.257 1213.79 690.565 1213.79C701.412 1213.79 710.105 1218.56 710.951 1229.79Z" fill="white"/>
<path d="M808.265 1243.97L734.264 1163.76L112.109 1163.76" stroke="white" stroke-width="7.36716"/>
<path d="M5.07802 1245.55L80.5622 1163.75L702.717 1163.75" stroke="white" stroke-width="7.36716"/>
<path d="M808.258 1239.01L732.103 1321.55L109.949 1321.55" stroke="white" stroke-width="7.36716"/>
<path d="M6.56085 1241.34L80.5622 1321.55L702.717 1321.55" stroke="white" stroke-width="7.36716"/>
</svg>
