<svg width="814" height="2117" viewBox="0 0 814 2117" fill="none" xmlns="http://www.w3.org/2000/svg">
<path d="M295.633 105.748C303.48 105.748 308.172 102.979 310.634 100.209V87.7474H293.325V81.7473H317.48V102.594C313.172 107.44 305.48 111.748 295.556 111.748C277.94 111.748 269.556 99.4401 269.556 82.9781C269.556 66.516 277.017 54.208 294.556 54.208C308.095 54.208 316.095 59.8235 317.172 71.4393H310.095C308.941 63.2082 302.326 60.2082 294.556 60.2082C282.633 60.2082 276.633 69.1315 276.633 82.9781C276.633 96.8246 283.325 105.748 295.633 105.748ZM328.685 110.44V55.5157H346.608C361.916 55.5157 373.071 64.4391 373.071 82.9781C373.071 101.517 361.916 110.44 346.608 110.44H328.685ZM345.839 61.5159H335.762V104.44H345.839C358.147 104.44 365.993 97.1323 365.993 82.9781C365.993 68.8238 358.147 61.5159 345.839 61.5159ZM381.064 92.5937V87.0551H403.065V92.5937H381.064ZM414.775 110.44V55.5157H432.699C448.007 55.5157 459.161 64.4391 459.161 82.9781C459.161 101.517 448.007 110.44 432.699 110.44H414.775ZM431.929 61.5159H421.852V104.44H431.929C444.237 104.44 452.084 97.1323 452.084 82.9781C452.084 68.8238 444.237 61.5159 431.929 61.5159ZM507.617 93.7476H514.694C513.618 105.363 504.771 111.748 491.617 111.748C474.155 111.748 466.001 99.4401 466.001 82.9781C466.001 66.516 474.155 54.208 491.617 54.208C504.848 54.208 513.31 59.8235 514.387 71.4393H507.31C506.156 63.2082 499.386 60.2082 491.617 60.2082C479.616 60.2082 473.078 69.1315 473.078 82.9781C473.078 96.7477 479.616 105.748 491.617 105.748C499.386 105.748 506.463 102.209 507.617 93.7476ZM535.225 55.5157H540.225V110.44H533.456V70.5931H520.225V65.5929C529.994 64.8237 532.994 63.439 535.225 55.5157Z" fill="white"/>
<path d="M808.272 84.3916L734.271 4.18025L112.116 4.18027" stroke="white" stroke-width="7.36716"/>
<path d="M5.08486 85.9736L80.569 4.17524L702.724 4.17521" stroke="white" stroke-width="7.36716"/>
<path d="M808.265 79.4336L732.11 161.97L109.956 161.97" stroke="white" stroke-width="7.36716"/>
<path d="M6.56769 81.7568L80.5691 161.968L702.724 161.968" stroke="white" stroke-width="7.36716"/>
<path d="M151.863 298.404H174.267C186.113 298.404 193.286 303.078 193.286 313.394C193.286 320.647 188.45 324.595 184.824 325.885V326.207C189.659 327.013 195.3 331.284 195.3 339.907C195.3 350.545 187.241 355.944 175.798 355.944H151.863V298.404ZM159.277 323.306H175.395C181.439 323.306 185.871 319.921 185.871 313.958C185.871 308.075 181.439 304.69 175.395 304.69H159.277V323.306ZM187.886 339.585C187.886 333.299 183.534 329.592 176.604 329.592H159.277V349.658H176.604C183.534 349.658 187.886 345.871 187.886 339.585ZM205.187 319.438L205.026 312.829H212.118L212.279 319.599H212.521C213.488 316.134 217.437 312.024 224.206 312.024H226.14V318.31H222.756C215.986 318.31 212.279 323.467 212.279 331.607V355.944H205.187V319.438ZM248.552 317.423C242.508 317.423 238.398 319.76 237.834 324.676H230.742C231.145 315.892 237.995 311.862 248.552 311.862C260.802 311.862 266.282 317.181 266.282 326.207V345.79C266.282 350.384 266.282 351.431 266.685 355.944H259.593C259.271 352.56 259.19 351.351 259.19 348.772H258.948C256.772 352.721 251.776 356.911 243.395 356.911C234.933 356.911 229.13 352.076 229.13 343.614C229.13 334.669 235.739 330.881 244.765 329.753L259.19 327.9V326.207C259.19 320.002 255.322 317.423 248.552 317.423ZM236.222 343.614C236.222 348.45 239.607 351.351 245.168 351.351C250.97 351.351 259.432 346.918 259.432 335.958V333.299L245.973 335.072C239.607 335.878 236.222 338.698 236.222 343.614ZM277.745 298.404H284.837V332.01L304.258 312.829H312.801L292.009 333.057L313.204 355.944H304.258L284.837 334.508V355.944H277.745V298.404ZM354.823 336.764H321.298C322.024 345.79 326.617 351.512 335.079 351.512C340.962 351.512 345.797 348.53 347.167 342.889H354.017C352.728 352.076 344.83 356.911 335.079 356.911C321.701 356.911 314.368 348.208 314.368 334.347C314.368 320.485 322.024 311.862 334.596 311.862C347.973 311.862 354.823 320.647 354.823 336.039V336.764ZM321.379 331.365H347.812C347.006 322.903 342.493 317.262 334.596 317.262C326.698 317.262 322.185 322.903 321.379 331.365ZM384.814 298.404H421.16V304.69H392.228V324.031H419.548V330.317H392.228V355.944H384.814V298.404ZM447.146 356.911C434.09 356.911 426.515 348.127 426.515 334.347C426.515 320.566 434.09 311.862 447.146 311.862C460.201 311.862 467.776 320.566 467.776 334.347C467.776 348.127 460.201 356.911 447.146 356.911ZM447.146 351.351C456.172 351.351 460.684 344.259 460.684 334.347C460.684 324.434 456.172 317.423 447.146 317.423C438.2 317.423 433.607 324.434 433.607 334.347C433.607 344.259 438.2 351.351 447.146 351.351ZM477.174 319.438L477.012 312.829H484.104L484.265 319.599H484.507C485.474 316.134 489.423 312.024 496.193 312.024H498.127V318.31H494.742C487.972 318.31 484.265 323.467 484.265 331.607V355.944H477.174V319.438ZM559.095 355.944V327.658C559.095 319.841 554.26 317.423 549.827 317.423C545.314 317.423 539.431 320.485 539.431 329.914V355.944H532.34V327.658C532.34 319.841 527.504 317.423 523.072 317.423C518.559 317.423 512.676 320.485 512.676 329.914V355.944H505.584V319.438L505.423 312.829H512.515L512.676 318.712H512.918C514.53 314.683 520.171 311.862 525.328 311.862C532.178 311.862 536.45 315.247 538.142 319.518H538.303C540.157 314.764 545.717 311.862 552.084 311.862C559.981 311.862 566.187 316.375 566.187 326.207V355.944H559.095ZM615.477 336.764H581.952C582.677 345.79 587.271 351.512 595.733 351.512C601.615 351.512 606.451 348.53 607.821 342.889H614.671C613.381 352.076 605.484 356.911 595.733 356.911C582.355 356.911 575.021 348.208 575.021 334.347C575.021 320.485 582.677 311.862 595.249 311.862C608.627 311.862 615.477 320.647 615.477 336.039V336.764ZM582.032 331.365H608.465C607.66 322.903 603.147 317.262 595.249 317.262C587.351 317.262 582.838 322.903 582.032 331.365ZM622.556 334.347C622.556 319.277 631.501 311.862 641.978 311.862C648.425 311.862 653.582 315.328 655.758 318.551H655.839V298.404H662.931V345.468L663.173 355.944H656.081L655.839 349.497H655.758C654.066 353.366 648.747 356.911 641.817 356.911C630.212 356.911 622.556 348.611 622.556 334.347ZM656.564 334.347C656.564 324.434 651.568 317.423 643.187 317.423C634.725 317.423 629.648 324.434 629.648 334.347C629.648 344.259 634.725 351.351 643.187 351.351C651.568 351.351 656.564 344.259 656.564 334.347ZM184.209 436.944V379.404H202.986C219.023 379.404 230.708 388.752 230.708 408.174C230.708 427.596 219.023 436.944 202.986 436.944H184.209ZM202.18 385.69H191.623V430.658H202.18C215.074 430.658 223.294 423.003 223.294 408.174C223.294 393.346 215.074 385.69 202.18 385.69ZM239.969 387.382V379.404H247.705V387.382H239.969ZM240.291 436.944V393.829H247.383V436.944H240.291ZM259.333 400.438L259.172 393.829H266.263L266.425 400.599H266.666C268.278 396.892 273.194 392.862 280.528 392.862C290.037 392.862 296.001 398.826 296.001 408.497V436.944H288.909V409.302C288.909 402.614 285.363 398.423 278.755 398.423C271.26 398.423 266.425 404.064 266.425 412.042V436.944H259.333V400.438ZM307.021 387.382V379.404H314.758V387.382H307.021ZM307.343 436.944V393.829H314.435V436.944H307.343ZM326.385 400.438L326.224 393.829H333.316L333.477 400.599H333.719C335.33 396.892 340.246 392.862 347.58 392.862C357.089 392.862 363.053 398.826 363.053 408.497V436.944H355.961V409.302C355.961 402.614 352.415 398.423 345.807 398.423C338.312 398.423 333.477 404.064 333.477 412.042V436.944H326.385V400.438ZM372.059 414.702C372.059 400.518 381.487 392.862 391.48 392.862C398.572 392.862 403.327 396.328 405.261 399.954H405.342L405.583 393.829H412.756L412.514 404.306V433.56C412.514 446.051 402.843 452.337 391.561 452.337C381.246 452.337 375.604 448.791 374.234 440.248H381.326C382.374 445.003 385.92 447.098 391.964 447.098C399.539 447.098 405.342 442.183 405.342 433.56V428.966H405.261C403.246 432.995 397.766 436.541 391.319 436.541C379.473 436.541 372.059 428.885 372.059 414.702ZM406.147 414.702C406.147 404.79 400.829 398.423 392.689 398.423C384.469 398.423 379.15 404.79 379.15 414.702C379.15 424.614 384.469 430.981 392.689 430.981C400.829 430.981 406.147 424.614 406.147 414.702ZM484.753 419.457H492.168C491.039 431.625 481.772 438.314 467.991 438.314C449.697 438.314 441.155 425.42 441.155 408.174C441.155 390.928 449.697 378.034 467.991 378.034C481.852 378.034 490.717 383.917 491.845 396.086H484.431C483.222 387.463 476.13 384.32 467.991 384.32C455.419 384.32 448.569 393.668 448.569 408.174C448.569 422.6 455.419 432.028 467.991 432.028C476.13 432.028 483.545 428.321 484.753 419.457ZM500.701 379.404H507.793V400.599H508.035C509.646 396.892 514.482 392.862 521.896 392.862C531.325 392.862 537.369 398.826 537.369 408.497V436.944H530.277V409.302C530.277 402.614 526.731 398.423 520.123 398.423C512.628 398.423 507.793 404.064 507.793 412.042V436.944H500.701V379.404ZM565.397 398.423C559.353 398.423 555.243 400.76 554.679 405.676H547.587C547.99 396.892 554.84 392.862 565.397 392.862C577.647 392.862 583.127 398.181 583.127 407.207V426.79C583.127 431.384 583.127 432.431 583.53 436.944H576.438C576.116 433.56 576.035 432.351 576.035 429.772H575.793C573.617 433.721 568.621 437.911 560.24 437.911C551.778 437.911 545.975 433.076 545.975 424.614C545.975 415.669 552.584 411.881 561.61 410.753L576.035 408.9V407.207C576.035 401.002 572.167 398.423 565.397 398.423ZM553.067 424.614C553.067 429.45 556.452 432.351 562.013 432.351C567.815 432.351 576.277 427.918 576.277 416.958V414.299L562.818 416.072C556.452 416.878 553.067 419.698 553.067 424.614ZM594.59 387.382V379.404H602.326V387.382H594.59ZM594.912 436.944V393.829H602.004V436.944H594.912ZM613.954 400.438L613.793 393.829H620.884L621.045 400.599H621.287C622.254 397.134 626.203 393.024 632.973 393.024H634.907V399.31H631.522C624.753 399.31 621.045 404.467 621.045 412.607V436.944H613.954V400.438Z" fill="white"/>
<path d="M224.275 600.354L245.065 545.453H253.458L274.248 600.354H266.779L261.774 586.956H236.749L231.744 600.354H224.275ZM238.982 580.95H259.541L253.689 565.319C252.149 561.238 250.686 556.849 249.454 552.768H249.146C247.914 556.849 246.374 561.238 244.834 565.319L238.982 580.95ZM280.959 600.354V545.376H287.735V600.354H280.959ZM333.664 594.04L333.818 600.354H327.042L326.888 593.886H326.657C325.117 597.351 320.497 601.278 313.49 601.278C304.481 601.278 299.091 595.657 299.091 586.417V559.159H305.867V585.57C305.867 591.961 308.87 595.965 315.184 595.965C322.268 595.965 326.888 590.575 326.888 582.952V559.159H333.664V594.04ZM396.72 600.354V573.327C396.72 565.858 392.1 563.548 387.865 563.548C383.553 563.548 377.932 566.474 377.932 575.483V600.354H371.156V573.327C371.156 565.858 366.536 563.548 362.301 563.548C357.989 563.548 352.368 566.474 352.368 575.483V600.354H345.592V565.473L345.438 559.159H352.214L352.368 564.78H352.599C354.139 560.93 359.529 558.235 364.457 558.235C371.002 558.235 375.083 561.469 376.7 565.55H376.854C378.625 561.007 383.938 558.235 390.021 558.235C397.567 558.235 403.496 562.547 403.496 571.941V600.354H396.72ZM414.786 552.999V545.376H422.178V552.999H414.786ZM415.094 600.354V559.159H421.87V600.354H415.094ZM434.058 565.473L433.904 559.159H440.68L440.834 565.627H441.065C442.605 562.085 447.302 558.235 454.309 558.235C463.395 558.235 469.093 563.933 469.093 573.173V600.354H462.317V573.943C462.317 567.552 458.929 563.548 452.615 563.548C445.454 563.548 440.834 568.938 440.834 576.561V600.354H434.058V565.473ZM514.58 594.04L514.734 600.354H507.958L507.804 593.886H507.573C506.033 597.351 501.413 601.278 494.406 601.278C485.397 601.278 480.007 595.657 480.007 586.417V559.159H486.783V585.57C486.783 591.961 489.786 595.965 496.1 595.965C503.184 595.965 507.804 590.575 507.804 582.952V559.159H514.58V594.04ZM577.637 600.354V573.327C577.637 565.858 573.017 563.548 568.782 563.548C564.47 563.548 558.849 566.474 558.849 575.483V600.354H552.073V573.327C552.073 565.858 547.453 563.548 543.218 563.548C538.906 563.548 533.285 566.474 533.285 575.483V600.354H526.509V565.473L526.355 559.159H533.131L533.285 564.78H533.516C535.056 560.93 540.446 558.235 545.374 558.235C551.919 558.235 556 561.469 557.617 565.55H557.771C559.542 561.007 564.855 558.235 570.938 558.235C578.484 558.235 584.413 562.547 584.413 571.941V600.354H577.637Z" fill="white"/>
<path d="M154.127 706.478C164.291 706.478 171.683 712.022 171.683 721.493C171.683 729.424 167.987 734.66 161.288 740.666L143.732 756.605V756.913H172.838V762.765H135.262V755.989L156.745 736.046C161.904 731.195 164.83 727.345 164.83 721.878C164.83 715.718 160.287 712.33 154.127 712.33C148.044 712.33 142.654 715.795 142.115 723.341H135.262C136.032 711.637 144.194 706.478 154.127 706.478ZM176.666 744.362L202.461 707.787H209.776V744.67H218.015V750.522H209.776V762.765H202.923V750.522H176.666V744.362ZM203.462 716.334H203.154C200.074 721.724 196.455 726.652 192.374 732.427L183.519 744.67H202.923V731.734C202.923 728.269 203.077 721.108 203.462 716.334ZM226.398 752.678H235.176V762.765H226.398V752.678ZM241.066 713.639V707.787H276.486V712.946L252.693 762.765H245.224L268.786 713.639H241.066ZM301.595 764.074C291.816 764.074 283.808 760.224 282.499 749.444H289.352C290.584 756.066 295.666 758.222 301.595 758.222C309.295 758.222 315.147 752.447 315.147 744.67C315.147 736.893 310.681 731.041 302.288 731.041C296.898 731.041 292.971 733.428 290.892 737.509H283.808L288.659 707.787H319.844V713.639H294.357L291.585 729.732H291.893C293.895 727.345 298.515 725.189 303.443 725.189C314.685 725.189 322.077 733.197 322.077 744.67C322.077 756.143 313.376 764.074 301.595 764.074ZM332.898 707.864H339.982V731.349H368.549V707.864H375.633V762.765H368.549V737.355H339.982V762.765H332.898V707.864ZM413.027 728.038L403.787 715.872H408.792L415.645 725.266L422.498 715.872H427.503L418.186 728.038L427.965 740.666H422.96L415.645 730.81L408.253 740.666H403.325L413.027 728.038ZM481.561 721.185C481.561 715.025 476.556 712.33 470.935 712.33C465.468 712.33 460.386 714.409 459.539 721.262H452.686C453.61 710.713 460.848 706.478 470.935 706.478C481.407 706.478 488.491 711.791 488.491 720.261C488.491 727.807 483.64 731.888 479.79 733.197V733.351C485.103 734.814 490.647 738.972 490.647 747.904C490.647 758.222 481.946 764.074 470.935 764.074C458.769 764.074 451.531 759.223 451.223 748.058H458.076C458.769 755.142 463.466 758.222 470.935 758.222C478.481 758.222 483.717 754.372 483.717 747.134C483.717 740.358 478.866 736.662 471.474 736.662H466.931V730.502H471.012C476.941 730.502 481.561 727.191 481.561 721.185ZM540.612 735.276C540.612 751.061 534.683 764.074 519.668 764.074C504.653 764.074 498.647 751.061 498.647 735.276C498.647 719.491 504.653 706.478 519.668 706.478C534.683 706.478 540.612 719.491 540.612 735.276ZM533.682 735.276C533.682 722.34 529.909 712.33 519.668 712.33C509.504 712.33 505.577 722.34 505.577 735.276C505.577 748.135 509.504 758.222 519.668 758.222C529.909 758.222 533.682 748.135 533.682 735.276ZM549.073 752.678H557.851V762.765H549.073V752.678ZM586.504 764.074C576.725 764.074 568.717 760.224 567.408 749.444H574.261C575.493 756.066 580.575 758.222 586.504 758.222C594.204 758.222 600.056 752.447 600.056 744.67C600.056 736.893 595.59 731.041 587.197 731.041C581.807 731.041 577.88 733.428 575.801 737.509H568.717L573.568 707.787H604.753V713.639H579.266L576.494 729.732H576.802C578.804 727.345 583.424 725.189 588.352 725.189C599.594 725.189 606.986 733.197 606.986 744.67C606.986 756.143 598.285 764.074 586.504 764.074ZM634.516 762.765H626.046L612.032 707.787H619.116L626.662 738.202C628.048 743.438 629.434 749.444 630.435 754.757H630.743C631.821 749.444 633.284 743.438 634.593 738.202L641.985 707.787H650.455L657.847 738.202C659.156 743.438 660.619 749.444 661.697 754.757H662.005C663.006 749.444 664.392 743.438 665.778 738.202L673.324 707.787H680.408L666.394 762.765H657.924L650.378 732.812C649.069 727.499 647.606 721.955 646.374 716.18H646.066C644.834 721.955 643.371 727.499 642.062 732.812L634.516 762.765ZM285.875 805.038L276.635 792.872H281.64L288.493 802.266L295.346 792.872H300.351L291.034 805.038L300.813 817.666H295.808L288.493 807.81L281.101 817.666H276.173L285.875 805.038ZM354.409 798.185C354.409 792.025 349.404 789.33 343.783 789.33C338.316 789.33 333.234 791.409 332.387 798.262H325.534C326.458 787.713 333.696 783.478 343.783 783.478C354.255 783.478 361.339 788.791 361.339 797.261C361.339 804.807 356.488 808.888 352.638 810.197V810.351C357.951 811.814 363.495 815.972 363.495 824.904C363.495 835.222 354.794 841.074 343.783 841.074C331.617 841.074 324.379 836.223 324.071 825.058H330.924C331.617 832.142 336.314 835.222 343.783 835.222C351.329 835.222 356.565 831.372 356.565 824.134C356.565 817.358 351.714 813.662 344.322 813.662H339.779V807.502H343.86C349.789 807.502 354.409 804.191 354.409 798.185ZM385.883 784.787H390.888V839.765H384.112V799.879H370.868V794.874C380.647 794.104 383.65 792.718 385.883 784.787ZM405.648 839.765V784.787H423.589C438.912 784.787 450.077 793.719 450.077 812.276C450.077 830.833 438.912 839.765 423.589 839.765H405.648ZM422.819 790.793H412.732V833.759H422.819C435.139 833.759 442.993 826.444 442.993 812.276C442.993 798.108 435.139 790.793 422.819 790.793ZM478.738 792.41V784.787H486.13V792.41H478.738ZM479.046 839.765V798.57H485.822V839.765H479.046ZM498.01 804.884L497.856 798.57H504.632L504.786 805.038H505.017C506.557 801.496 511.254 797.646 518.261 797.646C527.347 797.646 533.045 803.344 533.045 812.584V839.765H526.269V813.354C526.269 806.963 522.881 802.959 516.567 802.959C509.406 802.959 504.786 808.349 504.786 815.972V839.765H498.01V804.884Z" fill="white"/>
<path d="M809.671 648.9L809.671 268.328L735.536 187.971L112.254 187.971" stroke="white" stroke-width="7.32623"/>
<path d="M3.77836 645.544L3.77834 268.327L77.9137 187.97L701.195 187.97" stroke="white" stroke-width="7.32623"/>
<path d="M3.68506 503.612L3.6851 873.382L77.8204 953.738L701.102 953.738" stroke="white" stroke-width="7.32623"/>
<path d="M809.574 482.191L809.574 873.383L735.438 953.739L112.157 953.739" stroke="white" stroke-width="7.32623"/>
<path d="M207.83 1308.12V1256.87H189.375V1250.58H233.699V1256.87H215.244V1308.12H207.83ZM234.897 1271.62L234.735 1265.01H241.827L241.988 1271.78H242.23C243.197 1268.31 247.146 1264.2 253.916 1264.2H255.85V1270.49H252.465C245.695 1270.49 241.988 1275.65 241.988 1283.79V1308.12H234.897V1271.62ZM278.261 1269.6C272.217 1269.6 268.107 1271.94 267.543 1276.86H260.451C260.854 1268.07 267.704 1264.04 278.261 1264.04C290.511 1264.04 295.991 1269.36 295.991 1278.39V1297.97C295.991 1302.56 295.991 1303.61 296.394 1308.12H289.302C288.98 1304.74 288.899 1303.53 288.899 1300.95H288.657C286.481 1304.9 281.485 1309.09 273.104 1309.09C264.642 1309.09 258.84 1304.26 258.84 1295.79C258.84 1286.85 265.448 1283.06 274.474 1281.93L288.899 1280.08V1278.39C288.899 1272.18 285.031 1269.6 278.261 1269.6ZM265.931 1295.79C265.931 1300.63 269.316 1303.53 274.877 1303.53C280.679 1303.53 289.141 1299.1 289.141 1288.14V1285.48L275.683 1287.25C269.316 1288.06 265.931 1290.88 265.931 1295.79ZM307.615 1271.62L307.454 1265.01H314.546L314.707 1271.78H314.949C316.56 1268.07 321.476 1264.04 328.81 1264.04C338.319 1264.04 344.283 1270.01 344.283 1279.68V1308.12H337.191V1280.48C337.191 1273.79 333.645 1269.6 327.037 1269.6C319.542 1269.6 314.707 1275.24 314.707 1283.22V1308.12H307.615V1271.62ZM369.809 1269.28C364.49 1269.28 360.058 1271.38 360.058 1275.81C360.058 1279.84 362.798 1281.37 368.842 1282.66L372.791 1283.46C381.898 1285.32 387.619 1287.41 387.619 1296.12C387.619 1303.29 381.011 1309.09 370.212 1309.09C358.688 1309.09 352.805 1304.34 352.402 1295.15H359.494C359.897 1300.79 363.362 1303.85 370.212 1303.85C376.659 1303.85 380.769 1301.11 380.769 1296.68C380.769 1292.49 377.868 1290.96 371.502 1289.59L367.553 1288.86C358.366 1287.01 353.208 1284.43 353.208 1276.45C353.208 1269.36 360.3 1264.04 369.809 1264.04C379.319 1264.04 386.491 1268.23 386.813 1276.86H379.722C379.399 1272.02 375.45 1269.28 369.809 1269.28ZM396.385 1308.12V1250.58H403.476V1308.12H396.385ZM450.739 1301.52L450.9 1308.12H443.808L443.647 1301.35H443.405C441.794 1304.98 436.958 1309.09 429.625 1309.09C420.196 1309.09 414.555 1303.21 414.555 1293.54V1265.01H421.647V1292.65C421.647 1299.34 424.79 1303.53 431.398 1303.53C438.812 1303.53 443.647 1297.89 443.647 1289.91V1265.01H450.739V1301.52ZM480.953 1269.6C471.927 1269.6 467.172 1276.69 467.172 1286.53C467.172 1296.36 471.846 1303.53 480.953 1303.53C486.836 1303.53 491.671 1300.87 492.719 1294.91H499.811C498.36 1304.5 490.623 1309.09 480.953 1309.09C467.495 1309.09 460.08 1300.31 460.08 1286.53C460.08 1272.67 467.575 1264.04 480.953 1264.04C491.993 1264.04 498.118 1269.36 499.488 1277.82H492.396C491.268 1272.5 486.997 1269.6 480.953 1269.6ZM546.654 1288.94H513.129C513.854 1297.97 518.448 1303.69 526.91 1303.69C532.793 1303.69 537.628 1300.71 538.998 1295.07H545.848C544.559 1304.26 536.661 1309.09 526.91 1309.09C513.532 1309.09 506.198 1300.39 506.198 1286.53C506.198 1272.67 513.854 1264.04 526.426 1264.04C539.804 1264.04 546.654 1272.83 546.654 1288.22V1288.94ZM513.21 1283.54H539.643C538.837 1275.08 534.324 1269.44 526.426 1269.44C518.528 1269.44 514.016 1275.08 513.21 1283.54ZM556.07 1271.62L555.909 1265.01H563.001L563.162 1271.78H563.404C565.015 1268.07 569.931 1264.04 577.265 1264.04C586.774 1264.04 592.738 1270.01 592.738 1279.68V1308.12H585.646V1280.48C585.646 1273.79 582.1 1269.6 575.492 1269.6C567.997 1269.6 563.162 1275.24 563.162 1283.22V1308.12H556.07V1271.62ZM606.588 1265.01V1255.82H613.68V1265.01H622.061V1270.57H613.68V1298.45C613.68 1301.27 614.486 1302.56 617.065 1302.56H621.658V1308.12H615.05C609.006 1308.12 606.588 1305.22 606.588 1298.45V1270.57H599.658V1265.01H606.588ZM177.401 1331.58H199.805C211.651 1331.58 218.824 1336.26 218.824 1346.57C218.824 1353.83 213.988 1357.78 210.362 1359.06V1359.39C215.197 1360.19 220.838 1364.46 220.838 1373.09C220.838 1383.72 212.779 1389.12 201.336 1389.12H177.401V1331.58ZM184.815 1356.49H200.933C206.977 1356.49 211.409 1353.1 211.409 1347.14C211.409 1341.25 206.977 1337.87 200.933 1337.87H184.815V1356.49ZM213.424 1372.76C213.424 1366.48 209.072 1362.77 202.142 1362.77H184.815V1382.84H202.142C209.072 1382.84 213.424 1379.05 213.424 1372.76ZM230.564 1389.12V1331.58H237.656V1389.12H230.564ZM284.919 1382.52L285.08 1389.12H277.988L277.827 1382.35H277.585C275.973 1385.98 271.138 1390.09 263.805 1390.09C254.376 1390.09 248.735 1384.21 248.735 1374.54V1346.01H255.826V1373.65C255.826 1380.34 258.969 1384.53 265.578 1384.53C272.992 1384.53 277.827 1378.89 277.827 1370.91V1346.01H284.919V1382.52ZM334.716 1369.94H301.191C301.916 1378.97 306.51 1384.69 314.971 1384.69C320.854 1384.69 325.69 1381.71 327.06 1376.07H333.91C332.62 1385.26 324.723 1390.09 314.971 1390.09C301.594 1390.09 294.26 1381.39 294.26 1367.53C294.26 1353.67 301.916 1345.04 314.488 1345.04C327.866 1345.04 334.716 1353.83 334.716 1369.22V1369.94ZM301.271 1364.54H327.704C326.898 1356.08 322.385 1350.44 314.488 1350.44C306.59 1350.44 302.077 1356.08 301.271 1364.54ZM406.371 1349.07C406.371 1358.26 400.004 1366.56 387.029 1366.56H372.121V1389.12H364.706V1331.58H387.029C400.004 1331.58 406.371 1339.8 406.371 1349.07ZM398.957 1349.07C398.957 1342.71 394.605 1337.87 387.835 1337.87H372.121V1360.27H387.835C394.605 1360.27 398.957 1355.44 398.957 1349.07ZM431.445 1390.09C418.39 1390.09 410.814 1381.31 410.814 1367.53C410.814 1353.75 418.39 1345.04 431.445 1345.04C444.5 1345.04 452.076 1353.75 452.076 1367.53C452.076 1381.31 444.5 1390.09 431.445 1390.09ZM431.445 1384.53C440.471 1384.53 444.984 1377.44 444.984 1367.53C444.984 1357.61 440.471 1350.6 431.445 1350.6C422.5 1350.6 417.906 1357.61 417.906 1367.53C417.906 1377.44 422.5 1384.53 431.445 1384.53ZM478.003 1365.43L482.436 1346.01H490.656L495.088 1365.43C496.377 1371.07 497.586 1376.39 498.714 1381.71H498.956C500.246 1376.39 501.616 1370.83 503.308 1365.43L509.271 1346.01H516.444L502.502 1389.12H494.927L489.527 1366.96C488.318 1361.97 487.674 1358.82 486.707 1353.58H486.384C485.417 1358.82 484.773 1361.97 483.564 1366.96L478.164 1389.12H470.589L456.647 1346.01H463.82L469.783 1365.43C471.475 1370.83 472.845 1376.39 474.135 1381.71H474.377C475.505 1376.39 476.714 1371.07 478.003 1365.43ZM521.073 1367.53C521.073 1352.46 530.018 1345.04 540.494 1345.04C546.942 1345.04 552.099 1348.51 554.275 1351.73H554.356V1331.58H561.447V1378.65L561.689 1389.12H554.597L554.356 1382.68H554.275C552.583 1386.55 547.264 1390.09 540.333 1390.09C528.729 1390.09 521.073 1381.79 521.073 1367.53ZM555.081 1367.53C555.081 1357.61 550.084 1350.6 541.703 1350.6C533.241 1350.6 528.164 1357.61 528.164 1367.53C528.164 1377.44 533.241 1384.53 541.703 1384.53C550.084 1384.53 555.081 1377.44 555.081 1367.53ZM611.345 1369.94H577.82C578.545 1378.97 583.139 1384.69 591.601 1384.69C597.484 1384.69 602.319 1381.71 603.689 1376.07H610.539C609.25 1385.26 601.352 1390.09 591.601 1390.09C578.223 1390.09 570.89 1381.39 570.89 1367.53C570.89 1353.67 578.545 1345.04 591.117 1345.04C604.495 1345.04 611.345 1353.83 611.345 1369.22V1369.94ZM577.901 1364.54H604.334C603.528 1356.08 599.015 1350.44 591.117 1350.44C583.22 1350.44 578.707 1356.08 577.901 1364.54ZM620.761 1352.62L620.6 1346.01H627.692L627.853 1352.78H628.095C629.062 1349.31 633.011 1345.2 639.78 1345.2H641.714V1351.49H638.33C631.56 1351.49 627.853 1356.65 627.853 1364.79V1389.12H620.761V1352.62ZM364.343 1452.64H371.757C370.629 1464.81 361.361 1471.49 347.58 1471.49C329.287 1471.49 320.744 1458.6 320.744 1441.35C320.744 1424.11 329.287 1411.21 347.58 1411.21C361.442 1411.21 370.306 1417.1 371.435 1429.27H364.02C362.812 1420.64 355.72 1417.5 347.58 1417.5C335.009 1417.5 328.159 1426.85 328.159 1441.35C328.159 1455.78 335.009 1465.21 347.58 1465.21C355.72 1465.21 363.134 1461.5 364.343 1452.64ZM398.745 1471.09C385.69 1471.09 378.115 1462.31 378.115 1448.53C378.115 1434.75 385.69 1426.04 398.745 1426.04C411.801 1426.04 419.376 1434.75 419.376 1448.53C419.376 1462.31 411.801 1471.09 398.745 1471.09ZM398.745 1465.53C407.771 1465.53 412.284 1458.44 412.284 1448.53C412.284 1438.61 407.771 1431.6 398.745 1431.6C389.8 1431.6 385.206 1438.61 385.206 1448.53C385.206 1458.44 389.8 1465.53 398.745 1465.53ZM445.616 1431.6C439.572 1431.6 435.462 1433.94 434.898 1438.86H427.806C428.209 1430.07 435.059 1426.04 445.616 1426.04C457.866 1426.04 463.346 1431.36 463.346 1440.39V1459.97C463.346 1464.56 463.346 1465.61 463.749 1470.12H456.657C456.335 1466.74 456.254 1465.53 456.254 1462.95H456.012C453.836 1466.9 448.84 1471.09 440.459 1471.09C431.997 1471.09 426.195 1466.26 426.195 1457.79C426.195 1448.85 432.803 1445.06 441.829 1443.93L456.254 1442.08V1440.39C456.254 1434.18 452.386 1431.6 445.616 1431.6ZM433.286 1457.79C433.286 1462.63 436.671 1465.53 442.232 1465.53C448.034 1465.53 456.496 1461.1 456.496 1450.14V1447.48L443.038 1449.25C436.671 1450.06 433.286 1452.88 433.286 1457.79ZM477.718 1427.01V1417.82H484.809V1427.01H493.191V1432.57H484.809V1460.45C484.809 1463.27 485.615 1464.56 488.194 1464.56H492.788V1470.12H486.179C480.135 1470.12 477.718 1467.22 477.718 1460.45V1432.57H470.787V1427.01H477.718Z" fill="white"/>
<path d="M809.671 1440.67L809.671 1060.1L735.536 979.74L112.254 979.74" stroke="white" stroke-width="7.32623"/>
<path d="M3.77836 1437.31L3.77834 1060.1L77.9137 979.74L701.195 979.739" stroke="white" stroke-width="7.32623"/>
<path d="M3.68506 1295.38L3.6851 1665.15L77.8204 1745.51L701.102 1745.51" stroke="white" stroke-width="7.32623"/>
<path d="M809.574 1273.96L809.574 1665.15L735.438 1745.51L112.157 1745.51" stroke="white" stroke-width="7.32623"/>
<path d="M248.746 1822.85H253.746V1877.77H246.976V1837.93H233.745V1832.93C243.515 1832.16 246.515 1830.77 248.746 1822.85ZM293.57 1836.23C293.57 1830.08 288.57 1827.39 282.954 1827.39C277.492 1827.39 272.415 1829.47 271.569 1836.31H264.723C265.646 1825.77 272.877 1821.54 282.954 1821.54C293.416 1821.54 300.493 1826.85 300.493 1835.31C300.493 1842.85 295.647 1846.93 291.8 1848.24V1848.39C297.108 1849.85 302.647 1854 302.647 1862.93C302.647 1873.24 293.954 1879.08 282.954 1879.08C270.8 1879.08 263.569 1874.24 263.261 1863.08H270.108C270.8 1870.16 275.492 1873.24 282.954 1873.24C290.493 1873.24 295.724 1869.39 295.724 1862.16C295.724 1855.39 290.877 1851.7 283.493 1851.7H278.954V1845.54H283.031C288.954 1845.54 293.57 1842.23 293.57 1836.23ZM351.794 1850.31C351.794 1866.08 345.871 1879.08 330.87 1879.08C315.87 1879.08 309.87 1866.08 309.87 1850.31C309.87 1834.54 315.87 1821.54 330.87 1821.54C345.871 1821.54 351.794 1834.54 351.794 1850.31ZM344.871 1850.31C344.871 1837.39 341.101 1827.39 330.87 1827.39C320.716 1827.39 316.793 1837.39 316.793 1850.31C316.793 1863.16 320.716 1873.24 330.87 1873.24C341.101 1873.24 344.871 1863.16 344.871 1850.31ZM401.525 1850.31C401.525 1866.08 395.602 1879.08 380.601 1879.08C365.601 1879.08 359.601 1866.08 359.601 1850.31C359.601 1834.54 365.601 1821.54 380.601 1821.54C395.602 1821.54 401.525 1834.54 401.525 1850.31ZM394.602 1850.31C394.602 1837.39 390.832 1827.39 380.601 1827.39C370.447 1827.39 366.524 1837.39 366.524 1850.31C366.524 1863.16 370.447 1873.24 380.601 1873.24C390.832 1873.24 394.602 1863.16 394.602 1850.31ZM430.048 1857.77V1822.85H437.125V1858.31C437.125 1867 442.664 1873.08 451.51 1873.08C460.434 1873.08 465.818 1866.93 465.818 1858.24V1822.85H472.895V1857.7C472.895 1871.39 464.28 1879.08 451.51 1879.08C438.817 1879.08 430.048 1871.47 430.048 1857.77ZM523.565 1837.54H516.487C515.718 1831 510.949 1827.23 503.179 1827.23C494.948 1827.23 489.794 1830.93 489.794 1836.77C489.794 1842 494.41 1844.31 501.41 1845.77L507.41 1847C517.411 1849.08 524.718 1851.77 524.718 1863.24C524.718 1873.01 515.103 1879.08 503.333 1879.08C489.948 1879.08 482.256 1872.77 481.948 1861.47H489.025C489.41 1869 494.564 1873.39 503.333 1873.39C511.872 1873.39 517.487 1869.47 517.564 1863.62C517.641 1857 513.103 1855.16 504.795 1853.47L498.795 1852.24C489.025 1850.24 482.717 1846.39 482.717 1837.31C482.717 1827.85 491.871 1821.54 503.179 1821.54C514.026 1821.54 522.718 1826.31 523.565 1837.54ZM534.633 1877.77V1822.85H552.556C567.865 1822.85 579.019 1831.77 579.019 1850.31C579.019 1868.85 567.865 1877.77 552.556 1877.77H534.633ZM551.787 1828.85H541.71V1871.77H551.787C564.095 1871.77 571.942 1864.47 571.942 1850.31C571.942 1836.16 564.095 1828.85 551.787 1828.85Z" fill="white"/>
<path d="M808.272 1851.73L734.271 1771.51L112.116 1771.51" stroke="white" stroke-width="7.36716"/>
<path d="M5.08486 1853.31L80.569 1771.51L702.724 1771.51" stroke="white" stroke-width="7.36716"/>
<path d="M808.265 1846.77L732.11 1929.3L109.956 1929.3" stroke="white" stroke-width="7.36716"/>
<path d="M6.56769 1849.09L80.5691 1929.3L702.724 1929.3" stroke="white" stroke-width="7.36716"/>
<path d="M127.81 2056.88C135.656 2056.88 140.349 2054.11 142.81 2051.34V2038.88H125.502V2032.88H149.656V2053.72C145.349 2058.57 137.656 2062.88 127.733 2062.88C110.117 2062.88 101.732 2050.57 101.732 2034.11C101.732 2017.64 109.194 2005.34 126.733 2005.34C140.272 2005.34 148.272 2010.95 149.349 2022.57H142.272C141.118 2014.34 134.502 2011.34 126.733 2011.34C114.809 2011.34 108.809 2020.26 108.809 2034.11C108.809 2047.95 115.502 2056.88 127.81 2056.88ZM160.861 2061.57V2006.64H195.862V2012.64H167.938V2030.34H194.324V2036.34H167.938V2055.57H195.862V2061.57H160.861ZM201.795 2034.11C201.795 2016.95 210.949 2005.34 227.873 2005.34C244.796 2005.34 254.027 2016.95 254.027 2034.11C254.027 2051.26 244.796 2062.88 227.873 2062.88C210.949 2062.88 201.795 2051.26 201.795 2034.11ZM208.872 2034.11C208.872 2047.26 215.257 2056.88 227.873 2056.88C240.489 2056.88 246.95 2047.26 246.95 2034.11C246.95 2020.95 240.489 2011.34 227.873 2011.34C215.257 2011.34 208.872 2020.95 208.872 2034.11ZM305.302 2022.34C305.302 2029.03 300.918 2034.11 296.148 2035.57V2035.88C301.071 2036.72 304.148 2040.95 304.995 2047.49L306.764 2061.57H299.379L297.687 2047.49C296.764 2040.26 292.764 2038.88 284.994 2038.88H271.532V2061.57H264.532V2006.64H287.071C299.225 2006.64 305.302 2013.41 305.302 2022.34ZM298.302 2022.72C298.302 2016.41 294.148 2012.64 286.456 2012.64H271.532V2032.88H286.302C293.994 2032.88 298.302 2029.03 298.302 2022.72ZM340.031 2056.88C347.877 2056.88 352.569 2054.11 355.031 2051.34V2038.88H337.723V2032.88H361.877V2053.72C357.57 2058.57 349.877 2062.88 339.954 2062.88C322.338 2062.88 313.953 2050.57 313.953 2034.11C313.953 2017.64 321.415 2005.34 338.954 2005.34C352.492 2005.34 360.493 2010.95 361.57 2022.57H354.493C353.339 2014.34 346.723 2011.34 338.954 2011.34C327.03 2011.34 321.03 2020.26 321.03 2034.11C321.03 2047.95 327.722 2056.88 340.031 2056.88ZM373.082 2061.57V2006.64H408.083V2012.64H380.159V2030.34H406.545V2036.34H380.159V2055.57H408.083V2061.57H373.082ZM455.566 2061.57V2006.64H473.49C488.798 2006.64 499.952 2015.57 499.952 2034.11C499.952 2052.65 488.798 2061.57 473.49 2061.57H455.566ZM472.721 2012.64H462.644V2055.57H472.721C485.029 2055.57 492.875 2048.26 492.875 2034.11C492.875 2019.95 485.029 2012.64 472.721 2012.64ZM502.513 2061.57L523.283 2006.72H531.668L552.438 2061.57H544.976L539.976 2048.18H514.975L509.975 2061.57H502.513ZM517.206 2042.18H537.745L531.899 2026.57C530.36 2022.49 528.899 2018.11 527.668 2014.03H527.36C526.129 2018.11 524.591 2022.49 523.052 2026.57L517.206 2042.18ZM570.227 2061.57L550.227 2006.64H557.688L568.997 2038.34C570.766 2043.41 572.92 2049.49 574.304 2054.18H574.612C575.997 2049.49 578.074 2043.41 579.843 2038.34L591.228 2006.64H598.613L578.612 2061.57H570.227ZM606.563 2006.64H613.64V2061.57H606.563V2006.64ZM627.597 2061.57V2006.64H662.598V2012.64H634.674V2030.34H661.059V2036.34H634.674V2055.57H662.598V2061.57H627.597ZM710.958 2021.34H703.88C703.111 2014.8 698.342 2011.03 690.572 2011.03C682.341 2011.03 677.187 2014.72 677.187 2020.57C677.187 2025.8 681.803 2028.11 688.803 2029.57L694.803 2030.8C704.804 2032.88 712.111 2035.57 712.111 2047.03C712.111 2056.8 702.496 2062.88 690.726 2062.88C677.341 2062.88 669.649 2056.57 669.341 2045.26H676.418C676.803 2052.8 681.957 2057.18 690.726 2057.18C699.265 2057.18 704.88 2053.26 704.957 2047.41C705.034 2040.8 700.496 2038.95 692.188 2037.26L686.188 2036.03C676.418 2034.03 670.11 2030.18 670.11 2021.11C670.11 2011.64 679.264 2005.34 690.572 2005.34C701.419 2005.34 710.111 2010.11 710.958 2021.34Z" fill="white"/>
<path d="M808.272 2035.52L734.271 1955.31L112.116 1955.31" stroke="white" stroke-width="7.36716"/>
<path d="M5.08486 2037.1L80.569 1955.3L702.724 1955.3" stroke="white" stroke-width="7.36716"/>
<path d="M808.265 2030.56L732.11 2113.1L109.956 2113.1" stroke="white" stroke-width="7.36716"/>
<path d="M6.56769 2032.88L80.5691 2113.1L702.724 2113.1" stroke="white" stroke-width="7.36716"/>
</svg>
