<svg width="814" height="2117" viewBox="0 0 814 2117" fill="none" xmlns="http://www.w3.org/2000/svg">
<path d="M298.8 105.748C306.646 105.748 311.339 102.979 313.8 100.209V87.7474H296.492V81.7473H320.647V102.594C316.339 107.44 308.646 111.748 298.723 111.748C281.107 111.748 272.722 99.4401 272.722 82.9781C272.722 66.516 280.184 54.208 297.723 54.208C311.262 54.208 319.262 59.8235 320.339 71.4393H313.262C312.108 63.2082 305.492 60.2082 297.723 60.2082C285.799 60.2082 279.799 69.1315 279.799 82.9781C279.799 96.8246 286.492 105.748 298.8 105.748ZM331.851 110.44V55.5157H349.775C365.083 55.5157 376.237 64.4391 376.237 82.9781C376.237 101.517 365.083 110.44 349.775 110.44H331.851ZM349.006 61.5159H338.928V104.44H349.006C361.314 104.44 369.16 97.1323 369.16 82.9781C369.16 68.8238 361.314 61.5159 349.006 61.5159ZM384.231 92.5937V87.0551H406.232V92.5937H384.231ZM457.712 72.2085C457.712 80.978 451.635 88.9013 439.25 88.9013H425.019V110.44H417.942V55.5157H439.25C451.635 55.5157 457.712 63.3621 457.712 72.2085ZM450.635 72.2085C450.635 66.1314 446.481 61.5159 440.019 61.5159H425.019V82.9011H440.019C446.481 82.9011 450.635 78.2856 450.635 72.2085ZM505.45 93.7476H512.527C511.45 105.363 502.604 111.748 489.45 111.748C471.988 111.748 463.834 99.4401 463.834 82.9781C463.834 66.516 471.988 54.208 489.45 54.208C502.681 54.208 511.143 59.8235 512.22 71.4393H505.143C503.989 63.2082 497.219 60.2082 489.45 60.2082C477.449 60.2082 470.911 69.1315 470.911 82.9781C470.911 96.7477 477.449 105.748 489.45 105.748C497.219 105.748 504.296 102.209 505.45 93.7476ZM533.058 55.5157H538.058V110.44H531.289V70.5931H518.058V65.5929C527.827 64.8237 530.827 63.439 533.058 55.5157Z" fill="white"/>
<path d="M808.772 84.3916L734.77 4.18025L112.616 4.18027" stroke="white" stroke-width="7.36716"/>
<path d="M5.58437 85.9736L81.0685 4.17524L703.223 4.17521" stroke="white" stroke-width="7.36716"/>
<path d="M808.764 79.4336L732.61 161.97L110.455 161.97" stroke="white" stroke-width="7.36716"/>
<path d="M7.0672 81.7568L81.0686 161.968L703.223 161.968" stroke="white" stroke-width="7.36716"/>
<path d="M152.363 298.404H174.767C186.613 298.404 193.786 303.078 193.786 313.394C193.786 320.647 188.95 324.595 185.324 325.885V326.207C190.159 327.013 195.8 331.284 195.8 339.907C195.8 350.545 187.741 355.944 176.298 355.944H152.363V298.404ZM159.777 323.306H175.895C181.939 323.306 186.371 319.921 186.371 313.958C186.371 308.075 181.939 304.69 175.895 304.69H159.777V323.306ZM188.386 339.585C188.386 333.299 184.034 329.592 177.104 329.592H159.777V349.658H177.104C184.034 349.658 188.386 345.871 188.386 339.585ZM205.687 319.438L205.526 312.829H212.618L212.779 319.599H213.021C213.988 316.134 217.937 312.024 224.706 312.024H226.64V318.31H223.256C216.486 318.31 212.779 323.467 212.779 331.607V355.944H205.687V319.438ZM249.052 317.423C243.008 317.423 238.898 319.76 238.334 324.676H231.242C231.645 315.892 238.495 311.862 249.052 311.862C261.302 311.862 266.782 317.181 266.782 326.207V345.79C266.782 350.384 266.782 351.431 267.185 355.944H260.093C259.771 352.56 259.69 351.351 259.69 348.772H259.448C257.272 352.721 252.276 356.911 243.895 356.911C235.433 356.911 229.63 352.076 229.63 343.614C229.63 334.669 236.239 330.881 245.265 329.753L259.69 327.9V326.207C259.69 320.002 255.822 317.423 249.052 317.423ZM236.722 343.614C236.722 348.45 240.107 351.351 245.668 351.351C251.47 351.351 259.932 346.918 259.932 335.958V333.299L246.473 335.072C240.107 335.878 236.722 338.698 236.722 343.614ZM278.245 298.404H285.337V332.01L304.758 312.829H313.301L292.509 333.057L313.704 355.944H304.758L285.337 334.508V355.944H278.245V298.404ZM355.323 336.764H321.798C322.524 345.79 327.117 351.512 335.579 351.512C341.462 351.512 346.297 348.53 347.667 342.889H354.517C353.228 352.076 345.33 356.911 335.579 356.911C322.201 356.911 314.868 348.208 314.868 334.347C314.868 320.485 322.524 311.862 335.096 311.862C348.473 311.862 355.323 320.647 355.323 336.039V336.764ZM321.879 331.365H348.312C347.506 322.903 342.993 317.262 335.096 317.262C327.198 317.262 322.685 322.903 321.879 331.365ZM385.314 298.404H421.66V304.69H392.728V324.031H420.048V330.317H392.728V355.944H385.314V298.404ZM447.646 356.911C434.59 356.911 427.015 348.127 427.015 334.347C427.015 320.566 434.59 311.862 447.646 311.862C460.701 311.862 468.276 320.566 468.276 334.347C468.276 348.127 460.701 356.911 447.646 356.911ZM447.646 351.351C456.672 351.351 461.184 344.259 461.184 334.347C461.184 324.434 456.672 317.423 447.646 317.423C438.7 317.423 434.107 324.434 434.107 334.347C434.107 344.259 438.7 351.351 447.646 351.351ZM477.674 319.438L477.512 312.829H484.604L484.765 319.599H485.007C485.974 316.134 489.923 312.024 496.693 312.024H498.627V318.31H495.242C488.472 318.31 484.765 323.467 484.765 331.607V355.944H477.674V319.438ZM559.595 355.944V327.658C559.595 319.841 554.76 317.423 550.327 317.423C545.814 317.423 539.931 320.485 539.931 329.914V355.944H532.84V327.658C532.84 319.841 528.004 317.423 523.572 317.423C519.059 317.423 513.176 320.485 513.176 329.914V355.944H506.084V319.438L505.923 312.829H513.015L513.176 318.712H513.418C515.03 314.683 520.671 311.862 525.828 311.862C532.678 311.862 536.95 315.247 538.642 319.518H538.803C540.657 314.764 546.217 311.862 552.584 311.862C560.481 311.862 566.687 316.375 566.687 326.207V355.944H559.595ZM615.977 336.764H582.452C583.177 345.79 587.771 351.512 596.233 351.512C602.115 351.512 606.951 348.53 608.321 342.889H615.171C613.881 352.076 605.984 356.911 596.233 356.911C582.855 356.911 575.521 348.208 575.521 334.347C575.521 320.485 583.177 311.862 595.749 311.862C609.127 311.862 615.977 320.647 615.977 336.039V336.764ZM582.532 331.365H608.965C608.16 322.903 603.647 317.262 595.749 317.262C587.851 317.262 583.338 322.903 582.532 331.365ZM623.056 334.347C623.056 319.277 632.001 311.862 642.478 311.862C648.925 311.862 654.082 315.328 656.258 318.551H656.339V298.404H663.431V345.468L663.673 355.944H656.581L656.339 349.497H656.258C654.566 353.366 649.247 356.911 642.317 356.911C630.712 356.911 623.056 348.611 623.056 334.347ZM657.064 334.347C657.064 324.434 652.068 317.423 643.687 317.423C635.225 317.423 630.148 324.434 630.148 334.347C630.148 344.259 635.225 351.351 643.687 351.351C652.068 351.351 657.064 344.259 657.064 334.347ZM251.203 396.892C251.203 406.079 244.836 414.38 231.861 414.38H216.953V436.944H209.538V379.404H231.861C244.836 379.404 251.203 387.624 251.203 396.892ZM243.789 396.892C243.789 390.525 239.437 385.69 232.667 385.69H216.953V408.094H232.667C239.437 408.094 243.789 403.258 243.789 396.892ZM275.928 398.423C269.884 398.423 265.774 400.76 265.21 405.676H258.118C258.521 396.892 265.371 392.862 275.928 392.862C288.178 392.862 293.658 398.181 293.658 407.207V426.79C293.658 431.384 293.658 432.431 294.061 436.944H286.969C286.646 433.56 286.566 432.351 286.566 429.772H286.324C284.148 433.721 279.152 437.911 270.771 437.911C262.309 437.911 256.506 433.076 256.506 424.614C256.506 415.669 263.115 411.881 272.141 410.753L286.566 408.9V407.207C286.566 401.002 282.698 398.423 275.928 398.423ZM263.598 424.614C263.598 429.45 266.983 432.351 272.543 432.351C278.346 432.351 286.808 427.918 286.808 416.958V414.299L273.349 416.072C266.983 416.878 263.598 419.698 263.598 424.614ZM308.03 393.829V384.642H315.121V393.829H323.502V399.39H315.121V427.274C315.121 430.094 315.927 431.384 318.506 431.384H323.1V436.944H316.491C310.447 436.944 308.03 434.043 308.03 427.274V399.39H301.099V393.829H308.03ZM332.272 387.382V379.404H340.009V387.382H332.272ZM332.595 436.944V393.829H339.686V436.944H332.595ZM369.93 437.911C356.874 437.911 349.299 429.127 349.299 415.347C349.299 401.566 356.874 392.862 369.93 392.862C382.985 392.862 390.56 401.566 390.56 415.347C390.56 429.127 382.985 437.911 369.93 437.911ZM369.93 432.351C378.956 432.351 383.469 425.259 383.469 415.347C383.469 405.434 378.956 398.423 369.93 398.423C360.984 398.423 356.391 405.434 356.391 415.347C356.391 425.259 360.984 432.351 369.93 432.351ZM460.424 419.457H467.838C466.709 431.625 457.442 438.314 443.661 438.314C425.368 438.314 416.825 425.42 416.825 408.174C416.825 390.928 425.368 378.034 443.661 378.034C457.522 378.034 466.387 383.917 467.515 396.086H460.101C458.892 387.463 451.801 384.32 443.661 384.32C431.089 384.32 424.239 393.668 424.239 408.174C424.239 422.6 431.089 432.028 443.661 432.028C451.801 432.028 459.215 428.321 460.424 419.457ZM476.371 379.404H483.463V400.599H483.705C485.317 396.892 490.152 392.862 497.566 392.862C506.995 392.862 513.039 398.826 513.039 408.497V436.944H505.947V409.302C505.947 402.614 502.401 398.423 495.793 398.423C488.298 398.423 483.463 404.064 483.463 412.042V436.944H476.371V379.404ZM541.068 398.423C535.023 398.423 530.913 400.76 530.349 405.676H523.257C523.66 396.892 530.51 392.862 541.068 392.862C553.317 392.862 558.797 398.181 558.797 407.207V426.79C558.797 431.384 558.797 432.431 559.2 436.944H552.108C551.786 433.56 551.705 432.351 551.705 429.772H551.463C549.288 433.721 544.291 437.911 535.91 437.911C527.448 437.911 521.646 433.076 521.646 424.614C521.646 415.669 528.254 411.881 537.28 410.753L551.705 408.9V407.207C551.705 401.002 547.837 398.423 541.068 398.423ZM528.737 424.614C528.737 429.45 532.122 432.351 537.683 432.351C543.485 432.351 551.947 427.918 551.947 416.958V414.299L538.489 416.072C532.122 416.878 528.737 419.698 528.737 424.614ZM570.26 387.382V379.404H577.997V387.382H570.26ZM570.582 436.944V393.829H577.674V436.944H570.582ZM589.624 400.438L589.463 393.829H596.555L596.716 400.599H596.958C597.925 397.134 601.873 393.024 608.643 393.024H610.577V399.31H607.192C600.423 399.31 596.716 404.467 596.716 412.607V436.944H589.624V400.438Z" fill="white"/>
<path d="M224.775 600.354L245.565 545.453H253.958L274.748 600.354H267.279L262.274 586.956H237.249L232.244 600.354H224.775ZM239.482 580.95H260.041L254.189 565.319C252.649 561.238 251.186 556.849 249.954 552.768H249.646C248.414 556.849 246.874 561.238 245.334 565.319L239.482 580.95ZM281.459 600.354V545.376H288.235V600.354H281.459ZM334.164 594.04L334.318 600.354H327.542L327.388 593.886H327.157C325.617 597.351 320.997 601.278 313.99 601.278C304.981 601.278 299.591 595.657 299.591 586.417V559.159H306.367V585.57C306.367 591.961 309.37 595.965 315.684 595.965C322.768 595.965 327.388 590.575 327.388 582.952V559.159H334.164V594.04ZM397.22 600.354V573.327C397.22 565.858 392.6 563.548 388.365 563.548C384.053 563.548 378.432 566.474 378.432 575.483V600.354H371.656V573.327C371.656 565.858 367.036 563.548 362.801 563.548C358.489 563.548 352.868 566.474 352.868 575.483V600.354H346.092V565.473L345.938 559.159H352.714L352.868 564.78H353.099C354.639 560.93 360.029 558.235 364.957 558.235C371.502 558.235 375.583 561.469 377.2 565.55H377.354C379.125 561.007 384.438 558.235 390.521 558.235C398.067 558.235 403.996 562.547 403.996 571.941V600.354H397.22ZM415.286 552.999V545.376H422.678V552.999H415.286ZM415.594 600.354V559.159H422.37V600.354H415.594ZM434.558 565.473L434.404 559.159H441.18L441.334 565.627H441.565C443.105 562.085 447.802 558.235 454.809 558.235C463.895 558.235 469.593 563.933 469.593 573.173V600.354H462.817V573.943C462.817 567.552 459.429 563.548 453.115 563.548C445.954 563.548 441.334 568.938 441.334 576.561V600.354H434.558V565.473ZM515.08 594.04L515.234 600.354H508.458L508.304 593.886H508.073C506.533 597.351 501.913 601.278 494.906 601.278C485.897 601.278 480.507 595.657 480.507 586.417V559.159H487.283V585.57C487.283 591.961 490.286 595.965 496.6 595.965C503.684 595.965 508.304 590.575 508.304 582.952V559.159H515.08V594.04ZM578.137 600.354V573.327C578.137 565.858 573.517 563.548 569.282 563.548C564.97 563.548 559.349 566.474 559.349 575.483V600.354H552.573V573.327C552.573 565.858 547.953 563.548 543.718 563.548C539.406 563.548 533.785 566.474 533.785 575.483V600.354H527.009V565.473L526.855 559.159H533.631L533.785 564.78H534.016C535.556 560.93 540.946 558.235 545.874 558.235C552.419 558.235 556.5 561.469 558.117 565.55H558.271C560.042 561.007 565.355 558.235 571.438 558.235C578.984 558.235 584.913 562.547 584.913 571.941V600.354H578.137Z" fill="white"/>
<path d="M154.627 706.478C164.791 706.478 172.183 712.022 172.183 721.493C172.183 729.424 168.487 734.66 161.788 740.666L144.232 756.605V756.913H173.338V762.765H135.762V755.989L157.245 736.046C162.404 731.195 165.33 727.345 165.33 721.878C165.33 715.718 160.787 712.33 154.627 712.33C148.544 712.33 143.154 715.795 142.615 723.341H135.762C136.532 711.637 144.694 706.478 154.627 706.478ZM177.166 744.362L202.961 707.787H210.276V744.67H218.515V750.522H210.276V762.765H203.423V750.522H177.166V744.362ZM203.962 716.334H203.654C200.574 721.724 196.955 726.652 192.874 732.427L184.019 744.67H203.423V731.734C203.423 728.269 203.577 721.108 203.962 716.334ZM226.898 752.678H235.676V762.765H226.898V752.678ZM241.566 713.639V707.787H276.986V712.946L253.193 762.765H245.724L269.286 713.639H241.566ZM302.095 764.074C292.316 764.074 284.308 760.224 282.999 749.444H289.852C291.084 756.066 296.166 758.222 302.095 758.222C309.795 758.222 315.647 752.447 315.647 744.67C315.647 736.893 311.181 731.041 302.788 731.041C297.398 731.041 293.471 733.428 291.392 737.509H284.308L289.159 707.787H320.344V713.639H294.857L292.085 729.732H292.393C294.395 727.345 299.015 725.189 303.943 725.189C315.185 725.189 322.577 733.197 322.577 744.67C322.577 756.143 313.876 764.074 302.095 764.074ZM333.398 707.864H340.482V731.349H369.049V707.864H376.133V762.765H369.049V737.355H340.482V762.765H333.398V707.864ZM413.527 728.038L404.287 715.872H409.292L416.145 725.266L422.998 715.872H428.003L418.686 728.038L428.465 740.666H423.46L416.145 730.81L408.753 740.666H403.825L413.527 728.038ZM482.061 721.185C482.061 715.025 477.056 712.33 471.435 712.33C465.968 712.33 460.886 714.409 460.039 721.262H453.186C454.11 710.713 461.348 706.478 471.435 706.478C481.907 706.478 488.991 711.791 488.991 720.261C488.991 727.807 484.14 731.888 480.29 733.197V733.351C485.603 734.814 491.147 738.972 491.147 747.904C491.147 758.222 482.446 764.074 471.435 764.074C459.269 764.074 452.031 759.223 451.723 748.058H458.576C459.269 755.142 463.966 758.222 471.435 758.222C478.981 758.222 484.217 754.372 484.217 747.134C484.217 740.358 479.366 736.662 471.974 736.662H467.431V730.502H471.512C477.441 730.502 482.061 727.191 482.061 721.185ZM541.112 735.276C541.112 751.061 535.183 764.074 520.168 764.074C505.153 764.074 499.147 751.061 499.147 735.276C499.147 719.491 505.153 706.478 520.168 706.478C535.183 706.478 541.112 719.491 541.112 735.276ZM534.182 735.276C534.182 722.34 530.409 712.33 520.168 712.33C510.004 712.33 506.077 722.34 506.077 735.276C506.077 748.135 510.004 758.222 520.168 758.222C530.409 758.222 534.182 748.135 534.182 735.276ZM549.573 752.678H558.351V762.765H549.573V752.678ZM587.004 764.074C577.225 764.074 569.217 760.224 567.908 749.444H574.761C575.993 756.066 581.075 758.222 587.004 758.222C594.704 758.222 600.556 752.447 600.556 744.67C600.556 736.893 596.09 731.041 587.697 731.041C582.307 731.041 578.38 733.428 576.301 737.509H569.217L574.068 707.787H605.253V713.639H579.766L576.994 729.732H577.302C579.304 727.345 583.924 725.189 588.852 725.189C600.094 725.189 607.486 733.197 607.486 744.67C607.486 756.143 598.785 764.074 587.004 764.074ZM635.016 762.765H626.546L612.532 707.787H619.616L627.162 738.202C628.548 743.438 629.934 749.444 630.935 754.757H631.243C632.321 749.444 633.784 743.438 635.093 738.202L642.485 707.787H650.955L658.347 738.202C659.656 743.438 661.119 749.444 662.197 754.757H662.505C663.506 749.444 664.892 743.438 666.278 738.202L673.824 707.787H680.908L666.894 762.765H658.424L650.878 732.812C649.569 727.499 648.106 721.955 646.874 716.18H646.566C645.334 721.955 643.871 727.499 642.562 732.812L635.016 762.765ZM286.375 805.038L277.135 792.872H282.14L288.993 802.266L295.846 792.872H300.851L291.534 805.038L301.313 817.666H296.308L288.993 807.81L281.601 817.666H276.673L286.375 805.038ZM354.909 798.185C354.909 792.025 349.904 789.33 344.283 789.33C338.816 789.33 333.734 791.409 332.887 798.262H326.034C326.958 787.713 334.196 783.478 344.283 783.478C354.755 783.478 361.839 788.791 361.839 797.261C361.839 804.807 356.988 808.888 353.138 810.197V810.351C358.451 811.814 363.995 815.972 363.995 824.904C363.995 835.222 355.294 841.074 344.283 841.074C332.117 841.074 324.879 836.223 324.571 825.058H331.424C332.117 832.142 336.814 835.222 344.283 835.222C351.829 835.222 357.065 831.372 357.065 824.134C357.065 817.358 352.214 813.662 344.822 813.662H340.279V807.502H344.36C350.289 807.502 354.909 804.191 354.909 798.185ZM386.383 784.787H391.388V839.765H384.612V799.879H371.368V794.874C381.147 794.104 384.15 792.718 386.383 784.787ZM406.148 839.765V784.787H424.089C439.412 784.787 450.577 793.719 450.577 812.276C450.577 830.833 439.412 839.765 424.089 839.765H406.148ZM423.319 790.793H413.232V833.759H423.319C435.639 833.759 443.493 826.444 443.493 812.276C443.493 798.108 435.639 790.793 423.319 790.793ZM479.238 792.41V784.787H486.63V792.41H479.238ZM479.546 839.765V798.57H486.322V839.765H479.546ZM498.51 804.884L498.356 798.57H505.132L505.286 805.038H505.517C507.057 801.496 511.754 797.646 518.761 797.646C527.847 797.646 533.545 803.344 533.545 812.584V839.765H526.769V813.354C526.769 806.963 523.381 802.959 517.067 802.959C509.906 802.959 505.286 808.349 505.286 815.972V839.765H498.51V804.884Z" fill="white"/>
<path d="M810.171 648.9L810.171 268.328L736.036 187.971L112.754 187.971" stroke="white" stroke-width="7.32623"/>
<path d="M4.27812 645.544L4.2781 268.327L78.4134 187.97L701.695 187.97" stroke="white" stroke-width="7.32623"/>
<path d="M4.18506 503.612L4.1851 873.382L78.3204 953.738L701.602 953.738" stroke="white" stroke-width="7.32623"/>
<path d="M810.074 482.191L810.074 873.383L735.939 953.739L112.657 953.739" stroke="white" stroke-width="7.32623"/>
<path d="M151.391 1348.62V1297.37H132.936V1291.08H177.26V1297.37H158.805V1348.62H151.391ZM215.08 1329.44H181.556C182.281 1338.47 186.874 1344.19 195.336 1344.19C201.219 1344.19 206.055 1341.21 207.425 1335.57H214.275C212.985 1344.76 205.087 1349.59 195.336 1349.59C181.959 1349.59 174.625 1340.89 174.625 1327.03C174.625 1313.17 182.281 1304.54 194.853 1304.54C208.23 1304.54 215.08 1313.33 215.08 1328.72V1329.44ZM181.636 1324.04H208.069C207.263 1315.58 202.75 1309.94 194.853 1309.94C186.955 1309.94 182.442 1315.58 181.636 1324.04ZM217.45 1348.62L233.407 1325.82L218.74 1305.51H227.121L237.839 1321.22L248.154 1305.51H256.294L241.627 1325.82L257.583 1348.62H249.122L237.517 1330.98L225.59 1348.62H217.45ZM267.145 1305.51V1296.32H274.237V1305.51H282.618V1311.07H274.237V1338.95C274.237 1341.77 275.043 1343.06 277.622 1343.06H282.215V1348.62H275.607C269.563 1348.62 267.145 1345.72 267.145 1338.95V1311.07H260.214V1305.51H267.145ZM327.169 1342.02L327.33 1348.62H320.238L320.077 1341.85H319.835C318.224 1345.48 313.388 1349.59 306.055 1349.59C296.626 1349.59 290.985 1343.71 290.985 1334.04V1305.51H298.077V1333.15C298.077 1339.84 301.219 1344.03 307.828 1344.03C315.242 1344.03 320.077 1338.39 320.077 1330.41V1305.51H327.169V1342.02ZM338.847 1312.12L338.686 1305.51H345.778L345.939 1312.28H346.181C347.148 1308.81 351.097 1304.7 357.866 1304.7H359.8V1310.99H356.416C349.646 1310.99 345.939 1316.15 345.939 1324.29V1348.62H338.847V1312.12ZM403.251 1329.44H369.727C370.452 1338.47 375.045 1344.19 383.507 1344.19C389.39 1344.19 394.226 1341.21 395.596 1335.57H402.446C401.156 1344.76 393.258 1349.59 383.507 1349.59C370.13 1349.59 362.796 1340.89 362.796 1327.03C362.796 1313.17 370.452 1304.54 383.024 1304.54C396.401 1304.54 403.251 1313.33 403.251 1328.72V1329.44ZM369.807 1324.04H396.24C395.434 1315.58 390.921 1309.94 383.024 1309.94C375.126 1309.94 370.613 1315.58 369.807 1324.04ZM410.331 1327.03C410.331 1311.96 419.276 1304.54 429.752 1304.54C436.2 1304.54 441.357 1308.01 443.533 1311.23H443.614V1291.08H450.705V1338.15L450.947 1348.62H443.855L443.614 1342.18H443.533C441.841 1346.05 436.522 1349.59 429.591 1349.59C417.987 1349.59 410.331 1341.29 410.331 1327.03ZM444.339 1327.03C444.339 1317.11 439.342 1310.1 430.961 1310.1C422.499 1310.1 417.422 1317.11 417.422 1327.03C417.422 1336.94 422.499 1344.03 430.961 1344.03C439.342 1344.03 444.339 1336.94 444.339 1327.03ZM483.059 1291.08H505.463C517.309 1291.08 524.482 1295.76 524.482 1306.07C524.482 1313.33 519.646 1317.28 516.02 1318.56V1318.89C520.855 1319.69 526.496 1323.96 526.496 1332.59C526.496 1343.22 518.438 1348.62 506.994 1348.62H483.059V1291.08ZM490.473 1315.99H506.591C512.635 1315.99 517.068 1312.6 517.068 1306.64C517.068 1300.75 512.635 1297.37 506.591 1297.37H490.473V1315.99ZM519.082 1332.26C519.082 1325.98 514.731 1322.27 507.8 1322.27H490.473V1342.34H507.8C514.731 1342.34 519.082 1338.55 519.082 1332.26ZM536.222 1348.62V1291.08H543.314V1348.62H536.222ZM571.8 1310.1C565.756 1310.1 561.646 1312.44 561.081 1317.36H553.99C554.393 1308.57 561.243 1304.54 571.8 1304.54C584.049 1304.54 589.529 1309.86 589.529 1318.89V1338.47C589.529 1343.06 589.529 1344.11 589.932 1348.62H582.84C582.518 1345.24 582.437 1344.03 582.437 1341.45H582.196C580.02 1345.4 575.023 1349.59 566.642 1349.59C558.18 1349.59 552.378 1344.76 552.378 1336.29C552.378 1327.35 558.986 1323.56 568.012 1322.43L582.437 1320.58V1318.89C582.437 1312.68 578.569 1310.1 571.8 1310.1ZM559.47 1336.29C559.47 1341.13 562.854 1344.03 568.415 1344.03C574.217 1344.03 582.679 1339.6 582.679 1328.64V1325.98L569.221 1327.75C562.854 1328.56 559.47 1331.38 559.47 1336.29ZM619.689 1310.1C610.663 1310.1 605.908 1317.19 605.908 1327.03C605.908 1336.86 610.582 1344.03 619.689 1344.03C625.572 1344.03 630.407 1341.37 631.455 1335.41H638.547C637.096 1345 629.359 1349.59 619.689 1349.59C606.231 1349.59 598.816 1340.81 598.816 1327.03C598.816 1313.17 606.311 1304.54 619.689 1304.54C630.729 1304.54 636.854 1309.86 638.224 1318.32H631.132C630.004 1313 625.733 1310.1 619.689 1310.1ZM647.11 1291.08H654.202V1324.69L673.624 1305.51H682.166L661.374 1325.74L682.569 1348.62H673.624L654.202 1327.19V1348.62H647.11V1291.08ZM214.096 1389.57C214.096 1398.76 207.729 1407.06 194.755 1407.06H179.846V1429.62H172.431V1372.08H194.755C207.729 1372.08 214.096 1380.3 214.096 1389.57ZM206.682 1389.57C206.682 1383.21 202.33 1378.37 195.56 1378.37H179.846V1400.77H195.56C202.33 1400.77 206.682 1395.94 206.682 1389.57ZM239.17 1430.59C226.115 1430.59 218.539 1421.81 218.539 1408.03C218.539 1394.25 226.115 1385.54 239.17 1385.54C252.225 1385.54 259.801 1394.25 259.801 1408.03C259.801 1421.81 252.225 1430.59 239.17 1430.59ZM239.17 1425.03C248.196 1425.03 252.709 1417.94 252.709 1408.03C252.709 1398.11 248.196 1391.1 239.17 1391.1C230.225 1391.1 225.631 1398.11 225.631 1408.03C225.631 1417.94 230.225 1425.03 239.17 1425.03ZM285.728 1405.93L290.161 1386.51H298.381L302.813 1405.93C304.102 1411.57 305.311 1416.89 306.439 1422.21H306.681C307.971 1416.89 309.341 1411.33 311.033 1405.93L316.997 1386.51H324.169L310.227 1429.62H302.652L297.252 1407.46C296.044 1402.47 295.399 1399.32 294.432 1394.08H294.109C293.142 1399.32 292.498 1402.47 291.289 1407.46L285.889 1429.62H278.314L264.372 1386.51H271.545L277.508 1405.93C279.201 1411.33 280.571 1416.89 281.86 1422.21H282.102C283.23 1416.89 284.439 1411.57 285.728 1405.93ZM328.798 1408.03C328.798 1392.96 337.743 1385.54 348.22 1385.54C354.667 1385.54 359.824 1389.01 362 1392.23H362.081V1372.08H369.173V1419.15L369.414 1429.62H362.323L362.081 1423.18H362C360.308 1427.05 354.989 1430.59 348.058 1430.59C336.454 1430.59 328.798 1422.29 328.798 1408.03ZM362.806 1408.03C362.806 1398.11 357.81 1391.1 349.428 1391.1C340.967 1391.1 335.89 1398.11 335.89 1408.03C335.89 1417.94 340.967 1425.03 349.428 1425.03C357.81 1425.03 362.806 1417.94 362.806 1408.03ZM419.07 1410.44H385.545C386.271 1419.47 390.864 1425.19 399.326 1425.19C405.209 1425.19 410.044 1422.21 411.414 1416.57H418.264C416.975 1425.76 409.077 1430.59 399.326 1430.59C385.948 1430.59 378.615 1421.89 378.615 1408.03C378.615 1394.17 386.271 1385.54 398.842 1385.54C412.22 1385.54 419.07 1394.33 419.07 1409.72V1410.44ZM385.626 1405.04H412.059C411.253 1396.58 406.74 1390.94 398.842 1390.94C390.945 1390.94 386.432 1396.58 385.626 1405.04ZM428.486 1393.12L428.325 1386.51H435.417L435.578 1393.28H435.82C436.787 1389.81 440.736 1385.7 447.505 1385.7H449.439V1391.99H446.055C439.285 1391.99 435.578 1397.15 435.578 1405.29V1429.62H428.486V1393.12ZM517.363 1412.14H524.777C523.649 1424.31 514.381 1430.99 500.6 1430.99C482.307 1430.99 473.764 1418.1 473.764 1400.85C473.764 1383.61 482.307 1370.71 500.6 1370.71C514.462 1370.71 523.326 1376.6 524.455 1388.77H517.041C515.832 1380.14 508.74 1377 500.6 1377C488.029 1377 481.179 1386.35 481.179 1400.85C481.179 1415.28 488.029 1424.71 500.6 1424.71C508.74 1424.71 516.154 1421 517.363 1412.14ZM551.765 1430.59C538.71 1430.59 531.135 1421.81 531.135 1408.03C531.135 1394.25 538.71 1385.54 551.765 1385.54C564.821 1385.54 572.396 1394.25 572.396 1408.03C572.396 1421.81 564.821 1430.59 551.765 1430.59ZM551.765 1425.03C560.791 1425.03 565.304 1417.94 565.304 1408.03C565.304 1398.11 560.791 1391.1 551.765 1391.1C542.82 1391.1 538.226 1398.11 538.226 1408.03C538.226 1417.94 542.82 1425.03 551.765 1425.03ZM598.636 1391.1C592.592 1391.1 588.482 1393.44 587.918 1398.36H580.826C581.229 1389.57 588.079 1385.54 598.636 1385.54C610.886 1385.54 616.366 1390.86 616.366 1399.89V1419.47C616.366 1424.06 616.366 1425.11 616.769 1429.62H609.677C609.355 1426.24 609.274 1425.03 609.274 1422.45H609.032C606.856 1426.4 601.86 1430.59 593.479 1430.59C585.017 1430.59 579.215 1425.76 579.215 1417.29C579.215 1408.35 585.823 1404.56 594.849 1403.43L609.274 1401.58V1399.89C609.274 1393.68 605.406 1391.1 598.636 1391.1ZM586.306 1417.29C586.306 1422.13 589.691 1425.03 595.252 1425.03C601.054 1425.03 609.516 1420.6 609.516 1409.64V1406.98L596.058 1408.75C589.691 1409.56 586.306 1412.38 586.306 1417.29ZM630.738 1386.51V1377.32H637.829V1386.51H646.211V1392.07H637.829V1419.95C637.829 1422.77 638.635 1424.06 641.214 1424.06H645.808V1429.62H639.199C633.155 1429.62 630.738 1426.72 630.738 1419.95V1392.07H623.807V1386.51H630.738Z" fill="white"/>
<path d="M810.171 1440.67L810.171 1060.1L736.036 979.74L112.754 979.74" stroke="white" stroke-width="7.32623"/>
<path d="M4.27812 1437.31L4.2781 1060.1L78.4134 979.74L701.695 979.739" stroke="white" stroke-width="7.32623"/>
<path d="M4.18506 1295.38L4.1851 1665.15L78.3204 1745.51L701.602 1745.51" stroke="white" stroke-width="7.32623"/>
<path d="M810.074 1273.96L810.074 1665.15L735.939 1745.51L112.657 1745.51" stroke="white" stroke-width="7.32623"/>
<path d="M248.457 1822.85H253.457V1877.77H246.688V1837.93H233.456V1832.93C243.226 1832.16 246.226 1830.77 248.457 1822.85ZM284.204 1879.08C272.28 1879.08 264.126 1873.31 264.126 1863.16C264.126 1854.24 269.819 1849.77 275.05 1848.47V1848.31C269.511 1846.31 266.203 1842.08 266.203 1835.85C266.203 1826.08 275.127 1821.54 284.127 1821.54C293.05 1821.54 302.05 1826.08 302.05 1835.85C302.05 1842.08 298.666 1846.31 293.127 1848.31V1848.47C298.358 1849.77 304.051 1854.24 304.051 1863.16C304.051 1873.31 296.05 1879.08 284.204 1879.08ZM273.127 1836.47C273.127 1842.16 278.127 1845.54 284.127 1845.54C290.05 1845.54 295.204 1842.16 295.204 1836.47C295.204 1830.7 290.05 1827.39 284.127 1827.39C278.127 1827.39 273.127 1830.7 273.127 1836.47ZM271.05 1862.31C271.05 1869.54 277.204 1873.24 284.127 1873.24C291.05 1873.24 297.127 1869.54 297.127 1862.31C297.127 1855.16 291.05 1851.39 284.127 1851.39C277.204 1851.39 271.05 1855.16 271.05 1862.31ZM353.083 1850.31C353.083 1866.08 347.159 1879.08 332.159 1879.08C317.158 1879.08 311.158 1866.08 311.158 1850.31C311.158 1834.54 317.158 1821.54 332.159 1821.54C347.159 1821.54 353.083 1834.54 353.083 1850.31ZM346.159 1850.31C346.159 1837.39 342.39 1827.39 332.159 1827.39C322.005 1827.39 318.082 1837.39 318.082 1850.31C318.082 1863.16 322.005 1873.24 332.159 1873.24C342.39 1873.24 346.159 1863.16 346.159 1850.31ZM402.814 1850.31C402.814 1866.08 396.89 1879.08 381.89 1879.08C366.89 1879.08 360.889 1866.08 360.889 1850.31C360.889 1834.54 366.89 1821.54 381.89 1821.54C396.89 1821.54 402.814 1834.54 402.814 1850.31ZM395.89 1850.31C395.89 1837.39 392.121 1827.39 381.89 1827.39C371.736 1827.39 367.813 1837.39 367.813 1850.31C367.813 1863.16 371.736 1873.24 381.89 1873.24C392.121 1873.24 395.89 1863.16 395.89 1850.31ZM431.337 1857.77V1822.85H438.414V1858.31C438.414 1867 443.953 1873.08 452.799 1873.08C461.722 1873.08 467.107 1866.93 467.107 1858.24V1822.85H474.184V1857.7C474.184 1871.39 465.569 1879.08 452.799 1879.08C440.106 1879.08 431.337 1871.47 431.337 1857.77ZM524.853 1837.54H517.776C517.007 1831 512.238 1827.23 504.468 1827.23C496.237 1827.23 491.083 1830.93 491.083 1836.77C491.083 1842 495.699 1844.31 502.699 1845.77L508.699 1847C518.699 1849.08 526.007 1851.77 526.007 1863.24C526.007 1873.01 516.392 1879.08 504.622 1879.08C491.237 1879.08 483.544 1872.77 483.237 1861.47H490.314C490.699 1869 495.853 1873.39 504.622 1873.39C513.161 1873.39 518.776 1869.47 518.853 1863.62C518.93 1857 514.392 1855.16 506.084 1853.47L500.083 1852.24C490.314 1850.24 484.006 1846.39 484.006 1837.31C484.006 1827.85 493.16 1821.54 504.468 1821.54C515.315 1821.54 524.007 1826.31 524.853 1837.54ZM535.922 1877.77V1822.85H553.845C569.153 1822.85 580.308 1831.77 580.308 1850.31C580.308 1868.85 569.153 1877.77 553.845 1877.77H535.922ZM553.076 1828.85H542.999V1871.77H553.076C565.384 1871.77 573.23 1864.47 573.23 1850.31C573.23 1836.16 565.384 1828.85 553.076 1828.85Z" fill="white"/>
<path d="M808.772 1851.73L734.771 1771.51L112.616 1771.51" stroke="white" stroke-width="7.36716"/>
<path d="M5.58461 1853.31L81.0688 1771.51L703.223 1771.51" stroke="white" stroke-width="7.36716"/>
<path d="M808.765 1846.77L732.61 1929.3L110.455 1929.3" stroke="white" stroke-width="7.36716"/>
<path d="M7.06745 1849.09L81.0688 1929.3L703.223 1929.3" stroke="white" stroke-width="7.36716"/>
<path d="M128.31 2056.88C136.156 2056.88 140.849 2054.11 143.31 2051.34V2038.88H126.002V2032.88H150.156V2053.72C145.849 2058.57 138.156 2062.88 128.233 2062.88C110.617 2062.88 102.232 2050.57 102.232 2034.11C102.232 2017.64 109.694 2005.34 127.233 2005.34C140.772 2005.34 148.772 2010.95 149.849 2022.57H142.772C141.618 2014.34 135.002 2011.34 127.233 2011.34C115.309 2011.34 109.309 2020.26 109.309 2034.11C109.309 2047.95 116.002 2056.88 128.31 2056.88ZM161.361 2061.57V2006.64H196.362V2012.64H168.438V2030.34H194.824V2036.34H168.438V2055.57H196.362V2061.57H161.361ZM202.295 2034.11C202.295 2016.95 211.449 2005.34 228.373 2005.34C245.296 2005.34 254.527 2016.95 254.527 2034.11C254.527 2051.26 245.296 2062.88 228.373 2062.88C211.449 2062.88 202.295 2051.26 202.295 2034.11ZM209.372 2034.11C209.372 2047.26 215.757 2056.88 228.373 2056.88C240.989 2056.88 247.45 2047.26 247.45 2034.11C247.45 2020.95 240.989 2011.34 228.373 2011.34C215.757 2011.34 209.372 2020.95 209.372 2034.11ZM305.802 2022.34C305.802 2029.03 301.418 2034.11 296.648 2035.57V2035.88C301.571 2036.72 304.648 2040.95 305.495 2047.49L307.264 2061.57H299.879L298.187 2047.49C297.264 2040.26 293.264 2038.88 285.494 2038.88H272.032V2061.57H265.032V2006.64H287.571C299.725 2006.64 305.802 2013.41 305.802 2022.34ZM298.802 2022.72C298.802 2016.41 294.648 2012.64 286.956 2012.64H272.032V2032.88H286.802C294.494 2032.88 298.802 2029.03 298.802 2022.72ZM340.531 2056.88C348.377 2056.88 353.069 2054.11 355.531 2051.34V2038.88H338.223V2032.88H362.377V2053.72C358.07 2058.57 350.377 2062.88 340.454 2062.88C322.838 2062.88 314.453 2050.57 314.453 2034.11C314.453 2017.64 321.915 2005.34 339.454 2005.34C352.992 2005.34 360.993 2010.95 362.07 2022.57H354.993C353.839 2014.34 347.223 2011.34 339.454 2011.34C327.53 2011.34 321.53 2020.26 321.53 2034.11C321.53 2047.95 328.222 2056.88 340.531 2056.88ZM373.582 2061.57V2006.64H408.583V2012.64H380.659V2030.34H407.045V2036.34H380.659V2055.57H408.583V2061.57H373.582ZM456.066 2061.57V2006.64H473.99C489.298 2006.64 500.452 2015.57 500.452 2034.11C500.452 2052.65 489.298 2061.57 473.99 2061.57H456.066ZM473.221 2012.64H463.144V2055.57H473.221C485.529 2055.57 493.375 2048.26 493.375 2034.11C493.375 2019.95 485.529 2012.64 473.221 2012.64ZM503.013 2061.57L523.783 2006.72H532.168L552.938 2061.57H545.476L540.476 2048.18H515.475L510.475 2061.57H503.013ZM517.706 2042.18H538.245L532.399 2026.57C530.86 2022.49 529.399 2018.11 528.168 2014.03H527.86C526.629 2018.11 525.091 2022.49 523.552 2026.57L517.706 2042.18ZM570.727 2061.57L550.727 2006.64H558.188L569.497 2038.34C571.266 2043.41 573.42 2049.49 574.804 2054.18H575.112C576.497 2049.49 578.574 2043.41 580.343 2038.34L591.728 2006.64H599.113L579.112 2061.57H570.727ZM607.063 2006.64H614.14V2061.57H607.063V2006.64ZM628.097 2061.57V2006.64H663.098V2012.64H635.174V2030.34H661.559V2036.34H635.174V2055.57H663.098V2061.57H628.097ZM711.458 2021.34H704.38C703.611 2014.8 698.842 2011.03 691.072 2011.03C682.841 2011.03 677.687 2014.72 677.687 2020.57C677.687 2025.8 682.303 2028.11 689.303 2029.57L695.303 2030.8C705.304 2032.88 712.611 2035.57 712.611 2047.03C712.611 2056.8 702.996 2062.88 691.226 2062.88C677.841 2062.88 670.149 2056.57 669.841 2045.26H676.918C677.303 2052.8 682.457 2057.18 691.226 2057.18C699.765 2057.18 705.38 2053.26 705.457 2047.41C705.534 2040.8 700.996 2038.95 692.688 2037.26L686.688 2036.03C676.918 2034.03 670.61 2030.18 670.61 2021.11C670.61 2011.64 679.764 2005.34 691.072 2005.34C701.919 2005.34 710.611 2010.11 711.458 2021.34Z" fill="white"/>
<path d="M808.772 2035.52L734.771 1955.31L112.616 1955.31" stroke="white" stroke-width="7.36716"/>
<path d="M5.58461 2037.1L81.0688 1955.3L703.223 1955.3" stroke="white" stroke-width="7.36716"/>
<path d="M808.765 2030.56L732.61 2113.1L110.455 2113.1" stroke="white" stroke-width="7.36716"/>
<path d="M7.06745 2032.88L81.0688 2113.1L703.223 2113.1" stroke="white" stroke-width="7.36716"/>
</svg>
