<svg width="814" height="1326" viewBox="0 0 814 1326" fill="none" xmlns="http://www.w3.org/2000/svg">
<path d="M294.732 106.218C302.578 106.218 307.271 103.448 309.732 100.679V88.2172H292.424V82.217H316.579V103.064C312.271 107.91 304.578 112.218 294.655 112.218C277.039 112.218 268.654 99.9098 268.654 83.4478C268.654 66.9858 276.116 54.6777 293.655 54.6777C307.194 54.6777 315.194 60.2933 316.271 71.909H309.194C308.04 63.678 301.424 60.6779 293.655 60.6779C281.731 60.6779 275.731 69.6012 275.731 83.4478C275.731 97.2944 282.424 106.218 294.732 106.218ZM327.783 110.91V55.9854H345.707C361.015 55.9854 372.169 64.9088 372.169 83.4478C372.169 101.987 361.015 110.91 345.707 110.91H327.783ZM344.938 61.9856H334.86V104.91H344.938C357.246 104.91 365.092 97.6021 365.092 83.4478C365.092 69.2935 357.246 61.9856 344.938 61.9856ZM380.163 93.0635V87.5248H402.163V93.0635H380.163ZM451.259 70.6782H444.182C443.413 64.1395 438.644 60.3702 430.874 60.3702C422.643 60.3702 417.489 64.0626 417.489 69.9089C417.489 75.1399 422.105 77.4476 429.105 78.9092L435.105 80.14C445.105 82.217 452.413 84.9094 452.413 96.3713C452.413 106.141 442.797 112.218 431.028 112.218C417.643 112.218 409.95 105.91 409.643 94.602H416.72C417.104 102.141 422.258 106.525 431.028 106.525C439.567 106.525 445.182 102.602 445.259 96.7559C445.336 90.1403 440.797 88.2941 432.489 86.6017L426.489 85.3709C416.72 83.3709 410.412 79.5246 410.412 70.4474C410.412 60.9856 419.566 54.6777 430.874 54.6777C441.721 54.6777 450.413 59.4471 451.259 70.6782ZM499.713 70.6782H492.636C491.867 64.1395 487.097 60.3702 479.328 60.3702C471.097 60.3702 465.943 64.0626 465.943 69.9089C465.943 75.1399 470.558 77.4476 477.559 78.9092L483.559 80.14C493.559 82.217 500.867 84.9094 500.867 96.3713C500.867 106.141 491.251 112.218 479.482 112.218C466.097 112.218 458.404 105.91 458.097 94.602H465.174C465.558 102.141 470.712 106.525 479.482 106.525C488.021 106.525 493.636 102.602 493.713 96.7559C493.79 90.1403 489.251 88.2941 480.943 86.6017L474.943 85.3709C465.174 83.3709 458.866 79.5246 458.866 70.4474C458.866 60.9856 468.02 54.6777 479.328 54.6777C490.174 54.6777 498.867 59.4471 499.713 70.6782ZM526.09 54.6777C536.244 54.6777 543.629 60.2163 543.629 69.6782C543.629 77.6015 539.936 82.8324 533.244 88.8326L515.705 104.756V105.064H544.782V110.91H507.243V104.141L528.705 84.2171C533.859 79.3707 536.782 75.5245 536.782 70.0628C536.782 63.9088 532.244 60.524 526.09 60.524C520.013 60.524 514.628 63.9857 514.089 71.5244H507.243C508.012 59.8317 516.166 54.6777 526.09 54.6777Z" fill="white"/>
<path d="M808.272 84.8613L734.271 4.64997L112.116 4.65" stroke="white" stroke-width="7.36716"/>
<path d="M5.08486 86.4433L80.569 4.64497L702.724 4.64494" stroke="white" stroke-width="7.36716"/>
<path d="M808.265 79.9034L732.11 162.439L109.956 162.439" stroke="white" stroke-width="7.36716"/>
<path d="M6.56769 82.2265L80.5691 162.438L702.724 162.438" stroke="white" stroke-width="7.36716"/>
<path d="M151.863 298.874H174.267C186.113 298.874 193.286 303.548 193.286 313.863C193.286 321.116 188.45 325.065 184.824 326.355V326.677C189.659 327.483 195.3 331.754 195.3 340.377C195.3 351.015 187.241 356.414 175.798 356.414H151.863V298.874ZM159.277 323.776H175.395C181.439 323.776 185.871 320.391 185.871 314.427C185.871 308.544 181.439 305.16 175.395 305.16H159.277V323.776ZM187.886 340.055C187.886 333.769 183.534 330.062 176.604 330.062H159.277V350.128H176.604C183.534 350.128 187.886 346.341 187.886 340.055ZM205.187 319.907L205.026 313.299H212.118L212.279 320.069H212.521C213.488 316.603 217.437 312.493 224.206 312.493H226.14V318.779H222.756C215.986 318.779 212.279 323.937 212.279 332.076V356.414H205.187V319.907ZM248.552 317.893C242.508 317.893 238.398 320.23 237.834 325.146H230.742C231.145 316.362 237.995 312.332 248.552 312.332C260.802 312.332 266.282 317.651 266.282 326.677V346.26C266.282 350.853 266.282 351.901 266.685 356.414H259.593C259.271 353.029 259.19 351.821 259.19 349.242H258.948C256.772 353.191 251.776 357.381 243.395 357.381C234.933 357.381 229.13 352.546 229.13 344.084C229.13 335.139 235.739 331.351 244.765 330.223L259.19 328.369V326.677C259.19 320.472 255.322 317.893 248.552 317.893ZM236.222 344.084C236.222 348.919 239.607 351.821 245.168 351.821C250.97 351.821 259.432 347.388 259.432 336.428V333.769L245.973 335.542C239.607 336.348 236.222 339.168 236.222 344.084ZM277.745 298.874H284.837V332.479L304.258 313.299H312.801L292.009 333.527L313.204 356.414H304.258L284.837 334.978V356.414H277.745V298.874ZM354.823 337.234H321.298C322.024 346.26 326.617 351.982 335.079 351.982C340.962 351.982 345.797 349 347.167 343.359H354.017C352.728 352.546 344.83 357.381 335.079 357.381C321.701 357.381 314.368 348.678 314.368 334.816C314.368 320.955 322.024 312.332 334.596 312.332C347.973 312.332 354.823 321.116 354.823 336.509V337.234ZM321.379 331.835H347.812C347.006 323.373 342.493 317.732 334.596 317.732C326.698 317.732 322.185 323.373 321.379 331.835ZM384.814 298.874H421.16V305.16H392.228V324.501H419.548V330.787H392.228V356.414H384.814V298.874ZM447.146 357.381C434.09 357.381 426.515 348.597 426.515 334.816C426.515 321.036 434.09 312.332 447.146 312.332C460.201 312.332 467.776 321.036 467.776 334.816C467.776 348.597 460.201 357.381 447.146 357.381ZM447.146 351.821C456.172 351.821 460.684 344.729 460.684 334.816C460.684 324.904 456.172 317.893 447.146 317.893C438.2 317.893 433.607 324.904 433.607 334.816C433.607 344.729 438.2 351.821 447.146 351.821ZM477.174 319.907L477.012 313.299H484.104L484.265 320.069H484.507C485.474 316.603 489.423 312.493 496.193 312.493H498.127V318.779H494.742C487.972 318.779 484.265 323.937 484.265 332.076V356.414H477.174V319.907ZM559.095 356.414V328.128C559.095 320.31 554.26 317.893 549.827 317.893C545.314 317.893 539.431 320.955 539.431 330.384V356.414H532.34V328.128C532.34 320.31 527.504 317.893 523.072 317.893C518.559 317.893 512.676 320.955 512.676 330.384V356.414H505.584V319.907L505.423 313.299H512.515L512.676 319.182H512.918C514.53 315.153 520.171 312.332 525.328 312.332C532.178 312.332 536.45 315.717 538.142 319.988H538.303C540.157 315.233 545.717 312.332 552.084 312.332C559.981 312.332 566.187 316.845 566.187 326.677V356.414H559.095ZM615.477 337.234H581.952C582.677 346.26 587.271 351.982 595.733 351.982C601.615 351.982 606.451 349 607.821 343.359H614.671C613.381 352.546 605.484 357.381 595.733 357.381C582.355 357.381 575.021 348.678 575.021 334.816C575.021 320.955 582.677 312.332 595.249 312.332C608.627 312.332 615.477 321.116 615.477 336.509V337.234ZM582.032 331.835H608.465C607.66 323.373 603.147 317.732 595.249 317.732C587.351 317.732 582.838 323.373 582.032 331.835ZM622.556 334.816C622.556 319.746 631.501 312.332 641.978 312.332C648.425 312.332 653.582 315.797 655.758 319.021H655.839V298.874H662.931V345.938L663.173 356.414H656.081L655.839 349.967H655.758C654.066 353.835 648.747 357.381 641.817 357.381C630.212 357.381 622.556 349.081 622.556 334.816ZM656.564 334.816C656.564 324.904 651.568 317.893 643.187 317.893C634.725 317.893 629.648 324.904 629.648 334.816C629.648 344.729 634.725 351.821 643.187 351.821C651.568 351.821 656.564 344.729 656.564 334.816ZM261.583 395.266H254.169C253.363 388.416 248.367 384.467 240.227 384.467C231.604 384.467 226.205 388.336 226.205 394.46C226.205 399.94 231.04 402.358 238.374 403.889L244.66 405.179C255.136 407.355 262.792 410.175 262.792 422.183C262.792 432.418 252.719 438.784 240.389 438.784C226.366 438.784 218.307 432.176 217.985 420.329H225.399C225.802 428.227 231.202 432.821 240.389 432.821C249.334 432.821 255.217 428.711 255.297 422.586C255.378 415.655 250.623 413.721 241.92 411.948L235.634 410.659C225.399 408.563 218.791 404.534 218.791 395.025C218.791 385.112 228.381 378.504 240.227 378.504C251.59 378.504 260.697 383.5 261.583 395.266ZM274.79 394.299V385.112H281.882V394.299H290.263V399.86H281.882V427.743C281.882 430.564 282.688 431.853 285.267 431.853H289.86V437.414H283.252C277.208 437.414 274.79 434.513 274.79 427.743V399.86H267.86V394.299H274.79ZM316.465 438.381C303.409 438.381 295.834 429.597 295.834 415.816C295.834 402.036 303.409 393.332 316.465 393.332C329.52 393.332 337.095 402.036 337.095 415.816C337.095 429.597 329.52 438.381 316.465 438.381ZM316.465 432.821C325.491 432.821 330.004 425.729 330.004 415.816C330.004 405.904 325.491 398.893 316.465 398.893C307.519 398.893 302.926 405.904 302.926 415.816C302.926 425.729 307.519 432.821 316.465 432.821ZM364.786 438.381C351.731 438.381 344.156 429.597 344.156 415.816C344.156 402.036 351.731 393.332 364.786 393.332C377.842 393.332 385.417 402.036 385.417 415.816C385.417 429.597 377.842 438.381 364.786 438.381ZM364.786 432.821C373.812 432.821 378.325 425.729 378.325 415.816C378.325 405.904 373.812 398.893 364.786 398.893C355.841 398.893 351.248 405.904 351.248 415.816C351.248 425.729 355.841 432.821 364.786 432.821ZM394.653 437.414V379.874H401.745V437.414H394.653ZM473.128 395.266H465.714C464.908 388.416 459.912 384.467 451.772 384.467C443.149 384.467 437.75 388.336 437.75 394.46C437.75 399.94 442.585 402.358 449.919 403.889L456.205 405.179C466.681 407.355 474.337 410.175 474.337 422.183C474.337 432.418 464.263 438.784 451.933 438.784C437.911 438.784 429.852 432.176 429.53 420.329H436.944C437.347 428.227 442.746 432.821 451.933 432.821C460.879 432.821 466.762 428.711 466.842 422.586C466.923 415.655 462.168 413.721 453.465 411.948L447.179 410.659C436.944 408.563 430.336 404.534 430.336 395.025C430.336 385.112 439.926 378.504 451.772 378.504C463.135 378.504 472.242 383.5 473.128 395.266ZM521.391 418.234H487.866C488.592 427.26 493.185 432.982 501.647 432.982C507.53 432.982 512.365 430 513.735 424.359H520.585C519.296 433.546 511.398 438.381 501.647 438.381C488.269 438.381 480.936 429.678 480.936 415.816C480.936 401.955 488.592 393.332 501.163 393.332C514.541 393.332 521.391 402.116 521.391 417.509V418.234ZM487.947 412.835H514.38C513.574 404.373 509.061 398.732 501.163 398.732C493.266 398.732 488.753 404.373 487.947 412.835ZM547.65 398.893C541.606 398.893 537.496 401.23 536.932 406.146H529.84C530.243 397.362 537.093 393.332 547.65 393.332C559.9 393.332 565.38 398.651 565.38 407.677V427.26C565.38 431.853 565.38 432.901 565.783 437.414H558.691C558.369 434.029 558.288 432.821 558.288 430.242H558.046C555.871 434.191 550.874 438.381 542.493 438.381C534.031 438.381 528.229 433.546 528.229 425.084C528.229 416.139 534.837 412.351 543.863 411.223L558.288 409.369V407.677C558.288 401.472 554.42 398.893 547.65 398.893ZM535.32 425.084C535.32 429.919 538.705 432.821 544.266 432.821C550.068 432.821 558.53 428.388 558.53 417.428V414.769L545.072 416.542C538.705 417.348 535.32 420.168 535.32 425.084ZM579.752 394.299V385.112H586.844V394.299H595.225V399.86H586.844V427.743C586.844 430.564 587.649 431.853 590.228 431.853H594.822V437.414H588.214C582.169 437.414 579.752 434.513 579.752 427.743V399.86H572.821V394.299H579.752Z" fill="white"/>
<path d="M224.275 600.824L245.065 545.923H253.458L274.248 600.824H266.779L261.774 587.426H236.749L231.744 600.824H224.275ZM238.982 581.42H259.541L253.689 565.789C252.149 561.708 250.686 557.319 249.454 553.238H249.146C247.914 557.319 246.374 561.708 244.834 565.789L238.982 581.42ZM280.959 600.824V545.846H287.735V600.824H280.959ZM333.664 594.51L333.818 600.824H327.042L326.888 594.356H326.657C325.117 597.821 320.497 601.748 313.49 601.748C304.481 601.748 299.091 596.127 299.091 586.887V559.629H305.867V586.04C305.867 592.431 308.87 596.435 315.184 596.435C322.268 596.435 326.888 591.045 326.888 583.422V559.629H333.664V594.51ZM396.72 600.824V573.797C396.72 566.328 392.1 564.018 387.865 564.018C383.553 564.018 377.932 566.944 377.932 575.953V600.824H371.156V573.797C371.156 566.328 366.536 564.018 362.301 564.018C357.989 564.018 352.368 566.944 352.368 575.953V600.824H345.592V565.943L345.438 559.629H352.214L352.368 565.25H352.599C354.139 561.4 359.529 558.705 364.457 558.705C371.002 558.705 375.083 561.939 376.7 566.02H376.854C378.625 561.477 383.938 558.705 390.021 558.705C397.567 558.705 403.496 563.017 403.496 572.411V600.824H396.72ZM414.786 553.469V545.846H422.178V553.469H414.786ZM415.094 600.824V559.629H421.87V600.824H415.094ZM434.058 565.943L433.904 559.629H440.68L440.834 566.097H441.065C442.605 562.555 447.302 558.705 454.309 558.705C463.395 558.705 469.093 564.403 469.093 573.643V600.824H462.317V574.413C462.317 568.022 458.929 564.018 452.615 564.018C445.454 564.018 440.834 569.408 440.834 577.031V600.824H434.058V565.943ZM514.58 594.51L514.734 600.824H507.958L507.804 594.356H507.573C506.033 597.821 501.413 601.748 494.406 601.748C485.397 601.748 480.007 596.127 480.007 586.887V559.629H486.783V586.04C486.783 592.431 489.786 596.435 496.1 596.435C503.184 596.435 507.804 591.045 507.804 583.422V559.629H514.58V594.51ZM577.637 600.824V573.797C577.637 566.328 573.017 564.018 568.782 564.018C564.47 564.018 558.849 566.944 558.849 575.953V600.824H552.073V573.797C552.073 566.328 547.453 564.018 543.218 564.018C538.906 564.018 533.285 566.944 533.285 575.953V600.824H526.509V565.943L526.355 559.629H533.131L533.285 565.25H533.516C535.056 561.4 540.446 558.705 545.374 558.705C551.919 558.705 556 561.939 557.617 566.02H557.771C559.542 561.477 564.855 558.705 570.938 558.705C578.484 558.705 584.413 563.017 584.413 572.411V600.824H577.637Z" fill="white"/>
<path d="M155.856 708.256H160.861V763.234H154.085V723.348H140.841V718.343C150.62 717.573 153.623 716.187 155.856 708.256ZM169.923 714.108V708.256H205.343V713.415L181.55 763.234H174.081L197.643 714.108H169.923ZM206.725 753.147H215.503V763.234H206.725V753.147ZM221.393 714.108V708.256H256.813V713.415L233.02 763.234H225.551L249.113 714.108H221.393ZM281.922 764.543C272.143 764.543 264.135 760.693 262.826 749.913H269.679C270.911 756.535 275.993 758.691 281.922 758.691C289.622 758.691 295.474 752.916 295.474 745.139C295.474 737.362 291.008 731.51 282.615 731.51C277.225 731.51 273.298 733.897 271.219 737.978H264.135L268.986 708.256H300.171V714.108H274.684L271.912 730.201H272.22C274.222 727.814 278.842 725.658 283.77 725.658C295.012 725.658 302.404 733.666 302.404 745.139C302.404 756.612 293.703 764.543 281.922 764.543ZM313.226 708.333H320.31V731.818H348.877V708.333H355.961V763.234H348.877V737.824H320.31V763.234H313.226V708.333ZM393.355 728.507L384.115 716.341H389.12L395.973 725.735L402.826 716.341H407.831L398.514 728.507L408.293 741.135H403.288L395.973 731.279L388.581 741.135H383.653L393.355 728.507ZM446.874 708.256H451.879V763.234H445.103V723.348H431.859V718.343C441.638 717.573 444.641 716.187 446.874 708.256ZM460.941 714.108V708.256H496.361V713.415L472.568 763.234H465.099L488.661 714.108H460.941ZM497.743 753.147H506.521V763.234H497.743V753.147ZM534.635 706.947C544.799 706.947 552.191 712.491 552.191 721.962C552.191 729.893 548.495 735.129 541.796 741.135L524.24 757.074V757.382H553.346V763.234H515.77V756.458L537.253 736.515C542.412 731.664 545.338 727.814 545.338 722.347C545.338 716.187 540.795 712.799 534.635 712.799C528.552 712.799 523.162 716.264 522.623 723.81H515.77C516.54 712.106 524.702 706.947 534.635 706.947ZM580.309 764.543C570.53 764.543 562.522 760.693 561.213 749.913H568.066C569.298 756.535 574.38 758.691 580.309 758.691C588.009 758.691 593.861 752.916 593.861 745.139C593.861 737.362 589.395 731.51 581.002 731.51C575.612 731.51 571.685 733.897 569.606 737.978H562.522L567.373 708.256H598.558V714.108H573.071L570.299 730.201H570.607C572.609 727.814 577.229 725.658 582.157 725.658C593.399 725.658 600.791 733.666 600.791 745.139C600.791 756.612 592.09 764.543 580.309 764.543ZM628.322 763.234H619.852L605.838 708.256H612.922L620.468 738.671C621.854 743.907 623.24 749.913 624.241 755.226H624.549C625.627 749.913 627.09 743.907 628.399 738.671L635.791 708.256H644.261L651.653 738.671C652.962 743.907 654.425 749.913 655.503 755.226H655.811C656.812 749.913 658.198 743.907 659.584 738.671L667.13 708.256H674.214L660.2 763.234H651.73L644.184 733.281C642.875 727.968 641.412 722.424 640.18 716.649H639.872C638.64 722.424 637.177 727.968 635.868 733.281L628.322 763.234ZM285.49 805.507L276.25 793.341H281.255L288.108 802.735L294.961 793.341H299.966L290.649 805.507L300.428 818.135H295.423L288.108 808.279L280.716 818.135H275.788L285.49 805.507ZM339.009 785.256H344.014V840.234H337.238V800.348H323.994V795.343C333.773 794.573 336.776 793.187 339.009 785.256ZM384.647 798.654C384.647 792.494 379.642 789.799 374.021 789.799C368.554 789.799 363.472 791.878 362.625 798.731H355.772C356.696 788.182 363.934 783.947 374.021 783.947C384.493 783.947 391.577 789.26 391.577 797.73C391.577 805.276 386.726 809.357 382.876 810.666V810.82C388.189 812.283 393.733 816.441 393.733 825.373C393.733 835.691 385.032 841.543 374.021 841.543C361.855 841.543 354.617 836.692 354.309 825.527H361.162C361.855 832.611 366.552 835.691 374.021 835.691C381.567 835.691 386.803 831.841 386.803 824.603C386.803 817.827 381.952 814.131 374.56 814.131H370.017V807.971H374.098C380.027 807.971 384.647 804.66 384.647 798.654ZM405.263 840.234V785.256H423.204C438.527 785.256 449.692 794.188 449.692 812.745C449.692 831.302 438.527 840.234 423.204 840.234H405.263ZM422.434 791.262H412.347V834.228H422.434C434.754 834.228 442.608 826.913 442.608 812.745C442.608 798.577 434.754 791.262 422.434 791.262ZM478.353 792.879V785.256H485.745V792.879H478.353ZM478.661 840.234V799.039H485.437V840.234H478.661ZM497.625 805.353L497.471 799.039H504.247L504.401 805.507H504.632C506.172 801.965 510.869 798.115 517.876 798.115C526.962 798.115 532.66 803.813 532.66 813.053V840.234H525.884V813.823C525.884 807.432 522.496 803.428 516.182 803.428C509.021 803.428 504.401 808.818 504.401 816.441V840.234H497.625V805.353Z" fill="white"/>
<path d="M809.671 649.37L809.671 268.797L735.536 188.44L112.254 188.44" stroke="white" stroke-width="7.32623"/>
<path d="M3.77836 646.014L3.77834 268.796L77.9137 188.44L701.195 188.44" stroke="white" stroke-width="7.32623"/>
<path d="M3.68506 504.082L3.6851 873.851L77.8204 954.208L701.102 954.208" stroke="white" stroke-width="7.32623"/>
<path d="M809.574 482.661L809.574 873.852L735.438 954.209L112.157 954.209" stroke="white" stroke-width="7.32623"/>
<path d="M268.207 1087.78C258.437 1087.78 250.437 1083.94 249.129 1073.17H255.976C257.207 1079.78 262.284 1081.94 268.207 1081.94C275.899 1081.94 281.746 1076.17 281.746 1068.4C281.746 1060.63 277.284 1054.78 268.899 1054.78C263.514 1054.78 259.591 1057.17 257.514 1061.24H250.437L255.283 1031.55H286.438V1037.4H260.976L258.207 1053.47H258.514C260.514 1051.09 265.13 1048.94 270.053 1048.94C281.284 1048.94 288.669 1056.94 288.669 1068.4C288.669 1079.86 279.976 1087.78 268.207 1087.78ZM337.333 1059.01C337.333 1074.78 331.41 1087.78 316.409 1087.78C301.409 1087.78 295.408 1074.78 295.408 1059.01C295.408 1043.24 301.409 1030.24 316.409 1030.24C331.41 1030.24 337.333 1043.24 337.333 1059.01ZM330.41 1059.01C330.41 1046.09 326.64 1036.09 316.409 1036.09C306.255 1036.09 302.332 1046.09 302.332 1059.01C302.332 1071.86 306.255 1081.94 316.409 1081.94C326.64 1081.94 330.41 1071.86 330.41 1059.01ZM387.064 1059.01C387.064 1074.78 381.141 1087.78 366.14 1087.78C351.14 1087.78 345.14 1074.78 345.14 1059.01C345.14 1043.24 351.14 1030.24 366.14 1030.24C381.141 1030.24 387.064 1043.24 387.064 1059.01ZM380.141 1059.01C380.141 1046.09 376.371 1036.09 366.14 1036.09C355.986 1036.09 352.063 1046.09 352.063 1059.01C352.063 1071.86 355.986 1081.94 366.14 1081.94C376.371 1081.94 380.141 1071.86 380.141 1059.01ZM415.587 1066.47V1031.55H422.664V1067.01C422.664 1075.71 428.203 1081.78 437.049 1081.78C445.972 1081.78 451.357 1075.63 451.357 1066.94V1031.55H458.434V1066.4C458.434 1080.09 449.819 1087.78 437.049 1087.78C424.356 1087.78 415.587 1080.17 415.587 1066.47ZM509.104 1046.24H502.026C501.257 1039.7 496.488 1035.93 488.718 1035.93C480.487 1035.93 475.333 1039.63 475.333 1045.47C475.333 1050.7 479.949 1053.01 486.949 1054.47L492.949 1055.7C502.95 1057.78 510.257 1060.47 510.257 1071.94C510.257 1081.71 500.642 1087.78 488.872 1087.78C475.487 1087.78 467.795 1081.47 467.487 1070.17H474.564C474.949 1077.71 480.103 1082.09 488.872 1082.09C497.411 1082.09 503.026 1078.17 503.103 1072.32C503.18 1065.7 498.642 1063.86 490.334 1062.17L484.334 1060.94C474.564 1058.94 468.256 1055.09 468.256 1046.01C468.256 1036.55 477.41 1030.24 488.718 1030.24C499.565 1030.24 508.257 1035.01 509.104 1046.24ZM520.172 1086.47V1031.55H538.095C553.404 1031.55 564.558 1040.47 564.558 1059.01C564.558 1077.55 553.404 1086.47 538.095 1086.47H520.172ZM537.326 1037.55H527.249V1080.47H537.326C549.634 1080.47 557.481 1073.17 557.481 1059.01C557.481 1044.86 549.634 1037.55 537.326 1037.55Z" fill="white"/>
<path d="M808.272 1060.43L734.271 980.214L112.116 980.214" stroke="white" stroke-width="7.36716"/>
<path d="M5.08486 1062.01L80.569 980.209L702.724 980.209" stroke="white" stroke-width="7.36716"/>
<path d="M808.265 1055.47L732.11 1138L109.956 1138" stroke="white" stroke-width="7.36716"/>
<path d="M6.56769 1057.79L80.5691 1138L702.724 1138" stroke="white" stroke-width="7.36716"/>
<path d="M127.81 1265.58C135.656 1265.58 140.349 1262.81 142.81 1260.04V1247.58H125.502V1241.58H149.656V1262.42C145.349 1267.27 137.656 1271.58 127.733 1271.58C110.117 1271.58 101.732 1259.27 101.732 1242.81C101.732 1226.34 109.194 1214.04 126.733 1214.04C140.272 1214.04 148.272 1219.65 149.349 1231.27H142.272C141.118 1223.04 134.502 1220.04 126.733 1220.04C114.809 1220.04 108.809 1228.96 108.809 1242.81C108.809 1256.65 115.502 1265.58 127.81 1265.58ZM160.861 1270.27V1215.34H195.862V1221.34H167.938V1239.04H194.324V1245.04H167.938V1264.27H195.862V1270.27H160.861ZM201.795 1242.81C201.795 1225.65 210.949 1214.04 227.873 1214.04C244.796 1214.04 254.027 1225.65 254.027 1242.81C254.027 1259.96 244.796 1271.58 227.873 1271.58C210.949 1271.58 201.795 1259.96 201.795 1242.81ZM208.872 1242.81C208.872 1255.96 215.257 1265.58 227.873 1265.58C240.489 1265.58 246.95 1255.96 246.95 1242.81C246.95 1229.65 240.489 1220.04 227.873 1220.04C215.257 1220.04 208.872 1229.65 208.872 1242.81ZM305.302 1231.04C305.302 1237.73 300.918 1242.81 296.148 1244.27V1244.58C301.071 1245.42 304.148 1249.65 304.995 1256.19L306.764 1270.27H299.379L297.687 1256.19C296.764 1248.96 292.764 1247.58 284.994 1247.58H271.532V1270.27H264.532V1215.34H287.071C299.225 1215.34 305.302 1222.11 305.302 1231.04ZM298.302 1231.42C298.302 1225.11 294.148 1221.34 286.456 1221.34H271.532V1241.58H286.302C293.994 1241.58 298.302 1237.73 298.302 1231.42ZM340.031 1265.58C347.877 1265.58 352.569 1262.81 355.031 1260.04V1247.58H337.723V1241.58H361.877V1262.42C357.57 1267.27 349.877 1271.58 339.954 1271.58C322.338 1271.58 313.953 1259.27 313.953 1242.81C313.953 1226.34 321.415 1214.04 338.954 1214.04C352.492 1214.04 360.493 1219.65 361.57 1231.27H354.493C353.339 1223.04 346.723 1220.04 338.954 1220.04C327.03 1220.04 321.03 1228.96 321.03 1242.81C321.03 1256.65 327.722 1265.58 340.031 1265.58ZM373.082 1270.27V1215.34H408.083V1221.34H380.159V1239.04H406.545V1245.04H380.159V1264.27H408.083V1270.27H373.082ZM455.566 1270.27V1215.34H473.49C488.798 1215.34 499.952 1224.27 499.952 1242.81C499.952 1261.35 488.798 1270.27 473.49 1270.27H455.566ZM472.721 1221.34H462.644V1264.27H472.721C485.029 1264.27 492.875 1256.96 492.875 1242.81C492.875 1228.65 485.029 1221.34 472.721 1221.34ZM502.513 1270.27L523.283 1215.42H531.668L552.438 1270.27H544.976L539.976 1256.88H514.975L509.975 1270.27H502.513ZM517.206 1250.88H537.745L531.899 1235.27C530.36 1231.19 528.899 1226.81 527.668 1222.73H527.36C526.129 1226.81 524.591 1231.19 523.052 1235.27L517.206 1250.88ZM570.227 1270.27L550.227 1215.34H557.688L568.997 1247.04C570.766 1252.11 572.92 1258.19 574.304 1262.88H574.612C575.997 1258.19 578.074 1252.11 579.843 1247.04L591.228 1215.34H598.613L578.612 1270.27H570.227ZM606.563 1215.34H613.64V1270.27H606.563V1215.34ZM627.597 1270.27V1215.34H662.598V1221.34H634.674V1239.04H661.059V1245.04H634.674V1264.27H662.598V1270.27H627.597ZM710.958 1230.04H703.88C703.111 1223.5 698.342 1219.73 690.572 1219.73C682.341 1219.73 677.187 1223.42 677.187 1229.27C677.187 1234.5 681.803 1236.81 688.803 1238.27L694.803 1239.5C704.804 1241.58 712.111 1244.27 712.111 1255.73C712.111 1265.5 702.496 1271.58 690.726 1271.58C677.341 1271.58 669.649 1265.27 669.341 1253.96H676.418C676.803 1261.5 681.957 1265.88 690.726 1265.88C699.265 1265.88 704.88 1261.96 704.957 1256.11C705.034 1249.5 700.496 1247.65 692.188 1245.96L686.188 1244.73C676.418 1242.73 670.11 1238.88 670.11 1229.81C670.11 1220.34 679.264 1214.04 690.572 1214.04C701.419 1214.04 710.111 1218.81 710.958 1230.04Z" fill="white"/>
<path d="M808.272 1244.22L734.271 1164.01L112.116 1164.01" stroke="white" stroke-width="7.36716"/>
<path d="M5.08486 1245.8L80.569 1164L702.724 1164" stroke="white" stroke-width="7.36716"/>
<path d="M808.265 1239.26L732.11 1321.8L109.956 1321.8" stroke="white" stroke-width="7.36716"/>
<path d="M6.56769 1241.58L80.5691 1321.8L702.724 1321.8" stroke="white" stroke-width="7.36716"/>
</svg>
